<svg width="856" height="209" viewBox="0 0 1712 418" fill="none" xmlns="http://www.w3.org/2000/svg">
<path d="M1121.63 203C1121.63 200.148 1120.82 197.792 1119.21 195.932C1117.6 193.948 1115.49 192.956 1112.89 192.956C1110.41 192.956 1107.8 194.01 1105.08 196.118C1102.47 198.226 1099.37 200.396 1095.78 202.628C1092.3 204.736 1088.09 205.79 1083.13 205.79C1066.26 205.79 1053.18 201.45 1043.88 192.77C1034.71 184.09 1030.12 170.76 1030.12 152.78C1030.12 115.208 1047.66 96.422 1082.76 96.422C1089.08 96.422 1095.53 97.972 1102.1 101.072C1108.8 104.172 1112.89 105.722 1114.38 105.722C1115.86 105.722 1117.1 104.978 1118.1 103.49C1119.09 101.878 1119.58 100.328 1119.58 98.84H1123.12V136.598H1119.4C1119.4 127.174 1115.68 118.742 1108.24 111.302C1100.92 103.862 1092.43 100.142 1082.76 100.142C1075.32 100.142 1069.67 104.172 1065.83 112.232C1061.99 120.168 1060.06 133.374 1060.06 151.85C1060.06 170.202 1061.99 183.16 1065.83 190.724C1069.8 198.288 1075.56 202.07 1083.13 202.07C1095.03 202.07 1100.98 191.468 1100.98 170.264V156.5H1089.27V152.78H1133.91V156.5H1125.16V203H1121.63ZM1182.34 199.28H1191.64V203H1145.14V199.28H1154.44V82.1H1145.14V78.38H1182.34V199.28ZM1294.93 199.28C1293.69 200.52 1291.33 201.636 1287.86 202.628C1284.39 203.496 1280.36 203.93 1275.77 203.93C1265.6 203.93 1259.22 200.892 1256.61 194.816C1250.41 201.264 1240.93 204.488 1228.15 204.488C1221.33 204.488 1215.69 202.938 1211.23 199.838C1206.89 196.614 1204.72 191.902 1204.72 185.702C1204.72 177.394 1207.94 171.008 1214.39 166.544C1220.84 161.956 1232.12 158.732 1248.24 156.872L1255.68 155.942V146.828C1255.68 136.04 1254.88 128.786 1253.26 125.066C1251.65 121.346 1248.43 119.486 1243.59 119.486C1238.88 119.486 1235.84 120.168 1234.48 121.532C1233.11 122.772 1232.62 124.26 1232.99 125.996C1233.36 127.608 1233.98 129.778 1234.85 132.506C1235.72 135.234 1236.15 137.404 1236.15 139.016C1236.15 142.86 1234.79 146.146 1232.06 148.874C1229.46 151.478 1226.23 152.78 1222.39 152.78C1218.67 152.78 1215.44 151.478 1212.72 148.874C1209.99 146.146 1208.62 142.86 1208.62 139.016C1208.62 132.692 1211.85 127.298 1218.3 122.834C1224.87 118.246 1234.6 115.952 1247.5 115.952C1260.52 115.952 1269.76 118.494 1275.21 123.578C1280.79 128.662 1283.58 137.652 1283.58 150.548V184.028C1283.58 190.6 1284.39 194.754 1286 196.49C1287.61 198.102 1290.59 198.412 1294.93 197.42V199.28ZM1230.57 181.982C1231.19 186.694 1232.93 190.352 1235.78 192.956C1238.63 195.436 1241.92 196.676 1245.64 196.676C1249.48 196.676 1252.83 194.816 1255.68 191.096V159.476L1248.99 160.406C1243.28 161.15 1238.63 163.32 1235.04 166.916C1231.56 170.512 1230.08 175.534 1230.57 181.982ZM1403.72 199.28H1413.02V203H1366.52V199.28H1375.82V147.2C1375.82 138.396 1374.52 132.134 1371.92 128.414C1369.31 124.694 1365.41 122.834 1360.2 122.834C1353.13 122.834 1347.49 126.554 1343.27 133.994V199.28H1352.57V203H1306.07V199.28H1315.37V121.16H1306.07V117.44H1343.27V127.112C1345.63 123.888 1349.29 121.16 1354.25 118.928C1359.33 116.572 1364.79 115.394 1370.62 115.394C1392.69 115.394 1403.72 127.36 1403.72 151.292V199.28ZM1424.1 160.22C1424.1 145.588 1428.38 134.49 1436.93 126.926C1445.49 119.362 1456.34 115.58 1469.48 115.58C1482.75 115.58 1492.61 118.928 1499.06 125.624C1505.5 132.196 1507.8 139.016 1505.94 146.084C1504.95 149.928 1502.84 152.78 1499.61 154.64C1496.51 156.376 1493.1 156.81 1489.38 155.942C1481.57 154.082 1477.67 149.556 1477.67 142.364C1477.67 140.504 1477.85 137.714 1478.22 133.994C1478.72 130.15 1478.91 127.36 1478.78 125.624C1478.66 123.888 1478.29 122.524 1477.67 121.532C1476.43 119.424 1473.51 118.618 1468.92 119.114C1457.76 120.85 1452.18 134.552 1452.18 160.22C1452.18 185.764 1461.3 198.536 1479.53 198.536C1483.74 198.536 1488.02 197.42 1492.36 195.188C1496.7 192.956 1499.92 190.29 1502.03 187.19L1504.64 189.05C1501.78 193.762 1497.51 197.544 1491.8 200.396C1486.1 203.248 1479.71 204.674 1472.64 204.674C1440.28 204.674 1424.1 189.856 1424.1 160.22ZM1601.71 165.8H1545.54C1546.78 187.624 1555.28 198.536 1571.02 198.536C1575.24 198.536 1580.01 197.544 1585.35 195.56C1590.8 193.576 1594.77 190.786 1597.25 187.19L1599.85 189.05C1597.13 193.638 1592.48 197.42 1585.9 200.396C1579.33 203.372 1572.76 204.86 1566.19 204.86C1559.74 204.86 1553.91 204.24 1548.7 203C1543.5 201.636 1538.41 199.404 1533.45 196.304C1528.49 193.204 1524.59 188.554 1521.73 182.354C1519.01 176.154 1517.64 168.652 1517.64 159.848C1517.64 144.844 1521.8 133.746 1530.1 126.554C1538.41 119.238 1548.46 115.58 1560.24 115.58C1572.14 115.58 1582 119.548 1589.81 127.484C1597.75 135.42 1601.71 148.192 1601.71 165.8ZM1545.36 162.08H1575.67C1575.67 150.672 1574.43 140.69 1571.95 132.134C1569.6 123.578 1565.75 119.3 1560.42 119.3C1555.09 119.3 1551.25 123.454 1548.89 131.762C1546.53 139.946 1545.36 149.37 1545.36 160.034V162.08Z" fill="url(#paint0_linear_38_2)"/>
<path d="M1121.63 203H1120.63V204H1121.63V203ZM1119.21 195.932L1118.44 196.563L1118.45 196.575L1118.46 196.587L1119.21 195.932ZM1105.08 196.118L1104.47 195.327L1104.46 195.334L1104.45 195.341L1105.08 196.118ZM1095.78 202.628L1096.3 203.483L1096.3 203.478L1095.78 202.628ZM1043.88 192.77L1043.2 193.496L1043.2 193.501L1043.88 192.77ZM1102.1 101.072L1101.67 101.976L1101.68 101.979L1102.1 101.072ZM1118.1 103.49L1118.93 104.045L1118.94 104.03L1118.95 104.014L1118.1 103.49ZM1119.58 98.84V97.84H1118.58V98.84H1119.58ZM1123.12 98.84H1124.12V97.84H1123.12V98.84ZM1123.12 136.598V137.598H1124.12V136.598H1123.12ZM1119.4 136.598H1118.4V137.598H1119.4V136.598ZM1108.24 111.302L1107.53 112.003L1107.53 112.009L1108.24 111.302ZM1065.83 112.232L1066.73 112.668L1066.73 112.662L1065.83 112.232ZM1065.83 190.724L1064.94 191.177L1064.94 191.189L1065.83 190.724ZM1100.98 156.5H1101.98V155.5H1100.98V156.5ZM1089.27 156.5H1088.27V157.5H1089.27V156.5ZM1089.27 152.78V151.78H1088.27V152.78H1089.27ZM1133.91 152.78H1134.91V151.78H1133.91V152.78ZM1133.91 156.5V157.5H1134.91V156.5H1133.91ZM1125.16 156.5V155.5H1124.16V156.5H1125.16ZM1125.16 203V204H1126.16V203H1125.16ZM1122.63 203C1122.63 199.948 1121.76 197.347 1119.97 195.277L1118.46 196.587C1119.89 198.237 1120.63 200.348 1120.63 203H1122.63ZM1119.99 195.301C1118.18 193.079 1115.79 191.956 1112.89 191.956V193.956C1115.2 193.956 1117.02 194.817 1118.44 196.563L1119.99 195.301ZM1112.89 191.956C1110.12 191.956 1107.3 193.135 1104.47 195.327L1105.69 196.909C1108.31 194.885 1110.7 193.956 1112.89 193.956V191.956ZM1104.45 195.341C1101.88 197.417 1098.82 199.563 1095.25 201.778L1096.3 203.478C1099.93 201.229 1103.06 199.035 1105.71 196.895L1104.45 195.341ZM1095.26 201.773C1091.97 203.767 1087.95 204.79 1083.13 204.79V206.79C1088.23 206.79 1092.64 205.705 1096.3 203.483L1095.26 201.773ZM1083.13 204.79C1066.43 204.79 1053.63 200.496 1044.56 192.039L1043.2 193.501C1052.74 202.404 1066.1 206.79 1083.13 206.79V204.79ZM1044.57 192.044C1035.67 183.621 1031.12 170.604 1031.12 152.78H1029.12C1029.12 170.916 1033.75 184.559 1043.2 193.496L1044.57 192.044ZM1031.12 152.78C1031.12 134.132 1035.47 120.332 1044.01 111.194C1052.53 102.069 1065.38 97.422 1082.76 97.422V95.422C1065.04 95.422 1051.57 100.168 1042.55 109.829C1033.54 119.477 1029.12 133.856 1029.12 152.78H1031.12ZM1082.76 97.422C1088.91 97.422 1095.22 98.93 1101.67 101.976L1102.53 100.168C1095.84 97.014 1089.25 95.422 1082.76 95.422V97.422ZM1101.68 101.979C1105.04 103.534 1107.76 104.707 1109.84 105.495C1110.88 105.888 1111.77 106.19 1112.5 106.395C1113.22 106.595 1113.86 106.722 1114.38 106.722V104.722C1114.14 104.722 1113.72 104.656 1113.04 104.468C1112.38 104.285 1111.55 104.006 1110.55 103.624C1108.53 102.862 1105.86 101.71 1102.52 100.165L1101.68 101.979ZM1114.38 106.722C1116.27 106.722 1117.79 105.746 1118.93 104.045L1117.26 102.935C1116.41 104.21 1115.46 104.722 1114.38 104.722V106.722ZM1118.95 104.014C1120.01 102.287 1120.58 100.557 1120.58 98.84H1118.58C1118.58 100.099 1118.17 101.469 1117.24 102.966L1118.95 104.014ZM1119.58 99.84H1123.12V97.84H1119.58V99.84ZM1122.12 98.84V136.598H1124.12V98.84H1122.12ZM1123.12 135.598H1119.4V137.598H1123.12V135.598ZM1120.4 136.598C1120.4 126.877 1116.55 118.199 1108.95 110.595L1107.53 112.009C1114.81 119.285 1118.4 127.471 1118.4 136.598H1120.4ZM1108.95 110.601C1101.46 102.986 1092.72 99.142 1082.76 99.142V101.142C1092.14 101.142 1100.38 104.738 1107.53 112.003L1108.95 110.601ZM1082.76 99.142C1078.84 99.142 1075.37 100.206 1072.36 102.351C1069.37 104.489 1066.9 107.662 1064.93 111.802L1066.73 112.662C1068.6 108.742 1070.88 105.87 1073.53 103.978C1076.17 102.093 1079.23 101.142 1082.76 101.142V99.142ZM1064.93 111.796C1060.98 119.95 1059.06 133.353 1059.06 151.85H1061.06C1061.06 133.395 1062.99 120.386 1066.73 112.668L1064.93 111.796ZM1059.06 151.85C1059.06 170.217 1060.98 183.385 1064.94 191.177L1066.72 190.271C1062.99 182.935 1061.06 170.187 1061.06 151.85H1059.06ZM1064.94 191.189C1066.99 195.086 1069.53 198.066 1072.58 200.07C1075.64 202.078 1079.17 203.07 1083.13 203.07V201.07C1079.52 201.07 1076.38 200.171 1073.68 198.397C1070.97 196.619 1068.64 193.926 1066.72 190.259L1064.94 191.189ZM1083.13 203.07C1086.26 203.07 1089.04 202.372 1091.45 200.942C1093.86 199.513 1095.83 197.385 1097.39 194.608C1100.49 189.084 1101.98 180.927 1101.98 170.264H1099.98C1099.98 180.805 1098.5 188.551 1095.65 193.629C1094.23 196.153 1092.49 198.001 1090.43 199.222C1088.37 200.443 1085.95 201.07 1083.13 201.07V203.07ZM1101.98 170.264V156.5H1099.98V170.264H1101.98ZM1100.98 155.5H1089.27V157.5H1100.98V155.5ZM1090.27 156.5V152.78H1088.27V156.5H1090.27ZM1089.27 153.78H1133.91V151.78H1089.27V153.78ZM1132.91 152.78V156.5H1134.91V152.78H1132.91ZM1133.91 155.5H1125.16V157.5H1133.91V155.5ZM1124.16 156.5V203H1126.16V156.5H1124.16ZM1125.16 202H1121.63V204H1125.16V202ZM1182.34 199.28H1181.34V200.28H1182.34V199.28ZM1191.64 199.28H1192.64V198.28H1191.64V199.28ZM1191.64 203V204H1192.64V203H1191.64ZM1145.14 203H1144.14V204H1145.14V203ZM1145.14 199.28V198.28H1144.14V199.28H1145.14ZM1154.44 199.28V200.28H1155.44V199.28H1154.44ZM1154.44 82.1H1155.44V81.1H1154.44V82.1ZM1145.14 82.1H1144.14V83.1H1145.14V82.1ZM1145.14 78.38V77.38H1144.14V78.38H1145.14ZM1182.34 78.38H1183.34V77.38H1182.34V78.38ZM1182.34 200.28H1191.64V198.28H1182.34V200.28ZM1190.64 199.28V203H1192.64V199.28H1190.64ZM1191.64 202H1145.14V204H1191.64V202ZM1146.14 203V199.28H1144.14V203H1146.14ZM1145.14 200.28H1154.44V198.28H1145.14V200.28ZM1155.44 199.28V82.1H1153.44V199.28H1155.44ZM1154.44 81.1H1145.14V83.1H1154.44V81.1ZM1146.14 82.1V78.38H1144.14V82.1H1146.14ZM1145.14 79.38H1182.34V77.38H1145.14V79.38ZM1181.34 78.38V199.28H1183.34V78.38H1181.34ZM1294.93 199.28L1295.64 199.987L1295.93 199.694V199.28H1294.93ZM1287.86 202.628L1288.1 203.598L1288.12 203.594L1288.14 203.59L1287.86 202.628ZM1256.61 194.816L1257.53 194.422L1256.94 193.035L1255.89 194.123L1256.61 194.816ZM1211.23 199.838L1210.63 200.641L1210.65 200.65L1210.66 200.659L1211.23 199.838ZM1214.39 166.544L1214.96 167.366L1214.97 167.359L1214.39 166.544ZM1248.24 156.872L1248.36 157.865L1248.37 157.864L1248.24 156.872ZM1255.68 155.942L1255.81 156.934L1256.68 156.825V155.942H1255.68ZM1253.26 125.066L1254.18 124.668L1254.18 124.668L1253.26 125.066ZM1234.48 121.532L1235.15 122.272L1235.17 122.256L1235.19 122.239L1234.48 121.532ZM1232.99 125.996L1232.01 126.206L1232.01 126.213L1232.02 126.221L1232.99 125.996ZM1234.85 132.506L1233.9 132.809L1233.9 132.809L1234.85 132.506ZM1232.06 148.874L1232.77 149.581L1232.77 149.581L1232.06 148.874ZM1212.72 148.874L1212.01 149.581L1212.02 149.589L1212.03 149.597L1212.72 148.874ZM1218.3 122.834L1218.87 123.656L1218.87 123.654L1218.3 122.834ZM1275.21 123.578L1274.53 124.31L1274.54 124.317L1275.21 123.578ZM1286 196.49L1285.27 197.17L1285.28 197.184L1285.29 197.197L1286 196.49ZM1294.93 197.42H1295.93V196.166L1294.71 196.445L1294.93 197.42ZM1230.57 181.982L1229.58 182.059L1229.58 182.086L1229.58 182.112L1230.57 181.982ZM1235.78 192.956L1235.11 193.694L1235.12 193.703L1235.12 193.711L1235.78 192.956ZM1255.68 191.096L1256.48 191.704L1256.68 191.435V191.096H1255.68ZM1255.68 159.476H1256.68V158.328L1255.55 158.486L1255.68 159.476ZM1248.99 160.406L1249.12 161.398L1249.12 161.396L1248.99 160.406ZM1235.04 166.916L1234.33 166.209L1234.32 166.215L1234.32 166.221L1235.04 166.916ZM1294.22 198.573C1293.17 199.621 1291.03 200.682 1287.59 201.666L1288.14 203.59C1291.63 202.59 1294.2 201.419 1295.64 199.987L1294.22 198.573ZM1287.62 201.658C1284.24 202.501 1280.3 202.93 1275.77 202.93V204.93C1280.42 204.93 1284.53 204.491 1288.1 203.598L1287.62 201.658ZM1275.77 202.93C1265.76 202.93 1259.9 199.949 1257.53 194.422L1255.69 195.21C1258.53 201.835 1265.45 204.93 1275.77 204.93V202.93ZM1255.89 194.123C1249.95 200.304 1240.77 203.488 1228.15 203.488V205.488C1241.08 205.488 1250.88 202.224 1257.33 195.509L1255.89 194.123ZM1228.15 203.488C1221.49 203.488 1216.06 201.974 1211.8 199.017L1210.66 200.659C1215.33 203.902 1221.18 205.488 1228.15 205.488V203.488ZM1211.83 199.035C1207.78 196.029 1205.72 191.639 1205.72 185.702H1203.72C1203.72 192.165 1206 197.199 1210.63 200.641L1211.83 199.035ZM1205.72 185.702C1205.72 177.699 1208.8 171.631 1214.96 167.366L1213.82 165.722C1207.09 170.385 1203.72 177.089 1203.72 185.702H1205.72ZM1214.97 167.359C1221.2 162.927 1232.26 159.722 1248.36 157.865L1248.13 155.879C1231.98 157.742 1220.48 160.985 1213.81 165.729L1214.97 167.359ZM1248.37 157.864L1255.81 156.934L1255.56 154.95L1248.12 155.88L1248.37 157.864ZM1256.68 155.942V146.828H1254.68V155.942H1256.68ZM1256.68 146.828C1256.68 141.413 1256.48 136.863 1256.07 133.186C1255.67 129.526 1255.05 126.665 1254.18 124.668L1252.35 125.464C1253.09 127.187 1253.69 129.813 1254.08 133.407C1254.48 136.984 1254.68 141.455 1254.68 146.828H1256.68ZM1254.18 124.668C1253.3 122.63 1251.95 121.062 1250.14 120.015C1248.33 118.975 1246.13 118.486 1243.59 118.486V120.486C1245.89 120.486 1247.72 120.927 1249.14 121.747C1250.55 122.56 1251.62 123.782 1252.35 125.464L1254.18 124.668ZM1243.59 118.486C1241.2 118.486 1239.18 118.659 1237.56 119.022C1235.96 119.381 1234.65 119.95 1233.77 120.825L1235.19 122.239C1235.68 121.75 1236.56 121.296 1238 120.973C1239.42 120.654 1241.28 120.486 1243.59 120.486V118.486ZM1233.81 120.792C1232.19 122.26 1231.56 124.105 1232.01 126.206L1233.97 125.786C1233.67 124.415 1234.04 123.284 1235.15 122.272L1233.81 120.792ZM1232.02 126.221C1232.4 127.871 1233.03 130.071 1233.9 132.809L1235.8 132.203C1234.94 129.485 1234.33 127.344 1233.97 125.771L1232.02 126.221ZM1233.9 132.809C1234.75 135.503 1235.15 137.557 1235.15 139.016H1237.15C1237.15 137.251 1236.68 134.965 1235.8 132.203L1233.9 132.809ZM1235.15 139.016C1235.15 142.594 1233.89 145.626 1231.35 148.167L1232.77 149.581C1235.68 146.666 1237.15 143.126 1237.15 139.016H1235.15ZM1231.35 148.167C1228.95 150.574 1225.98 151.78 1222.39 151.78V153.78C1226.49 153.78 1229.97 152.382 1232.77 149.581L1231.35 148.167ZM1222.39 151.78C1218.93 151.78 1215.95 150.58 1213.41 148.151L1212.03 149.597C1214.94 152.376 1218.41 153.78 1222.39 153.78V151.78ZM1213.42 148.167C1210.88 145.626 1209.62 142.594 1209.62 139.016H1207.62C1207.62 143.126 1209.09 146.666 1212.01 149.581L1213.42 148.167ZM1209.62 139.016C1209.62 133.1 1212.61 127.984 1218.87 123.656L1217.73 122.012C1211.08 126.612 1207.62 132.284 1207.62 139.016H1209.62ZM1218.87 123.654C1225.2 119.235 1234.69 116.952 1247.5 116.952V114.952C1234.51 114.952 1224.54 117.257 1217.72 122.014L1218.87 123.654ZM1247.5 116.952C1260.44 116.952 1269.36 119.488 1274.53 124.31L1275.89 122.846C1270.16 117.5 1260.6 114.952 1247.5 114.952V116.952ZM1274.54 124.317C1279.8 129.114 1282.58 137.744 1282.58 150.548H1284.58C1284.58 137.56 1281.78 128.21 1275.89 122.839L1274.54 124.317ZM1282.58 150.548V184.028H1284.58V150.548H1282.58ZM1282.58 184.028C1282.58 187.347 1282.79 190.099 1283.21 192.263C1283.62 194.399 1284.27 196.095 1285.27 197.17L1286.73 195.81C1286.12 195.149 1285.56 193.9 1285.17 191.882C1284.78 189.892 1284.58 187.281 1284.58 184.028H1282.58ZM1285.29 197.197C1287.31 199.211 1290.78 199.394 1295.15 198.395L1294.71 196.445C1290.4 197.43 1287.92 196.993 1286.71 195.783L1285.29 197.197ZM1293.93 197.42V199.28H1295.93V197.42H1293.93ZM1229.58 182.112C1230.22 187.002 1232.04 190.897 1235.11 193.694L1236.46 192.218C1233.81 189.807 1232.16 186.386 1231.56 181.852L1229.58 182.112ZM1235.12 193.711C1238.16 196.346 1241.67 197.676 1245.64 197.676V195.676C1242.16 195.676 1239.11 194.526 1236.44 192.201L1235.12 193.711ZM1245.64 197.676C1249.86 197.676 1253.48 195.611 1256.48 191.704L1254.89 190.488C1252.18 194.021 1249.1 195.676 1245.64 195.676V197.676ZM1256.68 191.096V159.476H1254.68V191.096H1256.68ZM1255.55 158.486L1248.85 159.416L1249.12 161.396L1255.82 160.466L1255.55 158.486ZM1248.86 159.414C1242.96 160.183 1238.1 162.437 1234.33 166.209L1235.74 167.623C1239.16 164.203 1243.6 162.117 1249.12 161.398L1248.86 159.414ZM1234.32 166.221C1230.59 170.08 1229.06 175.415 1229.58 182.059L1231.57 181.905C1231.09 175.653 1232.54 170.944 1235.76 167.611L1234.32 166.221ZM1403.72 199.28H1402.72V200.28H1403.72V199.28ZM1413.02 199.28H1414.02V198.28H1413.02V199.28ZM1413.02 203V204H1414.02V203H1413.02ZM1366.52 203H1365.52V204H1366.52V203ZM1366.52 199.28V198.28H1365.52V199.28H1366.52ZM1375.82 199.28V200.28H1376.82V199.28H1375.82ZM1343.27 133.994L1342.4 133.501L1342.27 133.73V133.994H1343.27ZM1343.27 199.28H1342.27V200.28H1343.27V199.28ZM1352.57 199.28H1353.57V198.28H1352.57V199.28ZM1352.57 203V204H1353.57V203H1352.57ZM1306.07 203H1305.07V204H1306.07V203ZM1306.07 199.28V198.28H1305.07V199.28H1306.07ZM1315.37 199.28V200.28H1316.37V199.28H1315.37ZM1315.37 121.16H1316.37V120.16H1315.37V121.16ZM1306.07 121.16H1305.07V122.16H1306.07V121.16ZM1306.07 117.44V116.44H1305.07V117.44H1306.07ZM1343.27 117.44H1344.27V116.44H1343.27V117.44ZM1343.27 127.112H1342.27V130.175L1344.08 127.702L1343.27 127.112ZM1354.25 118.928L1354.66 119.84L1354.67 119.835L1354.25 118.928ZM1403.72 200.28H1413.02V198.28H1403.72V200.28ZM1412.02 199.28V203H1414.02V199.28H1412.02ZM1413.02 202H1366.52V204H1413.02V202ZM1367.52 203V199.28H1365.52V203H1367.52ZM1366.52 200.28H1375.82V198.28H1366.52V200.28ZM1376.82 199.28V147.2H1374.82V199.28H1376.82ZM1376.82 147.2C1376.82 138.353 1375.53 131.825 1372.74 127.841L1371.1 128.987C1373.52 132.443 1374.82 138.439 1374.82 147.2H1376.82ZM1372.74 127.841C1369.92 123.811 1365.68 121.834 1360.2 121.834V123.834C1365.14 123.834 1368.71 125.577 1371.1 128.987L1372.74 127.841ZM1360.2 121.834C1352.69 121.834 1346.75 125.825 1342.4 133.501L1344.14 134.487C1348.23 127.283 1353.57 123.834 1360.2 123.834V121.834ZM1342.27 133.994V199.28H1344.27V133.994H1342.27ZM1343.27 200.28H1352.57V198.28H1343.27V200.28ZM1351.57 199.28V203H1353.57V199.28H1351.57ZM1352.57 202H1306.07V204H1352.57V202ZM1307.07 203V199.28H1305.07V203H1307.07ZM1306.07 200.28H1315.37V198.28H1306.07V200.28ZM1316.37 199.28V121.16H1314.37V199.28H1316.37ZM1315.37 120.16H1306.07V122.16H1315.37V120.16ZM1307.07 121.16V117.44H1305.07V121.16H1307.07ZM1306.07 118.44H1343.27V116.44H1306.07V118.44ZM1342.27 117.44V127.112H1344.27V117.44H1342.27ZM1344.08 127.702C1346.3 124.66 1349.8 122.025 1354.66 119.84L1353.84 118.016C1348.77 120.295 1344.96 123.116 1342.47 126.522L1344.08 127.702ZM1354.67 119.835C1359.62 117.543 1364.93 116.394 1370.62 116.394V114.394C1364.65 114.394 1359.05 115.601 1353.83 118.021L1354.67 119.835ZM1370.62 116.394C1381.48 116.394 1389.44 119.334 1394.71 125.046C1399.99 130.774 1402.72 139.461 1402.72 151.292H1404.72C1404.72 139.191 1401.94 129.929 1396.18 123.691C1390.41 117.437 1381.83 114.394 1370.62 114.394V116.394ZM1402.72 151.292V199.28H1404.72V151.292H1402.72ZM1436.93 126.926L1437.59 127.675L1437.59 127.675L1436.93 126.926ZM1499.06 125.624L1498.33 126.318L1498.34 126.324L1499.06 125.624ZM1505.94 146.084L1504.97 145.829L1504.97 145.834L1505.94 146.084ZM1499.61 154.64L1500.1 155.513L1500.11 155.506L1499.61 154.64ZM1489.38 155.942L1489.15 156.915L1489.16 156.916L1489.38 155.942ZM1478.22 133.994L1477.23 133.866L1477.23 133.88L1477.23 133.894L1478.22 133.994ZM1478.78 125.624L1477.78 125.695L1477.78 125.695L1478.78 125.624ZM1477.67 121.532L1476.8 122.039L1476.81 122.051L1476.82 122.062L1477.67 121.532ZM1468.92 119.114L1468.82 118.12L1468.79 118.122L1468.77 118.126L1468.92 119.114ZM1492.36 195.188L1491.9 194.299L1491.9 194.299L1492.36 195.188ZM1502.03 187.19L1502.61 186.376L1501.78 185.781L1501.2 186.628L1502.03 187.19ZM1504.64 189.05L1505.49 189.568L1505.97 188.775L1505.22 188.236L1504.64 189.05ZM1491.8 200.396L1491.35 199.502L1491.8 200.396ZM1425.1 160.22C1425.1 145.788 1429.31 134.999 1437.59 127.675L1436.27 126.177C1427.44 133.981 1423.1 145.388 1423.1 160.22H1425.1ZM1437.59 127.675C1445.94 120.297 1456.54 116.58 1469.48 116.58V114.58C1456.13 114.58 1445.03 118.427 1436.27 126.177L1437.59 127.675ZM1469.48 116.58C1482.59 116.58 1492.14 119.888 1498.33 126.318L1499.78 124.93C1493.07 117.968 1482.9 114.58 1469.48 114.58V116.58ZM1498.34 126.324C1504.62 132.72 1506.72 139.193 1504.97 145.83L1506.9 146.338C1508.88 138.839 1506.39 131.672 1499.77 124.924L1498.34 126.324ZM1504.97 145.834C1504.04 149.437 1502.09 152.058 1499.11 153.774L1500.11 155.506C1503.59 153.502 1505.85 150.419 1506.91 146.334L1504.97 145.834ZM1499.12 153.767C1496.26 155.372 1493.11 155.784 1489.61 154.968L1489.16 156.916C1493.1 157.836 1496.77 157.38 1500.1 155.513L1499.12 153.767ZM1489.61 154.969C1485.84 154.071 1483.13 152.557 1481.35 150.499C1479.59 148.453 1478.67 145.771 1478.67 142.364H1476.67C1476.67 146.149 1477.7 149.326 1479.84 151.806C1481.97 154.274 1485.11 155.953 1489.15 156.915L1489.61 154.969ZM1478.67 142.364C1478.67 140.556 1478.85 137.806 1479.22 134.093L1477.23 133.894C1476.86 137.622 1476.67 140.452 1476.67 142.364H1478.67ZM1479.21 134.122C1479.71 130.272 1479.91 127.396 1479.78 125.553L1477.78 125.695C1477.9 127.324 1477.73 130.028 1477.23 133.866L1479.21 134.122ZM1479.78 125.553C1479.65 123.727 1479.25 122.184 1478.51 121.002L1476.82 122.062C1477.32 122.864 1477.67 124.049 1477.78 125.695L1479.78 125.553ZM1478.53 121.025C1476.95 118.352 1473.44 117.62 1468.82 118.12L1469.03 120.108C1473.58 119.616 1475.9 120.496 1476.8 122.039L1478.53 121.025ZM1468.77 118.126C1462.74 119.064 1458.32 123.254 1455.44 130.315C1452.58 137.343 1451.18 147.338 1451.18 160.22H1453.18C1453.18 147.434 1454.58 137.744 1457.29 131.07C1460 124.429 1463.95 120.9 1469.08 120.102L1468.77 118.126ZM1451.18 160.22C1451.18 173.081 1453.47 182.906 1458.2 189.538C1462.98 196.232 1470.15 199.536 1479.53 199.536V197.536C1470.67 197.536 1464.17 194.454 1459.83 188.376C1455.45 182.236 1453.18 172.903 1453.18 160.22H1451.18ZM1479.53 199.536C1483.92 199.536 1488.36 198.371 1492.82 196.077L1491.9 194.299C1487.68 196.469 1483.56 197.536 1479.53 197.536V199.536ZM1492.82 196.077C1497.26 193.791 1500.63 191.026 1502.86 187.752L1501.2 186.628C1499.21 189.554 1496.14 192.121 1491.9 194.299L1492.82 196.077ZM1501.45 188.004L1504.05 189.864L1505.22 188.236L1502.61 186.376L1501.45 188.004ZM1503.78 188.532C1501.04 193.058 1496.92 196.72 1491.35 199.502L1492.25 201.29C1498.09 198.368 1502.53 194.466 1505.49 189.568L1503.78 188.532ZM1491.35 199.502C1485.8 202.277 1479.57 203.674 1472.64 203.674V205.674C1479.85 205.674 1486.39 204.219 1492.25 201.29L1491.35 199.502ZM1472.64 203.674C1456.59 203.674 1444.74 199.998 1436.91 192.823C1429.09 185.663 1425.1 174.86 1425.1 160.22H1423.1C1423.1 175.216 1427.2 186.64 1435.56 194.298C1443.9 201.941 1456.33 205.674 1472.64 205.674V203.674ZM1601.71 165.8V166.8H1602.71V165.8H1601.71ZM1545.54 165.8V164.8H1544.48L1544.54 165.857L1545.54 165.8ZM1585.35 195.56L1585 194.62L1585 194.623L1585.35 195.56ZM1597.25 187.19L1597.83 186.376L1597 185.785L1596.43 186.622L1597.25 187.19ZM1599.85 189.05L1600.71 189.561L1601.18 188.771L1600.44 188.236L1599.85 189.05ZM1585.9 200.396L1586.32 201.307L1585.9 200.396ZM1548.7 203L1548.45 203.967L1548.46 203.97L1548.47 203.973L1548.7 203ZM1533.45 196.304L1532.92 197.152L1533.45 196.304ZM1521.73 182.354L1520.82 182.757L1520.82 182.764L1520.83 182.772L1521.73 182.354ZM1530.1 126.554L1530.76 127.31L1530.76 127.304L1530.1 126.554ZM1589.81 127.484L1589.1 128.186L1589.1 128.191L1589.81 127.484ZM1545.36 162.08H1544.36V163.08H1545.36V162.08ZM1575.67 162.08V163.08H1576.67V162.08H1575.67ZM1571.95 132.134L1570.99 132.4L1570.99 132.412L1571.95 132.134ZM1548.89 131.762L1549.85 132.039L1549.85 132.035L1548.89 131.762ZM1601.71 164.8H1545.54V166.8H1601.71V164.8ZM1544.54 165.857C1545.17 176.863 1547.63 185.281 1552.05 190.966C1556.52 196.702 1562.89 199.536 1571.02 199.536V197.536C1563.41 197.536 1557.66 194.914 1553.63 189.738C1549.56 184.511 1547.16 176.561 1546.54 165.743L1544.54 165.857ZM1571.02 199.536C1575.39 199.536 1580.29 198.509 1585.69 196.497L1585 194.623C1579.74 196.579 1575.09 197.536 1571.02 197.536V199.536ZM1585.69 196.5C1591.28 194.468 1595.44 191.573 1598.07 187.758L1596.43 186.622C1594.1 189.999 1590.33 192.684 1585 194.62L1585.69 196.5ZM1596.67 188.004L1599.27 189.864L1600.44 188.236L1597.83 186.376L1596.67 188.004ZM1598.99 188.539C1596.4 192.899 1591.94 196.564 1585.49 199.485L1586.32 201.307C1593.01 198.276 1597.85 194.377 1600.71 189.561L1598.99 188.539ZM1585.49 199.485C1579.04 202.408 1572.6 203.86 1566.19 203.86V205.86C1572.92 205.86 1579.63 204.336 1586.32 201.307L1585.49 199.485ZM1566.19 203.86C1559.8 203.86 1554.05 203.246 1548.94 202.027L1548.47 203.973C1553.77 205.234 1559.68 205.86 1566.19 205.86V203.86ZM1548.96 202.033C1543.86 200.696 1538.86 198.507 1533.98 195.456L1532.92 197.152C1537.96 200.301 1543.14 202.576 1548.45 203.967L1548.96 202.033ZM1533.98 195.456C1529.21 192.476 1525.43 187.989 1522.64 181.936L1520.83 182.772C1523.75 189.119 1527.77 193.932 1532.92 197.152L1533.98 195.456ZM1522.65 181.951C1519.99 175.91 1518.64 168.553 1518.64 159.848H1516.64C1516.64 168.751 1518.02 176.398 1520.82 182.757L1522.65 181.951ZM1518.64 159.848C1518.64 145.023 1522.74 134.25 1530.76 127.31L1529.45 125.798C1520.85 133.242 1516.64 144.665 1516.64 159.848H1518.64ZM1530.76 127.304C1538.88 120.16 1548.68 116.58 1560.24 116.58V114.58C1548.23 114.58 1537.95 118.316 1529.44 125.804L1530.76 127.304ZM1560.24 116.58C1571.89 116.58 1581.49 120.455 1589.1 128.186L1590.52 126.782C1582.51 118.641 1572.39 114.58 1560.24 114.58V116.58ZM1589.1 128.191C1596.77 135.857 1600.71 148.311 1600.71 165.8H1602.71C1602.71 148.073 1598.72 134.983 1590.52 126.777L1589.1 128.191ZM1545.36 163.08H1575.67V161.08H1545.36V163.08ZM1576.67 162.08C1576.67 150.603 1575.43 140.523 1572.91 131.856L1570.99 132.412C1573.44 140.857 1574.67 150.741 1574.67 162.08H1576.67ZM1572.92 131.869C1571.72 127.514 1570.11 124.14 1568.05 121.84C1565.95 119.509 1563.4 118.3 1560.42 118.3V120.3C1562.78 120.3 1564.81 121.23 1566.56 123.177C1568.34 125.155 1569.83 128.198 1570.99 132.399L1572.92 131.869ZM1560.42 118.3C1557.46 118.3 1554.9 119.469 1552.81 121.736C1550.74 123.974 1549.13 127.256 1547.93 131.489L1549.85 132.035C1551.01 127.96 1552.5 125.011 1554.27 123.095C1556.02 121.208 1558.05 120.3 1560.42 120.3V118.3ZM1547.93 131.485C1545.54 139.779 1544.36 149.299 1544.36 160.034H1546.36C1546.36 149.441 1547.53 140.113 1549.85 132.039L1547.93 131.485ZM1544.36 160.034V162.08H1546.36V160.034H1544.36Z" fill="url(#paint1_linear_38_2)"/>
<path d="M183.666 142.34H180.066C180.066 132.74 177.006 123.86 170.886 115.7C164.766 107.54 156.006 103.46 144.606 103.46C138.246 103.46 132.966 107.18 128.766 114.62C124.686 122.06 122.646 134.78 122.646 152.78C122.646 170.78 124.686 183.5 128.766 190.94C132.966 198.38 139.446 202.1 148.206 202.1C157.086 202.1 164.526 199.34 170.526 193.82C176.646 188.3 180.426 180.5 181.866 170.42H185.466C183.786 182.3 179.586 191.18 172.866 197.06C166.266 202.82 158.346 205.7 149.106 205.7C131.226 205.7 117.486 201.44 107.886 192.92C98.4064 184.28 93.6664 170.84 93.6664 152.6C93.6664 134.24 98.2864 120.86 107.526 112.46C116.886 104.06 129.246 99.86 144.606 99.86C152.886 99.86 160.926 102.08 168.726 106.52C171.246 108.08 173.286 108.86 174.846 108.86C176.526 108.86 177.846 108.14 178.806 106.7C179.766 105.14 180.246 103.64 180.246 102.2H183.666V142.34ZM291.589 199.4H300.589V203H255.589V199.4H264.589V149C264.589 140.48 263.329 134.42 260.809 130.82C258.289 127.22 254.509 125.42 249.469 125.42C242.629 125.42 237.169 129.02 233.089 136.22V199.4H242.089V203H197.089V199.4H206.089V86H197.089V82.4H233.089V129.56C235.369 126.32 238.909 123.62 243.709 121.46C248.509 119.3 253.789 118.22 259.549 118.22C280.909 118.22 291.589 129.8 291.589 152.96V199.4ZM400.405 199.4C399.205 200.6 396.925 201.68 393.565 202.64C390.205 203.48 386.305 203.9 381.865 203.9C372.025 203.9 365.845 200.96 363.325 195.08C357.325 201.32 348.145 204.44 335.785 204.44C329.185 204.44 323.725 202.94 319.405 199.94C315.205 196.82 313.105 192.26 313.105 186.26C313.105 178.22 316.225 172.04 322.465 167.72C328.705 163.28 339.625 160.16 355.225 158.36L362.425 157.46V148.64C362.425 138.2 361.645 131.18 360.085 127.58C358.525 123.98 355.405 122.18 350.725 122.18C346.165 122.18 343.225 122.84 341.905 124.16C340.585 125.36 340.105 126.8 340.465 128.48C340.825 130.04 341.425 132.14 342.265 134.78C343.105 137.42 343.525 139.52 343.525 141.08C343.525 144.8 342.205 147.98 339.565 150.62C337.045 153.14 333.925 154.4 330.205 154.4C326.605 154.4 323.485 153.14 320.845 150.62C318.205 147.98 316.885 144.8 316.885 141.08C316.885 134.96 320.005 129.74 326.245 125.42C332.605 120.98 342.025 118.76 354.505 118.76C367.105 118.76 376.045 121.22 381.325 126.14C386.725 131.06 389.425 139.76 389.425 152.24V184.64C389.425 191 390.205 195.02 391.765 196.7C393.325 198.26 396.205 198.56 400.405 197.6V199.4ZM338.125 182.66C338.725 187.22 340.405 190.76 343.165 193.28C345.925 195.68 349.105 196.88 352.705 196.88C356.425 196.88 359.665 195.08 362.425 191.48V160.88L355.945 161.78C350.425 162.5 345.925 164.6 342.445 168.08C339.085 171.56 337.645 176.42 338.125 182.66ZM456.191 203H411.191V199.4H420.191V123.8H411.191V120.2H447.191V141.62C448.271 135.74 450.191 130.94 452.951 127.22C455.831 123.5 458.951 121.04 462.311 119.84C465.791 118.64 469.091 118.04 472.211 118.04C475.451 118.04 478.511 118.64 481.391 119.84C484.391 120.92 486.611 123.2 488.051 126.68C489.491 130.04 489.551 133.46 488.231 136.94C486.911 140.3 484.571 142.7 481.211 144.14C477.971 145.58 474.971 145.76 472.211 144.68C469.451 143.6 467.471 142.16 466.271 140.36C465.071 138.44 464.231 136.64 463.751 134.96C462.551 130.52 460.931 128.3 458.891 128.3C456.611 128.3 454.091 132.26 451.331 140.18C448.571 147.98 447.191 156.26 447.191 165.02V199.4H456.191V203ZM531.322 123.8V167.72C531.322 178.04 531.742 184.34 532.582 186.62C533.422 188.78 534.322 190.64 535.282 192.2C537.082 195.32 540.202 196.88 544.642 196.88C549.202 196.88 552.382 196.28 554.182 195.08V198.68C548.422 202.76 542.122 204.8 535.282 204.8C525.202 204.8 517.522 202.4 512.242 197.6C506.962 192.8 504.322 184.22 504.322 171.86V123.8H491.002V120.2H504.322C510.082 119.24 515.182 116.48 519.622 111.92C524.062 107.24 527.122 100.82 528.802 92.66H531.322V120.2H552.202V123.8H531.322Z" fill="url(#paint2_linear_38_2)"/>
<path d="M183.666 142.34V143.34H184.666V142.34H183.666ZM180.066 142.34H179.066V143.34H180.066V142.34ZM170.886 115.7L171.686 115.1L171.686 115.1L170.886 115.7ZM128.766 114.62L127.895 114.128L127.89 114.139L128.766 114.62ZM128.766 190.94L127.889 191.421L127.896 191.432L128.766 190.94ZM170.526 193.82L169.857 193.077L169.849 193.084L170.526 193.82ZM181.866 170.42V169.42H180.999L180.876 170.279L181.866 170.42ZM185.466 170.42L186.457 170.56L186.618 169.42H185.466V170.42ZM172.866 197.06L173.524 197.813L173.525 197.813L172.866 197.06ZM107.886 192.92L107.213 193.659L107.223 193.668L107.886 192.92ZM107.526 112.46L106.858 111.716L106.854 111.72L107.526 112.46ZM168.726 106.52L169.253 105.67L169.237 105.66L169.221 105.651L168.726 106.52ZM178.806 106.7L179.638 107.255L179.649 107.24L179.658 107.224L178.806 106.7ZM180.246 102.2V101.2H179.246V102.2H180.246ZM183.666 102.2H184.666V101.2H183.666V102.2ZM183.666 141.34H180.066V143.34H183.666V141.34ZM181.066 142.34C181.066 132.51 177.928 123.422 171.686 115.1L170.086 116.3C176.085 124.298 179.066 132.97 179.066 142.34H181.066ZM171.686 115.1C165.353 106.656 156.279 102.46 144.606 102.46V104.46C155.734 104.46 164.179 108.424 170.086 116.3L171.686 115.1ZM144.606 102.46C137.764 102.46 132.203 106.497 127.896 114.128L129.637 115.112C133.729 107.863 138.729 104.46 144.606 104.46V102.46ZM127.89 114.139C123.679 121.817 121.646 134.761 121.646 152.78H123.646C123.646 134.799 125.694 122.303 129.643 115.101L127.89 114.139ZM121.646 152.78C121.646 170.799 123.679 183.743 127.89 191.421L129.643 190.459C125.694 183.257 123.646 170.761 123.646 152.78H121.646ZM127.896 191.432C132.278 199.195 139.097 203.1 148.206 203.1V201.1C139.796 201.1 133.654 197.565 129.637 190.448L127.896 191.432ZM148.206 203.1C157.313 203.1 165.002 200.262 171.203 194.556L169.849 193.084C164.051 198.418 156.86 201.1 148.206 201.1V203.1ZM171.196 194.563C177.528 188.852 181.391 180.817 182.856 170.561L180.876 170.279C179.461 180.183 175.765 187.748 169.857 193.077L171.196 194.563ZM181.866 171.42H185.466V169.42H181.866V171.42ZM184.476 170.28C182.818 182.005 178.694 190.632 172.208 196.307L173.525 197.813C180.479 191.728 184.755 182.595 186.457 170.56L184.476 170.28ZM172.209 196.307C165.802 201.898 158.119 204.7 149.106 204.7V206.7C158.574 206.7 166.731 203.742 173.524 197.813L172.209 196.307ZM149.106 204.7C131.375 204.7 117.906 200.476 108.55 192.172L107.223 193.668C117.067 202.404 131.078 206.7 149.106 206.7V204.7ZM108.56 192.181C99.3633 183.799 94.6664 170.68 94.6664 152.6H92.6664C92.6664 171 97.4494 184.761 107.213 193.659L108.56 192.181ZM94.6664 152.6C94.6664 134.388 99.2494 121.336 108.199 113.2L106.854 111.72C97.3233 120.384 92.6664 134.092 92.6664 152.6H94.6664ZM108.194 113.204C117.332 105.003 129.436 100.86 144.606 100.86V98.86C129.057 98.86 116.44 103.117 106.858 111.716L108.194 113.204ZM144.606 100.86C152.698 100.86 160.569 103.027 168.232 107.389L169.221 105.651C161.283 101.133 153.074 98.86 144.606 98.86V100.86ZM168.2 107.37C170.758 108.954 172.997 109.86 174.846 109.86V107.86C173.575 107.86 171.734 107.206 169.253 105.67L168.2 107.37ZM174.846 109.86C176.873 109.86 178.5 108.963 179.638 107.255L177.974 106.145C177.193 107.317 176.18 107.86 174.846 107.86V109.86ZM179.658 107.224C180.689 105.549 181.246 103.869 181.246 102.2H179.246C179.246 103.411 178.844 104.731 177.955 106.176L179.658 107.224ZM180.246 103.2H183.666V101.2H180.246V103.2ZM182.666 102.2V142.34H184.666V102.2H182.666ZM291.589 199.4H290.589V200.4H291.589V199.4ZM300.589 199.4H301.589V198.4H300.589V199.4ZM300.589 203V204H301.589V203H300.589ZM255.589 203H254.589V204H255.589V203ZM255.589 199.4V198.4H254.589V199.4H255.589ZM264.589 199.4V200.4H265.589V199.4H264.589ZM233.089 136.22L232.219 135.727L232.089 135.956V136.22H233.089ZM233.089 199.4H232.089V200.4H233.089V199.4ZM242.089 199.4H243.089V198.4H242.089V199.4ZM242.089 203V204H243.089V203H242.089ZM197.089 203H196.089V204H197.089V203ZM197.089 199.4V198.4H196.089V199.4H197.089ZM206.089 199.4V200.4H207.089V199.4H206.089ZM206.089 86H207.089V85H206.089V86ZM197.089 86H196.089V87H197.089V86ZM197.089 82.4V81.4H196.089V82.4H197.089ZM233.089 82.4H234.089V81.4H233.089V82.4ZM233.089 129.56H232.089V132.719L233.907 130.135L233.089 129.56ZM243.709 121.46L244.119 122.372L244.119 122.372L243.709 121.46ZM291.589 200.4H300.589V198.4H291.589V200.4ZM299.589 199.4V203H301.589V199.4H299.589ZM300.589 202H255.589V204H300.589V202ZM256.589 203V199.4H254.589V203H256.589ZM255.589 200.4H264.589V198.4H255.589V200.4ZM265.589 199.4V149H263.589V199.4H265.589ZM265.589 149C265.589 140.437 264.333 134.111 261.628 130.247L259.99 131.393C262.325 134.729 263.589 140.523 263.589 149H265.589ZM261.628 130.247C258.891 126.337 254.78 124.42 249.469 124.42V126.42C254.238 126.42 257.687 128.103 259.99 131.393L261.628 130.247ZM249.469 124.42C242.188 124.42 236.433 128.291 232.219 135.727L233.959 136.713C237.906 129.749 243.07 126.42 249.469 126.42V124.42ZM232.089 136.22V199.4H234.089V136.22H232.089ZM233.089 200.4H242.089V198.4H233.089V200.4ZM241.089 199.4V203H243.089V199.4H241.089ZM242.089 202H197.089V204H242.089V202ZM198.089 203V199.4H196.089V203H198.089ZM197.089 200.4H206.089V198.4H197.089V200.4ZM207.089 199.4V86H205.089V199.4H207.089ZM206.089 85H197.089V87H206.089V85ZM198.089 86V82.4H196.089V86H198.089ZM197.089 83.4H233.089V81.4H197.089V83.4ZM232.089 82.4V129.56H234.089V82.4H232.089ZM233.907 130.135C236.055 127.083 239.431 124.482 244.119 122.372L243.299 120.548C238.387 122.758 234.683 125.557 232.271 128.985L233.907 130.135ZM244.119 122.372C248.779 120.275 253.917 119.22 259.549 119.22V117.22C253.661 117.22 248.239 118.325 243.299 120.548L244.119 122.372ZM259.549 119.22C270.053 119.22 277.754 122.064 282.844 127.583C287.948 133.118 290.589 141.515 290.589 152.96H292.589C292.589 141.245 289.89 132.272 284.314 126.227C278.725 120.166 270.405 117.22 259.549 117.22V119.22ZM290.589 152.96V199.4H292.589V152.96H290.589ZM400.405 199.4L401.112 200.107L401.405 199.814V199.4H400.405ZM393.565 202.64L393.807 203.61L393.823 203.606L393.839 203.602L393.565 202.64ZM363.325 195.08L364.244 194.686L363.649 193.299L362.604 194.387L363.325 195.08ZM319.405 199.94L318.808 200.743L318.821 200.752L318.834 200.761L319.405 199.94ZM322.465 167.72L323.034 168.542L323.044 168.535L322.465 167.72ZM355.225 158.36L355.339 159.353L355.349 159.352L355.225 158.36ZM362.425 157.46L362.549 158.452L363.425 158.343V157.46H362.425ZM360.085 127.58L361.002 127.182L361.002 127.182L360.085 127.58ZM341.905 124.16L342.577 124.9L342.595 124.884L342.612 124.867L341.905 124.16ZM340.465 128.48L339.487 128.69L339.488 128.697L339.49 128.705L340.465 128.48ZM342.265 134.78L341.312 135.083L341.312 135.083L342.265 134.78ZM339.565 150.62L340.272 151.327L340.272 151.327L339.565 150.62ZM320.845 150.62L320.138 151.327L320.146 151.335L320.154 151.343L320.845 150.62ZM326.245 125.42L326.814 126.242L326.817 126.24L326.245 125.42ZM381.325 126.14L380.643 126.872L380.651 126.879L381.325 126.14ZM391.765 196.7L391.032 197.38L391.044 197.394L391.058 197.407L391.765 196.7ZM400.405 197.6H401.405V196.346L400.182 196.625L400.405 197.6ZM338.125 182.66L337.128 182.737L337.13 182.764L337.133 182.79L338.125 182.66ZM343.165 193.28L342.49 194.018L342.499 194.027L342.508 194.035L343.165 193.28ZM362.425 191.48L363.218 192.088L363.425 191.819V191.48H362.425ZM362.425 160.88H363.425V159.732L362.287 159.89L362.425 160.88ZM355.945 161.78L356.074 162.772L356.082 162.77L355.945 161.78ZM342.445 168.08L341.738 167.373L341.731 167.379L341.725 167.385L342.445 168.08ZM399.698 198.693C398.69 199.701 396.625 200.726 393.29 201.678L393.839 203.602C397.224 202.634 399.72 201.499 401.112 200.107L399.698 198.693ZM393.322 201.67C390.06 202.485 386.245 202.9 381.865 202.9V204.9C386.365 204.9 390.349 204.475 393.807 203.61L393.322 201.67ZM381.865 202.9C372.18 202.9 366.528 200.017 364.244 194.686L362.406 195.474C365.161 201.903 371.869 204.9 381.865 204.9V202.9ZM362.604 194.387C356.861 200.36 347.991 203.44 335.785 203.44V205.44C348.299 205.44 357.788 202.28 364.045 195.773L362.604 194.387ZM335.785 203.44C329.336 203.44 324.089 201.976 319.975 199.119L318.834 200.761C323.36 203.904 329.033 205.44 335.785 205.44V203.44ZM320.001 199.137C316.095 196.235 314.105 191.997 314.105 186.26H312.105C312.105 192.523 314.315 197.405 318.808 200.743L320.001 199.137ZM314.105 186.26C314.105 178.525 317.082 172.663 323.034 168.542L321.895 166.898C315.367 171.417 312.105 177.915 312.105 186.26H314.105ZM323.044 168.535C329.065 164.251 339.765 161.15 355.339 159.353L355.11 157.367C339.484 159.17 328.344 162.309 321.885 166.905L323.044 168.535ZM355.349 159.352L362.549 158.452L362.301 156.468L355.101 157.368L355.349 159.352ZM363.425 157.46V148.64H361.425V157.46H363.425ZM363.425 148.64C363.425 143.399 363.229 138.994 362.834 135.435C362.44 131.891 361.842 129.119 361.002 127.182L359.167 127.978C359.888 129.641 360.459 132.179 360.846 135.655C361.23 139.116 361.425 143.441 361.425 148.64H363.425ZM361.002 127.182C360.145 125.204 358.837 123.681 357.074 122.664C355.323 121.654 353.189 121.18 350.725 121.18V123.18C352.94 123.18 354.706 123.606 356.075 124.396C357.432 125.179 358.464 126.356 359.167 127.978L361.002 127.182ZM350.725 121.18C348.404 121.18 346.449 121.347 344.881 121.699C343.329 122.048 342.05 122.6 341.198 123.453L342.612 124.867C343.079 124.4 343.931 123.962 345.319 123.651C346.69 123.343 348.485 123.18 350.725 123.18V121.18ZM341.232 123.42C339.661 124.848 339.049 126.645 339.487 128.69L341.442 128.27C341.161 126.955 341.508 125.872 342.577 124.9L341.232 123.42ZM339.49 128.705C339.859 130.303 340.468 132.433 341.312 135.083L343.218 134.477C342.381 131.847 341.79 129.776 341.439 128.255L339.49 128.705ZM341.312 135.083C342.141 137.689 342.525 139.673 342.525 141.08H344.525C344.525 139.367 344.069 137.151 343.218 134.477L341.312 135.083ZM342.525 141.08C342.525 144.534 341.311 147.46 338.858 149.913L340.272 151.327C343.099 148.5 344.525 145.066 344.525 141.08H342.525ZM338.858 149.913C336.534 152.236 333.672 153.4 330.205 153.4V155.4C334.177 155.4 337.555 154.044 340.272 151.327L338.858 149.913ZM330.205 153.4C326.866 153.4 323.992 152.242 321.535 149.897L320.154 151.343C322.977 154.038 326.344 155.4 330.205 155.4V153.4ZM321.552 149.913C319.099 147.46 317.885 144.534 317.885 141.08H315.885C315.885 145.066 317.311 148.5 320.138 151.327L321.552 149.913ZM317.885 141.08C317.885 135.368 320.771 130.426 326.814 126.242L325.675 124.598C319.239 129.054 315.885 134.552 315.885 141.08H317.885ZM326.817 126.24C332.935 121.969 342.115 119.76 354.505 119.76V117.76C341.934 117.76 332.274 119.991 325.672 124.6L326.817 126.24ZM354.505 119.76C367.025 119.76 375.644 122.214 380.643 126.872L382.006 125.408C376.445 120.226 367.185 117.76 354.505 117.76V119.76ZM380.651 126.879C385.736 131.512 388.425 139.852 388.425 152.24H390.425C390.425 139.668 387.714 130.608 381.998 125.401L380.651 126.879ZM388.425 152.24V184.64H390.425V152.24H388.425ZM388.425 184.64C388.425 187.853 388.621 190.518 389.028 192.615C389.429 194.684 390.06 196.333 391.032 197.38L392.497 196.02C391.91 195.387 391.37 194.186 390.991 192.235C390.618 190.312 390.425 187.787 390.425 184.64H388.425ZM391.058 197.407C393.02 199.369 396.395 199.542 400.627 198.575L400.182 196.625C396.015 197.578 393.63 197.151 392.472 195.993L391.058 197.407ZM399.405 197.6V199.4H401.405V197.6H399.405ZM337.133 182.79C337.757 187.528 339.519 191.305 342.49 194.018L343.839 192.542C341.291 190.215 339.693 186.912 339.116 182.53L337.133 182.79ZM342.508 194.035C345.447 196.59 348.859 197.88 352.705 197.88V195.88C349.35 195.88 346.402 194.77 343.821 192.525L342.508 194.035ZM352.705 197.88C356.805 197.88 360.315 195.875 363.218 192.088L361.631 190.872C359.014 194.285 356.045 195.88 352.705 195.88V197.88ZM363.425 191.48V160.88H361.425V191.48H363.425ZM362.287 159.89L355.807 160.79L356.082 162.77L362.562 161.87L362.287 159.89ZM355.815 160.788C350.107 161.533 345.394 163.717 341.738 167.373L343.152 168.787C346.456 165.483 350.743 163.467 356.074 162.772L355.815 160.788ZM341.725 167.385C338.112 171.128 336.633 176.301 337.128 182.737L339.122 182.583C338.657 176.539 340.057 171.992 343.164 168.775L341.725 167.385ZM456.191 203V204H457.191V203H456.191ZM411.191 203H410.191V204H411.191V203ZM411.191 199.4V198.4H410.191V199.4H411.191ZM420.191 199.4V200.4H421.191V199.4H420.191ZM420.191 123.8H421.191V122.8H420.191V123.8ZM411.191 123.8H410.191V124.8H411.191V123.8ZM411.191 120.2V119.2H410.191V120.2H411.191ZM447.191 120.2H448.191V119.2H447.191V120.2ZM447.191 141.62H446.191L448.174 141.801L447.191 141.62ZM452.951 127.22L452.16 126.608L452.154 126.616L452.148 126.624L452.951 127.22ZM462.311 119.84L461.985 118.895L461.974 118.898L462.311 119.84ZM481.391 119.84L481.006 120.763L481.029 120.773L481.052 120.781L481.391 119.84ZM488.051 126.68L487.127 127.062L487.131 127.074L488.051 126.68ZM488.231 136.94L489.161 137.306L489.166 137.295L488.231 136.94ZM481.211 144.14L480.817 143.221L480.804 143.226L481.211 144.14ZM472.211 144.68L471.846 145.611L471.846 145.611L472.211 144.68ZM466.271 140.36L465.423 140.89L465.43 140.902L465.439 140.915L466.271 140.36ZM463.751 134.96L462.785 135.221L462.787 135.228L462.789 135.235L463.751 134.96ZM451.331 140.18L452.273 140.514L452.275 140.509L451.331 140.18ZM447.191 199.4H446.191V200.4H447.191V199.4ZM456.191 199.4H457.191V198.4H456.191V199.4ZM456.191 202H411.191V204H456.191V202ZM412.191 203V199.4H410.191V203H412.191ZM411.191 200.4H420.191V198.4H411.191V200.4ZM421.191 199.4V123.8H419.191V199.4H421.191ZM420.191 122.8H411.191V124.8H420.191V122.8ZM412.191 123.8V120.2H410.191V123.8H412.191ZM411.191 121.2H447.191V119.2H411.191V121.2ZM446.191 120.2V141.62H448.191V120.2H446.191ZM448.174 141.801C449.234 136.029 451.107 131.383 453.754 127.816L452.148 126.624C449.274 130.497 447.307 135.451 446.207 141.439L448.174 141.801ZM453.741 127.832C456.541 124.216 459.516 121.9 462.647 120.782L461.974 118.898C458.386 120.18 455.12 122.784 452.16 126.608L453.741 127.832ZM462.637 120.785C466.03 119.615 469.219 119.04 472.211 119.04V117.04C468.962 117.04 465.551 117.665 461.985 118.895L462.637 120.785ZM472.211 119.04C475.324 119.04 478.253 119.616 481.006 120.763L481.775 118.917C478.769 117.664 475.577 117.04 472.211 117.04V119.04ZM481.052 120.781C483.739 121.748 485.773 123.791 487.127 127.062L488.975 126.298C487.448 122.609 485.043 120.092 481.729 118.899L481.052 120.781ZM487.131 127.074C488.467 130.191 488.526 133.343 487.296 136.585L489.166 137.295C490.576 133.577 490.514 129.889 488.97 126.286L487.131 127.074ZM487.3 136.574C486.079 139.682 483.934 141.885 480.817 143.221L481.605 145.059C485.207 143.515 487.742 140.918 489.161 137.306L487.3 136.574ZM480.804 143.226C477.757 144.581 475.038 144.713 472.575 143.749L471.846 145.611C474.903 146.807 478.184 146.579 481.617 145.054L480.804 143.226ZM472.575 143.749C469.937 142.716 468.154 141.382 467.103 139.805L465.439 140.915C466.787 142.938 468.964 144.484 471.846 145.611L472.575 143.749ZM467.119 139.83C465.954 137.967 465.16 136.253 464.712 134.685L462.789 135.235C463.301 137.027 464.187 138.913 465.423 140.89L467.119 139.83ZM464.716 134.699C464.103 132.43 463.358 130.629 462.443 129.376C461.516 128.105 460.334 127.3 458.891 127.3V129.3C459.487 129.3 460.135 129.605 460.828 130.554C461.533 131.521 462.199 133.05 462.785 135.221L464.716 134.699ZM458.891 127.3C458.016 127.3 457.213 127.682 456.499 128.271C455.788 128.858 455.108 129.695 454.447 130.733C453.125 132.81 451.775 135.865 450.386 139.851L452.275 140.509C453.646 136.575 454.936 133.69 456.134 131.807C456.734 130.865 457.283 130.217 457.772 129.814C458.258 129.413 458.625 129.3 458.891 129.3V127.3ZM450.388 139.846C447.588 147.76 446.191 156.153 446.191 165.02H448.191C448.191 156.367 449.553 148.2 452.273 140.514L450.388 139.846ZM446.191 165.02V199.4H448.191V165.02H446.191ZM447.191 200.4H456.191V198.4H447.191V200.4ZM455.191 199.4V203H457.191V199.4H455.191ZM531.322 123.8V122.8H530.322V123.8H531.322ZM532.582 186.62L531.644 186.966L531.647 186.974L531.65 186.982L532.582 186.62ZM535.282 192.2L536.149 191.7L536.141 191.688L536.134 191.676L535.282 192.2ZM554.182 195.08H555.182V193.211L553.628 194.248L554.182 195.08ZM554.182 198.68L554.76 199.496L555.182 199.197V198.68H554.182ZM512.242 197.6L512.915 196.86L512.915 196.86L512.242 197.6ZM504.322 123.8H505.322V122.8H504.322V123.8ZM491.002 123.8H490.002V124.8H491.002V123.8ZM491.002 120.2V119.2H490.002V120.2H491.002ZM504.322 120.2V121.2H504.405L504.487 121.186L504.322 120.2ZM519.622 111.92L520.339 112.618L520.348 112.608L519.622 111.92ZM528.802 92.66V91.66H527.987L527.823 92.4583L528.802 92.66ZM531.322 92.66H532.322V91.66H531.322V92.66ZM531.322 120.2H530.322V121.2H531.322V120.2ZM552.202 120.2H553.202V119.2H552.202V120.2ZM552.202 123.8V124.8H553.202V123.8H552.202ZM530.322 123.8V167.72H532.322V123.8H530.322ZM530.322 167.72C530.322 172.89 530.427 177.07 530.64 180.252C530.849 183.392 531.168 185.673 531.644 186.966L533.521 186.274C533.157 185.287 532.846 183.278 532.635 180.118C532.427 177 532.322 172.87 532.322 167.72H530.322ZM531.65 186.982C532.507 189.185 533.432 191.101 534.431 192.724L536.134 191.676C535.213 190.179 534.338 188.375 533.514 186.258L531.65 186.982ZM534.416 192.7C536.439 196.205 539.942 197.88 544.642 197.88V195.88C540.462 195.88 537.726 194.435 536.149 191.7L534.416 192.7ZM544.642 197.88C549.224 197.88 552.67 197.29 554.737 195.912L553.628 194.248C552.094 195.27 549.181 195.88 544.642 195.88V197.88ZM553.182 195.08V198.68H555.182V195.08H553.182ZM553.604 197.864C548.008 201.828 541.908 203.8 535.282 203.8V205.8C542.336 205.8 548.837 203.692 554.76 199.496L553.604 197.864ZM535.282 203.8C525.349 203.8 517.947 201.435 512.915 196.86L511.57 198.34C517.098 203.365 525.056 205.8 535.282 205.8V203.8ZM512.915 196.86C507.954 192.35 505.322 184.133 505.322 171.86H503.322C503.322 184.307 505.971 193.25 511.57 198.34L512.915 196.86ZM505.322 171.86V123.8H503.322V171.86H505.322ZM504.322 122.8H491.002V124.8H504.322V122.8ZM492.002 123.8V120.2H490.002V123.8H492.002ZM491.002 121.2H504.322V119.2H491.002V121.2ZM504.487 121.186C510.476 120.188 515.764 117.316 520.339 112.618L518.906 111.222C514.6 115.644 509.689 118.292 504.158 119.214L504.487 121.186ZM520.348 112.608C524.949 107.759 528.075 101.152 529.782 92.8616L527.823 92.4583C526.17 100.488 523.176 106.721 518.897 111.232L520.348 112.608ZM528.802 93.66H531.322V91.66H528.802V93.66ZM530.322 92.66V120.2H532.322V92.66H530.322ZM531.322 121.2H552.202V119.2H531.322V121.2ZM551.202 120.2V123.8H553.202V120.2H551.202ZM552.202 122.8H531.322V124.8H552.202V122.8Z" fill="url(#paint3_linear_38_2)"/>
<path d="M715.712 199.4C714.512 200.6 712.232 201.68 708.872 202.64C705.512 203.48 701.612 203.9 697.172 203.9C687.332 203.9 681.152 200.96 678.632 195.08C672.632 201.32 663.452 204.44 651.092 204.44C644.492 204.44 639.032 202.94 634.712 199.94C630.512 196.82 628.412 192.26 628.412 186.26C628.412 178.22 631.532 172.04 637.772 167.72C644.012 163.28 654.932 160.16 670.532 158.36L677.732 157.46V148.64C677.732 138.2 676.952 131.18 675.392 127.58C673.832 123.98 670.712 122.18 666.032 122.18C661.472 122.18 658.532 122.84 657.212 124.16C655.892 125.36 655.412 126.8 655.772 128.48C656.132 130.04 656.732 132.14 657.572 134.78C658.412 137.42 658.832 139.52 658.832 141.08C658.832 144.8 657.512 147.98 654.872 150.62C652.352 153.14 649.232 154.4 645.512 154.4C641.912 154.4 638.792 153.14 636.152 150.62C633.512 147.98 632.192 144.8 632.192 141.08C632.192 134.96 635.312 129.74 641.552 125.42C647.912 120.98 657.332 118.76 669.812 118.76C682.412 118.76 691.352 121.22 696.632 126.14C702.032 131.06 704.732 139.76 704.732 152.24V184.64C704.732 191 705.512 195.02 707.072 196.7C708.632 198.26 711.512 198.56 715.712 197.6V199.4ZM653.432 182.66C654.032 187.22 655.712 190.76 658.472 193.28C661.232 195.68 664.412 196.88 668.012 196.88C671.732 196.88 674.972 195.08 677.732 191.48V160.88L671.252 161.78C665.732 162.5 661.232 164.6 657.752 168.08C654.392 171.56 652.952 176.42 653.432 182.66ZM759.618 123.8V167.72C759.618 178.04 760.038 184.34 760.878 186.62C761.718 188.78 762.618 190.64 763.578 192.2C765.378 195.32 768.498 196.88 772.938 196.88C777.498 196.88 780.678 196.28 782.478 195.08V198.68C776.718 202.76 770.418 204.8 763.578 204.8C753.498 204.8 745.818 202.4 740.538 197.6C735.258 192.8 732.618 184.22 732.618 171.86V123.8H719.298V120.2H732.618C738.378 119.24 743.478 116.48 747.918 111.92C752.358 107.24 755.418 100.82 757.098 92.66H759.618V120.2H780.498V123.8H759.618Z" fill="url(#paint4_linear_38_2)"/>
<path d="M715.712 199.4L716.419 200.107L716.712 199.814V199.4H715.712ZM708.872 202.64L709.114 203.61L709.13 203.606L709.146 203.602L708.872 202.64ZM678.632 195.08L679.551 194.686L678.957 193.299L677.911 194.387L678.632 195.08ZM634.712 199.94L634.115 200.743L634.128 200.752L634.141 200.761L634.712 199.94ZM637.772 167.72L638.341 168.542L638.351 168.535L637.772 167.72ZM670.532 158.36L670.646 159.353L670.656 159.352L670.532 158.36ZM677.732 157.46L677.856 158.452L678.732 158.343V157.46H677.732ZM675.392 127.58L676.309 127.182L676.309 127.182L675.392 127.58ZM657.212 124.16L657.884 124.9L657.902 124.884L657.919 124.867L657.212 124.16ZM655.772 128.48L654.794 128.69L654.796 128.697L654.797 128.705L655.772 128.48ZM657.572 134.78L656.619 135.083L656.619 135.083L657.572 134.78ZM654.872 150.62L655.579 151.327L655.579 151.327L654.872 150.62ZM636.152 150.62L635.445 151.327L635.453 151.335L635.461 151.343L636.152 150.62ZM641.552 125.42L642.121 126.242L642.124 126.24L641.552 125.42ZM696.632 126.14L695.95 126.872L695.958 126.879L696.632 126.14ZM707.072 196.7L706.339 197.38L706.352 197.394L706.365 197.407L707.072 196.7ZM715.712 197.6H716.712V196.346L715.489 196.625L715.712 197.6ZM653.432 182.66L652.435 182.737L652.437 182.764L652.44 182.79L653.432 182.66ZM658.472 193.28L657.797 194.018L657.806 194.027L657.816 194.035L658.472 193.28ZM677.732 191.48L678.525 192.088L678.732 191.819V191.48H677.732ZM677.732 160.88H678.732V159.732L677.594 159.89L677.732 160.88ZM671.252 161.78L671.381 162.772L671.389 162.77L671.252 161.78ZM657.752 168.08L657.045 167.373L657.038 167.379L657.032 167.385L657.752 168.08ZM715.005 198.693C713.997 199.701 711.932 200.726 708.597 201.678L709.146 203.602C712.531 202.634 715.027 201.499 716.419 200.107L715.005 198.693ZM708.629 201.67C705.367 202.485 701.552 202.9 697.172 202.9V204.9C701.672 204.9 705.656 204.475 709.114 203.61L708.629 201.67ZM697.172 202.9C687.487 202.9 681.835 200.017 679.551 194.686L677.713 195.474C680.468 201.903 687.176 204.9 697.172 204.9V202.9ZM677.911 194.387C672.168 200.36 663.298 203.44 651.092 203.44V205.44C663.606 205.44 673.095 202.28 679.353 195.773L677.911 194.387ZM651.092 203.44C644.643 203.44 639.396 201.976 635.282 199.119L634.141 200.761C638.667 203.904 644.34 205.44 651.092 205.44V203.44ZM635.308 199.137C631.402 196.235 629.412 191.997 629.412 186.26H627.412C627.412 192.523 629.622 197.405 634.115 200.743L635.308 199.137ZM629.412 186.26C629.412 178.525 632.389 172.663 638.341 168.542L637.202 166.898C630.674 171.417 627.412 177.915 627.412 186.26H629.412ZM638.351 168.535C644.372 164.251 655.073 161.15 670.646 159.353L670.417 157.367C654.791 159.17 643.651 162.309 637.192 166.905L638.351 168.535ZM670.656 159.352L677.856 158.452L677.608 156.468L670.408 157.368L670.656 159.352ZM678.732 157.46V148.64H676.732V157.46H678.732ZM678.732 148.64C678.732 143.399 678.536 138.994 678.141 135.435C677.747 131.891 677.149 129.119 676.309 127.182L674.474 127.978C675.195 129.641 675.767 132.179 676.153 135.655C676.537 139.116 676.732 143.441 676.732 148.64H678.732ZM676.309 127.182C675.452 125.204 674.144 123.681 672.381 122.664C670.631 121.654 668.496 121.18 666.032 121.18V123.18C668.247 123.18 670.013 123.606 671.382 124.396C672.739 125.179 673.771 126.356 674.474 127.978L676.309 127.182ZM666.032 121.18C663.711 121.18 661.756 121.347 660.188 121.699C658.636 122.048 657.357 122.6 656.505 123.453L657.919 124.867C658.386 124.4 659.238 123.962 660.626 123.651C661.997 123.343 663.792 123.18 666.032 123.18V121.18ZM656.539 123.42C654.968 124.848 654.356 126.645 654.794 128.69L656.75 128.27C656.468 126.955 656.815 125.872 657.884 124.9L656.539 123.42ZM654.797 128.705C655.166 130.303 655.776 132.433 656.619 135.083L658.525 134.477C657.688 131.847 657.097 129.776 656.746 128.255L654.797 128.705ZM656.619 135.083C657.448 137.689 657.832 139.673 657.832 141.08H659.832C659.832 139.367 659.376 137.151 658.525 134.477L656.619 135.083ZM657.832 141.08C657.832 144.534 656.618 147.46 654.165 149.913L655.579 151.327C658.406 148.5 659.832 145.066 659.832 141.08H657.832ZM654.165 149.913C651.841 152.236 648.979 153.4 645.512 153.4V155.4C649.484 155.4 652.862 154.044 655.579 151.327L654.165 149.913ZM645.512 153.4C642.173 153.4 639.299 152.242 636.842 149.897L635.461 151.343C638.284 154.038 641.651 155.4 645.512 155.4V153.4ZM636.859 149.913C634.406 147.46 633.192 144.534 633.192 141.08H631.192C631.192 145.066 632.618 148.5 635.445 151.327L636.859 149.913ZM633.192 141.08C633.192 135.368 636.078 130.426 642.121 126.242L640.982 124.598C634.546 129.054 631.192 134.552 631.192 141.08H633.192ZM642.124 126.24C648.242 121.969 657.422 119.76 669.812 119.76V117.76C657.241 117.76 647.581 119.991 640.979 124.6L642.124 126.24ZM669.812 119.76C682.332 119.76 690.951 122.214 695.95 126.872L697.313 125.408C691.752 120.226 682.492 117.76 669.812 117.76V119.76ZM695.958 126.879C701.043 131.512 703.732 139.852 703.732 152.24H705.732C705.732 139.668 703.021 130.608 697.305 125.401L695.958 126.879ZM703.732 152.24V184.64H705.732V152.24H703.732ZM703.732 184.64C703.732 187.853 703.928 190.518 704.335 192.615C704.736 194.684 705.367 196.333 706.339 197.38L707.804 196.02C707.217 195.387 706.677 194.186 706.298 192.235C705.925 190.312 705.732 187.787 705.732 184.64H703.732ZM706.365 197.407C708.327 199.369 711.702 199.542 715.935 198.575L715.489 196.625C711.322 197.578 708.937 197.151 707.779 195.993L706.365 197.407ZM714.712 197.6V199.4H716.712V197.6H714.712ZM652.44 182.79C653.064 187.528 654.826 191.305 657.797 194.018L659.146 192.542C656.598 190.215 655 186.912 654.423 182.53L652.44 182.79ZM657.816 194.035C660.754 196.59 664.166 197.88 668.012 197.88V195.88C664.657 195.88 661.709 194.77 659.128 192.525L657.816 194.035ZM668.012 197.88C672.112 197.88 675.622 195.875 678.525 192.088L676.938 190.872C674.321 194.285 671.352 195.88 668.012 195.88V197.88ZM678.732 191.48V160.88H676.732V191.48H678.732ZM677.594 159.89L671.114 160.79L671.389 162.77L677.869 161.87L677.594 159.89ZM671.122 160.788C665.414 161.533 660.701 163.717 657.045 167.373L658.459 168.787C661.763 165.483 666.05 163.467 671.381 162.772L671.122 160.788ZM657.032 167.385C653.419 171.128 651.94 176.301 652.435 182.737L654.429 182.583C653.964 176.539 655.364 171.992 658.471 168.775L657.032 167.385ZM759.618 123.8V122.8H758.618V123.8H759.618ZM760.878 186.62L759.939 186.966L759.942 186.974L759.946 186.982L760.878 186.62ZM763.578 192.2L764.444 191.7L764.437 191.688L764.429 191.676L763.578 192.2ZM782.478 195.08H783.478V193.211L781.923 194.248L782.478 195.08ZM782.478 198.68L783.056 199.496L783.478 199.197V198.68H782.478ZM740.538 197.6L741.21 196.86L741.21 196.86L740.538 197.6ZM732.618 123.8H733.618V122.8H732.618V123.8ZM719.298 123.8H718.298V124.8H719.298V123.8ZM719.298 120.2V119.2H718.298V120.2H719.298ZM732.618 120.2V121.2H732.7L732.782 121.186L732.618 120.2ZM747.918 111.92L748.634 112.618L748.643 112.608L747.918 111.92ZM757.098 92.66V91.66H756.283L756.118 92.4583L757.098 92.66ZM759.618 92.66H760.618V91.66H759.618V92.66ZM759.618 120.2H758.618V121.2H759.618V120.2ZM780.498 120.2H781.498V119.2H780.498V120.2ZM780.498 123.8V124.8H781.498V123.8H780.498ZM758.618 123.8V167.72H760.618V123.8H758.618ZM758.618 167.72C758.618 172.89 758.723 177.07 758.935 180.252C759.144 183.392 759.463 185.673 759.939 186.966L761.816 186.274C761.452 185.287 761.141 183.278 760.93 180.118C760.723 177 760.618 172.87 760.618 167.72H758.618ZM759.946 186.982C760.802 189.185 761.727 191.101 762.726 192.724L764.429 191.676C763.508 190.179 762.633 188.375 761.81 186.258L759.946 186.982ZM762.711 192.7C764.734 196.205 768.238 197.88 772.938 197.88V195.88C768.758 195.88 766.021 194.435 764.444 191.7L762.711 192.7ZM772.938 197.88C777.519 197.88 780.966 197.29 783.032 195.912L781.923 194.248C780.389 195.27 777.476 195.88 772.938 195.88V197.88ZM781.478 195.08V198.68H783.478V195.08H781.478ZM781.9 197.864C776.303 201.828 770.204 203.8 763.578 203.8V205.8C770.632 205.8 777.132 203.692 783.056 199.496L781.9 197.864ZM763.578 203.8C753.644 203.8 746.242 201.435 741.21 196.86L739.865 198.34C745.393 203.365 753.351 205.8 763.578 205.8V203.8ZM741.21 196.86C736.249 192.35 733.618 184.133 733.618 171.86H731.618C731.618 184.307 734.266 193.25 739.865 198.34L741.21 196.86ZM733.618 171.86V123.8H731.618V171.86H733.618ZM732.618 122.8H719.298V124.8H732.618V122.8ZM720.298 123.8V120.2H718.298V123.8H720.298ZM719.298 121.2H732.618V119.2H719.298V121.2ZM732.782 121.186C738.771 120.188 744.06 117.316 748.634 112.618L747.201 111.222C742.896 115.644 737.984 118.292 732.453 119.214L732.782 121.186ZM748.643 112.608C753.244 107.759 756.37 101.152 758.077 92.8616L756.118 92.4583C754.465 100.488 751.471 106.721 747.192 111.232L748.643 112.608ZM757.098 93.66H759.618V91.66H757.098V93.66ZM758.618 92.66V120.2H760.618V92.66H758.618ZM759.618 121.2H780.498V119.2H759.618V121.2ZM779.498 120.2V123.8H781.498V120.2H779.498ZM780.498 122.8H759.618V124.8H780.498V122.8Z" fill="url(#paint5_linear_38_2)"/>
<path d="M952.364 204.4C951.164 205.6 948.884 206.68 945.524 207.64C942.164 208.48 938.264 208.9 933.824 208.9C923.984 208.9 917.804 205.96 915.284 200.08C909.284 206.32 900.104 209.44 887.744 209.44C881.144 209.44 875.684 207.94 871.364 204.94C867.164 201.82 865.064 197.26 865.064 191.26C865.064 183.22 868.184 177.04 874.424 172.72C880.664 168.28 891.584 165.16 907.184 163.36L914.384 162.46V153.64C914.384 143.2 913.604 136.18 912.044 132.58C910.484 128.98 907.364 127.18 902.684 127.18C898.124 127.18 895.184 127.84 893.864 129.16C892.544 130.36 892.064 131.8 892.424 133.48C892.784 135.04 893.384 137.14 894.224 139.78C895.064 142.42 895.484 144.52 895.484 146.08C895.484 149.8 894.164 152.98 891.524 155.62C889.004 158.14 885.884 159.4 882.164 159.4C878.564 159.4 875.444 158.14 872.804 155.62C870.164 152.98 868.844 149.8 868.844 146.08C868.844 139.96 871.964 134.74 878.204 130.42C884.564 125.98 893.984 123.76 906.464 123.76C919.064 123.76 928.004 126.22 933.284 131.14C938.684 136.06 941.384 144.76 941.384 157.24V189.64C941.384 196 942.164 200.02 943.724 201.7C945.284 203.26 948.164 203.56 952.364 202.6V204.4ZM890.084 187.66C890.684 192.22 892.364 195.76 895.124 198.28C897.884 200.68 901.064 201.88 904.664 201.88C908.384 201.88 911.624 200.08 914.384 196.48V165.88L907.904 166.78C902.384 167.5 897.884 169.6 894.404 173.08C891.044 176.56 889.604 181.42 890.084 187.66Z" fill="url(#paint6_linear_38_2)"/>
<path d="M952.364 204.4L953.071 205.107L953.364 204.814V204.4H952.364ZM945.524 207.64L945.766 208.61L945.782 208.606L945.798 208.602L945.524 207.64ZM915.284 200.08L916.203 199.686L915.609 198.299L914.563 199.387L915.284 200.08ZM871.364 204.94L870.767 205.743L870.78 205.752L870.793 205.761L871.364 204.94ZM874.424 172.72L874.993 173.542L875.004 173.535L874.424 172.72ZM907.184 163.36L907.298 164.353L907.308 164.352L907.184 163.36ZM914.384 162.46L914.508 163.452L915.384 163.343V162.46H914.384ZM912.044 132.58L912.961 132.182L912.961 132.182L912.044 132.58ZM893.864 129.16L894.536 129.9L894.554 129.884L894.571 129.867L893.864 129.16ZM892.424 133.48L891.446 133.69L891.448 133.697L891.449 133.705L892.424 133.48ZM894.224 139.78L893.271 140.083L893.271 140.083L894.224 139.78ZM891.524 155.62L892.231 156.327L892.231 156.327L891.524 155.62ZM872.804 155.62L872.097 156.327L872.105 156.335L872.113 156.343L872.804 155.62ZM878.204 130.42L878.773 131.242L878.776 131.24L878.204 130.42ZM933.284 131.14L932.602 131.872L932.61 131.879L933.284 131.14ZM943.724 201.7L942.991 202.38L943.004 202.394L943.017 202.407L943.724 201.7ZM952.364 202.6H953.364V201.346L952.141 201.625L952.364 202.6ZM890.084 187.66L889.087 187.737L889.089 187.764L889.092 187.79L890.084 187.66ZM895.124 198.28L894.449 199.018L894.458 199.027L894.468 199.035L895.124 198.28ZM914.384 196.48L915.177 197.088L915.384 196.819V196.48H914.384ZM914.384 165.88H915.384V164.732L914.246 164.89L914.384 165.88ZM907.904 166.78L908.033 167.772L908.041 167.77L907.904 166.78ZM894.404 173.08L893.697 172.373L893.69 172.379L893.684 172.385L894.404 173.08ZM951.657 203.693C950.649 204.701 948.584 205.726 945.249 206.678L945.798 208.602C949.183 207.634 951.679 206.499 953.071 205.107L951.657 203.693ZM945.281 206.67C942.019 207.485 938.204 207.9 933.824 207.9V209.9C938.324 209.9 942.308 209.475 945.766 208.61L945.281 206.67ZM933.824 207.9C924.139 207.9 918.487 205.017 916.203 199.686L914.365 200.474C917.12 206.903 923.828 209.9 933.824 209.9V207.9ZM914.563 199.387C908.82 205.36 899.95 208.44 887.744 208.44V210.44C900.258 210.44 909.748 207.28 916.005 200.773L914.563 199.387ZM887.744 208.44C881.295 208.44 876.048 206.976 871.934 204.119L870.793 205.761C875.319 208.904 880.992 210.44 887.744 210.44V208.44ZM871.96 204.137C868.054 201.235 866.064 196.997 866.064 191.26H864.064C864.064 197.523 866.274 202.405 870.767 205.743L871.96 204.137ZM866.064 191.26C866.064 183.525 869.041 177.663 874.993 173.542L873.855 171.898C867.326 176.417 864.064 182.915 864.064 191.26H866.064ZM875.004 173.535C881.024 169.251 891.725 166.15 907.298 164.353L907.069 162.367C891.443 164.17 880.303 167.309 873.844 171.905L875.004 173.535ZM907.308 164.352L914.508 163.452L914.26 161.468L907.06 162.368L907.308 164.352ZM915.384 162.46V153.64H913.384V162.46H915.384ZM915.384 153.64C915.384 148.399 915.188 143.994 914.793 140.435C914.399 136.891 913.801 134.119 912.961 132.182L911.126 132.978C911.847 134.641 912.419 137.179 912.805 140.655C913.189 144.116 913.384 148.441 913.384 153.64H915.384ZM912.961 132.182C912.104 130.204 910.796 128.681 909.033 127.664C907.283 126.654 905.148 126.18 902.684 126.18V128.18C904.9 128.18 906.665 128.606 908.034 129.396C909.391 130.179 910.424 131.356 911.126 132.978L912.961 132.182ZM902.684 126.18C900.364 126.18 898.408 126.347 896.84 126.699C895.288 127.048 894.01 127.6 893.157 128.453L894.571 129.867C895.038 129.4 895.89 128.962 897.278 128.651C898.649 128.343 900.444 128.18 902.684 128.18V126.18ZM893.191 128.42C891.62 129.848 891.008 131.645 891.446 133.69L893.402 133.27C893.12 131.955 893.468 130.872 894.536 129.9L893.191 128.42ZM891.449 133.705C891.818 135.303 892.428 137.433 893.271 140.083L895.177 139.477C894.34 136.847 893.749 134.776 893.398 133.255L891.449 133.705ZM893.271 140.083C894.1 142.689 894.484 144.673 894.484 146.08H896.484C896.484 144.367 896.028 142.151 895.177 139.477L893.271 140.083ZM894.484 146.08C894.484 149.534 893.27 152.46 890.817 154.913L892.231 156.327C895.058 153.5 896.484 150.066 896.484 146.08H894.484ZM890.817 154.913C888.493 157.236 885.631 158.4 882.164 158.4V160.4C886.136 160.4 889.514 159.044 892.231 156.327L890.817 154.913ZM882.164 158.4C878.825 158.4 875.951 157.242 873.494 154.897L872.113 156.343C874.936 159.038 878.303 160.4 882.164 160.4V158.4ZM873.511 154.913C871.058 152.46 869.844 149.534 869.844 146.08H867.844C867.844 150.066 869.27 153.5 872.097 156.327L873.511 154.913ZM869.844 146.08C869.844 140.368 872.73 135.426 878.773 131.242L877.635 129.598C871.198 134.054 867.844 139.552 867.844 146.08H869.844ZM878.776 131.24C884.894 126.969 894.074 124.76 906.464 124.76V122.76C893.893 122.76 884.233 124.991 877.631 129.6L878.776 131.24ZM906.464 124.76C918.984 124.76 927.604 127.214 932.602 131.872L933.965 130.408C928.404 125.226 919.144 122.76 906.464 122.76V124.76ZM932.61 131.879C937.695 136.512 940.384 144.852 940.384 157.24H942.384C942.384 144.668 939.673 135.608 933.957 130.401L932.61 131.879ZM940.384 157.24V189.64H942.384V157.24H940.384ZM940.384 189.64C940.384 192.853 940.58 195.518 940.987 197.615C941.388 199.684 942.019 201.333 942.991 202.38L944.457 201.02C943.869 200.387 943.329 199.186 942.95 197.235C942.577 195.312 942.384 192.787 942.384 189.64H940.384ZM943.017 202.407C944.979 204.369 948.354 204.542 952.587 203.575L952.141 201.625C947.974 202.578 945.589 202.151 944.431 200.993L943.017 202.407ZM951.364 202.6V204.4H953.364V202.6H951.364ZM889.092 187.79C889.716 192.528 891.478 196.305 894.449 199.018L895.798 197.542C893.25 195.215 891.652 191.912 891.075 187.53L889.092 187.79ZM894.468 199.035C897.406 201.59 900.818 202.88 904.664 202.88V200.88C901.309 200.88 898.361 199.77 895.78 197.525L894.468 199.035ZM904.664 202.88C908.764 202.88 912.274 200.875 915.177 197.088L913.59 195.872C910.973 199.285 908.004 200.88 904.664 200.88V202.88ZM915.384 196.48V165.88H913.384V196.48H915.384ZM914.246 164.89L907.766 165.79L908.041 167.77L914.521 166.87L914.246 164.89ZM907.774 165.788C902.066 166.533 897.353 168.717 893.697 172.373L895.111 173.787C898.415 170.483 902.702 168.467 908.033 167.772L907.774 165.788ZM893.684 172.385C890.071 176.128 888.592 181.301 889.087 187.737L891.081 187.583C890.616 181.539 892.016 176.992 895.123 173.775L893.684 172.385Z" fill="url(#paint7_linear_38_2)"/>
<g filter="url(#filter0_f_38_2)">
<path d="M211.367 256.788H208.487C208.487 264.468 206.039 271.572 201.143 278.1C196.247 284.628 189.239 287.892 180.119 287.892C175.031 287.892 170.807 284.916 167.447 278.964C164.183 273.012 162.551 262.836 162.551 248.436C162.551 234.036 164.183 223.86 167.447 217.908C170.807 211.956 175.991 208.98 182.999 208.98C190.103 208.98 196.055 211.188 200.855 215.604C205.751 220.02 208.775 226.26 209.927 234.324H212.807C211.463 224.82 208.103 217.716 202.727 213.012C197.447 208.404 191.111 206.1 183.719 206.1C169.415 206.1 158.423 209.508 150.743 216.324C143.159 223.236 139.367 233.988 139.367 248.58C139.367 263.268 143.063 273.972 150.455 280.692C157.943 287.412 167.831 290.772 180.119 290.772C186.743 290.772 193.175 288.996 199.415 285.444C201.431 284.196 203.063 283.572 204.311 283.572C205.655 283.572 206.711 284.148 207.479 285.3C208.247 286.548 208.631 287.748 208.631 288.9H211.367V256.788ZM297.705 211.14H304.905V208.26H268.905V211.14H276.105V251.46C276.105 258.276 275.097 263.124 273.081 266.004C271.065 268.884 268.041 270.324 264.009 270.324C258.537 270.324 254.169 267.444 250.905 261.684V211.14H258.105V208.26H222.105V211.14H229.305V301.86H222.105V304.74H250.905V267.012C252.729 269.604 255.561 271.764 259.401 273.492C263.241 275.22 267.465 276.084 272.073 276.084C289.161 276.084 297.705 266.82 297.705 248.292V211.14ZM384.757 211.14C383.797 210.18 381.973 209.316 379.285 208.548C376.597 207.876 373.477 207.54 369.925 207.54C362.053 207.54 357.109 209.892 355.093 214.596C350.293 209.604 342.949 207.108 333.061 207.108C327.781 207.108 323.413 208.308 319.957 210.708C316.597 213.204 314.917 216.852 314.917 221.652C314.917 228.084 317.413 233.028 322.405 236.484C327.397 240.036 336.133 242.532 348.613 243.972L354.373 244.692V251.748C354.373 260.1 353.749 265.716 352.501 268.596C351.253 271.476 348.757 272.916 345.013 272.916C341.365 272.916 339.013 272.388 337.957 271.332C336.901 270.372 336.517 269.22 336.805 267.876C337.093 266.628 337.573 264.948 338.245 262.836C338.917 260.724 339.253 259.044 339.253 257.796C339.253 254.82 338.197 252.276 336.085 250.164C334.069 248.148 331.573 247.14 328.597 247.14C325.717 247.14 323.221 248.148 321.109 250.164C318.997 252.276 317.941 254.82 317.941 257.796C317.941 262.692 320.437 266.868 325.429 270.324C330.517 273.876 338.053 275.652 348.037 275.652C358.117 275.652 365.269 273.684 369.493 269.748C373.813 265.812 375.973 258.852 375.973 248.868V222.948C375.973 217.86 376.597 214.644 377.845 213.3C379.093 212.052 381.397 211.812 384.757 212.58V211.14ZM334.933 224.532C335.413 220.884 336.757 218.052 338.965 216.036C341.173 214.116 343.717 213.156 346.597 213.156C349.573 213.156 352.165 214.596 354.373 217.476V241.956L349.189 241.236C344.773 240.66 341.173 238.98 338.389 236.196C335.701 233.412 334.549 229.524 334.933 224.532ZM429.386 208.26H393.386V211.14H400.586V271.62H393.386V274.5H422.186V257.364C423.05 262.068 424.586 265.908 426.794 268.884C429.098 271.86 431.594 273.828 434.282 274.788C437.066 275.748 439.706 276.228 442.202 276.228C444.794 276.228 447.242 275.748 449.546 274.788C451.946 273.924 453.722 272.1 454.874 269.316C456.026 266.628 456.074 263.892 455.018 261.108C453.962 258.42 452.09 256.5 449.402 255.348C446.81 254.196 444.41 254.052 442.202 254.916C439.994 255.78 438.41 256.932 437.45 258.372C436.49 259.908 435.818 261.348 435.434 262.692C434.474 266.244 433.178 268.02 431.546 268.02C429.722 268.02 427.706 264.852 425.498 258.516C423.29 252.276 422.186 245.652 422.186 238.644V211.14H429.386V208.26ZM489.492 271.62V236.484C489.492 228.228 489.828 223.188 490.5 221.364C491.172 219.636 491.892 218.148 492.66 216.9C494.1 214.404 496.596 213.156 500.148 213.156C503.796 213.156 506.34 213.636 507.78 214.596V211.716C503.172 208.452 498.132 206.82 492.66 206.82C484.596 206.82 478.452 208.74 474.228 212.58C470.004 216.42 467.892 223.284 467.892 233.172V271.62H457.236V274.5H467.892C472.5 275.268 476.58 277.476 480.132 281.124C483.684 284.868 486.132 290.004 487.476 296.532H489.492V274.5H506.196V271.62H489.492Z" fill="url(#paint8_linear_38_2)"/>
<path d="M720.899 215.492C719.939 214.532 718.115 213.668 715.427 212.9C712.739 212.228 709.619 211.892 706.067 211.892C698.195 211.892 693.251 214.244 691.235 218.948C686.435 213.956 679.091 211.46 669.203 211.46C663.923 211.46 659.555 212.66 656.099 215.06C652.739 217.556 651.059 221.204 651.059 226.004C651.059 232.436 653.555 237.38 658.547 240.836C663.539 244.388 672.275 246.884 684.755 248.324L690.515 249.044V256.1C690.515 264.452 689.891 270.068 688.643 272.948C687.395 275.828 684.899 277.268 681.155 277.268C677.507 277.268 675.155 276.74 674.099 275.684C673.043 274.724 672.659 273.572 672.947 272.228C673.235 270.98 673.715 269.3 674.387 267.188C675.059 265.076 675.395 263.396 675.395 262.148C675.395 259.172 674.339 256.628 672.227 254.516C670.211 252.5 667.715 251.492 664.739 251.492C661.859 251.492 659.363 252.5 657.251 254.516C655.139 256.628 654.083 259.172 654.083 262.148C654.083 267.044 656.579 271.22 661.571 274.676C666.659 278.228 674.195 280.004 684.179 280.004C694.259 280.004 701.411 278.036 705.635 274.1C709.955 270.164 712.115 263.204 712.115 253.22V227.3C712.115 222.212 712.739 218.996 713.987 217.652C715.235 216.404 717.539 216.164 720.899 216.932V215.492ZM671.075 228.884C671.555 225.236 672.899 222.404 675.107 220.388C677.315 218.468 679.859 217.508 682.739 217.508C685.715 217.508 688.307 218.948 690.515 221.828V246.308L685.331 245.588C680.915 245.012 677.315 243.332 674.531 240.548C671.843 237.764 670.691 233.876 671.075 228.884ZM756.023 275.972V240.836C756.023 232.58 756.359 227.54 757.031 225.716C757.703 223.988 758.423 222.5 759.191 221.252C760.631 218.756 763.127 217.508 766.679 217.508C770.327 217.508 772.871 217.988 774.311 218.948V216.068C769.703 212.804 764.663 211.172 759.191 211.172C751.127 211.172 744.983 213.092 740.759 216.932C736.535 220.772 734.423 227.636 734.423 237.524V275.972H723.767V278.852H734.423C739.031 279.62 743.111 281.828 746.663 285.476C750.215 289.22 752.663 294.356 754.007 300.884H756.023V278.852H772.727V275.972H756.023Z" fill="url(#paint9_linear_38_2)"/>
<path d="M1129.21 208.26C1129.21 210.468 1128.59 212.292 1127.34 213.732C1126.09 215.268 1124.46 216.036 1122.44 216.036C1120.52 216.036 1118.51 215.22 1116.39 213.588C1114.38 211.956 1111.98 210.276 1109.19 208.548C1106.51 206.916 1103.24 206.1 1099.4 206.1C1086.35 206.1 1076.22 209.46 1069.02 216.18C1061.91 222.9 1058.36 233.22 1058.36 247.14C1058.36 276.228 1071.95 290.772 1099.11 290.772C1104.01 290.772 1109 289.572 1114.09 287.172C1119.27 284.772 1122.44 283.572 1123.59 283.572C1124.75 283.572 1125.71 284.148 1126.47 285.3C1127.24 286.548 1127.63 287.748 1127.63 288.9H1130.36V259.668H1127.48C1127.48 266.964 1124.6 273.492 1118.84 279.252C1113.18 285.012 1106.6 287.892 1099.11 287.892C1093.35 287.892 1088.99 284.772 1086.01 278.532C1083.03 272.388 1081.55 262.164 1081.55 247.86C1081.55 233.652 1083.03 223.62 1086.01 217.764C1089.08 211.908 1093.55 208.98 1099.4 208.98C1108.62 208.98 1113.23 217.188 1113.23 233.604V244.26H1104.15V247.14H1138.71V244.26H1131.95V208.26H1129.21ZM1176.21 211.14H1183.41V208.26H1147.41V211.14H1154.61V301.86H1147.41V304.74H1176.21V211.14ZM1263.38 211.14C1262.42 210.18 1260.59 209.316 1257.9 208.548C1255.22 207.876 1252.1 207.54 1248.54 207.54C1240.67 207.54 1235.73 209.892 1233.71 214.596C1228.91 209.604 1221.57 207.108 1211.68 207.108C1206.4 207.108 1202.03 208.308 1198.58 210.708C1195.22 213.204 1193.54 216.852 1193.54 221.652C1193.54 228.084 1196.03 233.028 1201.02 236.484C1206.02 240.036 1214.75 242.532 1227.23 243.972L1232.99 244.692V251.748C1232.99 260.1 1232.37 265.716 1231.12 268.596C1229.87 271.476 1227.38 272.916 1223.63 272.916C1219.98 272.916 1217.63 272.388 1216.58 271.332C1215.52 270.372 1215.14 269.22 1215.42 267.876C1215.71 266.628 1216.19 264.948 1216.86 262.836C1217.54 260.724 1217.87 259.044 1217.87 257.796C1217.87 254.82 1216.82 252.276 1214.7 250.164C1212.69 248.148 1210.19 247.14 1207.22 247.14C1204.34 247.14 1201.84 248.148 1199.73 250.164C1197.62 252.276 1196.56 254.82 1196.56 257.796C1196.56 262.692 1199.06 266.868 1204.05 270.324C1209.14 273.876 1216.67 275.652 1226.66 275.652C1236.74 275.652 1243.89 273.684 1248.11 269.748C1252.43 265.812 1254.59 258.852 1254.59 248.868V222.948C1254.59 217.86 1255.22 214.644 1256.46 213.3C1257.71 212.052 1260.02 211.812 1263.38 212.58V211.14ZM1213.55 224.532C1214.03 220.884 1215.38 218.052 1217.58 216.036C1219.79 214.116 1222.34 213.156 1225.22 213.156C1228.19 213.156 1230.78 214.596 1232.99 217.476V241.956L1227.81 241.236C1223.39 240.66 1219.79 238.98 1217.01 236.196C1214.32 233.412 1213.17 229.524 1213.55 224.532ZM1347.61 211.14H1354.81V208.26H1318.81V211.14H1326.01V251.46C1326.01 258.276 1325 263.124 1322.98 266.004C1320.97 268.884 1317.94 270.324 1313.91 270.324C1308.44 270.324 1304.07 267.444 1300.81 261.684V211.14H1308.01V208.26H1272.01V211.14H1279.21V271.62H1272.01V274.5H1300.81V267.012C1302.63 269.508 1305.46 271.62 1309.3 273.348C1313.24 275.172 1317.46 276.084 1321.97 276.084C1339.06 276.084 1347.61 266.82 1347.61 248.292V211.14ZM1363.38 241.38C1363.38 252.708 1366.69 261.3 1373.31 267.156C1379.94 273.012 1388.34 275.94 1398.51 275.94C1408.79 275.94 1416.42 273.348 1421.41 268.164C1426.4 263.076 1428.18 257.796 1426.74 252.324C1425.97 249.348 1424.34 247.14 1421.84 245.7C1419.44 244.356 1416.8 244.02 1413.92 244.692C1407.87 246.132 1404.85 249.636 1404.85 255.204C1404.85 256.644 1404.99 258.804 1405.28 261.684C1405.67 264.66 1405.81 266.82 1405.71 268.164C1405.62 269.508 1405.33 270.564 1404.85 271.332C1403.89 272.964 1401.63 273.588 1398.08 273.204C1389.44 271.86 1385.12 261.252 1385.12 241.38C1385.12 221.604 1392.18 211.716 1406.29 211.716C1409.55 211.716 1412.87 212.58 1416.23 214.308C1419.59 216.036 1422.08 218.1 1423.71 220.5L1425.73 219.06C1423.52 215.412 1420.21 212.484 1415.79 210.276C1411.38 208.068 1406.43 206.964 1400.96 206.964C1375.91 206.964 1363.38 218.436 1363.38 241.38ZM1500.89 237.06H1457.4C1458.36 220.164 1464.94 211.716 1477.13 211.716C1480.39 211.716 1484.09 212.484 1488.22 214.02C1492.44 215.556 1495.51 217.716 1497.43 220.5L1499.45 219.06C1497.34 215.508 1493.74 212.58 1488.65 210.276C1483.56 207.972 1478.47 206.82 1473.38 206.82C1468.39 206.82 1463.88 207.3 1459.85 208.26C1455.82 209.316 1451.88 211.044 1448.04 213.444C1444.2 215.844 1441.18 219.444 1438.97 224.244C1436.86 229.044 1435.8 234.852 1435.8 241.668C1435.8 253.284 1439.02 261.876 1445.45 267.444C1451.88 273.108 1459.66 275.94 1468.78 275.94C1477.99 275.94 1485.62 272.868 1491.67 266.724C1497.82 260.58 1500.89 250.692 1500.89 237.06ZM1457.26 239.94H1480.73C1480.73 248.772 1479.77 256.5 1477.85 263.124C1476.02 269.748 1473.05 273.06 1468.92 273.06C1464.79 273.06 1461.82 269.844 1459.99 263.412C1458.17 257.076 1457.26 249.78 1457.26 241.524V239.94Z" fill="url(#paint10_linear_38_2)"/>
<path d="M944.252 218.399C943.292 217.439 941.468 216.575 938.78 215.807C936.092 215.135 932.972 214.799 929.42 214.799C921.548 214.799 916.604 217.151 914.588 221.855C909.788 216.863 902.444 214.367 892.556 214.367C887.276 214.367 882.908 215.567 879.452 217.967C876.092 220.463 874.412 224.111 874.412 228.911C874.412 235.343 876.908 240.287 881.9 243.743C886.892 247.295 895.628 249.791 908.108 251.231L913.868 251.951V259.007C913.868 267.359 913.244 272.975 911.996 275.855C910.748 278.735 908.252 280.175 904.508 280.175C900.86 280.175 898.508 279.647 897.452 278.591C896.396 277.631 896.012 276.479 896.3 275.135C896.588 273.887 897.068 272.207 897.74 270.095C898.412 267.983 898.748 266.303 898.748 265.055C898.748 262.079 897.692 259.535 895.58 257.423C893.564 255.407 891.068 254.399 888.092 254.399C885.212 254.399 882.716 255.407 880.604 257.423C878.492 259.535 877.436 262.079 877.436 265.055C877.436 269.951 879.932 274.127 884.924 277.583C890.012 281.135 897.548 282.911 907.532 282.911C917.612 282.911 924.764 280.943 928.988 277.007C933.308 273.071 935.468 266.111 935.468 256.127V230.207C935.468 225.119 936.092 221.903 937.34 220.559C938.588 219.311 940.892 219.071 944.252 219.839V218.399ZM894.428 231.791C894.908 228.143 896.252 225.311 898.46 223.295C900.668 221.375 903.212 220.415 906.092 220.415C909.068 220.415 911.66 221.855 913.868 224.735V249.215L908.684 248.495C904.268 247.919 900.668 246.239 897.884 243.455C895.196 240.671 894.044 236.783 894.428 231.791Z" fill="url(#paint11_linear_38_2)"/>
</g>
<defs>
<filter id="filter0_f_38_2" x="123.367" y="190.1" width="1393.52" height="130.64" filterUnits="userSpaceOnUse" color-interpolation-filters="sRGB">
<feFlood flood-opacity="0" result="BackgroundImageFix"/>
<feBlend mode="normal" in="SourceGraphic" in2="BackgroundImageFix" result="shape"/>
<feGaussianBlur stdDeviation="8" result="effect1_foregroundBlur_38_2"/>
</filter>
<linearGradient id="paint0_linear_38_2" x1="1730.9" y1="138.446" x2="743.128" y2="124.037" gradientUnits="userSpaceOnUse">
<stop stop-color="#434FBF" stop-opacity="0.73"/>
<stop offset="1" stop-color="#4552BF" stop-opacity="0.26"/>
</linearGradient>
<linearGradient id="paint1_linear_38_2" x1="1316.16" y1="0" x2="1316.16" y2="281.506" gradientUnits="userSpaceOnUse">
<stop stop-color="#69C0FF"/>
<stop offset="1" stop-color="#FFE8E8" stop-opacity="0.65"/>
</linearGradient>
<linearGradient id="paint2_linear_38_2" x1="589.821" y1="138.899" x2="-46.68" y2="132.804" gradientUnits="userSpaceOnUse">
<stop stop-color="#434FBF" stop-opacity="0.73"/>
<stop offset="1" stop-color="#4552BF" stop-opacity="0.26"/>
</linearGradient>
<linearGradient id="paint3_linear_38_2" x1="322.604" y1="3" x2="322.604" y2="279.326" gradientUnits="userSpaceOnUse">
<stop stop-color="#69C0FF"/>
<stop offset="1" stop-color="#FFE8E8" stop-opacity="0.65"/>
</linearGradient>
<linearGradient id="paint4_linear_38_2" x1="884.108" y1="149.747" x2="452.168" y2="146.208" gradientUnits="userSpaceOnUse">
<stop stop-color="#434FBF" stop-opacity="0.73"/>
<stop offset="1" stop-color="#4552BF" stop-opacity="0.26"/>
</linearGradient>
<linearGradient id="paint5_linear_38_2" x1="702.774" y1="42" x2="702.774" y2="261.085" gradientUnits="userSpaceOnUse">
<stop stop-color="#69C0FF"/>
<stop offset="1" stop-color="#FFE8E8" stop-opacity="0.65"/>
</linearGradient>
<linearGradient id="paint6_linear_38_2" x1="1030.65" y1="155.048" x2="735.883" y2="152.743" gradientUnits="userSpaceOnUse">
<stop stop-color="#434FBF" stop-opacity="0.73"/>
<stop offset="1" stop-color="#4552BF" stop-opacity="0.26"/>
</linearGradient>
<linearGradient id="paint7_linear_38_2" x1="906.907" y1="78" x2="906.907" y2="234.664" gradientUnits="userSpaceOnUse">
<stop stop-color="#69C0FF"/>
<stop offset="1" stop-color="#FFE8E8" stop-opacity="0.65"/>
</linearGradient>
<linearGradient id="paint8_linear_38_2" x1="374.589" y1="87.8264" x2="370.395" y2="471.108" gradientUnits="userSpaceOnUse">
<stop stop-color="#8F80CC" stop-opacity="0.31"/>
<stop offset="1" stop-color="#3300FF"/>
</linearGradient>
<linearGradient id="paint9_linear_38_2" x1="733.564" y1="111.19" x2="729.2" y2="371.09" gradientUnits="userSpaceOnUse">
<stop stop-color="#8F80CC" stop-opacity="0.31"/>
<stop offset="1" stop-color="#3300FF"/>
</linearGradient>
<linearGradient id="paint10_linear_38_2" x1="1349.37" y1="54.8264" x2="1346.23" y2="438.128" gradientUnits="userSpaceOnUse">
<stop stop-color="#8F80CC" stop-opacity="0.31"/>
<stop offset="1" stop-color="#3300FF"/>
</linearGradient>
<linearGradient id="paint11_linear_38_2" x1="927.082" y1="116.893" x2="922.52" y2="359.563" gradientUnits="userSpaceOnUse">
<stop stop-color="#8F80CC" stop-opacity="0.31"/>
<stop offset="1" stop-color="#3300FF"/>
</linearGradient>
</defs>
</svg>
