<svg width="1304" height="531" viewBox="0 0 1304 531" fill="none" xmlns="http://www.w3.org/2000/svg">
<g filter="url(#filter0_d_0_1)">
<path d="M589.763 396C589.763 393.148 588.957 390.792 587.345 388.932C585.733 386.948 583.625 385.956 581.021 385.956C578.541 385.956 575.937 387.01 573.209 389.118C570.605 391.226 567.505 393.396 563.909 395.628C560.437 397.736 556.221 398.79 551.261 398.79C534.397 398.79 521.315 394.45 512.015 385.77C502.839 377.09 498.251 363.76 498.251 345.78C498.251 308.208 515.797 289.422 550.889 289.422C557.213 289.422 563.661 290.972 570.233 294.072C576.929 297.172 581.021 298.722 582.509 298.722C583.997 298.722 585.237 297.978 586.229 296.49C587.221 294.878 587.717 293.328 587.717 291.84H591.251V329.598H587.531C587.531 320.174 583.811 311.742 576.371 304.302C569.055 296.862 560.561 293.142 550.889 293.142C543.449 293.142 537.807 297.172 533.963 305.232C530.119 313.168 528.197 326.374 528.197 344.85C528.197 363.202 530.119 376.16 533.963 383.724C537.931 391.288 543.697 395.07 551.261 395.07C563.165 395.07 569.117 384.468 569.117 363.264V349.5H557.399V345.78H602.039V349.5H593.297V396H589.763ZM650.473 392.28H659.773V396H613.273V392.28H622.573V275.1H613.273V271.38H650.473V392.28ZM763.061 392.28C761.821 393.52 759.465 394.636 755.993 395.628C752.521 396.496 748.491 396.93 743.903 396.93C733.735 396.93 727.349 393.892 724.745 387.816C718.545 394.264 709.059 397.488 696.287 397.488C689.467 397.488 683.825 395.938 679.361 392.838C675.021 389.614 672.851 384.902 672.851 378.702C672.851 370.394 676.075 364.008 682.523 359.544C688.971 354.956 700.255 351.732 716.375 349.872L723.815 348.942V339.828C723.815 329.04 723.009 321.786 721.397 318.066C719.785 314.346 716.561 312.486 711.725 312.486C707.013 312.486 703.975 313.168 702.611 314.532C701.247 315.772 700.751 317.26 701.123 318.996C701.495 320.608 702.115 322.778 702.983 325.506C703.851 328.234 704.285 330.404 704.285 332.016C704.285 335.86 702.921 339.146 700.193 341.874C697.589 344.478 694.365 345.78 690.521 345.78C686.801 345.78 683.577 344.478 680.849 341.874C678.121 339.146 676.757 335.86 676.757 332.016C676.757 325.692 679.981 320.298 686.429 315.834C693.001 311.246 702.735 308.952 715.631 308.952C728.651 308.952 737.889 311.494 743.345 316.578C748.925 321.662 751.715 330.652 751.715 343.548V377.028C751.715 383.6 752.521 387.754 754.133 389.49C755.745 391.102 758.721 391.412 763.061 390.42V392.28ZM698.705 374.982C699.325 379.694 701.061 383.352 703.913 385.956C706.765 388.436 710.051 389.676 713.771 389.676C717.615 389.676 720.963 387.816 723.815 384.096V352.476L717.119 353.406C711.415 354.15 706.765 356.32 703.169 359.916C699.697 363.512 698.209 368.534 698.705 374.982ZM871.857 392.28H881.157V396H834.657V392.28H843.957V340.2C843.957 331.396 842.655 325.134 840.051 321.414C837.447 317.694 833.541 315.834 828.333 315.834C821.265 315.834 815.623 319.554 811.407 326.994V392.28H820.707V396H774.207V392.28H783.507V314.16H774.207V310.44H811.407V320.112C813.763 316.888 817.421 314.16 822.381 311.928C827.465 309.572 832.921 308.394 838.749 308.394C860.821 308.394 871.857 320.36 871.857 344.292V392.28ZM892.229 353.22C892.229 338.588 896.507 327.49 905.063 319.926C913.619 312.362 924.469 308.58 937.613 308.58C950.881 308.58 960.739 311.928 967.187 318.624C973.635 325.196 975.929 332.016 974.069 339.084C973.077 342.928 970.969 345.78 967.745 347.64C964.645 349.376 961.235 349.81 957.515 348.942C949.703 347.082 945.797 342.556 945.797 335.364C945.797 333.504 945.983 330.714 946.355 326.994C946.851 323.15 947.037 320.36 946.913 318.624C946.789 316.888 946.417 315.524 945.797 314.532C944.557 312.424 941.643 311.618 937.055 312.114C925.895 313.85 920.315 327.552 920.315 353.22C920.315 378.764 929.429 391.536 947.657 391.536C951.873 391.536 956.151 390.42 960.491 388.188C964.831 385.956 968.055 383.29 970.163 380.19L972.767 382.05C969.915 386.762 965.637 390.544 959.933 393.396C954.229 396.248 947.843 397.674 940.775 397.674C908.411 397.674 892.229 382.856 892.229 353.22ZM1069.85 358.8H1013.67C1014.91 380.624 1023.41 391.536 1039.16 391.536C1043.37 391.536 1048.15 390.544 1053.48 388.56C1058.93 386.576 1062.9 383.786 1065.38 380.19L1067.99 382.05C1065.26 386.638 1060.61 390.42 1054.04 393.396C1047.46 396.372 1040.89 397.86 1034.32 397.86C1027.87 397.86 1022.04 397.24 1016.84 396C1011.63 394.636 1006.54 392.404 1001.58 389.304C996.624 386.204 992.718 381.554 989.866 375.354C987.138 369.154 985.774 361.652 985.774 352.848C985.774 337.844 989.928 326.746 998.236 319.554C1006.54 312.238 1016.59 308.58 1028.37 308.58C1040.27 308.58 1050.13 312.548 1057.94 320.484C1065.88 328.42 1069.85 341.192 1069.85 358.8ZM1013.49 355.08H1043.81C1043.81 343.672 1042.57 333.69 1040.09 325.134C1037.73 316.578 1033.89 312.3 1028.55 312.3C1023.22 312.3 1019.38 316.454 1017.02 324.762C1014.67 332.946 1013.49 342.37 1013.49 353.034V355.08Z" fill="url(#paint0_linear_0_1)"/>
<path d="M522.357 179.34H518.757C518.757 169.74 515.697 160.86 509.577 152.7C503.457 144.54 494.697 140.46 483.297 140.46C476.937 140.46 471.657 144.18 467.457 151.62C463.377 159.06 461.337 171.78 461.337 189.78C461.337 207.78 463.377 220.5 467.457 227.94C471.657 235.38 478.137 239.1 486.897 239.1C495.777 239.1 503.217 236.34 509.217 230.82C515.337 225.3 519.117 217.5 520.557 207.42H524.157C522.477 219.3 518.277 228.18 511.557 234.06C504.957 239.82 497.037 242.7 487.797 242.7C469.917 242.7 456.177 238.44 446.577 229.92C437.097 221.28 432.357 207.84 432.357 189.6C432.357 171.24 436.977 157.86 446.217 149.46C455.577 141.06 467.937 136.86 483.297 136.86C491.577 136.86 499.617 139.08 507.417 143.52C509.937 145.08 511.977 145.86 513.537 145.86C515.217 145.86 516.537 145.14 517.497 143.7C518.457 142.14 518.937 140.64 518.937 139.2H522.357V179.34ZM630.28 236.4H639.28V240H594.28V236.4H603.28V186C603.28 177.48 602.02 171.42 599.5 167.82C596.98 164.22 593.2 162.42 588.16 162.42C581.32 162.42 575.86 166.02 571.78 173.22V236.4H580.78V240H535.78V236.4H544.78V123H535.78V119.4H571.78V166.56C574.06 163.32 577.6 160.62 582.4 158.46C587.2 156.3 592.48 155.22 598.24 155.22C619.6 155.22 630.28 166.8 630.28 189.96V236.4ZM739.096 236.4C737.896 237.6 735.616 238.68 732.256 239.64C728.896 240.48 724.996 240.9 720.556 240.9C710.716 240.9 704.536 237.96 702.016 232.08C696.016 238.32 686.836 241.44 674.476 241.44C667.876 241.44 662.416 239.94 658.096 236.94C653.896 233.82 651.796 229.26 651.796 223.26C651.796 215.22 654.916 209.04 661.156 204.72C667.396 200.28 678.316 197.16 693.916 195.36L701.116 194.46V185.64C701.116 175.2 700.336 168.18 698.776 164.58C697.216 160.98 694.096 159.18 689.416 159.18C684.856 159.18 681.916 159.84 680.596 161.16C679.276 162.36 678.796 163.8 679.156 165.48C679.516 167.04 680.116 169.14 680.956 171.78C681.796 174.42 682.216 176.52 682.216 178.08C682.216 181.8 680.896 184.98 678.256 187.62C675.736 190.14 672.616 191.4 668.896 191.4C665.296 191.4 662.176 190.14 659.536 187.62C656.896 184.98 655.576 181.8 655.576 178.08C655.576 171.96 658.696 166.74 664.936 162.42C671.296 157.98 680.716 155.76 693.196 155.76C705.796 155.76 714.736 158.22 720.016 163.14C725.416 168.06 728.116 176.76 728.116 189.24V221.64C728.116 228 728.896 232.02 730.456 233.7C732.016 235.26 734.896 235.56 739.096 234.6V236.4ZM676.816 219.66C677.416 224.22 679.096 227.76 681.856 230.28C684.616 232.68 687.796 233.88 691.396 233.88C695.116 233.88 698.356 232.08 701.116 228.48V197.88L694.636 198.78C689.116 199.5 684.616 201.6 681.136 205.08C677.776 208.56 676.336 213.42 676.816 219.66ZM794.882 240H749.882V236.4H758.882V160.8H749.882V157.2H785.882V178.62C786.962 172.74 788.882 167.94 791.642 164.22C794.522 160.5 797.642 158.04 801.002 156.84C804.482 155.64 807.782 155.04 810.902 155.04C814.142 155.04 817.202 155.64 820.082 156.84C823.082 157.92 825.302 160.2 826.742 163.68C828.182 167.04 828.242 170.46 826.922 173.94C825.602 177.3 823.262 179.7 819.902 181.14C816.662 182.58 813.662 182.76 810.902 181.68C808.142 180.6 806.162 179.16 804.962 177.36C803.762 175.44 802.922 173.64 802.442 171.96C801.242 167.52 799.622 165.3 797.582 165.3C795.302 165.3 792.782 169.26 790.022 177.18C787.262 184.98 785.882 193.26 785.882 202.02V236.4H794.882V240ZM870.013 160.8V204.72C870.013 215.04 870.433 221.34 871.273 223.62C872.113 225.78 873.013 227.64 873.973 229.2C875.773 232.32 878.893 233.88 883.333 233.88C887.893 233.88 891.073 233.28 892.873 232.08V235.68C887.113 239.76 880.813 241.8 873.973 241.8C863.893 241.8 856.213 239.4 850.933 234.6C845.653 229.8 843.013 221.22 843.013 208.86V160.8H829.693V157.2H843.013C848.773 156.24 853.873 153.48 858.313 148.92C862.753 144.24 865.813 137.82 867.493 129.66H870.013V157.2H890.893V160.8H870.013Z" fill="url(#paint1_linear_0_1)"/>
<path d="M1008.19 238.08C1007.55 238.72 1006.34 239.296 1004.55 239.808C1002.75 240.256 1000.67 240.48 998.307 240.48C993.059 240.48 989.763 238.912 988.419 235.776C985.219 239.104 980.323 240.768 973.731 240.768C970.211 240.768 967.299 239.968 964.995 238.368C962.755 236.704 961.635 234.272 961.635 231.072C961.635 226.784 963.299 223.488 966.627 221.184C969.955 218.816 975.779 217.152 984.099 216.192L987.939 215.712V211.008C987.939 205.44 987.523 201.696 986.691 199.776C985.859 197.856 984.195 196.896 981.699 196.896C979.267 196.896 977.699 197.248 976.995 197.952C976.291 198.592 976.035 199.36 976.227 200.256C976.419 201.088 976.739 202.208 977.187 203.616C977.635 205.024 977.859 206.144 977.859 206.976C977.859 208.96 977.155 210.656 975.747 212.064C974.403 213.408 972.739 214.08 970.755 214.08C968.835 214.08 967.171 213.408 965.763 212.064C964.355 210.656 963.651 208.96 963.651 206.976C963.651 203.712 965.315 200.928 968.643 198.624C972.035 196.256 977.059 195.072 983.715 195.072C990.435 195.072 995.203 196.384 998.019 199.008C1000.9 201.632 1002.34 206.272 1002.34 212.928V230.208C1002.34 233.6 1002.75 235.744 1003.59 236.64C1004.42 237.472 1005.95 237.632 1008.19 237.12V238.08ZM974.979 229.152C975.299 231.584 976.195 233.472 977.667 234.816C979.139 236.096 980.835 236.736 982.755 236.736C984.739 236.736 986.467 235.776 987.939 233.856V217.536L984.483 218.016C981.539 218.4 979.139 219.52 977.283 221.376C975.491 223.232 974.723 225.824 974.979 229.152ZM1031.61 197.76V221.184C1031.61 226.688 1031.84 230.048 1032.28 231.264C1032.73 232.416 1033.21 233.408 1033.72 234.24C1034.68 235.904 1036.35 236.736 1038.72 236.736C1041.15 236.736 1042.84 236.416 1043.8 235.776V237.696C1040.73 239.872 1037.37 240.96 1033.72 240.96C1028.35 240.96 1024.25 239.68 1021.44 237.12C1018.62 234.56 1017.21 229.984 1017.21 223.392V197.76H1010.11V195.84H1017.21C1020.28 195.328 1023 193.856 1025.37 191.424C1027.74 188.928 1029.37 185.504 1030.27 181.152H1031.61V195.84H1042.75V197.76H1031.61Z" fill="url(#paint2_linear_0_1)"/>
<path d="M467.66 381.12C466.7 382.08 464.876 382.944 462.188 383.712C459.5 384.384 456.38 384.72 452.828 384.72C444.956 384.72 440.012 382.368 437.996 377.664C433.196 382.656 425.852 385.152 415.964 385.152C410.684 385.152 406.316 383.952 402.86 381.552C399.5 379.056 397.82 375.408 397.82 370.608C397.82 364.176 400.316 359.232 405.308 355.776C410.3 352.224 419.036 349.728 431.516 348.288L437.276 347.568V340.512C437.276 332.16 436.652 326.544 435.404 323.664C434.156 320.784 431.66 319.344 427.916 319.344C424.268 319.344 421.916 319.872 420.86 320.928C419.804 321.888 419.42 323.04 419.708 324.384C419.996 325.632 420.476 327.312 421.148 329.424C421.82 331.536 422.156 333.216 422.156 334.464C422.156 337.44 421.1 339.984 418.988 342.096C416.972 344.112 414.476 345.12 411.5 345.12C408.62 345.12 406.124 344.112 404.012 342.096C401.9 339.984 400.844 337.44 400.844 334.464C400.844 329.568 403.34 325.392 408.332 321.936C413.42 318.384 420.956 316.608 430.94 316.608C441.02 316.608 448.172 318.576 452.396 322.512C456.716 326.448 458.876 333.408 458.876 343.392V369.312C458.876 374.4 459.5 377.616 460.748 378.96C461.996 380.208 464.3 380.448 467.66 379.68V381.12ZM417.836 367.728C418.316 371.376 419.66 374.208 421.868 376.224C424.076 378.144 426.62 379.104 429.5 379.104C432.476 379.104 435.068 377.664 437.276 374.784V350.304L432.092 351.024C427.676 351.6 424.076 353.28 421.292 356.064C418.604 358.848 417.452 362.736 417.836 367.728Z" fill="url(#paint3_linear_0_1)"/>
</g>
<path d="M226 368.87C203.449 374.163 179.771 375.378 156.594 372.432C133.417 369.487 111.29 362.45 91.737 351.806C72.1834 341.162 55.6663 327.163 43.3213 310.772C30.9763 294.381 23.0964 275.987 20.2233 256.854C17.3503 237.722 19.5523 218.305 26.6779 199.938C33.8035 181.572 45.6838 164.692 61.5017 150.459C77.3195 136.226 96.6998 124.978 118.31 117.488C139.92 109.998 163.247 106.444 186.687 107.071L184.675 157.926C170.169 157.538 155.733 159.738 142.36 164.373C128.986 169.008 116.993 175.969 107.204 184.777C97.4146 193.585 90.0624 204.032 85.6526 215.398C81.2429 226.764 79.8802 238.781 81.6582 250.621C83.4362 262.461 88.3127 273.845 95.9525 283.989C103.592 294.132 113.814 302.795 125.915 309.383C138.016 315.97 151.709 320.324 166.052 322.147C180.395 323.97 195.049 323.218 209.005 319.943L226 368.87Z" fill="url(#paint4_linear_0_1)"/>
<path d="M79.781 301.088C63.7861 340.502 92.0245 383.773 134.542 385.001L452 394.175L2 407L159.256 107L88.395 279.862L79.781 301.088Z" fill="url(#paint5_linear_0_1)" stroke="white" stroke-width="2"/>
<rect x="133.237" y="270.377" width="63.3392" height="95.4026" rx="22" fill="url(#paint6_linear_0_1)" stroke="white" stroke-width="2"/>
<rect x="359.888" y="97" width="63.3392" height="193.804" rx="22" fill="url(#paint7_linear_0_1)" stroke="white" stroke-width="2"/>
<rect x="60" y="319.078" width="63.3392" height="75.9221" rx="22" fill="url(#paint8_linear_0_1)" stroke="white" stroke-width="2"/>
<rect x="203.391" y="202.195" width="63.3392" height="114.883" rx="22" fill="url(#paint9_linear_0_1)" stroke="white" stroke-width="2"/>
<rect x="277.399" y="127.519" width="63.3392" height="140.857" rx="22" fill="url(#paint10_linear_0_1)" stroke="white" stroke-width="2"/>
<defs>
<filter id="filter0_d_0_1" x="397.82" y="119.4" width="674.026" height="281.39" filterUnits="userSpaceOnUse" color-interpolation-filters="sRGB">
<feFlood flood-opacity="0" result="BackgroundImageFix"/>
<feColorMatrix in="SourceAlpha" type="matrix" values="0 0 0 0 0 0 0 0 0 0 0 0 0 0 0 0 0 0 127 0" result="hardAlpha"/>
<feOffset dx="2" dy="2"/>
<feComposite in2="hardAlpha" operator="out"/>
<feColorMatrix type="matrix" values="0 0 0 0 1 0 0 0 0 1 0 0 0 0 1 0 0 0 0.5 0"/>
<feBlend mode="normal" in2="BackgroundImageFix" result="effect1_dropShadow_0_1"/>
<feBlend mode="normal" in="SourceGraphic" in2="effect1_dropShadow_0_1" result="shape"/>
</filter>
<linearGradient id="paint0_linear_0_1" x1="787.769" y1="186.969" x2="787.769" y2="509.892" gradientUnits="userSpaceOnUse">
<stop stop-color="white" stop-opacity="0.71"/>
<stop offset="1" stop-color="#1B00FF" stop-opacity="0.34"/>
</linearGradient>
<linearGradient id="paint1_linear_0_1" x1="664.769" y1="32.9686" x2="664.769" y2="355.892" gradientUnits="userSpaceOnUse">
<stop stop-color="white" stop-opacity="0.71"/>
<stop offset="1" stop-color="#1B00FF" stop-opacity="0.34"/>
</linearGradient>
<linearGradient id="paint2_linear_0_1" x1="1004.77" y1="56.9686" x2="1004.77" y2="379.892" gradientUnits="userSpaceOnUse">
<stop stop-color="white" stop-opacity="0.71"/>
<stop offset="1" stop-color="#1B00FF" stop-opacity="0.34"/>
</linearGradient>
<linearGradient id="paint3_linear_0_1" x1="434.769" y1="186.969" x2="434.769" y2="509.892" gradientUnits="userSpaceOnUse">
<stop stop-color="white" stop-opacity="0.71"/>
<stop offset="1" stop-color="#1B00FF" stop-opacity="0.34"/>
</linearGradient>
<linearGradient id="paint4_linear_0_1" x1="198.405" y1="31.5839" x2="198.405" y2="298.584" gradientUnits="userSpaceOnUse">
<stop stop-color="#FF0000"/>
<stop offset="1" stop-color="#0000FF" stop-opacity="0"/>
</linearGradient>
<linearGradient id="paint5_linear_0_1" x1="-4.76471" y1="411.967" x2="274.916" y2="132.34" gradientUnits="userSpaceOnUse">
<stop stop-color="#00810D"/>
<stop offset="1" stop-color="#0500FF"/>
</linearGradient>
<linearGradient id="paint6_linear_0_1" x1="196.141" y1="367.895" x2="160.433" y2="368.975" gradientUnits="userSpaceOnUse">
<stop stop-color="white" stop-opacity="0.69"/>
<stop offset="1" stop-color="#000AFF" stop-opacity="0.84"/>
</linearGradient>
<linearGradient id="paint7_linear_0_1" x1="422.791" y1="294.046" x2="387.059" y2="294.584" gradientUnits="userSpaceOnUse">
<stop stop-color="white" stop-opacity="0.69"/>
<stop offset="1" stop-color="#000AFF" stop-opacity="0.84"/>
</linearGradient>
<linearGradient id="paint8_linear_0_1" x1="122.903" y1="396.892" x2="87.2141" y2="398.242" gradientUnits="userSpaceOnUse">
<stop stop-color="white" stop-opacity="0.69"/>
<stop offset="1" stop-color="#000AFF" stop-opacity="0.84"/>
</linearGradient>
<linearGradient id="paint9_linear_0_1" x1="266.294" y1="319.416" x2="230.577" y2="320.316" gradientUnits="userSpaceOnUse">
<stop stop-color="white" stop-opacity="0.69"/>
<stop offset="1" stop-color="#000AFF" stop-opacity="0.84"/>
</linearGradient>
<linearGradient id="paint10_linear_0_1" x1="340.303" y1="271.012" x2="304.578" y2="271.749" gradientUnits="userSpaceOnUse">
<stop stop-color="white" stop-opacity="0.69"/>
<stop offset="1" stop-color="#000AFF" stop-opacity="0.84"/>
</linearGradient>
</defs>
</svg>
