<svg width="300" height="300" viewBox="0 0 462 352" fill="none" xmlns="http://www.w3.org/2000/svg">
<path d="M319.018 193.464H398.218C400.33 193.464 402.154 194.232 403.69 195.768C405.226 197.304 405.994 199.128 405.994 201.24V238.68C405.994 264.024 396.97 283.608 378.922 297.432C360.874 311.064 336.778 317.88 306.634 317.88C276.682 317.88 253.066 311.256 235.786 298.008C218.506 284.568 209.866 264.504 209.866 237.816V189.432C209.866 163.896 218.698 144.408 236.362 130.968C254.026 117.336 277.546 110.52 306.922 110.52C336.49 110.52 360.394 116.76 378.634 129.24C396.874 141.528 405.994 156.696 405.994 174.744C405.994 176.472 405.322 178.008 403.978 179.352C402.826 180.504 401.386 181.08 399.658 181.08H336.01C332.17 181.08 329.386 180.024 327.658 177.912C323.818 172.92 320.938 170.04 319.018 169.272C314.602 167.544 310.57 166.68 306.922 166.68C292.138 166.68 284.746 173.88 284.746 188.28V237.24C284.746 253.56 292.618 261.72 308.362 261.72C324.49 261.72 332.554 254.808 332.554 240.984H319.018C316.906 240.984 315.082 240.216 313.546 238.68C312.01 237.144 311.242 235.32 311.242 233.208V201.24C311.242 199.128 312.01 197.304 313.546 195.768C315.082 194.232 316.906 193.464 319.018 193.464Z" fill="url(#paint0_linear_0_1)"/>
<path d="M282.39 314.793C259.688 320.165 235.85 321.399 212.518 318.409C189.185 315.419 166.91 308.277 147.225 297.474C127.541 286.67 110.913 272.462 98.4846 255.825C86.0567 239.189 78.1239 220.519 75.2315 201.1C72.3392 181.68 74.556 161.972 81.7295 143.331C88.903 124.689 100.863 107.556 116.787 93.1098C132.711 78.6636 152.222 67.247 173.977 59.6449C195.732 52.0429 219.216 48.4357 242.813 49.0716L240.788 100.689C226.185 100.296 211.652 102.528 198.188 107.233C184.725 111.937 172.651 119.002 162.796 127.942C152.941 136.883 145.54 147.485 141.1 159.022C136.661 170.558 135.289 182.755 137.079 194.773C138.869 206.79 143.778 218.344 151.469 228.64C159.16 238.936 169.451 247.729 181.633 254.414C193.815 261.1 207.6 265.52 222.039 267.371C236.479 269.221 251.231 268.457 265.281 265.133L282.39 314.793Z" fill="url(#paint1_linear_0_1)"/>
<path d="M96.4275 206.151C80.9639 245.454 109.158 288.2 151.375 289.458L451 298.388L22 311L171.918 16L104.363 185.981L96.4275 206.151Z" fill="url(#paint2_linear_0_1)" stroke="white" stroke-width="2"/>
<path d="M12.5931 330.168V338.232C12.5931 340.824 13.7771 342.12 16.1451 342.12C17.9691 342.12 19.1691 341.256 19.7451 339.528C19.9051 338.984 20.0971 338.616 20.3211 338.424C20.5771 338.232 20.9771 338.136 21.5211 338.136H31.3131C31.6011 338.136 31.8411 338.248 32.0331 338.472C32.2571 338.664 32.3691 338.904 32.3691 339.192C32.3691 341.976 31.5691 344.312 29.9691 346.2C27.0251 349.72 22.4331 351.48 16.1931 351.48C11.2971 351.48 7.39313 350.408 4.48113 348.264C1.56913 346.088 0.113125 342.76 0.113125 338.28V330.12C0.113125 325.736 1.60113 322.44 4.57713 320.232C7.55313 318.024 11.4251 316.92 16.1931 316.92C22.4331 316.92 27.0251 318.68 29.9691 322.2C31.5691 324.088 32.3691 326.424 32.3691 329.208C32.3691 329.496 32.2571 329.752 32.0331 329.976C31.8411 330.168 31.6011 330.264 31.3131 330.264H21.5211C21.0091 330.264 20.6251 330.168 20.3691 329.976C20.1451 329.784 19.9371 329.416 19.7451 328.872C19.1371 327.144 17.9371 326.28 16.1451 326.28C13.7771 326.28 12.5931 327.576 12.5931 330.168ZM48.1645 336.792V349.704C48.1645 350.056 48.0365 350.36 47.7805 350.616C47.5245 350.872 47.2205 351 46.8685 351H37.5085C37.1565 351 36.8525 350.872 36.5965 350.616C36.3405 350.36 36.2125 350.056 36.2125 349.704V318.216C36.2125 317.864 36.3405 317.56 36.5965 317.304C36.8525 317.048 37.1565 316.92 37.5085 316.92H46.8685C47.2205 316.92 47.5245 317.048 47.7805 317.304C48.0365 317.56 48.1645 317.864 48.1645 318.216V328.536C49.9885 326.552 52.3245 325.56 55.1725 325.56C58.0205 325.56 60.3725 326.488 62.2285 328.344C64.0845 330.2 65.0125 332.904 65.0125 336.456V349.656C65.0125 350.008 64.8845 350.312 64.6285 350.568C64.3725 350.824 64.0685 350.952 63.7165 350.952H54.3085C53.9565 350.952 53.6525 350.824 53.3965 350.568C53.1405 350.312 53.0125 350.008 53.0125 349.656V336.792C53.0125 335.032 52.1965 334.152 50.5645 334.152C48.9645 334.152 48.1645 335.032 48.1645 336.792ZM68.8675 343.848C68.8675 339.528 72.3715 336.76 79.3795 335.544L84.4675 334.728C84.4675 333.768 84.3875 333.128 84.2275 332.808C84.0675 332.456 83.6835 332.28 83.0755 332.28C82.4995 332.28 81.9235 332.536 81.3475 333.048C80.7715 333.56 80.2275 333.816 79.7155 333.816H71.5555C70.8515 333.816 70.4995 333.48 70.4995 332.808C70.4995 332.104 70.7395 331.368 71.2195 330.6C71.7315 329.8 72.4515 329.016 73.3795 328.248C74.3395 327.48 75.6675 326.84 77.3635 326.328C79.0915 325.816 81.0115 325.56 83.1235 325.56C87.4115 325.56 90.6275 326.456 92.7715 328.248C94.9155 330.04 95.9875 332.6 95.9875 335.928V349.704C95.9875 350.056 95.8595 350.36 95.6035 350.616C95.3475 350.872 95.0435 351 94.6915 351H86.2915C85.9395 351 85.6355 350.872 85.3795 350.616C85.1235 350.36 84.9955 350.056 84.9955 349.704V348.36C83.4915 350.44 81.2995 351.48 78.4195 351.48C75.5395 351.48 73.2195 350.76 71.4595 349.32C69.7315 347.848 68.8675 346.024 68.8675 343.848ZM81.4915 344.376C83.5715 344.376 84.6115 343.128 84.6115 340.632L81.7795 341.256C80.3715 341.576 79.6675 342.168 79.6675 343.032C79.6675 343.416 79.8275 343.736 80.1475 343.992C80.4675 344.248 80.9155 344.376 81.4915 344.376ZM111.037 327.336V329.016C113.277 327.032 115.773 326.04 118.525 326.04H120.829C121.181 326.04 121.485 326.168 121.741 326.424C121.997 326.68 122.125 326.984 122.125 327.336V334.824C122.125 335.176 121.997 335.48 121.741 335.736C121.485 335.992 121.181 336.12 120.829 336.12H114.637C113.773 336.12 113.085 336.328 112.573 336.744C112.093 337.128 111.821 337.656 111.757 338.328V349.704C111.757 350.056 111.629 350.36 111.373 350.616C111.117 350.872 110.813 351 110.461 351H101.341C100.989 351 100.685 350.872 100.429 350.616C100.173 350.36 100.045 350.056 100.045 349.704V327.336C100.045 326.984 100.173 326.68 100.429 326.424C100.685 326.168 100.989 326.04 101.341 326.04H109.741C110.093 326.04 110.397 326.168 110.653 326.424C110.909 326.68 111.037 326.984 111.037 327.336ZM140.378 334.44V339.72C140.378 341.32 141.066 342.12 142.442 342.12H146.81C147.162 342.12 147.466 342.248 147.722 342.504C147.978 342.76 148.106 343.064 148.106 343.416V349.704C148.106 350.056 147.978 350.36 147.722 350.616C147.466 350.872 147.162 351 146.81 351H141.386C133.386 351 129.386 347.56 129.386 340.68V334.44H125.594C125.242 334.44 124.938 334.312 124.682 334.056C124.426 333.8 124.298 333.496 124.298 333.144V327.336C124.298 326.984 124.426 326.68 124.682 326.424C124.938 326.168 125.242 326.04 125.594 326.04H129.386V318.216C129.386 317.864 129.514 317.56 129.77 317.304C130.026 317.048 130.33 316.92 130.682 316.92H139.082C139.434 316.92 139.738 317.048 139.994 317.304C140.25 317.56 140.378 317.864 140.378 318.216V326.04H146.426C146.778 326.04 147.082 326.168 147.338 326.424C147.594 326.68 147.722 326.984 147.722 327.336V333.144C147.722 333.496 147.594 333.8 147.338 334.056C147.082 334.312 146.778 334.44 146.426 334.44H140.378ZM164.68 343.848C164.68 339.528 168.184 336.76 175.192 335.544L180.28 334.728C180.28 333.768 180.2 333.128 180.04 332.808C179.88 332.456 179.496 332.28 178.888 332.28C178.312 332.28 177.736 332.536 177.16 333.048C176.584 333.56 176.04 333.816 175.528 333.816H167.368C166.664 333.816 166.312 333.48 166.312 332.808C166.312 332.104 166.552 331.368 167.032 330.6C167.544 329.8 168.264 329.016 169.192 328.248C170.152 327.48 171.48 326.84 173.176 326.328C174.904 325.816 176.824 325.56 178.936 325.56C183.224 325.56 186.44 326.456 188.584 328.248C190.728 330.04 191.8 332.6 191.8 335.928V349.704C191.8 350.056 191.672 350.36 191.416 350.616C191.16 350.872 190.856 351 190.504 351H182.104C181.752 351 181.448 350.872 181.192 350.616C180.936 350.36 180.808 350.056 180.808 349.704V348.36C179.304 350.44 177.112 351.48 174.232 351.48C171.352 351.48 169.032 350.76 167.272 349.32C165.544 347.848 164.68 346.024 164.68 343.848ZM177.304 344.376C179.384 344.376 180.424 343.128 180.424 340.632L177.592 341.256C176.184 341.576 175.48 342.168 175.48 343.032C175.48 343.416 175.64 343.736 175.96 343.992C176.28 344.248 176.728 344.376 177.304 344.376ZM210.738 334.44V339.72C210.738 341.32 211.426 342.12 212.802 342.12H217.17C217.522 342.12 217.826 342.248 218.082 342.504C218.338 342.76 218.466 343.064 218.466 343.416V349.704C218.466 350.056 218.338 350.36 218.082 350.616C217.826 350.872 217.522 351 217.17 351H211.746C203.746 351 199.746 347.56 199.746 340.68V334.44H195.954C195.602 334.44 195.298 334.312 195.042 334.056C194.786 333.8 194.658 333.496 194.658 333.144V327.336C194.658 326.984 194.786 326.68 195.042 326.424C195.298 326.168 195.602 326.04 195.954 326.04H199.746V318.216C199.746 317.864 199.874 317.56 200.13 317.304C200.386 317.048 200.69 316.92 201.042 316.92H209.442C209.794 316.92 210.098 317.048 210.354 317.304C210.61 317.56 210.738 317.864 210.738 318.216V326.04H216.786C217.138 326.04 217.442 326.168 217.698 326.424C217.954 326.68 218.082 326.984 218.082 327.336V333.144C218.082 333.496 217.954 333.8 217.698 334.056C217.442 334.312 217.138 334.44 216.786 334.44H210.738ZM246.991 317.4H257.407C258.559 317.4 259.279 317.928 259.567 318.984L270.271 349.608C270.303 349.704 270.319 349.864 270.319 350.088C270.319 350.28 270.207 350.488 269.983 350.712C269.791 350.904 269.551 351 269.263 351H260.383C259.423 351 258.799 350.6 258.511 349.8L257.359 346.632H247.039L245.887 349.8C245.599 350.6 244.975 351 244.015 351H235.135C234.847 351 234.591 350.904 234.367 350.712C234.175 350.488 234.079 350.28 234.079 350.088C234.079 349.864 234.095 349.704 234.127 349.608L244.831 318.984C245.119 317.928 245.839 317.4 246.991 317.4ZM249.487 337.272H254.911L252.175 328.344L249.487 337.272ZM305.321 330.744H318.521C318.873 330.744 319.177 330.872 319.433 331.128C319.689 331.384 319.817 331.688 319.817 332.04V338.28C319.817 342.504 318.313 345.768 315.305 348.072C312.297 350.344 308.281 351.48 303.257 351.48C298.265 351.48 294.329 350.376 291.449 348.168C288.569 345.928 287.129 342.584 287.129 338.136V330.072C287.129 325.816 288.601 322.568 291.545 320.328C294.489 318.056 298.409 316.92 303.305 316.92C308.233 316.92 312.217 317.96 315.257 320.04C318.297 322.088 319.817 324.616 319.817 327.624C319.817 327.912 319.705 328.168 319.481 328.392C319.289 328.584 319.049 328.68 318.761 328.68H308.153C307.513 328.68 307.049 328.504 306.761 328.152C306.121 327.32 305.641 326.84 305.321 326.712C304.585 326.424 303.913 326.28 303.305 326.28C300.841 326.28 299.609 327.48 299.609 329.88V338.04C299.609 340.76 300.921 342.12 303.545 342.12C306.233 342.12 307.577 340.968 307.577 338.664H305.321C304.969 338.664 304.665 338.536 304.409 338.28C304.153 338.024 304.025 337.72 304.025 337.368V332.04C304.025 331.688 304.153 331.384 304.409 331.128C304.665 330.872 304.969 330.744 305.321 330.744ZM334.288 351H325.696C325.344 351 325.04 350.872 324.784 350.616C324.528 350.36 324.4 350.056 324.4 349.704V318.216C324.4 317.864 324.528 317.56 324.784 317.304C325.04 317.048 325.344 316.92 325.696 316.92H334.288C334.64 316.92 334.944 317.048 335.2 317.304C335.456 317.56 335.584 317.864 335.584 318.216V349.704C335.584 350.056 335.456 350.36 335.2 350.616C334.944 350.872 334.64 351 334.288 351ZM339.664 343.848C339.664 339.528 343.168 336.76 350.176 335.544L355.264 334.728C355.264 333.768 355.184 333.128 355.024 332.808C354.864 332.456 354.48 332.28 353.872 332.28C353.296 332.28 352.72 332.536 352.144 333.048C351.568 333.56 351.024 333.816 350.512 333.816H342.352C341.648 333.816 341.296 333.48 341.296 332.808C341.296 332.104 341.536 331.368 342.016 330.6C342.528 329.8 343.248 329.016 344.176 328.248C345.136 327.48 346.464 326.84 348.16 326.328C349.888 325.816 351.808 325.56 353.92 325.56C358.208 325.56 361.424 326.456 363.568 328.248C365.712 330.04 366.784 332.6 366.784 335.928V349.704C366.784 350.056 366.656 350.36 366.4 350.616C366.144 350.872 365.84 351 365.488 351H357.088C356.736 351 356.432 350.872 356.176 350.616C355.92 350.36 355.792 350.056 355.792 349.704V348.36C354.288 350.44 352.096 351.48 349.216 351.48C346.336 351.48 344.016 350.76 342.256 349.32C340.528 347.848 339.664 346.024 339.664 343.848ZM352.288 344.376C354.368 344.376 355.408 343.128 355.408 340.632L352.576 341.256C351.168 341.576 350.464 342.168 350.464 343.032C350.464 343.416 350.624 343.736 350.944 343.992C351.264 344.248 351.712 344.376 352.288 344.376ZM399.594 336.456V349.704C399.594 350.056 399.466 350.36 399.21 350.616C398.954 350.872 398.65 351 398.298 351H389.13C388.778 351 388.474 350.872 388.218 350.616C387.962 350.36 387.834 350.056 387.834 349.704V336.792C387.834 335.032 387.034 334.152 385.434 334.152C383.834 334.152 383.034 335.032 383.034 336.792V349.704C383.034 350.056 382.906 350.36 382.65 350.616C382.394 350.872 382.09 351 381.738 351H372.618C372.266 351 371.962 350.872 371.706 350.616C371.45 350.36 371.322 350.056 371.322 349.704V327.336C371.322 326.984 371.45 326.68 371.706 326.424C371.962 326.168 372.266 326.04 372.618 326.04H381.018C381.37 326.04 381.674 326.168 381.93 326.424C382.186 326.68 382.314 326.984 382.314 327.336V328.92C383.146 327.928 384.266 327.128 385.674 326.52C387.114 325.88 388.65 325.56 390.282 325.56C392.906 325.56 395.114 326.488 396.906 328.344C398.698 330.168 399.594 332.872 399.594 336.456ZM415.174 336.84V340.2C415.174 341.288 415.318 342.072 415.606 342.552C415.894 343.032 416.342 343.272 416.95 343.272C417.558 343.272 417.974 343.176 418.198 342.984C418.422 342.76 418.646 342.36 418.87 341.784C419.126 341.176 419.59 340.872 420.262 340.872H429.622C429.974 340.872 430.278 341 430.534 341.256C430.79 341.512 430.918 341.848 430.918 342.264C430.918 342.68 430.774 343.24 430.486 343.944C430.198 344.648 429.702 345.448 428.998 346.344C428.294 347.24 427.43 348.072 426.406 348.84C425.382 349.576 424.038 350.2 422.374 350.712C420.71 351.224 418.87 351.48 416.854 351.48C412.854 351.48 409.606 350.44 407.11 348.36C404.646 346.248 403.414 343.336 403.414 339.624V337.416C403.414 333.704 404.646 330.808 407.11 328.728C409.606 326.616 412.854 325.56 416.854 325.56C419.222 325.56 421.366 325.928 423.286 326.664C425.206 327.368 426.678 328.248 427.702 329.304C428.758 330.328 429.558 331.336 430.102 332.328C430.646 333.32 430.918 334.088 430.918 334.632C430.918 335.144 430.79 335.528 430.534 335.784C430.278 336.04 429.974 336.168 429.622 336.168H420.262C419.654 336.168 419.19 335.848 418.87 335.208C418.422 334.248 417.83 333.768 417.094 333.768C415.814 333.768 415.174 334.792 415.174 336.84ZM460.088 341.352H445.784V341.592C445.784 343.544 446.408 344.52 447.656 344.52C448.008 344.52 448.44 344.264 448.952 343.752C449.464 343.24 450.024 342.984 450.632 342.984H459.704C460.408 342.984 460.76 343.336 460.76 344.04C460.76 345.608 459.576 347.24 457.208 348.936C454.872 350.632 451.688 351.48 447.656 351.48C443.656 351.48 440.376 350.44 437.816 348.36C435.288 346.248 434.024 343.352 434.024 339.672V337.368C434.024 333.88 435.32 331.048 437.912 328.872C440.504 326.664 443.896 325.56 448.088 325.56C452.312 325.56 455.576 326.792 457.88 329.256C460.216 331.72 461.384 334.84 461.384 338.616V340.056C461.384 340.408 461.256 340.712 461 340.968C460.744 341.224 460.44 341.352 460.088 341.352ZM449.624 335.16C449.624 333.24 448.984 332.28 447.704 332.28C446.424 332.28 445.784 333.24 445.784 335.16V335.352H449.624V335.16Z" fill="#AD8B13"/>
<rect x="147.176" y="176.11" width="57.9315" height="96.3766" rx="22" fill="url(#paint3_linear_0_1)" stroke="white" stroke-width="2"/>
<rect x="355.068" y="1" width="57.9315" height="195.762" rx="22" fill="url(#paint4_linear_0_1)" stroke="white" stroke-width="2"/>
<rect x="80" y="225.299" width="57.9315" height="76.7013" rx="22" fill="url(#paint5_linear_0_1)" stroke="white" stroke-width="2"/>
<rect x="211.524" y="107.247" width="57.9315" height="116.052" rx="22" fill="url(#paint6_linear_0_1)" stroke="white" stroke-width="2"/>
<rect x="279.407" y="31.8247" width="57.9315" height="142.286" rx="22" fill="url(#paint7_linear_0_1)" stroke="white" stroke-width="2"/>
<defs>
<linearGradient id="paint0_linear_0_1" x1="308" y1="49" x2="308" y2="400" gradientUnits="userSpaceOnUse">
<stop stop-color="#CD3838"/>
<stop offset="1" stop-color="#6D30BA"/>
</linearGradient>
<linearGradient id="paint1_linear_0_1" x1="237.5" y1="-2.61753" x2="237.5" y2="268.382" gradientUnits="userSpaceOnUse">
<stop stop-color="#742A2A"/>
<stop offset="1" stop-color="#30016B" stop-opacity="0"/>
</linearGradient>
<linearGradient id="paint2_linear_0_1" x1="15.551" y1="315.884" x2="290.436" y2="49.4361" gradientUnits="userSpaceOnUse">
<stop stop-color="#00810D"/>
<stop offset="1" stop-color="#0500FF"/>
</linearGradient>
<linearGradient id="paint3_linear_0_1" x1="204.79" y1="274.613" x2="172.033" y2="275.513" gradientUnits="userSpaceOnUse">
<stop stop-color="white" stop-opacity="0.69"/>
<stop offset="1" stop-color="#000AFF" stop-opacity="0.84"/>
</linearGradient>
<linearGradient id="paint4_linear_0_1" x1="412.683" y1="200.027" x2="379.907" y2="200.475" gradientUnits="userSpaceOnUse">
<stop stop-color="white" stop-opacity="0.69"/>
<stop offset="1" stop-color="#000AFF" stop-opacity="0.84"/>
</linearGradient>
<linearGradient id="paint5_linear_0_1" x1="137.614" y1="303.901" x2="104.871" y2="305.025" gradientUnits="userSpaceOnUse">
<stop stop-color="white" stop-opacity="0.69"/>
<stop offset="1" stop-color="#000AFF" stop-opacity="0.84"/>
</linearGradient>
<linearGradient id="paint6_linear_0_1" x1="269.138" y1="225.65" x2="236.373" y2="226.4" gradientUnits="userSpaceOnUse">
<stop stop-color="white" stop-opacity="0.69"/>
<stop offset="1" stop-color="#000AFF" stop-opacity="0.84"/>
</linearGradient>
<linearGradient id="paint7_linear_0_1" x1="337.021" y1="176.762" x2="304.251" y2="177.376" gradientUnits="userSpaceOnUse">
<stop stop-color="white" stop-opacity="0.69"/>
<stop offset="1" stop-color="#000AFF" stop-opacity="0.84"/>
</linearGradient>
</defs>
</svg>
