<svg width="300" height="300" viewBox="0 0 491 442" fill="none" xmlns="http://www.w3.org/2000/svg">
<path d="M172.326 280.609L171.078 276.673C167.366 279.361 163.782 280.705 160.326 280.705C157.19 280.705 154.454 280.145 152.118 279.025C149.782 277.873 147.846 276.369 146.31 274.513C144.774 272.625 143.622 270.497 142.854 268.129C142.118 265.729 141.75 263.281 141.75 260.785C141.75 258.257 142.182 255.793 143.046 253.393C143.942 250.961 145.238 248.801 146.934 246.913C148.662 245.025 150.758 243.505 153.222 242.353C155.686 241.169 158.502 240.577 161.67 240.577C166.086 240.577 170.15 241.537 173.862 243.457V252.673C173.286 252.769 172.774 252.817 172.326 252.817C171.846 252.817 171.446 252.769 171.126 252.673L169.59 244.657C167.542 243.377 164.71 242.737 161.094 242.737C159.078 242.737 157.254 243.201 155.622 244.129C153.99 245.025 152.582 246.257 151.398 247.825C150.214 249.361 149.302 251.185 148.662 253.297C148.022 255.377 147.702 257.601 147.702 259.969C147.702 262.497 147.99 264.833 148.566 266.977C149.174 269.121 150.022 270.977 151.11 272.545C152.198 274.113 153.51 275.345 155.046 276.241C156.614 277.105 158.358 277.537 160.278 277.537C163.382 277.537 166.438 276.689 169.446 274.993V264.769L165.558 264.289C165.494 264.129 165.462 263.873 165.462 263.521C165.462 263.361 165.462 263.201 165.462 263.041C165.462 262.881 165.494 262.705 165.558 262.513C166.454 262.577 167.43 262.625 168.486 262.657C169.574 262.689 170.79 262.705 172.134 262.705C174.47 262.705 176.678 262.657 178.758 262.561C178.854 262.849 178.902 263.137 178.902 263.425C178.902 263.713 178.854 264.001 178.758 264.289L174.774 264.865C174.71 265.473 174.662 266.241 174.63 267.169C174.598 268.097 174.582 269.201 174.582 270.481V275.329L174.102 280.609C173.974 280.673 173.846 280.705 173.718 280.705C173.59 280.705 173.446 280.705 173.286 280.705C173.126 280.705 172.966 280.705 172.806 280.705C172.646 280.705 172.486 280.673 172.326 280.609ZM189.304 249.313V277.297L193.192 278.017C193.32 278.529 193.32 279.169 193.192 279.937C191.176 279.841 189.112 279.793 187 279.793C185.528 279.793 183.448 279.825 180.76 279.889C180.568 279.281 180.568 278.657 180.76 278.017L184.552 277.489C184.68 275.729 184.744 273.697 184.744 271.393V243.889L180.808 243.409C180.68 242.929 180.68 242.321 180.808 241.585C183.016 241.425 185.768 241.089 189.064 240.577C189.352 240.897 189.512 241.217 189.544 241.537C189.384 242.369 189.304 244.961 189.304 249.313ZM200.672 273.361C200.672 275.025 200.976 276.209 201.584 276.913C202.192 277.585 203.152 277.921 204.464 277.921C205.424 277.921 206.48 277.633 207.632 277.057C208.816 276.449 209.904 275.585 210.896 274.465V266.977C207.6 267.169 205.072 267.761 203.312 268.753C201.552 269.713 200.672 271.249 200.672 273.361ZM210.896 265.249V262.801C210.896 260.081 210.576 258.113 209.936 256.897C209.328 255.649 208.304 255.025 206.864 255.025C205.392 255.025 204.208 255.505 203.312 256.465C202.416 257.393 201.808 258.993 201.488 261.265C200.464 261.489 199.712 261.601 199.232 261.601C197.984 261.601 197.248 261.153 197.024 260.257C197.024 258.081 197.968 256.353 199.856 255.073C201.744 253.793 204.096 253.153 206.912 253.153C210.016 253.153 212.208 253.793 213.488 255.073C214.8 256.321 215.456 258.577 215.456 261.841V275.377C215.456 276.177 215.504 276.865 215.6 277.441L219.392 277.921C219.52 278.401 219.52 279.009 219.392 279.745C217.12 279.841 214.704 280.065 212.144 280.417C211.888 280.161 211.728 279.841 211.664 279.457L211.424 276.145C208.768 279.185 205.808 280.705 202.544 280.705C200.528 280.705 198.944 280.129 197.792 278.977C196.672 277.825 196.112 276.273 196.112 274.321C196.112 271.377 197.44 269.153 200.096 267.649C202.784 266.145 206.384 265.345 210.896 265.249ZM241.241 262.609C241.241 260.145 240.905 258.417 240.233 257.425C239.593 256.433 238.505 255.937 236.969 255.937C234.601 255.937 232.217 257.713 229.817 261.265V277.297L233.705 278.017C233.833 278.529 233.833 279.169 233.705 279.937C231.689 279.841 229.625 279.793 227.513 279.793C226.041 279.793 223.961 279.825 221.273 279.889C221.081 279.281 221.081 278.657 221.273 278.017L225.065 277.489C225.193 275.729 225.257 273.697 225.257 271.393V258.241C225.257 257.601 225.209 257.009 225.113 256.465L221.321 255.985C221.193 255.505 221.193 254.897 221.321 254.161C223.529 254.001 226.281 253.665 229.577 253.153C229.865 253.473 230.025 253.793 230.057 254.113C229.897 254.945 229.817 256.369 229.817 258.385C232.345 254.897 235.193 253.153 238.361 253.153C243.321 253.153 245.801 255.505 245.801 260.209V277.297L249.689 278.017C249.817 278.529 249.817 279.169 249.689 279.937C247.673 279.841 245.609 279.793 243.497 279.793C242.025 279.793 239.945 279.825 237.257 279.889C237.065 279.281 237.065 278.657 237.257 278.017L241.049 277.489C241.177 275.729 241.241 273.697 241.241 271.393V262.609ZM273.339 260.257C272.667 260.961 271.083 261.297 268.587 261.265C268.075 257.233 266.619 255.217 264.219 255.217C262.331 255.217 260.731 256.305 259.419 258.481C258.107 260.657 257.451 263.521 257.451 267.073C257.451 270.721 258.027 273.537 259.179 275.521C260.331 277.473 262.059 278.449 264.363 278.449C266.795 278.449 269.179 277.457 271.515 275.473C271.995 275.761 272.363 276.257 272.619 276.961C270.283 279.457 267.355 280.705 263.835 280.705C260.475 280.705 257.723 279.553 255.579 277.249C253.435 274.913 252.363 271.489 252.363 266.977C252.363 262.657 253.547 259.281 255.915 256.849C258.315 254.385 261.051 253.153 264.123 253.153C266.555 253.153 268.699 253.761 270.555 254.977C272.411 256.193 273.339 257.953 273.339 260.257ZM296.898 266.209H281.826C281.538 274.369 283.986 278.449 289.17 278.449C291.378 278.449 293.634 277.473 295.938 275.521C296.418 275.809 296.786 276.305 297.042 277.009C294.834 279.473 292.034 280.705 288.642 280.705C280.834 280.705 276.93 276.113 276.93 266.929C276.93 262.577 278.082 259.201 280.386 256.801C282.69 254.369 285.378 253.153 288.45 253.153C291.81 253.153 294.226 254.321 295.698 256.657C297.17 258.993 297.906 262.033 297.906 265.777C297.586 266.033 297.25 266.177 296.898 266.209ZM288.354 255.073C286.69 255.073 285.266 255.937 284.082 257.665C282.93 259.393 282.226 261.601 281.97 264.289H287.922C290.29 264.289 291.986 264.145 293.01 263.857C293.01 261.233 292.61 259.121 291.81 257.521C291.01 255.889 289.858 255.073 288.354 255.073Z" fill="white" fill-opacity="0.63"/>
<path d="M122.662 262.422C122.662 260.262 124.414 258.878 127.918 258.27L130.462 257.862C130.462 257.382 130.422 257.062 130.342 256.902C130.262 256.726 130.07 256.638 129.766 256.638C129.478 256.638 129.19 256.766 128.902 257.022C128.614 257.278 128.342 257.406 128.086 257.406H124.006C123.654 257.406 123.478 257.238 123.478 256.902C123.478 256.55 123.598 256.182 123.838 255.798C124.094 255.398 124.454 255.006 124.918 254.622C125.398 254.238 126.062 253.918 126.91 253.662C127.774 253.406 128.734 253.278 129.79 253.278C131.934 253.278 133.542 253.726 134.614 254.622C135.686 255.518 136.222 256.798 136.222 258.462V265.35C136.222 265.526 136.158 265.678 136.03 265.806C135.902 265.934 135.75 265.998 135.574 265.998H131.374C131.198 265.998 131.046 265.934 130.918 265.806C130.79 265.678 130.726 265.526 130.726 265.35V264.678C129.974 265.718 128.878 266.238 127.438 266.238C125.998 266.238 124.838 265.878 123.958 265.158C123.094 264.422 122.662 263.51 122.662 262.422ZM128.974 262.686C130.014 262.686 130.534 262.062 130.534 260.814L129.118 261.126C128.414 261.286 128.062 261.582 128.062 262.014C128.062 262.206 128.142 262.366 128.302 262.494C128.462 262.622 128.686 262.686 128.974 262.686Z" fill="white" fill-opacity="0.63"/>
<path d="M238.053 226.808C238.053 227.64 238.205 228.232 238.509 228.584C238.813 228.92 239.293 229.088 239.949 229.088C240.429 229.088 240.957 228.944 241.533 228.656C242.125 228.352 242.669 227.92 243.165 227.36V223.616C241.517 223.712 240.253 224.008 239.373 224.504C238.493 224.984 238.053 225.752 238.053 226.808ZM243.165 222.752V221.528C243.165 220.168 243.005 219.184 242.685 218.576C242.381 217.952 241.869 217.64 241.148 217.64C240.413 217.64 239.821 217.88 239.373 218.36C238.925 218.824 238.621 219.624 238.461 220.76C237.949 220.872 237.573 220.928 237.333 220.928C236.709 220.928 236.341 220.704 236.229 220.256C236.229 219.168 236.701 218.304 237.645 217.664C238.589 217.024 239.765 216.704 241.173 216.704C242.725 216.704 243.821 217.024 244.461 217.664C245.117 218.288 245.445 219.416 245.445 221.048V227.816C245.445 228.216 245.469 228.56 245.517 228.848L247.413 229.088C247.477 229.328 247.477 229.632 247.413 230C246.277 230.048 245.069 230.16 243.789 230.336C243.661 230.208 243.581 230.048 243.549 229.856L243.429 228.2C242.101 229.72 240.621 230.48 238.989 230.48C237.981 230.48 237.189 230.192 236.613 229.616C236.053 229.04 235.773 228.264 235.773 227.288C235.773 225.816 236.437 224.704 237.765 223.952C239.109 223.2 240.909 222.8 243.165 222.752ZM252.193 214.304V217.736H255.577C255.609 217.928 255.625 218.072 255.625 218.168C255.625 218.312 255.609 218.48 255.577 218.672L252.193 219.176V225.776C252.193 226.96 252.297 227.8 252.505 228.296C252.729 228.776 253.073 229.016 253.537 229.016C253.953 229.016 254.601 228.848 255.481 228.512C255.641 228.656 255.753 228.928 255.817 229.328C255.337 229.616 254.969 229.832 254.713 229.976C254.473 230.104 254.161 230.216 253.777 230.312C253.409 230.424 253.017 230.48 252.601 230.48C251.801 230.48 251.145 230.176 250.633 229.568C250.137 228.944 249.889 228 249.889 226.736V218.888L248.209 218.672C248.177 218.512 248.161 218.376 248.161 218.264C248.161 218.136 248.177 217.96 248.209 217.736C248.657 217.656 249.041 217.52 249.361 217.328C249.697 217.12 249.977 216.84 250.201 216.488C250.425 216.12 250.593 215.8 250.705 215.528C250.833 215.24 250.985 214.832 251.161 214.304C251.305 214.256 251.481 214.232 251.689 214.232C251.881 214.232 252.049 214.256 252.193 214.304Z" fill="white" fill-opacity="0.63"/>
<path d="M63.9034 206.398C51.296 244.962 79.1501 284.859 119.697 286.313L326 293.714L7 305L118.477 41L68.2445 193.119L63.9034 206.398Z" fill="url(#paint0_linear_0_1)" stroke="white"/>
<rect x="90.2635" y="194.973" width="35.5168" height="57.4205" rx="17.7584" fill="url(#paint1_linear_0_1)" stroke="white" stroke-width="2"/>
<rect x="219.315" y="89.204" width="35.5168" height="117.45" rx="17.7584" fill="url(#paint2_linear_0_1)" stroke="white" stroke-width="2"/>
<rect x="47.2465" y="224.683" width="35.5168" height="45.5364" rx="17.7584" fill="url(#paint3_linear_0_1)" stroke="white" stroke-width="2"/>
<rect x="133.281" y="153.378" width="35.5168" height="69.3046" rx="17.7584" fill="url(#paint4_linear_0_1)" stroke="white" stroke-width="2"/>
<rect x="176.298" y="107.822" width="35.5168" height="85.1501" rx="17.7584" fill="url(#paint5_linear_0_1)" stroke="white" stroke-width="2"/>
<path d="M139.031 228.9C139.439 229.164 139.751 229.62 139.967 230.268C136.631 233.388 133.247 234.948 129.815 234.948C127.463 234.948 125.411 234.528 123.659 233.688C121.907 232.824 120.455 231.696 119.303 230.304C118.151 228.888 117.287 227.292 116.711 225.516C116.159 223.716 115.883 221.88 115.883 220.008C115.883 218.112 116.207 216.264 116.855 214.464C117.503 212.64 118.451 211.02 119.699 209.604C120.947 208.164 122.483 207.012 124.307 206.148C126.155 205.284 128.255 204.852 130.607 204.852C133.703 204.852 136.583 205.572 139.247 207.012V213.924C138.815 213.996 138.431 214.032 138.095 214.032C137.735 214.032 137.435 213.996 137.195 213.924L136.043 207.912C134.579 206.952 132.623 206.472 130.175 206.472C128.663 206.472 127.295 206.82 126.071 207.516C124.871 208.188 123.839 209.112 122.975 210.288C122.135 211.44 121.487 212.808 121.031 214.392C120.575 215.952 120.347 217.62 120.347 219.396C120.347 221.292 120.563 223.044 120.995 224.652C121.451 226.26 122.087 227.652 122.903 228.828C123.719 230.004 124.703 230.928 125.855 231.6C127.031 232.248 128.339 232.572 129.779 232.572C131.507 232.572 133.175 232.236 134.783 231.564C136.391 230.892 137.807 230.004 139.031 228.9ZM145.034 210.864C145.034 209.28 144.998 208.104 144.926 207.336L142.082 206.976C141.986 206.616 141.986 206.16 142.082 205.608C143.69 205.488 145.742 205.236 148.238 204.852C148.454 205.092 148.574 205.332 148.598 205.572C148.478 206.196 148.418 208.14 148.418 211.404V218.208C150.194 215.76 152.33 214.536 154.826 214.536C156.314 214.536 157.586 214.908 158.642 215.652C159.698 216.396 160.226 217.668 160.226 219.468V232.392L163.142 232.932C163.238 233.316 163.238 233.796 163.142 234.372C161.63 234.3 160.094 234.264 158.534 234.264C157.43 234.264 155.87 234.288 153.854 234.336C153.71 233.88 153.71 233.412 153.854 232.932L156.698 232.536C156.794 231.216 156.842 229.692 156.842 227.964V221.268C156.842 219.588 156.626 218.376 156.194 217.632C155.786 216.888 155.03 216.516 153.926 216.516C153.014 216.516 152.054 216.852 151.046 217.524C150.062 218.196 149.186 219.168 148.418 220.44V232.392L151.334 232.932C151.43 233.316 151.43 233.796 151.334 234.372C149.822 234.3 148.286 234.264 146.726 234.264C145.622 234.264 144.062 234.288 142.046 234.336C141.902 233.88 141.902 233.412 142.046 232.932L144.89 232.536C144.986 231.216 145.034 229.692 145.034 227.964V210.864ZM168.581 229.44C168.581 230.688 168.809 231.576 169.265 232.104C169.721 232.608 170.441 232.86 171.425 232.86C172.145 232.86 172.937 232.644 173.801 232.212C174.689 231.756 175.505 231.108 176.249 230.268V224.652C173.777 224.796 171.881 225.24 170.561 225.984C169.241 226.704 168.581 227.856 168.581 229.44ZM176.249 223.356V221.52C176.249 219.48 176.009 218.004 175.529 217.092C175.073 216.156 174.305 215.688 173.225 215.688C172.121 215.688 171.233 216.048 170.561 216.768C169.889 217.464 169.433 218.664 169.193 220.368C168.425 220.536 167.861 220.62 167.501 220.62C166.565 220.62 166.013 220.284 165.845 219.612C165.845 217.98 166.553 216.684 167.969 215.724C169.385 214.764 171.149 214.284 173.261 214.284C175.589 214.284 177.233 214.764 178.193 215.724C179.177 216.66 179.669 218.352 179.669 220.8V230.952C179.669 231.552 179.705 232.068 179.777 232.5L182.621 232.86C182.717 233.22 182.717 233.676 182.621 234.228C180.917 234.3 179.105 234.468 177.185 234.732C176.993 234.54 176.873 234.3 176.825 234.012L176.645 231.528C174.653 233.808 172.433 234.948 169.985 234.948C168.473 234.948 167.285 234.516 166.421 233.652C165.581 232.788 165.161 231.624 165.161 230.16C165.161 227.952 166.157 226.284 168.149 225.156C170.165 224.028 172.865 223.428 176.249 223.356ZM190.62 215.004L190.548 218.712C191.148 217.608 191.976 216.6 193.032 215.688C194.112 214.752 195.132 214.284 196.092 214.284C196.836 214.284 197.496 214.368 198.072 214.536C198.264 214.848 198.36 215.256 198.36 215.76C198.36 216.552 198.192 217.344 197.856 218.136C196.992 217.896 196.164 217.776 195.372 217.776C193.404 217.776 191.784 218.736 190.512 220.656L190.44 226.956V232.392L194.436 232.932C194.532 233.316 194.532 233.796 194.436 234.372C192.924 234.3 191.196 234.264 189.252 234.264C187.788 234.264 186.048 234.288 184.032 234.336C183.888 233.88 183.888 233.412 184.032 232.932L186.876 232.536C186.972 231.216 187.02 229.692 187.02 227.964V218.1C187.02 217.62 186.984 217.176 186.912 216.768L184.068 216.408C183.972 216.048 183.972 215.592 184.068 215.04C185.724 214.92 187.788 214.668 190.26 214.284C190.476 214.524 190.596 214.764 190.62 215.004ZM205.436 210.684V215.832H210.512C210.56 216.12 210.584 216.336 210.584 216.48C210.584 216.696 210.56 216.948 210.512 217.236L205.436 217.992V227.892C205.436 229.668 205.592 230.928 205.904 231.672C206.24 232.392 206.756 232.752 207.452 232.752C208.076 232.752 209.048 232.5 210.368 231.996C210.608 232.212 210.776 232.62 210.872 233.22C210.152 233.652 209.6 233.976 209.216 234.192C208.856 234.384 208.388 234.552 207.812 234.696C207.26 234.864 206.672 234.948 206.048 234.948C204.848 234.948 203.864 234.492 203.096 233.58C202.352 232.644 201.98 231.228 201.98 229.332V217.56L199.46 217.236C199.412 216.996 199.388 216.792 199.388 216.624C199.388 216.432 199.412 216.168 199.46 215.832C200.132 215.712 200.708 215.508 201.188 215.22C201.692 214.908 202.112 214.488 202.448 213.96C202.784 213.408 203.036 212.928 203.204 212.52C203.396 212.088 203.624 211.476 203.888 210.684C204.104 210.612 204.368 210.576 204.68 210.576C204.968 210.576 205.22 210.612 205.436 210.684Z" fill="#FF1B1B" fill-opacity="0.63"/>
<defs>
<linearGradient id="paint0_linear_0_1" x1="2.20457" y1="309.371" x2="242.67" y2="115.7" gradientUnits="userSpaceOnUse">
<stop/>
<stop offset="1" stop-color="#00FFE0"/>
</linearGradient>
<linearGradient id="paint1_linear_0_1" x1="108.022" y1="193.973" x2="108.022" y2="253.393" gradientUnits="userSpaceOnUse">
<stop stop-color="white" stop-opacity="0.49"/>
<stop offset="1" stop-color="#00FFB2"/>
</linearGradient>
<linearGradient id="paint2_linear_0_1" x1="237.073" y1="88.204" x2="237.073" y2="207.654" gradientUnits="userSpaceOnUse">
<stop stop-color="white" stop-opacity="0.49"/>
<stop offset="1" stop-color="#00FFB2"/>
</linearGradient>
<linearGradient id="paint3_linear_0_1" x1="65.0049" y1="223.683" x2="65.0049" y2="271.219" gradientUnits="userSpaceOnUse">
<stop stop-color="white" stop-opacity="0.49"/>
<stop offset="1" stop-color="#00FFB2"/>
</linearGradient>
<linearGradient id="paint4_linear_0_1" x1="151.039" y1="152.378" x2="151.039" y2="223.683" gradientUnits="userSpaceOnUse">
<stop stop-color="white" stop-opacity="0.49"/>
<stop offset="1" stop-color="#00FFB2"/>
</linearGradient>
<linearGradient id="paint5_linear_0_1" x1="194.056" y1="106.822" x2="194.056" y2="193.973" gradientUnits="userSpaceOnUse">
<stop stop-color="white" stop-opacity="0.49"/>
<stop offset="1" stop-color="#00FFB2"/>
</linearGradient>
</defs>
</svg>
