<svg width="300" height="300" viewBox="0 0 432 348" fill="none" xmlns="http://www.w3.org/2000/svg">
<path d="M299.018 193.464H378.218C380.33 193.464 382.154 194.232 383.69 195.768C385.226 197.304 385.994 199.128 385.994 201.24V238.68C385.994 264.024 376.97 283.608 358.922 297.432C340.874 311.064 316.778 317.88 286.634 317.88C256.682 317.88 233.066 311.256 215.786 298.008C198.506 284.568 189.866 264.504 189.866 237.816V189.432C189.866 163.896 198.698 144.408 216.362 130.968C234.026 117.336 257.546 110.52 286.922 110.52C316.49 110.52 340.394 116.76 358.634 129.24C376.874 141.528 385.994 156.696 385.994 174.744C385.994 176.472 385.322 178.008 383.978 179.352C382.826 180.504 381.386 181.08 379.658 181.08H316.01C312.17 181.08 309.386 180.024 307.658 177.912C303.818 172.92 300.938 170.04 299.018 169.272C294.602 167.544 290.57 166.68 286.922 166.68C272.138 166.68 264.746 173.88 264.746 188.28V237.24C264.746 253.56 272.618 261.72 288.362 261.72C304.49 261.72 312.554 254.808 312.554 240.984H299.018C296.906 240.984 295.082 240.216 293.546 238.68C292.01 237.144 291.242 235.32 291.242 233.208V201.24C291.242 199.128 292.01 197.304 293.546 195.768C295.082 194.232 296.906 193.464 299.018 193.464Z" fill="url(#paint0_linear_0_1)"/>
<path d="M262.39 314.793C239.688 320.165 215.85 321.399 192.518 318.409C169.185 315.419 146.91 308.277 127.225 297.474C107.541 286.67 90.9125 272.462 78.4846 255.825C66.0567 239.189 58.1239 220.519 55.2315 201.1C52.3392 181.68 54.556 161.972 61.7295 143.331C68.903 124.689 80.863 107.556 96.7871 93.1098C112.711 78.6636 132.222 67.247 153.977 59.6449C175.732 52.0429 199.216 48.4357 222.813 49.0716L220.788 100.689C206.185 100.296 191.652 102.528 178.188 107.233C164.725 111.937 152.651 119.002 142.796 127.942C132.941 136.883 125.54 147.485 121.1 159.022C116.661 170.558 115.289 182.755 117.079 194.773C118.869 206.79 123.778 218.344 131.469 228.64C139.16 238.936 149.451 247.729 161.633 254.414C173.815 261.1 187.6 265.52 202.039 267.371C216.479 269.221 231.231 268.457 245.281 265.133L262.39 314.793Z" fill="url(#paint1_linear_0_1)"/>
<path d="M76.4275 206.151C60.9639 245.454 89.1578 288.2 131.375 289.458L431 298.388L2 311L151.918 16L84.3633 185.981L76.4275 206.151Z" fill="url(#paint2_linear_0_1)" stroke="white" stroke-width="2"/>
<path d="M32.0698 331.376V337.424C32.0698 339.368 32.9578 340.34 34.7338 340.34C36.1018 340.34 37.0018 339.692 37.4338 338.396C37.5538 337.988 37.6978 337.712 37.8658 337.568C38.0578 337.424 38.3578 337.352 38.7658 337.352H46.1098C46.3258 337.352 46.5058 337.436 46.6498 337.604C46.8178 337.748 46.9018 337.928 46.9018 338.144C46.9018 340.232 46.3018 341.984 45.1018 343.4C42.8938 346.04 39.4498 347.36 34.7698 347.36C31.0978 347.36 28.1698 346.556 25.9858 344.948C23.8018 343.316 22.7098 340.82 22.7098 337.46V331.34C22.7098 328.052 23.8258 325.58 26.0578 323.924C28.2898 322.268 31.1938 321.44 34.7698 321.44C39.4498 321.44 42.8938 322.76 45.1018 325.4C46.3018 326.816 46.9018 328.568 46.9018 330.656C46.9018 330.872 46.8178 331.064 46.6498 331.232C46.5058 331.376 46.3258 331.448 46.1098 331.448H38.7658C38.3818 331.448 38.0938 331.376 37.9018 331.232C37.7338 331.088 37.5778 330.812 37.4338 330.404C36.9778 329.108 36.0778 328.46 34.7338 328.46C32.9578 328.46 32.0698 329.432 32.0698 331.376ZM58.7484 336.344V346.028C58.7484 346.292 58.6524 346.52 58.4604 346.712C58.2684 346.904 58.0404 347 57.7764 347H50.7564C50.4924 347 50.2644 346.904 50.0724 346.712C49.8804 346.52 49.7844 346.292 49.7844 346.028V322.412C49.7844 322.148 49.8804 321.92 50.0724 321.728C50.2644 321.536 50.4924 321.44 50.7564 321.44H57.7764C58.0404 321.44 58.2684 321.536 58.4604 321.728C58.6524 321.92 58.7484 322.148 58.7484 322.412V330.152C60.1164 328.664 61.8684 327.92 64.0044 327.92C66.1404 327.92 67.9044 328.616 69.2964 330.008C70.6884 331.4 71.3844 333.428 71.3844 336.092V345.992C71.3844 346.256 71.2884 346.484 71.0964 346.676C70.9044 346.868 70.6764 346.964 70.4124 346.964H63.3564C63.0924 346.964 62.8644 346.868 62.6724 346.676C62.4804 346.484 62.3844 346.256 62.3844 345.992V336.344C62.3844 335.024 61.7724 334.364 60.5484 334.364C59.3484 334.364 58.7484 335.024 58.7484 336.344ZM74.2756 341.636C74.2756 338.396 76.9036 336.32 82.1596 335.408L85.9756 334.796C85.9756 334.076 85.9156 333.596 85.7956 333.356C85.6756 333.092 85.3876 332.96 84.9316 332.96C84.4996 332.96 84.0676 333.152 83.6356 333.536C83.2036 333.92 82.7956 334.112 82.4116 334.112H76.2916C75.7636 334.112 75.4996 333.86 75.4996 333.356C75.4996 332.828 75.6796 332.276 76.0396 331.7C76.4236 331.1 76.9636 330.512 77.6596 329.936C78.3796 329.36 79.3756 328.88 80.6476 328.496C81.9436 328.112 83.3836 327.92 84.9676 327.92C88.1836 327.92 90.5956 328.592 92.2036 329.936C93.8116 331.28 94.6156 333.2 94.6156 335.696V346.028C94.6156 346.292 94.5196 346.52 94.3276 346.712C94.1356 346.904 93.9076 347 93.6436 347H87.3436C87.0796 347 86.8516 346.904 86.6596 346.712C86.4676 346.52 86.3716 346.292 86.3716 346.028V345.02C85.2436 346.58 83.5996 347.36 81.4396 347.36C79.2796 347.36 77.5396 346.82 76.2196 345.74C74.9236 344.636 74.2756 343.268 74.2756 341.636ZM83.7436 342.032C85.3036 342.032 86.0836 341.096 86.0836 339.224L83.9596 339.692C82.9036 339.932 82.3756 340.376 82.3756 341.024C82.3756 341.312 82.4956 341.552 82.7356 341.744C82.9756 341.936 83.3116 342.032 83.7436 342.032ZM105.903 329.252V330.512C107.583 329.024 109.455 328.28 111.519 328.28H113.247C113.511 328.28 113.739 328.376 113.931 328.568C114.123 328.76 114.219 328.988 114.219 329.252V334.868C114.219 335.132 114.123 335.36 113.931 335.552C113.739 335.744 113.511 335.84 113.247 335.84H108.603C107.955 335.84 107.439 335.996 107.055 336.308C106.695 336.596 106.491 336.992 106.443 337.496V346.028C106.443 346.292 106.347 346.52 106.155 346.712C105.963 346.904 105.735 347 105.471 347H98.6308C98.3668 347 98.1388 346.904 97.9468 346.712C97.7548 346.52 97.6588 346.292 97.6588 346.028V329.252C97.6588 328.988 97.7548 328.76 97.9468 328.568C98.1388 328.376 98.3668 328.28 98.6308 328.28H104.931C105.195 328.28 105.423 328.376 105.615 328.568C105.807 328.76 105.903 328.988 105.903 329.252ZM127.909 334.58V338.54C127.909 339.74 128.425 340.34 129.457 340.34H132.733C132.997 340.34 133.225 340.436 133.417 340.628C133.609 340.82 133.705 341.048 133.705 341.312V346.028C133.705 346.292 133.609 346.52 133.417 346.712C133.225 346.904 132.997 347 132.733 347H128.665C122.665 347 119.665 344.42 119.665 339.26V334.58H116.821C116.557 334.58 116.329 334.484 116.137 334.292C115.945 334.1 115.849 333.872 115.849 333.608V329.252C115.849 328.988 115.945 328.76 116.137 328.568C116.329 328.376 116.557 328.28 116.821 328.28H119.665V322.412C119.665 322.148 119.761 321.92 119.953 321.728C120.145 321.536 120.373 321.44 120.637 321.44H126.937C127.201 321.44 127.429 321.536 127.621 321.728C127.813 321.92 127.909 322.148 127.909 322.412V328.28H132.445C132.709 328.28 132.937 328.376 133.129 328.568C133.321 328.76 133.417 328.988 133.417 329.252V333.608C133.417 333.872 133.321 334.1 133.129 334.292C132.937 334.484 132.709 334.58 132.445 334.58H127.909ZM146.135 341.636C146.135 338.396 148.763 336.32 154.019 335.408L157.835 334.796C157.835 334.076 157.775 333.596 157.655 333.356C157.535 333.092 157.247 332.96 156.791 332.96C156.359 332.96 155.927 333.152 155.495 333.536C155.063 333.92 154.655 334.112 154.271 334.112H148.151C147.623 334.112 147.359 333.86 147.359 333.356C147.359 332.828 147.539 332.276 147.899 331.7C148.283 331.1 148.823 330.512 149.519 329.936C150.239 329.36 151.235 328.88 152.507 328.496C153.803 328.112 155.243 327.92 156.827 327.92C160.043 327.92 162.455 328.592 164.063 329.936C165.671 331.28 166.475 333.2 166.475 335.696V346.028C166.475 346.292 166.379 346.52 166.187 346.712C165.995 346.904 165.767 347 165.503 347H159.203C158.939 347 158.711 346.904 158.519 346.712C158.327 346.52 158.231 346.292 158.231 346.028V345.02C157.103 346.58 155.459 347.36 153.299 347.36C151.139 347.36 149.399 346.82 148.079 345.74C146.783 344.636 146.135 343.268 146.135 341.636ZM155.603 342.032C157.163 342.032 157.943 341.096 157.943 339.224L155.819 339.692C154.763 339.932 154.235 340.376 154.235 341.024C154.235 341.312 154.355 341.552 154.595 341.744C154.835 341.936 155.171 342.032 155.603 342.032ZM180.678 334.58V338.54C180.678 339.74 181.194 340.34 182.226 340.34H185.502C185.766 340.34 185.994 340.436 186.186 340.628C186.378 340.82 186.474 341.048 186.474 341.312V346.028C186.474 346.292 186.378 346.52 186.186 346.712C185.994 346.904 185.766 347 185.502 347H181.434C175.434 347 172.434 344.42 172.434 339.26V334.58H169.59C169.326 334.58 169.098 334.484 168.906 334.292C168.714 334.1 168.618 333.872 168.618 333.608V329.252C168.618 328.988 168.714 328.76 168.906 328.568C169.098 328.376 169.326 328.28 169.59 328.28H172.434V322.412C172.434 322.148 172.53 321.92 172.722 321.728C172.914 321.536 173.142 321.44 173.406 321.44H179.706C179.97 321.44 180.198 321.536 180.39 321.728C180.582 321.92 180.678 322.148 180.678 322.412V328.28H185.214C185.478 328.28 185.706 328.376 185.898 328.568C186.09 328.76 186.186 328.988 186.186 329.252V333.608C186.186 333.872 186.09 334.1 185.898 334.292C185.706 334.484 185.478 334.58 185.214 334.58H180.678ZM207.869 321.8H215.681C216.545 321.8 217.085 322.196 217.301 322.988L225.329 345.956C225.353 346.028 225.365 346.148 225.365 346.316C225.365 346.46 225.281 346.616 225.113 346.784C224.969 346.928 224.789 347 224.573 347H217.913C217.193 347 216.725 346.7 216.509 346.1L215.645 343.724H207.905L207.041 346.1C206.825 346.7 206.357 347 205.637 347H198.977C198.761 347 198.569 346.928 198.401 346.784C198.257 346.616 198.185 346.46 198.185 346.316C198.185 346.148 198.197 346.028 198.221 345.956L206.249 322.988C206.465 322.196 207.005 321.8 207.869 321.8ZM209.741 336.704H213.809L211.757 330.008L209.741 336.704ZM251.616 331.808H261.516C261.78 331.808 262.008 331.904 262.2 332.096C262.392 332.288 262.488 332.516 262.488 332.78V337.46C262.488 340.628 261.36 343.076 259.104 344.804C256.848 346.508 253.836 347.36 250.068 347.36C246.324 347.36 243.372 346.532 241.212 344.876C239.052 343.196 237.972 340.688 237.972 337.352V331.304C237.972 328.112 239.076 325.676 241.284 323.996C243.492 322.292 246.432 321.44 250.104 321.44C253.8 321.44 256.788 322.22 259.068 323.78C261.348 325.316 262.488 327.212 262.488 329.468C262.488 329.684 262.404 329.876 262.236 330.044C262.092 330.188 261.912 330.26 261.696 330.26H253.74C253.26 330.26 252.912 330.128 252.696 329.864C252.216 329.24 251.856 328.88 251.616 328.784C251.064 328.568 250.56 328.46 250.104 328.46C248.256 328.46 247.332 329.36 247.332 331.16V337.28C247.332 339.32 248.316 340.34 250.284 340.34C252.3 340.34 253.308 339.476 253.308 337.748H251.616C251.352 337.748 251.124 337.652 250.932 337.46C250.74 337.268 250.644 337.04 250.644 336.776V332.78C250.644 332.516 250.74 332.288 250.932 332.096C251.124 331.904 251.352 331.808 251.616 331.808ZM273.341 347H266.897C266.633 347 266.405 346.904 266.213 346.712C266.021 346.52 265.925 346.292 265.925 346.028V322.412C265.925 322.148 266.021 321.92 266.213 321.728C266.405 321.536 266.633 321.44 266.897 321.44H273.341C273.605 321.44 273.833 321.536 274.025 321.728C274.217 321.92 274.313 322.148 274.313 322.412V346.028C274.313 346.292 274.217 346.52 274.025 346.712C273.833 346.904 273.605 347 273.341 347ZM277.373 341.636C277.373 338.396 280.001 336.32 285.257 335.408L289.073 334.796C289.073 334.076 289.013 333.596 288.893 333.356C288.773 333.092 288.485 332.96 288.029 332.96C287.597 332.96 287.165 333.152 286.733 333.536C286.301 333.92 285.893 334.112 285.509 334.112H279.389C278.861 334.112 278.597 333.86 278.597 333.356C278.597 332.828 278.777 332.276 279.137 331.7C279.521 331.1 280.061 330.512 280.757 329.936C281.477 329.36 282.473 328.88 283.745 328.496C285.041 328.112 286.481 327.92 288.065 327.92C291.281 327.92 293.693 328.592 295.301 329.936C296.909 331.28 297.713 333.2 297.713 335.696V346.028C297.713 346.292 297.617 346.52 297.425 346.712C297.233 346.904 297.005 347 296.741 347H290.441C290.177 347 289.949 346.904 289.757 346.712C289.565 346.52 289.469 346.292 289.469 346.028V345.02C288.341 346.58 286.697 347.36 284.537 347.36C282.377 347.36 280.637 346.82 279.317 345.74C278.021 344.636 277.373 343.268 277.373 341.636ZM286.841 342.032C288.401 342.032 289.181 341.096 289.181 339.224L287.057 339.692C286.001 339.932 285.473 340.376 285.473 341.024C285.473 341.312 285.593 341.552 285.833 341.744C286.073 341.936 286.409 342.032 286.841 342.032ZM322.32 336.092V346.028C322.32 346.292 322.224 346.52 322.032 346.712C321.84 346.904 321.612 347 321.348 347H314.472C314.208 347 313.98 346.904 313.788 346.712C313.596 346.52 313.5 346.292 313.5 346.028V336.344C313.5 335.024 312.9 334.364 311.7 334.364C310.5 334.364 309.9 335.024 309.9 336.344V346.028C309.9 346.292 309.804 346.52 309.612 346.712C309.42 346.904 309.192 347 308.928 347H302.088C301.824 347 301.596 346.904 301.404 346.712C301.212 346.52 301.116 346.292 301.116 346.028V329.252C301.116 328.988 301.212 328.76 301.404 328.568C301.596 328.376 301.824 328.28 302.088 328.28H308.388C308.652 328.28 308.88 328.376 309.072 328.568C309.264 328.76 309.36 328.988 309.36 329.252V330.44C309.984 329.696 310.824 329.096 311.88 328.64C312.96 328.16 314.112 327.92 315.336 327.92C317.304 327.92 318.96 328.616 320.304 330.008C321.648 331.376 322.32 333.404 322.32 336.092ZM334.006 336.38V338.9C334.006 339.716 334.114 340.304 334.33 340.664C334.546 341.024 334.882 341.204 335.338 341.204C335.794 341.204 336.106 341.132 336.274 340.988C336.442 340.82 336.61 340.52 336.778 340.088C336.97 339.632 337.318 339.404 337.822 339.404H344.842C345.106 339.404 345.334 339.5 345.526 339.692C345.718 339.884 345.814 340.136 345.814 340.448C345.814 340.76 345.706 341.18 345.49 341.708C345.274 342.236 344.902 342.836 344.374 343.508C343.846 344.18 343.198 344.804 342.43 345.38C341.662 345.932 340.654 346.4 339.406 346.784C338.158 347.168 336.778 347.36 335.266 347.36C332.266 347.36 329.83 346.58 327.958 345.02C326.11 343.436 325.186 341.252 325.186 338.468V336.812C325.186 334.028 326.11 331.856 327.958 330.296C329.83 328.712 332.266 327.92 335.266 327.92C337.042 327.92 338.65 328.196 340.09 328.748C341.53 329.276 342.634 329.936 343.402 330.728C344.194 331.496 344.794 332.252 345.202 332.996C345.61 333.74 345.814 334.316 345.814 334.724C345.814 335.108 345.718 335.396 345.526 335.588C345.334 335.78 345.106 335.876 344.842 335.876H337.822C337.366 335.876 337.018 335.636 336.778 335.156C336.442 334.436 335.998 334.076 335.446 334.076C334.486 334.076 334.006 334.844 334.006 336.38ZM367.691 339.764H356.963V339.944C356.963 341.408 357.431 342.14 358.367 342.14C358.631 342.14 358.955 341.948 359.339 341.564C359.723 341.18 360.143 340.988 360.599 340.988H367.403C367.931 340.988 368.195 341.252 368.195 341.78C368.195 342.956 367.307 344.18 365.531 345.452C363.779 346.724 361.391 347.36 358.367 347.36C355.367 347.36 352.907 346.58 350.987 345.02C349.091 343.436 348.143 341.264 348.143 338.504V336.776C348.143 334.16 349.115 332.036 351.059 330.404C353.003 328.748 355.547 327.92 358.691 327.92C361.859 327.92 364.307 328.844 366.035 330.692C367.787 332.54 368.663 334.88 368.663 337.712V338.792C368.663 339.056 368.567 339.284 368.375 339.476C368.183 339.668 367.955 339.764 367.691 339.764ZM359.843 335.12C359.843 333.68 359.363 332.96 358.403 332.96C357.443 332.96 356.963 333.68 356.963 335.12V335.264H359.843V335.12Z" fill="#7A7A7A"/>
<rect x="127.176" y="176.11" width="57.9315" height="96.3766" rx="22" fill="url(#paint3_linear_0_1)" stroke="white" stroke-width="2"/>
<rect x="335.068" y="1" width="57.9315" height="195.762" rx="22" fill="url(#paint4_linear_0_1)" stroke="white" stroke-width="2"/>
<rect x="60" y="225.299" width="57.9315" height="76.7013" rx="22" fill="url(#paint5_linear_0_1)" stroke="white" stroke-width="2"/>
<rect x="191.524" y="107.247" width="57.9315" height="116.052" rx="22" fill="url(#paint6_linear_0_1)" stroke="white" stroke-width="2"/>
<rect x="259.407" y="31.8247" width="57.9315" height="142.286" rx="22" fill="url(#paint7_linear_0_1)" stroke="white" stroke-width="2"/>
<defs>
<linearGradient id="paint0_linear_0_1" x1="288" y1="49" x2="288" y2="400" gradientUnits="userSpaceOnUse">
<stop stop-color="#CD3838"/>
<stop offset="1" stop-color="#6D30BA"/>
</linearGradient>
<linearGradient id="paint1_linear_0_1" x1="217.5" y1="-2.61753" x2="217.5" y2="268.382" gradientUnits="userSpaceOnUse">
<stop stop-color="#742A2A"/>
<stop offset="1" stop-color="#30016B" stop-opacity="0"/>
</linearGradient>
<linearGradient id="paint2_linear_0_1" x1="-4.44902" y1="315.884" x2="270.436" y2="49.4361" gradientUnits="userSpaceOnUse">
<stop stop-color="#00810D"/>
<stop offset="1" stop-color="#0500FF"/>
</linearGradient>
<linearGradient id="paint3_linear_0_1" x1="184.79" y1="274.613" x2="152.033" y2="275.513" gradientUnits="userSpaceOnUse">
<stop stop-color="white" stop-opacity="0.69"/>
<stop offset="1" stop-color="#000AFF" stop-opacity="0.84"/>
</linearGradient>
<linearGradient id="paint4_linear_0_1" x1="392.683" y1="200.027" x2="359.907" y2="200.475" gradientUnits="userSpaceOnUse">
<stop stop-color="white" stop-opacity="0.69"/>
<stop offset="1" stop-color="#000AFF" stop-opacity="0.84"/>
</linearGradient>
<linearGradient id="paint5_linear_0_1" x1="117.614" y1="303.901" x2="84.8709" y2="305.025" gradientUnits="userSpaceOnUse">
<stop stop-color="white" stop-opacity="0.69"/>
<stop offset="1" stop-color="#000AFF" stop-opacity="0.84"/>
</linearGradient>
<linearGradient id="paint6_linear_0_1" x1="249.138" y1="225.65" x2="216.373" y2="226.4" gradientUnits="userSpaceOnUse">
<stop stop-color="white" stop-opacity="0.69"/>
<stop offset="1" stop-color="#000AFF" stop-opacity="0.84"/>
</linearGradient>
<linearGradient id="paint7_linear_0_1" x1="317.021" y1="176.762" x2="284.251" y2="177.376" gradientUnits="userSpaceOnUse">
<stop stop-color="white" stop-opacity="0.69"/>
<stop offset="1" stop-color="#000AFF" stop-opacity="0.84"/>
</linearGradient>
</defs>
</svg>
