<svg width="300" height="300" viewBox="0 0 337 295" fill="none" xmlns="http://www.w3.org/2000/svg">
<g filter="url(#filter0_d_0_1)">
<rect x="63.8016" y="157.598" width="44.793" height="66.6278" rx="22.3965" fill="#FFD6D6" fill-opacity="0.01"/>
<rect x="216.207" y="39" width="44.793" height="133.939" rx="22.3965" fill="#FFD6D6" fill-opacity="0.01"/>
<rect x="13" y="190.911" width="44.793" height="53.3022" rx="22.3965" fill="#FFD6D6" fill-opacity="0.01"/>
<rect x="114.604" y="110.958" width="44.793" height="79.9534" rx="22.3965" fill="#FFD6D6" fill-opacity="0.01"/>
<rect x="165.405" y="59.8767" width="44.793" height="97.7208" rx="22.3965" fill="#FFD6D6" fill-opacity="0.01"/>
<path d="M191.654 193.617V192.105C191.654 187.957 192.568 184.84 194.396 182.754C196.236 180.668 198.568 179.625 201.393 179.625C204.205 179.625 206.379 180.398 207.914 181.945C209.461 183.492 210.234 185.496 210.234 187.957V188.309H207.545V187.957C207.545 186.082 207.035 184.611 206.016 183.545C204.996 182.478 203.455 181.945 201.393 181.945C199.248 181.945 197.537 182.777 196.26 184.441C194.982 186.105 194.344 188.66 194.344 192.105V193.617C194.344 196.922 194.994 199.441 196.295 201.176C197.596 202.91 199.312 203.777 201.445 203.777C203.402 203.777 204.885 203.25 205.893 202.195C206.9 201.129 207.445 199.652 207.527 197.766L207.545 197.414H210.234L210.217 197.853C210.1 200.244 209.309 202.219 207.844 203.777C206.379 205.324 204.223 206.098 201.375 206.098C198.434 206.098 196.078 205.049 194.309 202.951C192.539 200.842 191.654 197.73 191.654 193.617ZM213.838 205.658V179.326H216.422V190.594C216.996 189.785 217.758 189.152 218.707 188.695C219.668 188.238 220.729 188.01 221.889 188.01C223.518 188.01 224.836 188.496 225.844 189.469C226.852 190.441 227.355 192.07 227.355 194.355V205.658H224.754V194.408C224.754 192.908 224.426 191.842 223.77 191.209C223.113 190.576 222.188 190.26 220.992 190.26C219.961 190.26 219.047 190.547 218.25 191.121C217.465 191.684 216.855 192.41 216.422 193.301V205.658H213.838ZM230.854 200.666C230.854 198.943 231.527 197.59 232.875 196.605C234.223 195.609 235.975 195.111 238.131 195.111H242.156V193.652C242.156 192.539 241.863 191.672 241.277 191.051C240.703 190.418 239.736 190.102 238.377 190.102C237.029 190.102 236.033 190.365 235.389 190.893C234.744 191.42 234.422 192.111 234.422 192.967V193.213H231.838V192.844C231.838 191.508 232.43 190.353 233.613 189.381C234.797 188.408 236.402 187.922 238.43 187.922C240.434 187.922 241.986 188.385 243.088 189.31C244.201 190.225 244.758 191.672 244.758 193.652V201.439C244.758 202.201 244.811 202.922 244.916 203.602C245.021 204.269 245.186 204.861 245.408 205.377V205.658H242.93C242.766 205.365 242.619 204.984 242.49 204.516C242.361 204.047 242.273 203.572 242.227 203.092C241.816 203.842 241.143 204.51 240.205 205.096C239.279 205.67 238.084 205.957 236.619 205.957C234.943 205.957 233.561 205.506 232.471 204.603C231.393 203.689 230.854 202.377 230.854 200.666ZM233.438 200.543C233.438 201.586 233.748 202.389 234.369 202.951C234.99 203.502 235.91 203.777 237.129 203.777C238.406 203.777 239.561 203.344 240.592 202.477C241.635 201.609 242.156 200.66 242.156 199.629V197.08H238.482C236.795 197.08 235.529 197.391 234.686 198.012C233.854 198.633 233.438 199.477 233.438 200.543ZM249.381 205.658V188.361H251.771L251.842 190.664H251.895C252.363 189.902 252.973 189.258 253.723 188.73C254.484 188.191 255.393 187.922 256.447 187.922C256.682 187.922 256.939 187.945 257.221 187.992C257.502 188.039 257.701 188.086 257.818 188.133V190.541C257.596 190.494 257.35 190.459 257.08 190.435C256.822 190.4 256.541 190.383 256.236 190.383C255.287 190.383 254.438 190.658 253.688 191.209C252.938 191.76 252.363 192.469 251.965 193.336V205.658H249.381ZM258.838 190.471V188.361H268.488V190.471H258.838ZM261.932 201.158V189.486V189.135V182.947H264.516V201.158C264.516 202.213 264.686 202.922 265.025 203.285C265.377 203.648 265.916 203.83 266.643 203.83C266.947 203.83 267.24 203.801 267.521 203.742C267.814 203.684 268.102 203.596 268.383 203.478V205.676C268.125 205.793 267.791 205.893 267.381 205.975C266.971 206.057 266.52 206.098 266.027 206.098C264.773 206.098 263.777 205.723 263.039 204.973C262.301 204.223 261.932 202.951 261.932 201.158Z" fill="black"/>
</g>
<line x1="6.5" x2="6.5" y2="288.859" stroke="#FF0000" stroke-width="13"/>
<line x1="-0.00289917" y1="289" x2="344.003" y2="289" stroke="#FF0000" stroke-width="10"/>
<rect x="82" y="168.416" width="46.8397" height="83.0649" rx="22" fill="url(#paint0_linear_0_1)" stroke="white" stroke-width="2"/>
<rect x="250" y="17" width="46.8397" height="169.002" rx="22" fill="url(#paint1_linear_0_1)" stroke="white" stroke-width="2"/>
<rect x="26" y="210.948" width="46.8397" height="66.0519" rx="22" fill="url(#paint2_linear_0_1)" stroke="white" stroke-width="2"/>
<rect x="138" y="108.87" width="46.8397" height="100.078" rx="22" fill="url(#paint3_linear_0_1)" stroke="white" stroke-width="2"/>
<rect x="194" y="43.6537" width="46.8397" height="122.762" rx="22" fill="url(#paint4_linear_0_1)" stroke="white" stroke-width="2"/>
<path d="M17.9613 265.848C17.9613 261.528 21.4653 258.76 28.4733 257.544L33.5613 256.728C33.5613 255.768 33.4813 255.128 33.3213 254.808C33.1613 254.456 32.7773 254.28 32.1693 254.28C31.5933 254.28 31.0173 254.536 30.4413 255.048C29.8653 255.56 29.3213 255.816 28.8093 255.816H20.6493C19.9453 255.816 19.5933 255.48 19.5933 254.808C19.5933 254.104 19.8333 253.368 20.3133 252.6C20.8253 251.8 21.5453 251.016 22.4733 250.248C23.4333 249.48 24.7613 248.84 26.4573 248.328C28.1853 247.816 30.1053 247.56 32.2173 247.56C36.5053 247.56 39.7213 248.456 41.8653 250.248C44.0093 252.04 45.0813 254.6 45.0813 257.928V271.704C45.0813 272.056 44.9533 272.36 44.6973 272.616C44.4413 272.872 44.1373 273 43.7853 273H35.3853C35.0333 273 34.7293 272.872 34.4733 272.616C34.2173 272.36 34.0893 272.056 34.0893 271.704V270.36C32.5853 272.44 30.3933 273.48 27.5133 273.48C24.6333 273.48 22.3133 272.76 20.5533 271.32C18.8253 269.848 17.9613 268.024 17.9613 265.848ZM30.5853 266.376C32.6653 266.376 33.7053 265.128 33.7053 262.632L30.8733 263.256C29.4653 263.576 28.7613 264.168 28.7613 265.032C28.7613 265.416 28.9213 265.736 29.2413 265.992C29.5613 266.248 30.0093 266.376 30.5853 266.376ZM64.0188 256.44V261.72C64.0188 263.32 64.7068 264.12 66.0828 264.12H70.4508C70.8028 264.12 71.1068 264.248 71.3628 264.504C71.6188 264.76 71.7468 265.064 71.7468 265.416V271.704C71.7468 272.056 71.6188 272.36 71.3628 272.616C71.1068 272.872 70.8028 273 70.4508 273H65.0268C57.0268 273 53.0268 269.56 53.0268 262.68V256.44H49.2348C48.8828 256.44 48.5788 256.312 48.3228 256.056C48.0668 255.8 47.9388 255.496 47.9388 255.144V249.336C47.9388 248.984 48.0668 248.68 48.3228 248.424C48.5788 248.168 48.8828 248.04 49.2348 248.04H53.0268V240.216C53.0268 239.864 53.1548 239.56 53.4108 239.304C53.6668 239.048 53.9708 238.92 54.3228 238.92H62.7228C63.0748 238.92 63.3788 239.048 63.6348 239.304C63.8908 239.56 64.0188 239.864 64.0188 240.216V248.04H70.0668C70.4188 248.04 70.7228 248.168 70.9788 248.424C71.2348 248.68 71.3628 248.984 71.3628 249.336V255.144C71.3628 255.496 71.2348 255.8 70.9788 256.056C70.7228 256.312 70.4188 256.44 70.0668 256.44H64.0188Z" fill="#FF0000" fill-opacity="0.63"/>
<path d="M82.7113 265.848C82.7113 261.528 86.2153 258.76 93.2233 257.544L98.3113 256.728C98.3113 255.768 98.2313 255.128 98.0713 254.808C97.9113 254.456 97.5273 254.28 96.9193 254.28C96.3433 254.28 95.7673 254.536 95.1913 255.048C94.6153 255.56 94.0713 255.816 93.5593 255.816H85.3993C84.6953 255.816 84.3433 255.48 84.3433 254.808C84.3433 254.104 84.5833 253.368 85.0633 252.6C85.5753 251.8 86.2953 251.016 87.2233 250.248C88.1833 249.48 89.5113 248.84 91.2073 248.328C92.9353 247.816 94.8553 247.56 96.9673 247.56C101.255 247.56 104.471 248.456 106.615 250.248C108.759 252.04 109.831 254.6 109.831 257.928V271.704C109.831 272.056 109.703 272.36 109.447 272.616C109.191 272.872 108.887 273 108.535 273H100.135C99.7833 273 99.4793 272.872 99.2233 272.616C98.9673 272.36 98.8393 272.056 98.8393 271.704V270.36C97.3353 272.44 95.1433 273.48 92.2633 273.48C89.3833 273.48 87.0633 272.76 85.3033 271.32C83.5753 269.848 82.7113 268.024 82.7113 265.848ZM95.3353 266.376C97.4153 266.376 98.4553 265.128 98.4553 262.632L95.6233 263.256C94.2153 263.576 93.5113 264.168 93.5113 265.032C93.5113 265.416 93.6713 265.736 93.9913 265.992C94.3113 266.248 94.7593 266.376 95.3353 266.376Z" fill="#FF0000" fill-opacity="0.63"/>
<path d="M144.813 253.744H158.013C158.365 253.744 158.669 253.872 158.925 254.128C159.181 254.384 159.309 254.688 159.309 255.04V261.28C159.309 265.504 157.805 268.768 154.797 271.072C151.789 273.344 147.773 274.48 142.749 274.48C137.757 274.48 133.821 273.376 130.941 271.168C128.061 268.928 126.621 265.584 126.621 261.136V253.072C126.621 248.816 128.093 245.568 131.037 243.328C133.981 241.056 137.901 239.92 142.797 239.92C147.725 239.92 151.709 240.96 154.749 243.04C157.789 245.088 159.309 247.616 159.309 250.624C159.309 250.912 159.197 251.168 158.973 251.392C158.781 251.584 158.541 251.68 158.253 251.68H147.645C147.005 251.68 146.541 251.504 146.253 251.152C145.613 250.32 145.133 249.84 144.813 249.712C144.077 249.424 143.405 249.28 142.797 249.28C140.333 249.28 139.101 250.48 139.101 252.88V261.04C139.101 263.76 140.413 265.12 143.037 265.12C145.725 265.12 147.069 263.968 147.069 261.664H144.813C144.461 261.664 144.157 261.536 143.901 261.28C143.645 261.024 143.517 260.72 143.517 260.368V255.04C143.517 254.688 143.645 254.384 143.901 254.128C144.157 253.872 144.461 253.744 144.813 253.744ZM173.78 274H165.188C164.836 274 164.532 273.872 164.276 273.616C164.02 273.36 163.892 273.056 163.892 272.704V241.216C163.892 240.864 164.02 240.56 164.276 240.304C164.532 240.048 164.836 239.92 165.188 239.92H173.78C174.132 239.92 174.436 240.048 174.692 240.304C174.948 240.56 175.076 240.864 175.076 241.216V272.704C175.076 273.056 174.948 273.36 174.692 273.616C174.436 273.872 174.132 274 173.78 274ZM179.157 266.848C179.157 262.528 182.661 259.76 189.669 258.544L194.757 257.728C194.757 256.768 194.677 256.128 194.517 255.808C194.357 255.456 193.973 255.28 193.365 255.28C192.789 255.28 192.213 255.536 191.637 256.048C191.061 256.56 190.517 256.816 190.005 256.816H181.845C181.141 256.816 180.789 256.48 180.789 255.808C180.789 255.104 181.029 254.368 181.509 253.6C182.021 252.8 182.741 252.016 183.669 251.248C184.629 250.48 185.957 249.84 187.653 249.328C189.381 248.816 191.301 248.56 193.413 248.56C197.701 248.56 200.917 249.456 203.061 251.248C205.205 253.04 206.277 255.6 206.277 258.928V272.704C206.277 273.056 206.149 273.36 205.893 273.616C205.637 273.872 205.333 274 204.981 274H196.581C196.229 274 195.925 273.872 195.669 273.616C195.413 273.36 195.285 273.056 195.285 272.704V271.36C193.781 273.44 191.589 274.48 188.709 274.48C185.829 274.48 183.509 273.76 181.749 272.32C180.021 270.848 179.157 269.024 179.157 266.848ZM191.781 267.376C193.861 267.376 194.901 266.128 194.901 263.632L192.069 264.256C190.661 264.576 189.957 265.168 189.957 266.032C189.957 266.416 190.117 266.736 190.437 266.992C190.757 267.248 191.205 267.376 191.781 267.376ZM239.086 259.456V272.704C239.086 273.056 238.958 273.36 238.702 273.616C238.446 273.872 238.142 274 237.79 274H228.622C228.27 274 227.966 273.872 227.71 273.616C227.454 273.36 227.326 273.056 227.326 272.704V259.792C227.326 258.032 226.526 257.152 224.926 257.152C223.326 257.152 222.526 258.032 222.526 259.792V272.704C222.526 273.056 222.398 273.36 222.142 273.616C221.886 273.872 221.582 274 221.23 274H212.11C211.758 274 211.454 273.872 211.198 273.616C210.942 273.36 210.814 273.056 210.814 272.704V250.336C210.814 249.984 210.942 249.68 211.198 249.424C211.454 249.168 211.758 249.04 212.11 249.04H220.51C220.862 249.04 221.166 249.168 221.422 249.424C221.678 249.68 221.806 249.984 221.806 250.336V251.92C222.638 250.928 223.758 250.128 225.166 249.52C226.606 248.88 228.142 248.56 229.774 248.56C232.398 248.56 234.606 249.488 236.398 251.344C238.19 253.168 239.086 255.872 239.086 259.456ZM254.667 259.84V263.2C254.667 264.288 254.811 265.072 255.099 265.552C255.387 266.032 255.835 266.272 256.443 266.272C257.051 266.272 257.467 266.176 257.691 265.984C257.915 265.76 258.139 265.36 258.363 264.784C258.619 264.176 259.083 263.872 259.755 263.872H269.115C269.467 263.872 269.771 264 270.027 264.256C270.283 264.512 270.411 264.848 270.411 265.264C270.411 265.68 270.267 266.24 269.979 266.944C269.691 267.648 269.195 268.448 268.491 269.344C267.787 270.24 266.923 271.072 265.899 271.84C264.875 272.576 263.531 273.2 261.867 273.712C260.203 274.224 258.363 274.48 256.347 274.48C252.347 274.48 249.099 273.44 246.603 271.36C244.139 269.248 242.907 266.336 242.907 262.624V260.416C242.907 256.704 244.139 253.808 246.603 251.728C249.099 249.616 252.347 248.56 256.347 248.56C258.715 248.56 260.859 248.928 262.779 249.664C264.699 250.368 266.171 251.248 267.195 252.304C268.251 253.328 269.051 254.336 269.595 255.328C270.139 256.32 270.411 257.088 270.411 257.632C270.411 258.144 270.283 258.528 270.027 258.784C269.771 259.04 269.467 259.168 269.115 259.168H259.755C259.147 259.168 258.683 258.848 258.363 258.208C257.915 257.248 257.323 256.768 256.587 256.768C255.307 256.768 254.667 257.792 254.667 259.84ZM299.58 264.352H285.276V264.592C285.276 266.544 285.9 267.52 287.148 267.52C287.5 267.52 287.932 267.264 288.444 266.752C288.956 266.24 289.516 265.984 290.124 265.984H299.196C299.9 265.984 300.252 266.336 300.252 267.04C300.252 268.608 299.068 270.24 296.7 271.936C294.364 273.632 291.18 274.48 287.148 274.48C283.148 274.48 279.868 273.44 277.308 271.36C274.78 269.248 273.516 266.352 273.516 262.672V260.368C273.516 256.88 274.812 254.048 277.404 251.872C279.996 249.664 283.388 248.56 287.58 248.56C291.804 248.56 295.068 249.792 297.372 252.256C299.708 254.72 300.876 257.84 300.876 261.616V263.056C300.876 263.408 300.748 263.712 300.492 263.968C300.236 264.224 299.932 264.352 299.58 264.352ZM289.116 258.16C289.116 256.24 288.476 255.28 287.196 255.28C285.916 255.28 285.276 256.24 285.276 258.16V258.352H289.116V258.16Z" fill="#FF0000" fill-opacity="0.63"/>
<defs>
<filter id="filter0_d_0_1" x="13" y="39" width="321.488" height="271.214" filterUnits="userSpaceOnUse" color-interpolation-filters="sRGB">
<feFlood flood-opacity="0" result="BackgroundImageFix"/>
<feColorMatrix in="SourceAlpha" type="matrix" values="0 0 0 0 0 0 0 0 0 0 0 0 0 0 0 0 0 0 127 0" result="hardAlpha"/>
<feOffset dx="33" dy="33"/>
<feGaussianBlur stdDeviation="16.5"/>
<feColorMatrix type="matrix" values="0 0 0 0 1 0 0 0 0 0 0 0 0 0 0 0 0 0 1 0"/>
<feBlend mode="normal" in2="BackgroundImageFix" result="effect1_dropShadow_0_1"/>
<feBlend mode="normal" in="SourceGraphic" in2="effect1_dropShadow_0_1" result="shape"/>
</filter>
<linearGradient id="paint0_linear_0_1" x1="105.42" y1="167.416" x2="105.42" y2="252.481" gradientUnits="userSpaceOnUse">
<stop stop-color="#FFFDD8"/>
<stop offset="1" stop-color="#141872"/>
</linearGradient>
<linearGradient id="paint1_linear_0_1" x1="273.42" y1="16" x2="273.42" y2="187.002" gradientUnits="userSpaceOnUse">
<stop stop-color="#FFFDD8"/>
<stop offset="1" stop-color="#141872"/>
</linearGradient>
<linearGradient id="paint2_linear_0_1" x1="49.4199" y1="209.948" x2="49.4199" y2="278" gradientUnits="userSpaceOnUse">
<stop stop-color="#FFFDD8"/>
<stop offset="1" stop-color="#141872"/>
</linearGradient>
<linearGradient id="paint3_linear_0_1" x1="161.42" y1="107.87" x2="161.42" y2="209.948" gradientUnits="userSpaceOnUse">
<stop stop-color="#FFFDD8"/>
<stop offset="1" stop-color="#141872"/>
</linearGradient>
<linearGradient id="paint4_linear_0_1" x1="217.42" y1="42.6537" x2="217.42" y2="167.416" gradientUnits="userSpaceOnUse">
<stop stop-color="#FFFDD8"/>
<stop offset="1" stop-color="#141872"/>
</linearGradient>
</defs>
</svg>
