<svg width="300" height="300" viewBox="0 0 332 295" fill="none" xmlns="http://www.w3.org/2000/svg">
<path d="M213.39 277.793C190.688 283.165 166.85 284.399 143.518 281.409C120.185 278.419 97.9103 271.277 78.2254 260.473C58.5406 249.67 41.9125 235.462 29.4846 218.825C17.0567 202.189 9.12385 183.519 6.23151 164.099C3.33916 144.68 5.55595 124.972 12.7295 106.331C19.9029 87.6889 31.863 70.5559 47.7871 56.1098C63.7112 41.6636 83.2216 30.247 104.977 22.6449C126.732 15.0429 150.216 11.4357 173.813 12.0716L171.788 63.6891C157.185 63.2956 142.652 65.5279 129.188 70.2325C115.725 74.9371 103.651 82.0024 93.7959 90.9425C83.9412 99.8826 76.5396 110.485 72.1003 122.022C67.6609 133.558 66.289 145.755 68.0789 157.773C69.8689 169.79 74.7782 181.344 82.4693 191.64C90.1604 201.936 100.451 210.729 112.633 217.414C124.815 224.1 138.6 228.52 153.039 230.371C167.479 232.221 182.231 231.457 196.281 228.133L213.39 277.793Z" fill="url(#paint0_linear_0_1)"/>
<path d="M245.018 161.464H324.218C326.33 161.464 328.154 162.232 329.69 163.768C331.226 165.304 331.994 167.128 331.994 169.24V206.68C331.994 232.024 322.97 251.608 304.922 265.432C286.874 279.064 262.778 285.88 232.634 285.88C202.682 285.88 179.066 279.256 161.786 266.008C144.506 252.568 135.866 232.504 135.866 205.816V157.432C135.866 131.896 144.698 112.408 162.362 98.968C180.026 85.336 203.546 78.52 232.922 78.52C262.49 78.52 286.394 84.76 304.634 97.24C322.874 109.528 331.994 124.696 331.994 142.744C331.994 144.472 331.322 146.008 329.978 147.352C328.826 148.504 327.386 149.08 325.658 149.08H262.01C258.17 149.08 255.386 148.024 253.658 145.912C249.818 140.92 246.938 138.04 245.018 137.272C240.602 135.544 236.57 134.68 232.922 134.68C218.138 134.68 210.746 141.88 210.746 156.28V205.24C210.746 221.56 218.618 229.72 234.362 229.72C250.49 229.72 258.554 222.808 258.554 208.984H245.018C242.906 208.984 241.082 208.216 239.546 206.68C238.01 205.144 237.242 203.32 237.242 201.208V169.24C237.242 167.128 238.01 165.304 239.546 163.768C241.082 162.232 242.906 161.464 245.018 161.464Z" fill="url(#paint1_linear_0_1)"/>
<path d="M52.1802 196.376C41.3519 234.34 68.8901 272.434 108.335 274.056L311 282.388L0 295L108.682 0L59.7086 169.981L52.1802 196.376Z" fill="url(#paint2_linear_0_1)" stroke="white" stroke-width="2"/>
<rect x="87.7435" y="173.416" width="46.8397" height="83.0649" rx="22" fill="#070A4E" stroke="white" stroke-width="2"/>
<rect x="257.16" y="22" width="46.8397" height="169.002" rx="22" fill="#070A4E" stroke="white" stroke-width="2"/>
<rect x="33" y="215.948" width="46.8397" height="66.0519" rx="22" fill="#070A4E" stroke="white" stroke-width="2"/>
<rect x="140.182" y="113.87" width="46.8397" height="100.078" rx="22" fill="#070A4E" stroke="white" stroke-width="2"/>
<rect x="195.502" y="48.6537" width="46.8397" height="122.762" rx="22" fill="#070A4E" stroke="white" stroke-width="2"/>
<defs>
<linearGradient id="paint0_linear_0_1" x1="168.5" y1="12" x2="168.5" y2="283" gradientUnits="userSpaceOnUse">
<stop stop-color="#742A2A"/>
<stop offset="1" stop-color="#30016B" stop-opacity="0"/>
</linearGradient>
<linearGradient id="paint1_linear_0_1" x1="234" y1="17" x2="234" y2="368" gradientUnits="userSpaceOnUse">
<stop stop-color="#CD3838"/>
<stop offset="1" stop-color="#6D30BA"/>
</linearGradient>
<linearGradient id="paint2_linear_0_1" x1="-4.67516" y1="299.884" x2="254.07" y2="118.067" gradientUnits="userSpaceOnUse">
<stop stop-color="#00810D"/>
<stop offset="1" stop-color="#0500FF"/>
</linearGradient>
</defs>
</svg>
