<svg width="300" height="300" viewBox="0 0 768 607" fill="none" xmlns="http://www.w3.org/2000/svg">
<path d="M104.787 477.681C91.5042 516.444 119.455 557.018 160.407 558.419L767 579.178L2 605L269.336 1L148.872 349.03L104.787 477.681Z" fill="url(#paint0_linear_0_1)" stroke="white" stroke-width="2"/>
<path d="M555.961 467.848C555.961 463.528 559.465 460.76 566.473 459.544L571.561 458.728C571.561 457.768 571.481 457.128 571.321 456.808C571.161 456.456 570.777 456.28 570.169 456.28C569.593 456.28 569.017 456.536 568.441 457.048C567.865 457.56 567.321 457.816 566.809 457.816H558.649C557.945 457.816 557.593 457.48 557.593 456.808C557.593 456.104 557.833 455.368 558.313 454.6C558.825 453.8 559.545 453.016 560.473 452.248C561.433 451.48 562.761 450.84 564.457 450.328C566.185 449.816 568.105 449.56 570.217 449.56C574.505 449.56 577.721 450.456 579.865 452.248C582.009 454.04 583.081 456.6 583.081 459.928V473.704C583.081 474.056 582.953 474.36 582.697 474.616C582.441 474.872 582.137 475 581.785 475H573.385C573.033 475 572.729 474.872 572.473 474.616C572.217 474.36 572.089 474.056 572.089 473.704V472.36C570.585 474.44 568.393 475.48 565.513 475.48C562.633 475.48 560.313 474.76 558.553 473.32C556.825 471.848 555.961 470.024 555.961 467.848ZM568.585 468.376C570.665 468.376 571.705 467.128 571.705 464.632L568.873 465.256C567.465 465.576 566.761 466.168 566.761 467.032C566.761 467.416 566.921 467.736 567.241 467.992C567.561 468.248 568.009 468.376 568.585 468.376ZM602.019 458.44V463.72C602.019 465.32 602.707 466.12 604.083 466.12H608.451C608.803 466.12 609.107 466.248 609.363 466.504C609.619 466.76 609.747 467.064 609.747 467.416V473.704C609.747 474.056 609.619 474.36 609.363 474.616C609.107 474.872 608.803 475 608.451 475H603.027C595.027 475 591.027 471.56 591.027 464.68V458.44H587.235C586.883 458.44 586.579 458.312 586.323 458.056C586.067 457.8 585.939 457.496 585.939 457.144V451.336C585.939 450.984 586.067 450.68 586.323 450.424C586.579 450.168 586.883 450.04 587.235 450.04H591.027V442.216C591.027 441.864 591.155 441.56 591.411 441.304C591.667 441.048 591.971 440.92 592.323 440.92H600.723C601.075 440.92 601.379 441.048 601.635 441.304C601.891 441.56 602.019 441.864 602.019 442.216V450.04H608.067C608.419 450.04 608.723 450.168 608.979 450.424C609.235 450.68 609.363 450.984 609.363 451.336V457.144C609.363 457.496 609.235 457.8 608.979 458.056C608.723 458.312 608.419 458.44 608.067 458.44H602.019Z" fill="url(#paint1_linear_0_1)" fill-opacity="0.63"/>
<path d="M566.473 459.544L566.315 458.557L566.302 458.559L566.473 459.544ZM571.561 458.728L571.72 459.715L572.561 459.58V458.728H571.561ZM571.321 456.808L570.411 457.222L570.419 457.239L570.427 457.255L571.321 456.808ZM558.313 454.6L557.471 454.061L557.465 454.07L558.313 454.6ZM560.473 452.248L559.849 451.467L559.842 451.472L559.836 451.478L560.473 452.248ZM564.457 450.328L564.173 449.369L564.168 449.371L564.457 450.328ZM579.865 452.248L580.507 451.481L580.507 451.481L579.865 452.248ZM582.697 474.616L581.99 473.909L581.99 473.909L582.697 474.616ZM572.473 474.616L571.766 475.323L571.766 475.323L572.473 474.616ZM572.089 472.36H573.089V469.27L571.279 471.774L572.089 472.36ZM558.553 473.32L557.905 474.081L557.912 474.088L557.92 474.094L558.553 473.32ZM571.705 464.632H572.705V463.388L571.49 463.655L571.705 464.632ZM568.873 465.256L568.658 464.279L568.652 464.281L568.873 465.256ZM556.961 467.848C556.961 466.006 557.688 464.518 559.209 463.317C560.775 462.08 563.217 461.124 566.644 460.529L566.302 458.559C562.722 459.18 559.907 460.216 557.969 461.747C555.987 463.314 554.961 465.37 554.961 467.848H556.961ZM566.632 460.531L571.72 459.715L571.403 457.741L566.315 458.557L566.632 460.531ZM572.561 458.728C572.561 458.224 572.54 457.78 572.494 457.404C572.449 457.047 572.372 456.673 572.216 456.361L570.427 457.255C570.424 457.25 570.438 457.277 570.456 457.351C570.474 457.422 570.493 457.521 570.509 457.652C570.542 457.916 570.561 458.272 570.561 458.728H572.561ZM572.232 456.394C571.827 455.503 570.92 455.28 570.169 455.28V457.28C570.388 457.28 570.48 457.313 570.497 457.321C570.501 457.323 570.485 457.316 570.463 457.295C570.439 457.272 570.422 457.245 570.411 457.222L572.232 456.394ZM570.169 455.28C569.276 455.28 568.473 455.682 567.777 456.301L569.106 457.795C569.561 457.39 569.911 457.28 570.169 457.28V455.28ZM567.777 456.301C567.294 456.73 566.978 456.816 566.809 456.816V458.816C567.664 458.816 568.436 458.39 569.106 457.795L567.777 456.301ZM566.809 456.816H558.649V458.816H566.809V456.816ZM558.649 456.816C558.601 456.816 558.564 456.813 558.537 456.809C558.51 456.806 558.495 456.802 558.49 456.8C558.486 456.799 558.491 456.8 558.503 456.806C558.515 456.813 558.531 456.825 558.548 456.841C558.565 456.857 558.578 456.874 558.588 456.89C558.598 456.906 558.602 456.917 558.603 456.919C558.605 456.923 558.593 456.892 558.593 456.808H556.593C556.593 457.31 556.727 457.868 557.167 458.287C557.598 458.699 558.154 458.816 558.649 458.816V456.816ZM558.593 456.808C558.593 456.338 558.753 455.784 559.161 455.13L557.465 454.07C556.914 454.952 556.593 455.87 556.593 456.808H558.593ZM559.156 455.139C559.599 454.446 560.242 453.737 561.111 453.018L559.836 451.478C558.848 452.295 558.051 453.154 557.471 454.061L559.156 455.139ZM561.098 453.029C561.925 452.367 563.123 451.775 564.746 451.285L564.168 449.371C562.4 449.905 560.942 450.593 559.849 451.467L561.098 453.029ZM564.741 451.287C566.363 450.806 568.185 450.56 570.217 450.56V448.56C568.025 448.56 566.008 448.826 564.173 449.369L564.741 451.287ZM570.217 450.56C574.39 450.56 577.334 451.436 579.224 453.015L580.507 451.481C578.108 449.476 574.62 448.56 570.217 448.56V450.56ZM579.224 453.015C581.097 454.581 582.081 456.834 582.081 459.928H584.081C584.081 456.366 582.922 453.499 580.507 451.481L579.224 453.015ZM582.081 459.928V473.704H584.081V459.928H582.081ZM582.081 473.704C582.081 473.782 582.065 473.834 581.99 473.909L583.404 475.323C583.842 474.886 584.081 474.33 584.081 473.704H582.081ZM581.99 473.909C581.916 473.983 581.864 474 581.785 474V476C582.411 476 582.967 475.761 583.404 475.323L581.99 473.909ZM581.785 474H573.385V476H581.785V474ZM573.385 474C573.307 474 573.255 473.983 573.18 473.909L571.766 475.323C572.204 475.761 572.76 476 573.385 476V474ZM573.18 473.909C573.106 473.834 573.089 473.782 573.089 473.704H571.089C571.089 474.33 571.329 474.886 571.766 475.323L573.18 473.909ZM573.089 473.704V472.36H571.089V473.704H573.089ZM571.279 471.774C569.988 473.559 568.118 474.48 565.513 474.48V476.48C568.669 476.48 571.183 475.321 572.9 472.946L571.279 471.774ZM565.513 474.48C562.801 474.48 560.725 473.804 559.186 472.546L557.92 474.094C559.902 475.716 562.465 476.48 565.513 476.48V474.48ZM559.202 472.559C557.686 471.267 556.961 469.717 556.961 467.848H554.961C554.961 470.331 555.965 472.429 557.905 474.081L559.202 472.559ZM568.585 469.376C569.832 469.376 570.933 468.993 571.693 468.08C572.425 467.202 572.705 465.994 572.705 464.632H570.705C570.705 465.766 570.465 466.43 570.157 466.8C569.878 467.135 569.418 467.376 568.585 467.376V469.376ZM571.49 463.655L568.658 464.279L569.088 466.233L571.92 465.609L571.49 463.655ZM568.652 464.281C567.872 464.458 567.17 464.734 566.646 465.175C566.084 465.647 565.761 466.284 565.761 467.032H567.761C567.761 466.916 567.79 466.825 567.933 466.705C568.113 466.554 568.466 466.374 569.095 466.231L568.652 464.281ZM565.761 467.032C565.761 467.743 566.078 468.342 566.617 468.773L567.866 467.211C567.803 467.16 567.782 467.126 567.776 467.113C567.77 467.102 567.761 467.08 567.761 467.032H565.761ZM566.617 468.773C567.174 469.218 567.873 469.376 568.585 469.376V467.376C568.146 467.376 567.949 467.278 567.866 467.211L566.617 468.773ZM602.019 458.44V457.44H601.019V458.44H602.019ZM609.363 466.504L608.656 467.211L608.656 467.211L609.363 466.504ZM609.363 474.616L608.656 473.909L608.656 473.909L609.363 474.616ZM591.027 458.44H592.027V457.44H591.027V458.44ZM586.323 458.056L585.616 458.763L585.616 458.763L586.323 458.056ZM586.323 450.424L587.03 451.131L587.03 451.131L586.323 450.424ZM591.027 450.04V451.04H592.027V450.04H591.027ZM601.635 441.304L600.928 442.011L600.928 442.011L601.635 441.304ZM602.019 450.04H601.019V451.04H602.019V450.04ZM608.979 450.424L609.686 449.717L609.686 449.717L608.979 450.424ZM608.979 458.056L609.686 458.763L609.686 458.763L608.979 458.056ZM601.019 458.44V463.72H603.019V458.44H601.019ZM601.019 463.72C601.019 464.64 601.213 465.517 601.777 466.172C602.365 466.856 603.198 467.12 604.083 467.12V465.12C603.592 465.12 603.393 464.984 603.293 464.868C603.168 464.723 603.019 464.4 603.019 463.72H601.019ZM604.083 467.12H608.451V465.12H604.083V467.12ZM608.451 467.12C608.529 467.12 608.581 467.137 608.656 467.211L610.07 465.797C609.632 465.359 609.076 465.12 608.451 465.12V467.12ZM608.656 467.211C608.73 467.286 608.747 467.338 608.747 467.416H610.747C610.747 466.79 610.507 466.234 610.07 465.797L608.656 467.211ZM608.747 467.416V473.704H610.747V467.416H608.747ZM608.747 473.704C608.747 473.782 608.73 473.834 608.656 473.909L610.07 475.323C610.507 474.886 610.747 474.33 610.747 473.704H608.747ZM608.656 473.909C608.581 473.983 608.529 474 608.451 474V476C609.076 476 609.632 475.761 610.07 475.323L608.656 473.909ZM608.451 474H603.027V476H608.451V474ZM603.027 474C599.147 474 596.424 473.163 594.679 471.662C592.963 470.186 592.027 467.923 592.027 464.68H590.027C590.027 468.317 591.091 471.214 593.375 473.178C595.63 475.117 598.906 476 603.027 476V474ZM592.027 464.68V458.44H590.027V464.68H592.027ZM591.027 457.44H587.235V459.44H591.027V457.44ZM587.235 457.44C587.156 457.44 587.104 457.423 587.03 457.349L585.616 458.763C586.053 459.201 586.609 459.44 587.235 459.44V457.44ZM587.03 457.349C586.955 457.274 586.939 457.222 586.939 457.144H584.939C584.939 457.77 585.178 458.326 585.616 458.763L587.03 457.349ZM586.939 457.144V451.336H584.939V457.144H586.939ZM586.939 451.336C586.939 451.258 586.955 451.206 587.03 451.131L585.616 449.717C585.178 450.154 584.939 450.71 584.939 451.336H586.939ZM587.03 451.131C587.104 451.057 587.156 451.04 587.235 451.04V449.04C586.609 449.04 586.053 449.279 585.616 449.717L587.03 451.131ZM587.235 451.04H591.027V449.04H587.235V451.04ZM592.027 450.04V442.216H590.027V450.04H592.027ZM592.027 442.216C592.027 442.138 592.043 442.086 592.118 442.011L590.704 440.597C590.266 441.034 590.027 441.59 590.027 442.216H592.027ZM592.118 442.011C592.192 441.937 592.244 441.92 592.323 441.92V439.92C591.697 439.92 591.141 440.159 590.704 440.597L592.118 442.011ZM592.323 441.92H600.723V439.92H592.323V441.92ZM600.723 441.92C600.801 441.92 600.853 441.937 600.928 442.011L602.342 440.597C601.904 440.159 601.348 439.92 600.723 439.92V441.92ZM600.928 442.011C601.002 442.086 601.019 442.138 601.019 442.216H603.019C603.019 441.59 602.779 441.034 602.342 440.597L600.928 442.011ZM601.019 442.216V450.04H603.019V442.216H601.019ZM602.019 451.04H608.067V449.04H602.019V451.04ZM608.067 451.04C608.145 451.04 608.197 451.057 608.272 451.131L609.686 449.717C609.248 449.279 608.692 449.04 608.067 449.04V451.04ZM608.272 451.131C608.346 451.206 608.363 451.258 608.363 451.336H610.363C610.363 450.71 610.123 450.154 609.686 449.717L608.272 451.131ZM608.363 451.336V457.144H610.363V451.336H608.363ZM608.363 457.144C608.363 457.222 608.346 457.274 608.272 457.349L609.686 458.763C610.123 458.326 610.363 457.77 610.363 457.144H608.363ZM608.272 457.349C608.197 457.423 608.145 457.44 608.067 457.44V459.44C608.692 459.44 609.248 459.201 609.686 458.763L608.272 457.349ZM608.067 457.44H602.019V459.44H608.067V457.44Z" fill="black"/>
<path d="M389.711 508.848C389.711 504.528 393.215 501.76 400.223 500.544L405.311 499.728C405.311 498.768 405.231 498.128 405.071 497.808C404.911 497.456 404.527 497.28 403.919 497.28C403.343 497.28 402.767 497.536 402.191 498.048C401.615 498.56 401.071 498.816 400.559 498.816H392.399C391.695 498.816 391.343 498.48 391.343 497.808C391.343 497.104 391.583 496.368 392.063 495.6C392.575 494.8 393.295 494.016 394.223 493.248C395.183 492.48 396.511 491.84 398.207 491.328C399.935 490.816 401.855 490.56 403.967 490.56C408.255 490.56 411.471 491.456 413.615 493.248C415.759 495.04 416.831 497.6 416.831 500.928V514.704C416.831 515.056 416.703 515.36 416.447 515.616C416.191 515.872 415.887 516 415.535 516H407.135C406.783 516 406.479 515.872 406.223 515.616C405.967 515.36 405.839 515.056 405.839 514.704V513.36C404.335 515.44 402.143 516.48 399.263 516.48C396.383 516.48 394.063 515.76 392.303 514.32C390.575 512.848 389.711 511.024 389.711 508.848ZM402.335 509.376C404.415 509.376 405.455 508.128 405.455 505.632L402.623 506.256C401.215 506.576 400.511 507.168 400.511 508.032C400.511 508.416 400.671 508.736 400.991 508.992C401.311 509.248 401.759 509.376 402.335 509.376Z" fill="url(#paint2_linear_0_1)" fill-opacity="0.63"/>
<path d="M400.223 500.544L400.065 499.557L400.052 499.559L400.223 500.544ZM405.311 499.728L405.47 500.715L406.311 500.58V499.728H405.311ZM405.071 497.808L404.161 498.222L404.169 498.239L404.177 498.255L405.071 497.808ZM392.063 495.6L391.221 495.061L391.215 495.07L392.063 495.6ZM394.223 493.248L393.599 492.467L393.592 492.472L393.586 492.478L394.223 493.248ZM398.207 491.328L397.923 490.369L397.918 490.371L398.207 491.328ZM413.615 493.248L414.257 492.481L414.257 492.481L413.615 493.248ZM416.447 515.616L415.74 514.909L415.74 514.909L416.447 515.616ZM406.223 515.616L405.516 516.323L405.516 516.323L406.223 515.616ZM405.839 513.36H406.839V510.27L405.029 512.774L405.839 513.36ZM392.303 514.32L391.655 515.081L391.662 515.088L391.67 515.094L392.303 514.32ZM405.455 505.632H406.455V504.388L405.24 504.655L405.455 505.632ZM402.623 506.256L402.408 505.279L402.402 505.281L402.623 506.256ZM390.711 508.848C390.711 507.006 391.438 505.518 392.959 504.317C394.525 503.08 396.967 502.124 400.394 501.529L400.052 499.559C396.472 500.18 393.657 501.216 391.719 502.747C389.737 504.314 388.711 506.37 388.711 508.848H390.711ZM400.382 501.531L405.47 500.715L405.153 498.741L400.065 499.557L400.382 501.531ZM406.311 499.728C406.311 499.224 406.29 498.78 406.244 498.404C406.199 498.047 406.122 497.673 405.966 497.361L404.177 498.255C404.174 498.25 404.188 498.277 404.206 498.351C404.224 498.422 404.243 498.521 404.259 498.652C404.292 498.916 404.311 499.272 404.311 499.728H406.311ZM405.982 497.394C405.577 496.503 404.67 496.28 403.919 496.28V498.28C404.138 498.28 404.23 498.313 404.247 498.321C404.251 498.323 404.235 498.316 404.213 498.295C404.189 498.272 404.172 498.245 404.161 498.222L405.982 497.394ZM403.919 496.28C403.026 496.28 402.223 496.682 401.527 497.301L402.856 498.795C403.311 498.39 403.661 498.28 403.919 498.28V496.28ZM401.527 497.301C401.044 497.73 400.728 497.816 400.559 497.816V499.816C401.414 499.816 402.186 499.39 402.856 498.795L401.527 497.301ZM400.559 497.816H392.399V499.816H400.559V497.816ZM392.399 497.816C392.351 497.816 392.314 497.813 392.287 497.809C392.26 497.806 392.245 497.802 392.24 497.8C392.236 497.799 392.241 497.8 392.253 497.806C392.265 497.813 392.281 497.825 392.298 497.841C392.315 497.857 392.328 497.874 392.338 497.89C392.348 497.906 392.352 497.917 392.353 497.919C392.355 497.923 392.343 497.892 392.343 497.808H390.343C390.343 498.31 390.477 498.868 390.917 499.287C391.348 499.699 391.904 499.816 392.399 499.816V497.816ZM392.343 497.808C392.343 497.338 392.503 496.784 392.911 496.13L391.215 495.07C390.664 495.952 390.343 496.87 390.343 497.808H392.343ZM392.906 496.139C393.349 495.446 393.992 494.737 394.861 494.018L393.586 492.478C392.598 493.295 391.801 494.154 391.221 495.061L392.906 496.139ZM394.848 494.029C395.675 493.367 396.873 492.775 398.496 492.285L397.918 490.371C396.15 490.905 394.692 491.593 393.599 492.467L394.848 494.029ZM398.491 492.287C400.113 491.806 401.935 491.56 403.967 491.56V489.56C401.775 489.56 399.758 489.826 397.923 490.369L398.491 492.287ZM403.967 491.56C408.14 491.56 411.084 492.436 412.974 494.015L414.257 492.481C411.858 490.476 408.37 489.56 403.967 489.56V491.56ZM412.974 494.015C414.847 495.581 415.831 497.834 415.831 500.928H417.831C417.831 497.366 416.672 494.499 414.257 492.481L412.974 494.015ZM415.831 500.928V514.704H417.831V500.928H415.831ZM415.831 514.704C415.831 514.782 415.815 514.834 415.74 514.909L417.154 516.323C417.592 515.886 417.831 515.33 417.831 514.704H415.831ZM415.74 514.909C415.666 514.983 415.614 515 415.535 515V517C416.161 517 416.717 516.761 417.154 516.323L415.74 514.909ZM415.535 515H407.135V517H415.535V515ZM407.135 515C407.057 515 407.005 514.983 406.93 514.909L405.516 516.323C405.954 516.761 406.51 517 407.135 517V515ZM406.93 514.909C406.856 514.834 406.839 514.782 406.839 514.704H404.839C404.839 515.33 405.079 515.886 405.516 516.323L406.93 514.909ZM406.839 514.704V513.36H404.839V514.704H406.839ZM405.029 512.774C403.738 514.559 401.868 515.48 399.263 515.48V517.48C402.419 517.48 404.933 516.321 406.65 513.946L405.029 512.774ZM399.263 515.48C396.551 515.48 394.475 514.804 392.936 513.546L391.67 515.094C393.652 516.716 396.215 517.48 399.263 517.48V515.48ZM392.952 513.559C391.436 512.267 390.711 510.717 390.711 508.848H388.711C388.711 511.331 389.715 513.429 391.655 515.081L392.952 513.559ZM402.335 510.376C403.582 510.376 404.683 509.993 405.443 509.08C406.175 508.202 406.455 506.994 406.455 505.632H404.455C404.455 506.766 404.215 507.43 403.907 507.8C403.628 508.135 403.168 508.376 402.335 508.376V510.376ZM405.24 504.655L402.408 505.279L402.838 507.233L405.67 506.609L405.24 504.655ZM402.402 505.281C401.622 505.458 400.92 505.734 400.396 506.175C399.834 506.647 399.511 507.284 399.511 508.032H401.511C401.511 507.916 401.54 507.825 401.683 507.705C401.863 507.554 402.216 507.374 402.845 507.231L402.402 505.281ZM399.511 508.032C399.511 508.743 399.828 509.342 400.367 509.773L401.616 508.211C401.553 508.16 401.532 508.126 401.526 508.113C401.52 508.102 401.511 508.08 401.511 508.032H399.511ZM400.367 509.773C400.924 510.218 401.623 510.376 402.335 510.376V508.376C401.896 508.376 401.699 508.278 401.616 508.211L400.367 509.773Z" fill="black"/>
<path d="M458.813 495.744H472.013C472.365 495.744 472.669 495.872 472.925 496.128C473.181 496.384 473.309 496.688 473.309 497.04V503.28C473.309 507.504 471.805 510.768 468.797 513.072C465.789 515.344 461.773 516.48 456.749 516.48C451.757 516.48 447.821 515.376 444.941 513.168C442.061 510.928 440.621 507.584 440.621 503.136V495.072C440.621 490.816 442.093 487.568 445.037 485.328C447.981 483.056 451.901 481.92 456.797 481.92C461.725 481.92 465.709 482.96 468.749 485.04C471.789 487.088 473.309 489.616 473.309 492.624C473.309 492.912 473.197 493.168 472.973 493.392C472.781 493.584 472.541 493.68 472.253 493.68H461.645C461.005 493.68 460.541 493.504 460.253 493.152C459.613 492.32 459.133 491.84 458.813 491.712C458.077 491.424 457.405 491.28 456.797 491.28C454.333 491.28 453.101 492.48 453.101 494.88V503.04C453.101 505.76 454.413 507.12 457.037 507.12C459.725 507.12 461.069 505.968 461.069 503.664H458.813C458.461 503.664 458.157 503.536 457.901 503.28C457.645 503.024 457.517 502.72 457.517 502.368V497.04C457.517 496.688 457.645 496.384 457.901 496.128C458.157 495.872 458.461 495.744 458.813 495.744ZM487.78 516H479.188C478.836 516 478.532 515.872 478.276 515.616C478.02 515.36 477.892 515.056 477.892 514.704V483.216C477.892 482.864 478.02 482.56 478.276 482.304C478.532 482.048 478.836 481.92 479.188 481.92H487.78C488.132 481.92 488.436 482.048 488.692 482.304C488.948 482.56 489.076 482.864 489.076 483.216V514.704C489.076 515.056 488.948 515.36 488.692 515.616C488.436 515.872 488.132 516 487.78 516ZM493.157 508.848C493.157 504.528 496.661 501.76 503.669 500.544L508.757 499.728C508.757 498.768 508.677 498.128 508.517 497.808C508.357 497.456 507.973 497.28 507.365 497.28C506.789 497.28 506.213 497.536 505.637 498.048C505.061 498.56 504.517 498.816 504.005 498.816H495.845C495.141 498.816 494.789 498.48 494.789 497.808C494.789 497.104 495.029 496.368 495.509 495.6C496.021 494.8 496.741 494.016 497.669 493.248C498.629 492.48 499.957 491.84 501.653 491.328C503.381 490.816 505.301 490.56 507.413 490.56C511.701 490.56 514.917 491.456 517.061 493.248C519.205 495.04 520.277 497.6 520.277 500.928V514.704C520.277 515.056 520.149 515.36 519.893 515.616C519.637 515.872 519.333 516 518.981 516H510.581C510.229 516 509.925 515.872 509.669 515.616C509.413 515.36 509.285 515.056 509.285 514.704V513.36C507.781 515.44 505.589 516.48 502.709 516.48C499.829 516.48 497.509 515.76 495.749 514.32C494.021 512.848 493.157 511.024 493.157 508.848ZM505.781 509.376C507.861 509.376 508.901 508.128 508.901 505.632L506.069 506.256C504.661 506.576 503.957 507.168 503.957 508.032C503.957 508.416 504.117 508.736 504.437 508.992C504.757 509.248 505.205 509.376 505.781 509.376ZM553.086 501.456V514.704C553.086 515.056 552.958 515.36 552.702 515.616C552.446 515.872 552.142 516 551.79 516H542.622C542.27 516 541.966 515.872 541.71 515.616C541.454 515.36 541.326 515.056 541.326 514.704V501.792C541.326 500.032 540.526 499.152 538.926 499.152C537.326 499.152 536.526 500.032 536.526 501.792V514.704C536.526 515.056 536.398 515.36 536.142 515.616C535.886 515.872 535.582 516 535.23 516H526.11C525.758 516 525.454 515.872 525.198 515.616C524.942 515.36 524.814 515.056 524.814 514.704V492.336C524.814 491.984 524.942 491.68 525.198 491.424C525.454 491.168 525.758 491.04 526.11 491.04H534.51C534.862 491.04 535.166 491.168 535.422 491.424C535.678 491.68 535.806 491.984 535.806 492.336V493.92C536.638 492.928 537.758 492.128 539.166 491.52C540.606 490.88 542.142 490.56 543.774 490.56C546.398 490.56 548.606 491.488 550.398 493.344C552.19 495.168 553.086 497.872 553.086 501.456ZM568.667 501.84V505.2C568.667 506.288 568.811 507.072 569.099 507.552C569.387 508.032 569.835 508.272 570.443 508.272C571.051 508.272 571.467 508.176 571.691 507.984C571.915 507.76 572.139 507.36 572.363 506.784C572.619 506.176 573.083 505.872 573.755 505.872H583.115C583.467 505.872 583.771 506 584.027 506.256C584.283 506.512 584.411 506.848 584.411 507.264C584.411 507.68 584.267 508.24 583.979 508.944C583.691 509.648 583.195 510.448 582.491 511.344C581.787 512.24 580.923 513.072 579.899 513.84C578.875 514.576 577.531 515.2 575.867 515.712C574.203 516.224 572.363 516.48 570.347 516.48C566.347 516.48 563.099 515.44 560.603 513.36C558.139 511.248 556.907 508.336 556.907 504.624V502.416C556.907 498.704 558.139 495.808 560.603 493.728C563.099 491.616 566.347 490.56 570.347 490.56C572.715 490.56 574.859 490.928 576.779 491.664C578.699 492.368 580.171 493.248 581.195 494.304C582.251 495.328 583.051 496.336 583.595 497.328C584.139 498.32 584.411 499.088 584.411 499.632C584.411 500.144 584.283 500.528 584.027 500.784C583.771 501.04 583.467 501.168 583.115 501.168H573.755C573.147 501.168 572.683 500.848 572.363 500.208C571.915 499.248 571.323 498.768 570.587 498.768C569.307 498.768 568.667 499.792 568.667 501.84ZM613.58 506.352H599.276V506.592C599.276 508.544 599.9 509.52 601.148 509.52C601.5 509.52 601.932 509.264 602.444 508.752C602.956 508.24 603.516 507.984 604.124 507.984H613.196C613.9 507.984 614.252 508.336 614.252 509.04C614.252 510.608 613.068 512.24 610.7 513.936C608.364 515.632 605.18 516.48 601.148 516.48C597.148 516.48 593.868 515.44 591.308 513.36C588.78 511.248 587.516 508.352 587.516 504.672V502.368C587.516 498.88 588.812 496.048 591.404 493.872C593.996 491.664 597.388 490.56 601.58 490.56C605.804 490.56 609.068 491.792 611.372 494.256C613.708 496.72 614.876 499.84 614.876 503.616V505.056C614.876 505.408 614.748 505.712 614.492 505.968C614.236 506.224 613.932 506.352 613.58 506.352ZM603.116 500.16C603.116 498.24 602.476 497.28 601.196 497.28C599.916 497.28 599.276 498.24 599.276 500.16V500.352H603.116V500.16Z" fill="url(#paint3_linear_0_1)" fill-opacity="0.63"/>
<path d="M472.925 496.128L473.632 495.421L473.632 495.421L472.925 496.128ZM468.797 513.072L469.4 513.87L469.405 513.866L468.797 513.072ZM444.941 513.168L444.327 513.957L444.333 513.962L444.941 513.168ZM445.037 485.328L445.642 486.124L445.648 486.12L445.037 485.328ZM468.749 485.04L468.184 485.865L468.19 485.869L468.749 485.04ZM472.973 493.392L473.68 494.099L473.68 494.099L472.973 493.392ZM460.253 493.152L459.46 493.762L459.469 493.774L459.479 493.785L460.253 493.152ZM458.813 491.712L459.184 490.783L459.177 490.781L458.813 491.712ZM461.069 503.664H462.069V502.664H461.069V503.664ZM457.901 503.28L458.608 502.573L458.608 502.573L457.901 503.28ZM458.813 496.744H472.013V494.744H458.813V496.744ZM472.013 496.744C472.091 496.744 472.143 496.761 472.218 496.835L473.632 495.421C473.194 494.983 472.639 494.744 472.013 494.744V496.744ZM472.218 496.835C472.292 496.91 472.309 496.962 472.309 497.04H474.309C474.309 496.414 474.07 495.858 473.632 495.421L472.218 496.835ZM472.309 497.04V503.28H474.309V497.04H472.309ZM472.309 503.28C472.309 507.234 470.919 510.187 468.189 512.278L469.405 513.866C472.691 511.349 474.309 507.774 474.309 503.28H472.309ZM468.194 512.274C465.41 514.377 461.627 515.48 456.749 515.48V517.48C461.919 517.48 466.168 516.311 469.4 513.87L468.194 512.274ZM456.749 515.48C451.896 515.48 448.2 514.406 445.549 512.374L444.333 513.962C447.442 516.346 451.618 517.48 456.749 517.48V515.48ZM445.555 512.379C442.972 510.37 441.621 507.351 441.621 503.136H439.621C439.621 507.817 441.15 511.486 444.327 513.957L445.555 512.379ZM441.621 503.136V495.072H439.621V503.136H441.621ZM441.621 495.072C441.621 491.075 442.987 488.145 445.642 486.124L444.431 484.532C441.199 486.991 439.621 490.557 439.621 495.072H441.621ZM445.648 486.12C448.369 484.02 452.052 482.92 456.797 482.92V480.92C451.75 480.92 447.593 482.092 444.426 484.536L445.648 486.12ZM456.797 482.92C461.59 482.92 465.358 483.932 468.184 485.865L469.314 484.215C466.06 481.988 461.86 480.92 456.797 480.92V482.92ZM468.19 485.869C471.023 487.778 472.309 490.024 472.309 492.624H474.309C474.309 489.208 472.555 486.398 469.308 484.211L468.19 485.869ZM472.309 492.624C472.309 492.631 472.308 492.633 472.308 492.632C472.309 492.632 472.309 492.631 472.309 492.631C472.309 492.632 472.307 492.636 472.301 492.645C472.295 492.653 472.284 492.667 472.266 492.685L473.68 494.099C474.071 493.708 474.309 493.205 474.309 492.624H472.309ZM472.266 492.685C472.262 492.688 472.262 492.688 472.265 492.686C472.269 492.684 472.273 492.681 472.278 492.68C472.282 492.678 472.284 492.678 472.281 492.678C472.278 492.679 472.269 492.68 472.253 492.68V494.68C472.788 494.68 473.288 494.491 473.68 494.099L472.266 492.685ZM472.253 492.68H461.645V494.68H472.253V492.68ZM461.645 492.68C461.177 492.68 461.057 492.555 461.027 492.519L459.479 493.785C460.025 494.453 460.833 494.68 461.645 494.68V492.68ZM461.046 492.542C460.712 492.108 460.402 491.743 460.12 491.461C459.859 491.2 459.541 490.926 459.184 490.784L458.442 492.64C458.405 492.626 458.487 492.656 458.706 492.875C458.903 493.073 459.154 493.364 459.46 493.762L461.046 492.542ZM459.177 490.781C458.358 490.46 457.561 490.28 456.797 490.28V492.28C457.249 492.28 457.796 492.388 458.449 492.643L459.177 490.781ZM456.797 490.28C455.417 490.28 454.198 490.616 453.327 491.464C452.452 492.316 452.101 493.519 452.101 494.88H454.101C454.101 493.841 454.366 493.244 454.723 492.896C455.084 492.544 455.713 492.28 456.797 492.28V490.28ZM452.101 494.88V503.04H454.101V494.88H452.101ZM452.101 503.04C452.101 504.545 452.464 505.86 453.365 506.794C454.273 507.736 455.561 508.12 457.037 508.12V506.12C455.888 506.12 455.208 505.824 454.805 505.406C454.394 504.98 454.101 504.255 454.101 503.04H452.101ZM457.037 508.12C458.501 508.12 459.785 507.81 460.712 507.015C461.668 506.196 462.069 505.014 462.069 503.664H460.069C460.069 504.618 459.798 505.164 459.41 505.497C458.993 505.854 458.261 506.12 457.037 506.12V508.12ZM461.069 502.664H458.813V504.664H461.069V502.664ZM458.813 502.664C458.735 502.664 458.682 502.647 458.608 502.573L457.194 503.987C457.631 504.425 458.187 504.664 458.813 504.664V502.664ZM458.608 502.573C458.534 502.498 458.517 502.446 458.517 502.368H456.517C456.517 502.994 456.756 503.55 457.194 503.987L458.608 502.573ZM458.517 502.368V497.04H456.517V502.368H458.517ZM458.517 497.04C458.517 496.962 458.534 496.91 458.608 496.835L457.194 495.421C456.756 495.858 456.517 496.414 456.517 497.04H458.517ZM458.608 496.835C458.682 496.761 458.734 496.744 458.813 496.744V494.744C458.187 494.744 457.631 494.983 457.194 495.421L458.608 496.835ZM478.276 515.616L478.983 514.909L478.983 514.909L478.276 515.616ZM478.276 482.304L478.983 483.011L478.983 483.011L478.276 482.304ZM488.692 482.304L487.985 483.011L487.985 483.011L488.692 482.304ZM488.692 515.616L487.985 514.909L487.985 514.909L488.692 515.616ZM487.78 515H479.188V517H487.78V515ZM479.188 515C479.11 515 479.058 514.983 478.983 514.909L477.569 516.323C478.007 516.761 478.563 517 479.188 517V515ZM478.983 514.909C478.909 514.834 478.892 514.782 478.892 514.704H476.892C476.892 515.33 477.132 515.886 477.569 516.323L478.983 514.909ZM478.892 514.704V483.216H476.892V514.704H478.892ZM478.892 483.216C478.892 483.138 478.909 483.086 478.983 483.011L477.569 481.597C477.132 482.034 476.892 482.59 476.892 483.216H478.892ZM478.983 483.011C479.058 482.937 479.11 482.92 479.188 482.92V480.92C478.563 480.92 478.007 481.159 477.569 481.597L478.983 483.011ZM479.188 482.92H487.78V480.92H479.188V482.92ZM487.78 482.92C487.859 482.92 487.911 482.937 487.985 483.011L489.399 481.597C488.962 481.159 488.406 480.92 487.78 480.92V482.92ZM487.985 483.011C488.06 483.086 488.076 483.138 488.076 483.216H490.076C490.076 482.59 489.837 482.034 489.399 481.597L487.985 483.011ZM488.076 483.216V514.704H490.076V483.216H488.076ZM488.076 514.704C488.076 514.782 488.06 514.834 487.985 514.909L489.399 516.323C489.837 515.886 490.076 515.33 490.076 514.704H488.076ZM487.985 514.909C487.911 514.983 487.859 515 487.78 515V517C488.406 517 488.962 516.761 489.399 516.323L487.985 514.909ZM503.669 500.544L503.51 499.557L503.498 499.559L503.669 500.544ZM508.757 499.728L508.915 500.715L509.757 500.58V499.728H508.757ZM508.517 497.808L507.606 498.222L507.614 498.239L507.622 498.255L508.517 497.808ZM495.509 495.6L494.666 495.061L494.661 495.07L495.509 495.6ZM497.669 493.248L497.044 492.467L497.037 492.472L497.031 492.478L497.669 493.248ZM501.653 491.328L501.368 490.369L501.364 490.371L501.653 491.328ZM517.061 493.248L517.702 492.481L517.702 492.481L517.061 493.248ZM519.893 515.616L519.185 514.909L519.185 514.909L519.893 515.616ZM509.669 515.616L508.961 516.323L508.961 516.323L509.669 515.616ZM509.285 513.36H510.285V510.27L508.474 512.774L509.285 513.36ZM495.749 514.32L495.1 515.081L495.108 515.088L495.115 515.094L495.749 514.32ZM508.901 505.632H509.901V504.388L508.685 504.655L508.901 505.632ZM506.069 506.256L505.853 505.279L505.847 505.281L506.069 506.256ZM494.157 508.848C494.157 507.006 494.883 505.518 496.404 504.317C497.97 503.08 500.412 502.124 503.84 501.529L503.498 499.559C499.917 500.18 497.103 501.216 495.165 502.747C493.182 504.314 492.157 506.37 492.157 508.848H494.157ZM503.827 501.531L508.915 500.715L508.598 498.741L503.51 499.557L503.827 501.531ZM509.757 499.728C509.757 499.224 509.736 498.78 509.689 498.404C509.644 498.047 509.567 497.673 509.411 497.361L507.622 498.255C507.62 498.25 507.633 498.277 507.651 498.351C507.669 498.422 507.688 498.521 507.704 498.652C507.737 498.916 507.757 499.272 507.757 499.728H509.757ZM509.427 497.394C509.022 496.503 508.115 496.28 507.365 496.28V498.28C507.583 498.28 507.675 498.313 507.692 498.321C507.696 498.323 507.681 498.316 507.658 498.295C507.635 498.272 507.617 498.245 507.606 498.222L509.427 497.394ZM507.365 496.28C506.471 496.28 505.669 496.682 504.972 497.301L506.301 498.795C506.757 498.39 507.106 498.28 507.365 498.28V496.28ZM504.972 497.301C504.49 497.73 504.174 497.816 504.005 497.816V499.816C504.86 499.816 505.632 499.39 506.301 498.795L504.972 497.301ZM504.005 497.816H495.845V499.816H504.005V497.816ZM495.845 497.816C495.796 497.816 495.759 497.813 495.732 497.809C495.705 497.806 495.691 497.802 495.686 497.8C495.681 497.799 495.686 497.8 495.698 497.806C495.71 497.813 495.726 497.825 495.743 497.841C495.76 497.857 495.774 497.874 495.784 497.89C495.794 497.906 495.798 497.917 495.799 497.919C495.8 497.923 495.789 497.892 495.789 497.808H493.789C493.789 498.31 493.922 498.868 494.362 499.287C494.793 499.699 495.35 499.816 495.845 499.816V497.816ZM495.789 497.808C495.789 497.338 495.948 496.784 496.357 496.13L494.661 495.07C494.109 495.952 493.789 496.87 493.789 497.808H495.789ZM496.351 496.139C496.794 495.446 497.438 494.737 498.306 494.018L497.031 492.478C496.044 493.295 495.247 494.154 494.666 495.061L496.351 496.139ZM498.293 494.029C499.12 493.367 500.318 492.775 501.942 492.285L501.364 490.371C499.595 490.905 498.137 491.593 497.044 492.467L498.293 494.029ZM501.937 492.287C503.558 491.806 505.381 491.56 507.413 491.56V489.56C505.22 489.56 503.203 489.826 501.368 490.369L501.937 492.287ZM507.413 491.56C511.586 491.56 514.529 492.436 516.419 494.015L517.702 492.481C515.304 490.476 511.815 489.56 507.413 489.56V491.56ZM516.419 494.015C518.292 495.581 519.277 497.834 519.277 500.928H521.277C521.277 497.366 520.117 494.499 517.702 492.481L516.419 494.015ZM519.277 500.928V514.704H521.277V500.928H519.277ZM519.277 514.704C519.277 514.782 519.26 514.834 519.185 514.909L520.6 516.323C521.037 515.886 521.277 515.33 521.277 514.704H519.277ZM519.185 514.909C519.111 514.983 519.059 515 518.981 515V517C519.606 517 520.162 516.761 520.6 516.323L519.185 514.909ZM518.981 515H510.581V517H518.981V515ZM510.581 515C510.502 515 510.45 514.983 510.376 514.909L508.961 516.323C509.399 516.761 509.955 517 510.581 517V515ZM510.376 514.909C510.301 514.834 510.285 514.782 510.285 514.704H508.285C508.285 515.33 508.524 515.886 508.961 516.323L510.376 514.909ZM510.285 514.704V513.36H508.285V514.704H510.285ZM508.474 512.774C507.183 514.559 505.313 515.48 502.709 515.48V517.48C505.864 517.48 508.378 516.321 510.095 513.946L508.474 512.774ZM502.709 515.48C499.997 515.48 497.92 514.804 496.382 513.546L495.115 515.094C497.097 516.716 499.661 517.48 502.709 517.48V515.48ZM496.397 513.559C494.881 512.267 494.157 510.717 494.157 508.848H492.157C492.157 511.331 493.16 513.429 495.1 515.081L496.397 513.559ZM505.781 510.376C507.027 510.376 508.128 509.993 508.889 509.08C509.621 508.202 509.901 506.994 509.901 505.632H507.901C507.901 506.766 507.661 507.43 507.352 507.8C507.073 508.135 506.614 508.376 505.781 508.376V510.376ZM508.685 504.655L505.853 505.279L506.284 507.233L509.116 506.609L508.685 504.655ZM505.847 505.281C505.067 505.458 504.365 505.734 503.841 506.175C503.28 506.647 502.957 507.284 502.957 508.032H504.957C504.957 507.916 504.985 507.825 505.128 507.705C505.308 507.554 505.662 507.374 506.29 507.231L505.847 505.281ZM502.957 508.032C502.957 508.743 503.273 509.342 503.812 509.773L505.061 508.211C504.998 508.16 504.977 508.126 504.971 508.113C504.965 508.102 504.957 508.08 504.957 508.032H502.957ZM503.812 509.773C504.369 510.218 505.068 510.376 505.781 510.376V508.376C505.341 508.376 505.144 508.278 505.061 508.211L503.812 509.773ZM541.71 515.616L541.003 516.323L541.003 516.323L541.71 515.616ZM525.198 515.616L525.905 514.909L525.905 514.909L525.198 515.616ZM525.198 491.424L525.905 492.131L525.905 492.131L525.198 491.424ZM535.422 491.424L536.129 490.717L536.129 490.717L535.422 491.424ZM535.806 493.92H534.806V496.668L536.572 494.563L535.806 493.92ZM539.166 491.52L539.563 492.438L539.572 492.434L539.166 491.52ZM550.398 493.344L549.679 494.039L549.685 494.045L550.398 493.344ZM552.086 501.456V514.704H554.086V501.456H552.086ZM552.086 514.704C552.086 514.782 552.069 514.834 551.995 514.909L553.409 516.323C553.847 515.886 554.086 515.33 554.086 514.704H552.086ZM551.995 514.909C551.921 514.983 551.869 515 551.79 515V517C552.416 517 552.972 516.761 553.409 516.323L551.995 514.909ZM551.79 515H542.622V517H551.79V515ZM542.622 515C542.544 515 542.492 514.983 542.417 514.909L541.003 516.323C541.441 516.761 541.997 517 542.622 517V515ZM542.417 514.909C542.343 514.834 542.326 514.782 542.326 514.704H540.326C540.326 515.33 540.565 515.886 541.003 516.323L542.417 514.909ZM542.326 514.704V501.792H540.326V514.704H542.326ZM542.326 501.792C542.326 500.78 542.098 499.835 541.466 499.139C540.817 498.426 539.906 498.152 538.926 498.152V500.152C539.546 500.152 539.835 500.318 539.986 500.485C540.154 500.669 540.326 501.044 540.326 501.792H542.326ZM538.926 498.152C537.946 498.152 537.035 498.426 536.386 499.139C535.754 499.835 535.526 500.78 535.526 501.792H537.526C537.526 501.044 537.698 500.669 537.866 500.485C538.017 500.318 538.306 500.152 538.926 500.152V498.152ZM535.526 501.792V514.704H537.526V501.792H535.526ZM535.526 514.704C535.526 514.782 535.509 514.834 535.435 514.909L536.849 516.323C537.287 515.886 537.526 515.33 537.526 514.704H535.526ZM535.435 514.909C535.361 514.983 535.309 515 535.23 515V517C535.856 517 536.412 516.761 536.849 516.323L535.435 514.909ZM535.23 515H526.11V517H535.23V515ZM526.11 515C526.032 515 525.98 514.983 525.905 514.909L524.491 516.323C524.929 516.761 525.485 517 526.11 517V515ZM525.905 514.909C525.831 514.834 525.814 514.782 525.814 514.704H523.814C523.814 515.33 524.053 515.886 524.491 516.323L525.905 514.909ZM525.814 514.704V492.336H523.814V514.704H525.814ZM525.814 492.336C525.814 492.258 525.831 492.206 525.905 492.131L524.491 490.717C524.053 491.154 523.814 491.71 523.814 492.336H525.814ZM525.905 492.131C525.98 492.057 526.032 492.04 526.11 492.04V490.04C525.485 490.04 524.929 490.279 524.491 490.717L525.905 492.131ZM526.11 492.04H534.51V490.04H526.11V492.04ZM534.51 492.04C534.589 492.04 534.641 492.057 534.715 492.131L536.129 490.717C535.692 490.279 535.136 490.04 534.51 490.04V492.04ZM534.715 492.131C534.789 492.206 534.806 492.258 534.806 492.336H536.806C536.806 491.71 536.567 491.154 536.129 490.717L534.715 492.131ZM534.806 492.336V493.92H536.806V492.336H534.806ZM536.572 494.563C537.287 493.71 538.271 492.996 539.562 492.438L538.77 490.602C537.245 491.26 535.989 492.146 535.04 493.277L536.572 494.563ZM539.572 492.434C540.88 491.853 542.277 491.56 543.774 491.56V489.56C542.007 489.56 540.332 489.907 538.76 490.606L539.572 492.434ZM543.774 491.56C546.132 491.56 548.079 492.381 549.679 494.039L551.117 492.649C549.133 490.594 546.664 489.56 543.774 489.56V491.56ZM549.685 494.045C551.23 495.618 552.086 498.028 552.086 501.456H554.086C554.086 497.716 553.15 494.718 551.111 492.643L549.685 494.045ZM571.691 507.984L572.341 508.743L572.371 508.718L572.398 508.691L571.691 507.984ZM572.363 506.784L571.441 506.396L571.436 506.409L571.431 506.422L572.363 506.784ZM583.979 508.944L584.904 509.323L584.904 509.323L583.979 508.944ZM579.899 513.84L580.482 514.652L580.49 514.646L580.499 514.64L579.899 513.84ZM575.867 515.712L575.572 514.756L575.572 514.756L575.867 515.712ZM560.603 513.36L559.952 514.119L559.962 514.128L560.603 513.36ZM560.603 493.728L561.248 494.492L561.249 494.491L560.603 493.728ZM576.779 491.664L576.421 492.598L576.427 492.6L576.434 492.603L576.779 491.664ZM581.195 494.304L580.477 495L580.487 495.011L580.498 495.022L581.195 494.304ZM583.595 497.328L584.471 496.847L584.471 496.847L583.595 497.328ZM584.027 500.784L584.734 501.491L584.734 501.491L584.027 500.784ZM572.363 500.208L571.456 500.631L571.462 500.643L571.468 500.655L572.363 500.208ZM567.667 501.84V505.2H569.667V501.84H567.667ZM567.667 505.2C567.667 506.327 567.807 507.343 568.241 508.066L569.956 507.038C569.814 506.801 569.667 506.249 569.667 505.2H567.667ZM568.241 508.066C568.728 508.878 569.52 509.272 570.443 509.272V507.272C570.149 507.272 570.045 507.186 569.956 507.038L568.241 508.066ZM570.443 509.272C571.077 509.272 571.823 509.188 572.341 508.743L571.04 507.225C571.093 507.179 571.102 507.199 570.986 507.226C570.875 507.251 570.7 507.272 570.443 507.272V509.272ZM572.398 508.691C572.774 508.314 573.059 507.752 573.295 507.146L571.431 506.422C571.218 506.968 571.055 507.206 570.983 507.277L572.398 508.691ZM573.284 507.172C573.35 507.016 573.414 506.96 573.451 506.936C573.488 506.912 573.572 506.872 573.755 506.872V504.872C573.265 504.872 572.781 504.984 572.355 505.264C571.927 505.544 571.631 505.944 571.441 506.396L573.284 507.172ZM573.755 506.872H583.115V504.872H573.755V506.872ZM583.115 506.872C583.193 506.872 583.245 506.889 583.319 506.963L584.734 505.549C584.296 505.111 583.74 504.872 583.115 504.872V506.872ZM583.319 506.963C583.36 507.003 583.411 507.07 583.411 507.264H585.411C585.411 506.626 585.205 506.021 584.734 505.549L583.319 506.963ZM583.411 507.264C583.411 507.483 583.326 507.899 583.053 508.565L584.904 509.323C585.207 508.581 585.411 507.877 585.411 507.264H583.411ZM583.053 508.565C582.813 509.152 582.376 509.871 581.704 510.726L583.277 511.962C584.013 511.025 584.568 510.144 584.904 509.323L583.053 508.565ZM581.704 510.726C581.06 511.546 580.261 512.318 579.299 513.04L580.499 514.64C581.584 513.826 582.513 512.934 583.277 511.962L581.704 510.726ZM579.315 513.028C578.405 513.682 577.169 514.265 575.572 514.756L576.161 516.668C577.892 516.135 579.344 515.47 580.482 514.652L579.315 513.028ZM575.572 514.756C574.017 515.235 572.278 515.48 570.347 515.48V517.48C572.447 517.48 574.388 517.213 576.161 516.668L575.572 514.756ZM570.347 515.48C566.525 515.48 563.52 514.49 561.243 512.592L559.962 514.128C562.677 516.39 566.169 517.48 570.347 517.48V515.48ZM561.253 512.601C559.044 510.707 557.907 508.091 557.907 504.624H555.907C555.907 508.581 557.233 511.789 559.952 514.119L561.253 512.601ZM557.907 504.624V502.416H555.907V504.624H557.907ZM557.907 502.416C557.907 498.949 559.044 496.352 561.248 494.492L559.958 492.964C557.233 495.264 555.907 498.459 555.907 502.416H557.907ZM561.249 494.491C563.526 492.564 566.528 491.56 570.347 491.56V489.56C566.165 489.56 562.671 490.668 559.957 492.965L561.249 494.491ZM570.347 491.56C572.611 491.56 574.631 491.912 576.421 492.598L577.137 490.73C575.086 489.944 572.819 489.56 570.347 489.56V491.56ZM576.434 492.603C578.265 493.274 579.59 494.086 580.477 495L581.912 493.608C580.751 492.41 579.132 491.462 577.123 490.725L576.434 492.603ZM580.498 495.022C581.503 495.996 582.234 496.926 582.718 497.809L584.471 496.847C583.867 495.746 582.998 494.66 581.891 493.586L580.498 495.022ZM582.718 497.809C583.25 498.78 583.411 499.358 583.411 499.632H585.411C585.411 498.818 585.027 497.86 584.471 496.847L582.718 497.809ZM583.411 499.632C583.411 499.99 583.322 500.075 583.319 500.077L584.734 501.491C585.243 500.981 585.411 500.298 585.411 499.632H583.411ZM583.319 500.077C583.245 500.151 583.193 500.168 583.115 500.168V502.168C583.74 502.168 584.296 501.929 584.734 501.491L583.319 500.077ZM583.115 500.168H573.755V502.168H583.115V500.168ZM573.755 500.168C573.637 500.168 573.57 500.14 573.518 500.105C573.458 500.063 573.361 499.97 573.257 499.761L571.468 500.655C571.684 501.086 571.979 501.473 572.383 501.751C572.795 502.036 573.265 502.168 573.755 502.168V500.168ZM573.269 499.785C572.739 498.651 571.875 497.768 570.587 497.768V499.768C570.77 499.768 571.09 499.845 571.456 500.631L573.269 499.785ZM570.587 497.768C569.627 497.768 568.814 498.181 568.299 499.006C567.832 499.753 567.667 500.744 567.667 501.84H569.667C569.667 500.888 569.821 500.343 569.995 500.066C570.119 499.867 570.266 499.768 570.587 499.768V497.768ZM599.276 506.352V505.352H598.276V506.352H599.276ZM610.7 513.936L610.118 513.123L610.112 513.127L610.7 513.936ZM591.308 513.36L590.667 514.127L590.677 514.136L591.308 513.36ZM591.404 493.872L592.047 494.638L592.052 494.633L591.404 493.872ZM611.372 494.256L610.641 494.939L610.646 494.944L611.372 494.256ZM614.492 505.968L613.785 505.261L613.785 505.261L614.492 505.968ZM599.276 500.352H598.276V501.352H599.276V500.352ZM603.116 500.352V501.352H604.116V500.352H603.116ZM613.58 505.352H599.276V507.352H613.58V505.352ZM598.276 506.352V506.592H600.276V506.352H598.276ZM598.276 506.592C598.276 507.642 598.438 508.602 598.901 509.327C599.414 510.128 600.214 510.52 601.148 510.52V508.52C600.834 508.52 600.698 508.424 600.586 508.249C600.426 507.998 600.276 507.494 600.276 506.592H598.276ZM601.148 510.52C601.564 510.52 601.938 510.371 602.246 510.188C602.558 510.003 602.86 509.751 603.151 509.459L601.737 508.045C601.516 508.265 601.346 508.397 601.226 508.468C601.102 508.541 601.084 508.52 601.148 508.52V510.52ZM603.151 509.459C603.514 509.096 603.831 508.984 604.124 508.984V506.984C603.201 506.984 602.398 507.384 601.737 508.045L603.151 509.459ZM604.124 508.984H613.196V506.984H604.124V508.984ZM613.196 508.984C613.292 508.984 613.335 508.996 613.342 508.999C613.344 509 613.338 508.998 613.325 508.99C613.312 508.982 613.296 508.971 613.281 508.955C613.265 508.94 613.254 508.924 613.246 508.911C613.238 508.898 613.236 508.892 613.237 508.894C613.24 508.901 613.252 508.944 613.252 509.04H615.252C615.252 508.534 615.125 507.971 614.695 507.541C614.265 507.111 613.702 506.984 613.196 506.984V508.984ZM613.252 509.04C613.252 510.091 612.437 511.462 610.118 513.123L611.282 514.749C613.699 513.018 615.252 511.125 615.252 509.04H613.252ZM610.112 513.127C608.003 514.658 605.05 515.48 601.148 515.48V517.48C605.31 517.48 608.725 516.606 611.287 514.745L610.112 513.127ZM601.148 515.48C597.327 515.48 594.285 514.49 591.939 512.584L590.677 514.136C593.451 516.39 596.969 517.48 601.148 517.48V515.48ZM591.949 512.593C589.677 510.694 588.516 508.095 588.516 504.672H586.516C586.516 508.609 587.883 511.802 590.667 514.127L591.949 512.593ZM588.516 504.672V502.368H586.516V504.672H588.516ZM588.516 502.368C588.516 499.165 589.689 496.617 592.047 494.638L590.761 493.106C587.935 495.479 586.516 498.595 586.516 502.368H588.516ZM592.052 494.633C594.424 492.613 597.569 491.56 601.58 491.56V489.56C597.207 489.56 593.567 490.715 590.755 493.111L592.052 494.633ZM601.58 491.56C605.602 491.56 608.572 492.726 610.642 494.939L612.102 493.573C609.564 490.858 606.006 489.56 601.58 489.56V491.56ZM610.646 494.944C612.786 497.201 613.876 500.065 613.876 503.616H615.876C615.876 499.615 614.63 496.239 612.098 493.568L610.646 494.944ZM613.876 503.616V505.056H615.876V503.616H613.876ZM613.876 505.056C613.876 505.134 613.859 505.186 613.785 505.261L615.199 506.675C615.637 506.238 615.876 505.682 615.876 505.056H613.876ZM613.785 505.261C613.71 505.335 613.658 505.352 613.58 505.352V507.352C614.205 507.352 614.761 507.113 615.199 506.675L613.785 505.261ZM604.116 500.16C604.116 499.12 603.948 498.166 603.468 497.445C602.94 496.653 602.127 496.28 601.196 496.28V498.28C601.545 498.28 601.692 498.387 601.804 498.555C601.963 498.794 602.116 499.28 602.116 500.16H604.116ZM601.196 496.28C600.265 496.28 599.452 496.653 598.924 497.445C598.443 498.166 598.276 499.12 598.276 500.16H600.276C600.276 499.28 600.428 498.794 600.588 498.555C600.7 498.387 600.847 498.28 601.196 498.28V496.28ZM598.276 500.16V500.352H600.276V500.16H598.276ZM599.276 501.352H603.116V499.352H599.276V501.352ZM604.116 500.352V500.16H602.116V500.352H604.116Z" fill="black"/>
<path d="M404.578 454.168V462.232C404.578 464.824 405.762 466.12 408.13 466.12C409.954 466.12 411.154 465.256 411.73 463.528C411.89 462.984 412.082 462.616 412.306 462.424C412.562 462.232 412.962 462.136 413.506 462.136H423.298C423.586 462.136 423.826 462.248 424.018 462.472C424.242 462.664 424.354 462.904 424.354 463.192C424.354 465.976 423.554 468.312 421.954 470.2C419.01 473.72 414.418 475.48 408.178 475.48C403.282 475.48 399.378 474.408 396.466 472.264C393.554 470.088 392.098 466.76 392.098 462.28V454.12C392.098 449.736 393.586 446.44 396.562 444.232C399.538 442.024 403.41 440.92 408.178 440.92C414.418 440.92 419.01 442.68 421.954 446.2C423.554 448.088 424.354 450.424 424.354 453.208C424.354 453.496 424.242 453.752 424.018 453.976C423.826 454.168 423.586 454.264 423.298 454.264H413.506C412.994 454.264 412.61 454.168 412.354 453.976C412.13 453.784 411.922 453.416 411.73 452.872C411.122 451.144 409.922 450.28 408.13 450.28C405.762 450.28 404.578 451.576 404.578 454.168ZM440.149 460.792V473.704C440.149 474.056 440.021 474.36 439.765 474.616C439.509 474.872 439.205 475 438.853 475H429.493C429.141 475 428.837 474.872 428.581 474.616C428.325 474.36 428.197 474.056 428.197 473.704V442.216C428.197 441.864 428.325 441.56 428.581 441.304C428.837 441.048 429.141 440.92 429.493 440.92H438.853C439.205 440.92 439.509 441.048 439.765 441.304C440.021 441.56 440.149 441.864 440.149 442.216V452.536C441.973 450.552 444.309 449.56 447.157 449.56C450.005 449.56 452.357 450.488 454.213 452.344C456.069 454.2 456.997 456.904 456.997 460.456V473.656C456.997 474.008 456.869 474.312 456.613 474.568C456.357 474.824 456.053 474.952 455.701 474.952H446.293C445.941 474.952 445.637 474.824 445.381 474.568C445.125 474.312 444.997 474.008 444.997 473.656V460.792C444.997 459.032 444.181 458.152 442.549 458.152C440.949 458.152 440.149 459.032 440.149 460.792ZM460.852 467.848C460.852 463.528 464.356 460.76 471.364 459.544L476.452 458.728C476.452 457.768 476.372 457.128 476.212 456.808C476.052 456.456 475.668 456.28 475.06 456.28C474.484 456.28 473.908 456.536 473.332 457.048C472.756 457.56 472.212 457.816 471.7 457.816H463.54C462.836 457.816 462.484 457.48 462.484 456.808C462.484 456.104 462.724 455.368 463.204 454.6C463.716 453.8 464.436 453.016 465.364 452.248C466.324 451.48 467.652 450.84 469.348 450.328C471.076 449.816 472.996 449.56 475.108 449.56C479.396 449.56 482.612 450.456 484.756 452.248C486.9 454.04 487.972 456.6 487.972 459.928V473.704C487.972 474.056 487.844 474.36 487.588 474.616C487.332 474.872 487.028 475 486.676 475H478.276C477.924 475 477.62 474.872 477.364 474.616C477.108 474.36 476.98 474.056 476.98 473.704V472.36C475.476 474.44 473.284 475.48 470.404 475.48C467.524 475.48 465.204 474.76 463.444 473.32C461.716 471.848 460.852 470.024 460.852 467.848ZM473.476 468.376C475.556 468.376 476.596 467.128 476.596 464.632L473.764 465.256C472.356 465.576 471.652 466.168 471.652 467.032C471.652 467.416 471.812 467.736 472.132 467.992C472.452 468.248 472.9 468.376 473.476 468.376ZM503.021 451.336V453.016C505.261 451.032 507.757 450.04 510.509 450.04H512.813C513.165 450.04 513.469 450.168 513.725 450.424C513.981 450.68 514.109 450.984 514.109 451.336V458.824C514.109 459.176 513.981 459.48 513.725 459.736C513.469 459.992 513.165 460.12 512.813 460.12H506.621C505.757 460.12 505.069 460.328 504.557 460.744C504.077 461.128 503.805 461.656 503.741 462.328V473.704C503.741 474.056 503.613 474.36 503.357 474.616C503.101 474.872 502.797 475 502.445 475H493.325C492.973 475 492.669 474.872 492.413 474.616C492.157 474.36 492.029 474.056 492.029 473.704V451.336C492.029 450.984 492.157 450.68 492.413 450.424C492.669 450.168 492.973 450.04 493.325 450.04H501.725C502.077 450.04 502.381 450.168 502.637 450.424C502.893 450.68 503.021 450.984 503.021 451.336ZM532.363 458.44V463.72C532.363 465.32 533.051 466.12 534.427 466.12H538.795C539.147 466.12 539.451 466.248 539.707 466.504C539.963 466.76 540.091 467.064 540.091 467.416V473.704C540.091 474.056 539.963 474.36 539.707 474.616C539.451 474.872 539.147 475 538.795 475H533.371C525.371 475 521.371 471.56 521.371 464.68V458.44H517.579C517.227 458.44 516.923 458.312 516.667 458.056C516.411 457.8 516.283 457.496 516.283 457.144V451.336C516.283 450.984 516.411 450.68 516.667 450.424C516.923 450.168 517.227 450.04 517.579 450.04H521.371V442.216C521.371 441.864 521.499 441.56 521.755 441.304C522.011 441.048 522.315 440.92 522.667 440.92H531.067C531.419 440.92 531.723 441.048 531.979 441.304C532.235 441.56 532.363 441.864 532.363 442.216V450.04H538.411C538.763 450.04 539.067 450.168 539.323 450.424C539.579 450.68 539.707 450.984 539.707 451.336V457.144C539.707 457.496 539.579 457.8 539.323 458.056C539.067 458.312 538.763 458.44 538.411 458.44H532.363Z" fill="url(#paint4_linear_0_1)" fill-opacity="0.63"/>
<path d="M411.73 463.528L412.678 463.844L412.684 463.827L412.689 463.81L411.73 463.528ZM412.306 462.424L411.706 461.624L411.679 461.644L411.655 461.665L412.306 462.424ZM424.018 462.472L423.258 463.123L423.308 463.181L423.367 463.231L424.018 462.472ZM421.954 470.2L421.191 469.553L421.186 469.558L421.954 470.2ZM396.466 472.264L395.867 473.065L395.873 473.069L396.466 472.264ZM396.562 444.232L397.157 445.035L397.157 445.035L396.562 444.232ZM421.954 446.2L421.186 446.842L421.191 446.847L421.954 446.2ZM424.018 453.976L423.31 453.269L423.31 453.269L424.018 453.976ZM412.354 453.976L411.703 454.735L411.727 454.756L411.754 454.776L412.354 453.976ZM411.73 452.872L410.786 453.204L410.787 453.205L411.73 452.872ZM403.578 454.168V462.232H405.578V454.168H403.578ZM403.578 462.232C403.578 463.661 403.902 464.919 404.727 465.822C405.568 466.743 406.767 467.12 408.13 467.12V465.12C407.124 465.12 406.547 464.849 406.204 464.474C405.845 464.081 405.578 463.395 405.578 462.232H403.578ZM408.13 467.12C409.202 467.12 410.175 466.864 410.982 466.284C411.788 465.703 412.339 464.861 412.678 463.844L410.781 463.212C410.544 463.923 410.207 464.377 409.813 464.66C409.42 464.944 408.881 465.12 408.13 465.12V467.12ZM412.689 463.81C412.757 463.58 412.823 463.416 412.88 463.307C412.939 463.193 412.972 463.17 412.956 463.183L411.655 461.665C411.201 462.054 410.942 462.66 410.77 463.246L412.689 463.81ZM412.905 463.224C412.898 463.23 412.927 463.205 413.031 463.18C413.134 463.156 413.289 463.136 413.506 463.136V461.136C412.882 461.136 412.219 461.239 411.706 461.624L412.905 463.224ZM413.506 463.136H423.298V461.136H413.506V463.136ZM423.298 463.136C423.304 463.136 423.304 463.137 423.297 463.135C423.29 463.134 423.281 463.131 423.271 463.126C423.261 463.121 423.254 463.117 423.251 463.114C423.248 463.112 423.251 463.114 423.258 463.123L424.777 461.821C424.4 461.382 423.886 461.136 423.298 461.136V463.136ZM423.367 463.231C423.376 463.239 423.377 463.242 423.375 463.239C423.373 463.236 423.368 463.229 423.363 463.219C423.359 463.209 423.356 463.199 423.354 463.193C423.353 463.186 423.354 463.185 423.354 463.192H425.354C425.354 462.604 425.108 462.089 424.668 461.713L423.367 463.231ZM423.354 463.192C423.354 465.771 422.618 467.869 421.191 469.553L422.716 470.847C424.489 468.755 425.354 466.181 425.354 463.192H423.354ZM421.186 469.558C418.494 472.777 414.234 474.48 408.178 474.48V476.48C414.601 476.48 419.525 474.663 422.721 470.842L421.186 469.558ZM408.178 474.48C403.42 474.48 399.747 473.438 397.058 471.459L395.873 473.069C399.008 475.378 403.143 476.48 408.178 476.48V474.48ZM397.064 471.463C394.464 469.52 393.098 466.526 393.098 462.28H391.098C391.098 466.994 392.643 470.656 395.867 473.065L397.064 471.463ZM393.098 462.28V454.12H391.098V462.28H393.098ZM393.098 454.12C393.098 449.987 394.484 447.019 397.157 445.035L395.966 443.429C392.687 445.861 391.098 449.485 391.098 454.12H393.098ZM397.157 445.035C399.917 442.987 403.562 441.92 408.178 441.92V439.92C403.257 439.92 399.158 441.061 395.966 443.429L397.157 445.035ZM408.178 441.92C414.234 441.92 418.494 443.623 421.186 446.842L422.721 445.558C419.525 441.737 414.601 439.92 408.178 439.92V441.92ZM421.191 446.847C422.618 448.531 423.354 450.629 423.354 453.208H425.354C425.354 450.219 424.489 447.645 422.716 445.553L421.191 446.847ZM423.354 453.208C423.354 453.215 423.353 453.217 423.353 453.216C423.353 453.216 423.354 453.215 423.353 453.215C423.353 453.216 423.351 453.22 423.345 453.229C423.339 453.237 423.328 453.251 423.31 453.269L424.725 454.683C425.116 454.292 425.354 453.789 425.354 453.208H423.354ZM423.31 453.269C423.307 453.272 423.307 453.272 423.31 453.27C423.313 453.268 423.318 453.265 423.322 453.264C423.327 453.262 423.328 453.262 423.326 453.262C423.323 453.263 423.314 453.264 423.298 453.264V455.264C423.833 455.264 424.333 455.075 424.725 454.683L423.31 453.269ZM423.298 453.264H413.506V455.264H423.298V453.264ZM413.506 453.264C413.09 453.264 412.96 453.181 412.954 453.176L411.754 454.776C412.259 455.155 412.897 455.264 413.506 455.264V453.264ZM413.004 453.217C413.01 453.221 412.97 453.187 412.9 453.064C412.833 452.945 412.756 452.774 412.672 452.539L410.787 453.205C410.991 453.784 411.27 454.364 411.703 454.735L413.004 453.217ZM412.673 452.54C412.317 451.53 411.76 450.694 410.958 450.116C410.154 449.538 409.19 449.28 408.13 449.28V451.28C408.861 451.28 409.393 451.454 409.789 451.74C410.187 452.026 410.534 452.486 410.786 453.204L412.673 452.54ZM408.13 449.28C406.767 449.28 405.568 449.657 404.727 450.578C403.902 451.481 403.578 452.739 403.578 454.168H405.578C405.578 453.005 405.845 452.319 406.204 451.926C406.547 451.551 407.124 451.28 408.13 451.28V449.28ZM439.765 474.616L439.058 473.909L439.058 473.909L439.765 474.616ZM428.581 474.616L429.288 473.909L429.288 473.909L428.581 474.616ZM428.581 441.304L429.288 442.011L429.288 442.011L428.581 441.304ZM439.765 441.304L439.058 442.011L439.058 442.011L439.765 441.304ZM440.149 452.536H439.149V455.101L440.885 453.213L440.149 452.536ZM454.213 452.344L453.506 453.051L453.506 453.051L454.213 452.344ZM456.613 474.568L455.906 473.861L456.613 474.568ZM445.381 474.568L446.088 473.861L446.088 473.861L445.381 474.568ZM439.149 460.792V473.704H441.149V460.792H439.149ZM439.149 473.704C439.149 473.782 439.132 473.834 439.058 473.909L440.472 475.323C440.91 474.886 441.149 474.33 441.149 473.704H439.149ZM439.058 473.909C438.983 473.983 438.931 474 438.853 474V476C439.478 476 440.034 475.761 440.472 475.323L439.058 473.909ZM438.853 474H429.493V476H438.853V474ZM429.493 474C429.414 474 429.362 473.983 429.288 473.909L427.874 475.323C428.311 475.761 428.867 476 429.493 476V474ZM429.288 473.909C429.214 473.834 429.197 473.782 429.197 473.704H427.197C427.197 474.33 427.436 474.886 427.874 475.323L429.288 473.909ZM429.197 473.704V442.216H427.197V473.704H429.197ZM429.197 442.216C429.197 442.138 429.214 442.086 429.288 442.011L427.874 440.597C427.436 441.034 427.197 441.59 427.197 442.216H429.197ZM429.288 442.011C429.362 441.937 429.414 441.92 429.493 441.92V439.92C428.867 439.92 428.311 440.159 427.874 440.597L429.288 442.011ZM429.493 441.92H438.853V439.92H429.493V441.92ZM438.853 441.92C438.931 441.92 438.983 441.937 439.058 442.011L440.472 440.597C440.034 440.159 439.478 439.92 438.853 439.92V441.92ZM439.058 442.011C439.132 442.086 439.149 442.138 439.149 442.216H441.149C441.149 441.59 440.91 441.034 440.472 440.597L439.058 442.011ZM439.149 442.216V452.536H441.149V442.216H439.149ZM440.885 453.213C442.508 451.448 444.571 450.56 447.157 450.56V448.56C444.047 448.56 441.438 449.656 439.413 451.859L440.885 453.213ZM447.157 450.56C449.765 450.56 451.854 451.4 453.506 453.051L454.92 451.637C452.86 449.576 450.245 448.56 447.157 448.56V450.56ZM453.506 453.051C455.116 454.661 455.997 457.073 455.997 460.456H457.997C457.997 456.735 457.022 453.739 454.92 451.637L453.506 453.051ZM455.997 460.456V473.656H457.997V460.456H455.997ZM455.997 473.656C455.997 473.734 455.98 473.786 455.906 473.861L457.32 475.275C457.758 474.838 457.997 474.282 457.997 473.656H455.997ZM455.906 473.861C455.831 473.935 455.779 473.952 455.701 473.952V475.952C456.326 475.952 456.882 475.713 457.32 475.275L455.906 473.861ZM455.701 473.952H446.293V475.952H455.701V473.952ZM446.293 473.952C446.214 473.952 446.162 473.935 446.088 473.861L444.674 475.275C445.111 475.713 445.667 475.952 446.293 475.952V473.952ZM446.088 473.861C446.014 473.786 445.997 473.734 445.997 473.656H443.997C443.997 474.282 444.236 474.838 444.674 475.275L446.088 473.861ZM445.997 473.656V460.792H443.997V473.656H445.997ZM445.997 460.792C445.997 459.776 445.763 458.827 445.118 458.132C444.46 457.423 443.539 457.152 442.549 457.152V459.152C443.191 459.152 443.494 459.321 443.652 459.492C443.823 459.677 443.997 460.048 443.997 460.792H445.997ZM442.549 457.152C441.569 457.152 440.658 457.426 440.009 458.139C439.377 458.835 439.149 459.78 439.149 460.792H441.149C441.149 460.044 441.321 459.669 441.489 459.485C441.64 459.318 441.929 459.152 442.549 459.152V457.152ZM471.364 459.544L471.206 458.557L471.193 458.559L471.364 459.544ZM476.452 458.728L476.61 459.715L477.452 459.58V458.728H476.452ZM476.212 456.808L475.302 457.222L475.309 457.239L475.317 457.255L476.212 456.808ZM463.204 454.6L462.362 454.061L462.356 454.07L463.204 454.6ZM465.364 452.248L464.739 451.467L464.733 451.472L464.726 451.478L465.364 452.248ZM469.348 450.328L469.064 449.369L469.059 449.371L469.348 450.328ZM484.756 452.248L485.397 451.481L485.397 451.481L484.756 452.248ZM487.588 474.616L486.881 473.909L486.881 473.909L487.588 474.616ZM477.364 474.616L476.657 475.323L476.657 475.323L477.364 474.616ZM476.98 472.36H477.98V469.27L476.17 471.774L476.98 472.36ZM463.444 473.32L462.795 474.081L462.803 474.088L462.811 474.094L463.444 473.32ZM476.596 464.632H477.596V463.388L476.381 463.655L476.596 464.632ZM473.764 465.256L473.549 464.279L473.542 464.281L473.764 465.256ZM461.852 467.848C461.852 466.006 462.578 464.518 464.1 463.317C465.666 462.08 468.107 461.124 471.535 460.529L471.193 458.559C467.612 459.18 464.798 460.216 462.86 461.747C460.877 463.314 459.852 465.37 459.852 467.848H461.852ZM471.522 460.531L476.61 459.715L476.294 457.741L471.206 458.557L471.522 460.531ZM477.452 458.728C477.452 458.224 477.431 457.78 477.384 457.404C477.339 457.047 477.262 456.673 477.106 456.361L475.317 457.255C475.315 457.25 475.328 457.277 475.347 457.351C475.365 457.422 475.383 457.521 475.4 457.652C475.433 457.916 475.452 458.272 475.452 458.728H477.452ZM477.122 456.394C476.717 455.503 475.81 455.28 475.06 455.28V457.28C475.278 457.28 475.37 457.313 475.387 457.321C475.391 457.323 475.376 457.316 475.353 457.295C475.33 457.272 475.312 457.245 475.302 457.222L477.122 456.394ZM475.06 455.28C474.166 455.28 473.364 455.682 472.668 456.301L473.996 457.795C474.452 457.39 474.801 457.28 475.06 457.28V455.28ZM472.668 456.301C472.185 456.73 471.869 456.816 471.7 456.816V458.816C472.555 458.816 473.327 458.39 473.996 457.795L472.668 456.301ZM471.7 456.816H463.54V458.816H471.7V456.816ZM463.54 456.816C463.491 456.816 463.454 456.813 463.427 456.809C463.401 456.806 463.386 456.802 463.381 456.8C463.376 456.799 463.382 456.8 463.393 456.806C463.406 456.813 463.422 456.825 463.438 456.841C463.455 456.857 463.469 456.874 463.479 456.89C463.489 456.906 463.493 456.917 463.494 456.919C463.495 456.923 463.484 456.892 463.484 456.808H461.484C461.484 457.31 461.618 457.868 462.057 458.287C462.488 458.699 463.045 458.816 463.54 458.816V456.816ZM463.484 456.808C463.484 456.338 463.643 455.784 464.052 455.13L462.356 454.07C461.805 454.952 461.484 455.87 461.484 456.808H463.484ZM464.046 455.139C464.49 454.446 465.133 453.737 466.001 453.018L464.726 451.478C463.739 452.295 462.942 453.154 462.362 454.061L464.046 455.139ZM465.989 453.029C466.815 452.367 468.014 451.775 469.637 451.285L469.059 449.371C467.29 449.905 465.832 450.593 464.739 451.467L465.989 453.029ZM469.632 451.287C471.254 450.806 473.076 450.56 475.108 450.56V448.56C472.916 448.56 470.898 448.826 469.064 449.369L469.632 451.287ZM475.108 450.56C479.281 450.56 482.225 451.436 484.115 453.015L485.397 451.481C482.999 449.476 479.511 448.56 475.108 448.56V450.56ZM484.115 453.015C485.987 454.581 486.972 456.834 486.972 459.928H488.972C488.972 456.366 487.812 453.499 485.397 451.481L484.115 453.015ZM486.972 459.928V473.704H488.972V459.928H486.972ZM486.972 473.704C486.972 473.782 486.955 473.834 486.881 473.909L488.295 475.323C488.733 474.886 488.972 474.33 488.972 473.704H486.972ZM486.881 473.909C486.806 473.983 486.754 474 486.676 474V476C487.301 476 487.857 475.761 488.295 475.323L486.881 473.909ZM486.676 474H478.276V476H486.676V474ZM478.276 474C478.197 474 478.145 473.983 478.071 473.909L476.657 475.323C477.094 475.761 477.65 476 478.276 476V474ZM478.071 473.909C477.997 473.834 477.98 473.782 477.98 473.704H475.98C475.98 474.33 476.219 474.886 476.657 475.323L478.071 473.909ZM477.98 473.704V472.36H475.98V473.704H477.98ZM476.17 471.774C474.879 473.559 473.008 474.48 470.404 474.48V476.48C473.56 476.48 476.073 475.321 477.79 472.946L476.17 471.774ZM470.404 474.48C467.692 474.48 465.615 473.804 464.077 472.546L462.811 474.094C464.793 475.716 467.356 476.48 470.404 476.48V474.48ZM464.092 472.559C462.576 471.267 461.852 469.717 461.852 467.848H459.852C459.852 470.331 460.855 472.429 462.795 474.081L464.092 472.559ZM473.476 469.376C474.723 469.376 475.823 468.993 476.584 468.08C477.316 467.202 477.596 465.994 477.596 464.632H475.596C475.596 465.766 475.356 466.43 475.048 466.8C474.769 467.135 474.309 467.376 473.476 467.376V469.376ZM476.381 463.655L473.549 464.279L473.979 466.233L476.811 465.609L476.381 463.655ZM473.542 464.281C472.763 464.458 472.06 464.734 471.536 465.175C470.975 465.647 470.652 466.284 470.652 467.032H472.652C472.652 466.916 472.681 466.825 472.823 466.705C473.003 466.554 473.357 466.374 473.985 466.231L473.542 464.281ZM470.652 467.032C470.652 467.743 470.968 468.342 471.507 468.773L472.757 467.211C472.693 467.16 472.673 467.126 472.666 467.113C472.661 467.102 472.652 467.08 472.652 467.032H470.652ZM471.507 468.773C472.064 469.218 472.763 469.376 473.476 469.376V467.376C473.037 467.376 472.84 467.278 472.757 467.211L471.507 468.773ZM503.021 453.016H502.021V455.238L503.684 453.765L503.021 453.016ZM513.725 459.736L513.018 459.029L513.018 459.029L513.725 459.736ZM504.557 460.744L505.182 461.525L505.188 461.52L504.557 460.744ZM503.741 462.328L502.746 462.233L502.741 462.28V462.328H503.741ZM503.357 474.616L504.064 475.323L504.064 475.323L503.357 474.616ZM492.413 474.616L491.706 475.323L491.706 475.323L492.413 474.616ZM492.413 450.424L491.706 449.717L491.706 449.717L492.413 450.424ZM502.637 450.424L501.93 451.131L501.93 451.131L502.637 450.424ZM502.021 451.336V453.016H504.021V451.336H502.021ZM503.684 453.765C505.759 451.927 508.024 451.04 510.509 451.04V449.04C507.491 449.04 504.764 450.137 502.358 452.267L503.684 453.765ZM510.509 451.04H512.813V449.04H510.509V451.04ZM512.813 451.04C512.892 451.04 512.944 451.057 513.018 451.131L514.432 449.717C513.995 449.279 513.439 449.04 512.813 449.04V451.04ZM513.018 451.131C513.093 451.206 513.109 451.258 513.109 451.336H515.109C515.109 450.71 514.87 450.154 514.432 449.717L513.018 451.131ZM513.109 451.336V458.824H515.109V451.336H513.109ZM513.109 458.824C513.109 458.902 513.093 458.954 513.018 459.029L514.432 460.443C514.87 460.006 515.109 459.45 515.109 458.824H513.109ZM513.018 459.029C512.944 459.103 512.892 459.12 512.813 459.12V461.12C513.439 461.12 513.995 460.881 514.432 460.443L513.018 459.029ZM512.813 459.12H506.621V461.12H512.813V459.12ZM506.621 459.12C505.599 459.12 504.666 459.367 503.927 459.968L505.188 461.52C505.473 461.289 505.915 461.12 506.621 461.12V459.12ZM503.933 459.963C503.219 460.534 502.833 461.321 502.746 462.233L504.737 462.423C504.778 461.991 504.935 461.722 505.182 461.525L503.933 459.963ZM502.741 462.328V473.704H504.741V462.328H502.741ZM502.741 473.704C502.741 473.782 502.725 473.834 502.65 473.909L504.064 475.323C504.502 474.886 504.741 474.33 504.741 473.704H502.741ZM502.65 473.909C502.576 473.983 502.524 474 502.445 474V476C503.071 476 503.627 475.761 504.064 475.323L502.65 473.909ZM502.445 474H493.325V476H502.445V474ZM493.325 474C493.247 474 493.195 473.983 493.12 473.909L491.706 475.323C492.144 475.761 492.7 476 493.325 476V474ZM493.12 473.909C493.046 473.834 493.029 473.782 493.029 473.704H491.029C491.029 474.33 491.269 474.886 491.706 475.323L493.12 473.909ZM493.029 473.704V451.336H491.029V473.704H493.029ZM493.029 451.336C493.029 451.258 493.046 451.206 493.12 451.131L491.706 449.717C491.269 450.154 491.029 450.71 491.029 451.336H493.029ZM493.12 451.131C493.195 451.057 493.247 451.04 493.325 451.04V449.04C492.7 449.04 492.144 449.279 491.706 449.717L493.12 451.131ZM493.325 451.04H501.725V449.04H493.325V451.04ZM501.725 451.04C501.804 451.04 501.856 451.057 501.93 451.131L503.344 449.717C502.907 449.279 502.351 449.04 501.725 449.04V451.04ZM501.93 451.131C502.005 451.206 502.021 451.258 502.021 451.336H504.021C504.021 450.71 503.782 450.154 503.344 449.717L501.93 451.131ZM532.363 458.44V457.44H531.363V458.44H532.363ZM539.707 466.504L538.999 467.211L538.999 467.211L539.707 466.504ZM539.707 474.616L538.999 473.909L538.999 473.909L539.707 474.616ZM521.371 458.44H522.371V457.44H521.371V458.44ZM516.667 458.056L515.959 458.763L515.959 458.763L516.667 458.056ZM516.667 450.424L517.374 451.131L517.374 451.131L516.667 450.424ZM521.371 450.04V451.04H522.371V450.04H521.371ZM531.979 441.304L531.271 442.011L531.271 442.011L531.979 441.304ZM532.363 450.04H531.363V451.04H532.363V450.04ZM539.323 450.424L540.03 449.717L540.03 449.717L539.323 450.424ZM539.323 458.056L540.03 458.763L540.03 458.763L539.323 458.056ZM531.363 458.44V463.72H533.363V458.44H531.363ZM531.363 463.72C531.363 464.64 531.557 465.517 532.12 466.172C532.708 466.856 533.542 467.12 534.427 467.12V465.12C533.935 465.12 533.737 464.984 533.637 464.868C533.512 464.723 533.363 464.4 533.363 463.72H531.363ZM534.427 467.12H538.795V465.12H534.427V467.12ZM538.795 467.12C538.873 467.12 538.925 467.137 538.999 467.211L540.414 465.797C539.976 465.359 539.42 465.12 538.795 465.12V467.12ZM538.999 467.211C539.074 467.286 539.091 467.338 539.091 467.416H541.091C541.091 466.79 540.851 466.234 540.414 465.797L538.999 467.211ZM539.091 467.416V473.704H541.091V467.416H539.091ZM539.091 473.704C539.091 473.782 539.074 473.834 538.999 473.909L540.414 475.323C540.851 474.886 541.091 474.33 541.091 473.704H539.091ZM538.999 473.909C538.925 473.983 538.873 474 538.795 474V476C539.42 476 539.976 475.761 540.414 475.323L538.999 473.909ZM538.795 474H533.371V476H538.795V474ZM533.371 474C529.491 474 526.768 473.163 525.023 471.662C523.306 470.186 522.371 467.923 522.371 464.68H520.371C520.371 468.317 521.435 471.214 523.718 473.178C525.973 475.117 529.25 476 533.371 476V474ZM522.371 464.68V458.44H520.371V464.68H522.371ZM521.371 457.44H517.579V459.44H521.371V457.44ZM517.579 457.44C517.5 457.44 517.448 457.423 517.374 457.349L515.959 458.763C516.397 459.201 516.953 459.44 517.579 459.44V457.44ZM517.374 457.349C517.299 457.274 517.283 457.222 517.283 457.144H515.283C515.283 457.77 515.522 458.326 515.959 458.763L517.374 457.349ZM517.283 457.144V451.336H515.283V457.144H517.283ZM517.283 451.336C517.283 451.258 517.299 451.206 517.374 451.131L515.959 449.717C515.522 450.154 515.283 450.71 515.283 451.336H517.283ZM517.374 451.131C517.448 451.057 517.5 451.04 517.579 451.04V449.04C516.953 449.04 516.397 449.279 515.959 449.717L517.374 451.131ZM517.579 451.04H521.371V449.04H517.579V451.04ZM522.371 450.04V442.216H520.371V450.04H522.371ZM522.371 442.216C522.371 442.138 522.387 442.086 522.462 442.011L521.047 440.597C520.61 441.034 520.371 441.59 520.371 442.216H522.371ZM522.462 442.011C522.536 441.937 522.588 441.92 522.667 441.92V439.92C522.041 439.92 521.485 440.159 521.047 440.597L522.462 442.011ZM522.667 441.92H531.067V439.92H522.667V441.92ZM531.067 441.92C531.145 441.92 531.197 441.937 531.271 442.011L532.686 440.597C532.248 440.159 531.692 439.92 531.067 439.92V441.92ZM531.271 442.011C531.346 442.086 531.363 442.138 531.363 442.216H533.363C533.363 441.59 533.123 441.034 532.686 440.597L531.271 442.011ZM531.363 442.216V450.04H533.363V442.216H531.363ZM532.363 451.04H538.411V449.04H532.363V451.04ZM538.411 451.04C538.489 451.04 538.541 451.057 538.615 451.131L540.03 449.717C539.592 449.279 539.036 449.04 538.411 449.04V451.04ZM538.615 451.131C538.69 451.206 538.707 451.258 538.707 451.336H540.707C540.707 450.71 540.467 450.154 540.03 449.717L538.615 451.131ZM538.707 451.336V457.144H540.707V451.336H538.707ZM538.707 457.144C538.707 457.222 538.69 457.274 538.615 457.349L540.03 458.763C540.467 458.326 540.707 457.77 540.707 457.144H538.707ZM538.615 457.349C538.541 457.423 538.489 457.44 538.411 457.44V459.44C539.036 459.44 539.592 459.201 540.03 458.763L538.615 457.349ZM538.411 457.44H532.363V459.44H538.411V457.44Z" fill="black"/>
<rect x="262.223" y="325.273" width="101.107" height="161.636" rx="22" fill="url(#paint5_linear_0_1)" stroke="white" stroke-width="2"/>
<rect x="616.893" y="34" width="101.107" height="326.951" rx="22" fill="url(#paint6_linear_0_1)" stroke="white" stroke-width="2"/>
<rect x="144" y="407.091" width="101.107" height="128.909" rx="22" fill="url(#paint7_linear_0_1)" stroke="white" stroke-width="2"/>
<rect x="380.447" y="210.727" width="101.107" height="194.364" rx="22" fill="url(#paint8_linear_0_1)" stroke="white" stroke-width="2"/>
<rect x="498.67" y="85.2727" width="101.107" height="238" rx="22" fill="url(#paint9_linear_0_1)" stroke="white" stroke-width="2"/>
<defs>
<linearGradient id="paint0_linear_0_1" x1="-9.5" y1="615" x2="545.61" y2="146.371" gradientUnits="userSpaceOnUse">
<stop stop-color="#00810D"/>
<stop offset="1" stop-color="#0500FF"/>
</linearGradient>
<linearGradient id="paint1_linear_0_1" x1="582.5" y1="404" x2="582.5" y2="516" gradientUnits="userSpaceOnUse">
<stop stop-color="#000AFF"/>
<stop offset="1" stop-color="#DBFF00"/>
</linearGradient>
<linearGradient id="paint2_linear_0_1" x1="403.5" y1="445" x2="403.5" y2="557" gradientUnits="userSpaceOnUse">
<stop stop-color="#000AFF"/>
<stop offset="1" stop-color="#DBFF00"/>
</linearGradient>
<linearGradient id="paint3_linear_0_1" x1="527.5" y1="445" x2="527.5" y2="557" gradientUnits="userSpaceOnUse">
<stop stop-color="#000AFF"/>
<stop offset="1" stop-color="#DBFF00"/>
</linearGradient>
<linearGradient id="paint4_linear_0_1" x1="465.5" y1="404" x2="465.5" y2="516" gradientUnits="userSpaceOnUse">
<stop stop-color="#000AFF"/>
<stop offset="1" stop-color="#DBFF00"/>
</linearGradient>
<linearGradient id="paint5_linear_0_1" x1="312.777" y1="324.273" x2="312.777" y2="487.909" gradientUnits="userSpaceOnUse">
<stop stop-color="#408B63" stop-opacity="0.49"/>
<stop offset="1" stop-color="#000AFF"/>
</linearGradient>
<linearGradient id="paint6_linear_0_1" x1="667.447" y1="33" x2="667.447" y2="361.951" gradientUnits="userSpaceOnUse">
<stop stop-color="#408B63" stop-opacity="0.49"/>
<stop offset="1" stop-color="#000AFF"/>
</linearGradient>
<linearGradient id="paint7_linear_0_1" x1="194.553" y1="406.091" x2="194.553" y2="537" gradientUnits="userSpaceOnUse">
<stop stop-color="#408B63" stop-opacity="0.49"/>
<stop offset="1" stop-color="#000AFF"/>
</linearGradient>
<linearGradient id="paint8_linear_0_1" x1="431" y1="209.727" x2="431" y2="406.091" gradientUnits="userSpaceOnUse">
<stop stop-color="#408B63" stop-opacity="0.49"/>
<stop offset="1" stop-color="#000AFF"/>
</linearGradient>
<linearGradient id="paint9_linear_0_1" x1="549.223" y1="84.2727" x2="549.223" y2="324.273" gradientUnits="userSpaceOnUse">
<stop stop-color="#408B63" stop-opacity="0.49"/>
<stop offset="1" stop-color="#000AFF"/>
</linearGradient>
</defs>
</svg>
