<svg width="1654" height="636" viewBox="0 0 1654 636" fill="none" xmlns="http://www.w3.org/2000/svg">
<g filter="url(#filter0_f_21_73)">
<path d="M879.367 268.788H876.487C876.487 276.468 874.039 283.572 869.143 290.1C864.247 296.628 857.239 299.892 848.119 299.892C843.031 299.892 838.807 296.916 835.447 290.964C832.183 285.012 830.551 274.836 830.551 260.436C830.551 246.036 832.183 235.86 835.447 229.908C838.807 223.956 843.991 220.98 850.999 220.98C858.103 220.98 864.055 223.188 868.855 227.604C873.751 232.02 876.775 238.26 877.927 246.324H880.807C879.463 236.82 876.103 229.716 870.727 225.012C865.447 220.404 859.111 218.1 851.719 218.1C837.415 218.1 826.423 221.508 818.743 228.324C811.159 235.236 807.367 245.988 807.367 260.58C807.367 275.268 811.063 285.972 818.455 292.692C825.943 299.412 835.831 302.772 848.119 302.772C854.743 302.772 861.175 300.996 867.415 297.444C869.431 296.196 871.063 295.572 872.311 295.572C873.655 295.572 874.711 296.148 875.479 297.3C876.247 298.548 876.631 299.748 876.631 300.9H879.367V268.788ZM965.705 223.14H972.905V220.26H936.905V223.14H944.105V263.46C944.105 270.276 943.097 275.124 941.081 278.004C939.065 280.884 936.041 282.324 932.009 282.324C926.537 282.324 922.169 279.444 918.905 273.684V223.14H926.105V220.26H890.105V223.14H897.305V313.86H890.105V316.74H918.905V279.012C920.729 281.604 923.561 283.764 927.401 285.492C931.241 287.22 935.465 288.084 940.073 288.084C957.161 288.084 965.705 278.82 965.705 260.292V223.14ZM1052.76 223.14C1051.8 222.18 1049.97 221.316 1047.29 220.548C1044.6 219.876 1041.48 219.54 1037.93 219.54C1030.05 219.54 1025.11 221.892 1023.09 226.596C1018.29 221.604 1010.95 219.108 1001.06 219.108C995.781 219.108 991.413 220.308 987.957 222.708C984.597 225.204 982.917 228.852 982.917 233.652C982.917 240.084 985.413 245.028 990.405 248.484C995.397 252.036 1004.13 254.532 1016.61 255.972L1022.37 256.692V263.748C1022.37 272.1 1021.75 277.716 1020.5 280.596C1019.25 283.476 1016.76 284.916 1013.01 284.916C1009.37 284.916 1007.01 284.388 1005.96 283.332C1004.9 282.372 1004.52 281.22 1004.81 279.876C1005.09 278.628 1005.57 276.948 1006.25 274.836C1006.92 272.724 1007.25 271.044 1007.25 269.796C1007.25 266.82 1006.2 264.276 1004.09 262.164C1002.07 260.148 999.573 259.14 996.597 259.14C993.717 259.14 991.221 260.148 989.109 262.164C986.997 264.276 985.941 266.82 985.941 269.796C985.941 274.692 988.437 278.868 993.429 282.324C998.517 285.876 1006.05 287.652 1016.04 287.652C1026.12 287.652 1033.27 285.684 1037.49 281.748C1041.81 277.812 1043.97 270.852 1043.97 260.868V234.948C1043.97 229.86 1044.6 226.644 1045.85 225.3C1047.09 224.052 1049.4 223.812 1052.76 224.58V223.14ZM1002.93 236.532C1003.41 232.884 1004.76 230.052 1006.97 228.036C1009.17 226.116 1011.72 225.156 1014.6 225.156C1017.57 225.156 1020.17 226.596 1022.37 229.476V253.956L1017.19 253.236C1012.77 252.66 1009.17 250.98 1006.39 248.196C1003.7 245.412 1002.55 241.524 1002.93 236.532ZM1097.39 220.26H1061.39V223.14H1068.59V283.62H1061.39V286.5H1090.19V269.364C1091.05 274.068 1092.59 277.908 1094.79 280.884C1097.1 283.86 1099.59 285.828 1102.28 286.788C1105.07 287.748 1107.71 288.228 1110.2 288.228C1112.79 288.228 1115.24 287.748 1117.55 286.788C1119.95 285.924 1121.72 284.1 1122.87 281.316C1124.03 278.628 1124.07 275.892 1123.02 273.108C1121.96 270.42 1120.09 268.5 1117.4 267.348C1114.81 266.196 1112.41 266.052 1110.2 266.916C1107.99 267.78 1106.41 268.932 1105.45 270.372C1104.49 271.908 1103.82 273.348 1103.43 274.692C1102.47 278.244 1101.18 280.02 1099.55 280.02C1097.72 280.02 1095.71 276.852 1093.5 270.516C1091.29 264.276 1090.19 257.652 1090.19 250.644V223.14H1097.39V220.26ZM1157.49 283.62V248.484C1157.49 240.228 1157.83 235.188 1158.5 233.364C1159.17 231.636 1159.89 230.148 1160.66 228.9C1162.1 226.404 1164.6 225.156 1168.15 225.156C1171.8 225.156 1174.34 225.636 1175.78 226.596V223.716C1171.17 220.452 1166.13 218.82 1160.66 218.82C1152.6 218.82 1146.45 220.74 1142.23 224.58C1138 228.42 1135.89 235.284 1135.89 245.172V283.62H1125.24V286.5H1135.89C1140.5 287.268 1144.58 289.476 1148.13 293.124C1151.68 296.868 1154.13 302.004 1155.48 308.532H1157.49V286.5H1174.2V283.62H1157.49Z" fill="url(#paint0_linear_21_73)"/>
<path d="M1427.9 214.492C1426.94 213.532 1425.11 212.668 1422.43 211.9C1419.74 211.228 1416.62 210.892 1413.07 210.892C1405.19 210.892 1400.25 213.244 1398.23 217.948C1393.43 212.956 1386.09 210.46 1376.2 210.46C1370.92 210.46 1366.55 211.66 1363.1 214.06C1359.74 216.556 1358.06 220.204 1358.06 225.004C1358.06 231.436 1360.55 236.38 1365.55 239.836C1370.54 243.388 1379.27 245.884 1391.75 247.324L1397.51 248.044V255.1C1397.51 263.452 1396.89 269.068 1395.64 271.948C1394.39 274.828 1391.9 276.268 1388.15 276.268C1384.51 276.268 1382.15 275.74 1381.1 274.684C1380.04 273.724 1379.66 272.572 1379.95 271.228C1380.23 269.98 1380.71 268.3 1381.39 266.188C1382.06 264.076 1382.39 262.396 1382.39 261.148C1382.39 258.172 1381.34 255.628 1379.23 253.516C1377.21 251.5 1374.71 250.492 1371.74 250.492C1368.86 250.492 1366.36 251.5 1364.25 253.516C1362.14 255.628 1361.08 258.172 1361.08 261.148C1361.08 266.044 1363.58 270.22 1368.57 273.676C1373.66 277.228 1381.19 279.004 1391.18 279.004C1401.26 279.004 1408.41 277.036 1412.63 273.1C1416.95 269.164 1419.11 262.204 1419.11 252.22V226.3C1419.11 221.212 1419.74 217.996 1420.99 216.652C1422.23 215.404 1424.54 215.164 1427.9 215.932V214.492ZM1378.07 227.884C1378.55 224.236 1379.9 221.404 1382.11 219.388C1384.31 217.468 1386.86 216.508 1389.74 216.508C1392.71 216.508 1395.31 217.948 1397.51 220.828V245.308L1392.33 244.588C1387.91 244.012 1384.31 242.332 1381.53 239.548C1378.84 236.764 1377.69 232.876 1378.07 227.884ZM1463.02 274.972V239.836C1463.02 231.58 1463.36 226.54 1464.03 224.716C1464.7 222.988 1465.42 221.5 1466.19 220.252C1467.63 217.756 1470.13 216.508 1473.68 216.508C1477.33 216.508 1479.87 216.988 1481.31 217.948V215.068C1476.7 211.804 1471.66 210.172 1466.19 210.172C1458.13 210.172 1451.98 212.092 1447.76 215.932C1443.54 219.772 1441.42 226.636 1441.42 236.524V274.972H1430.77V277.852H1441.42C1446.03 278.62 1450.11 280.828 1453.66 284.476C1457.22 288.22 1459.66 293.356 1461.01 299.884H1463.02V277.852H1479.73V274.972H1463.02Z" fill="url(#paint1_linear_21_73)"/>
<path d="M1051.21 413.26C1051.21 415.468 1050.59 417.292 1049.34 418.732C1048.09 420.268 1046.46 421.036 1044.44 421.036C1042.52 421.036 1040.51 420.22 1038.39 418.588C1036.38 416.956 1033.98 415.276 1031.19 413.548C1028.51 411.916 1025.24 411.1 1021.4 411.1C1008.35 411.1 998.218 414.46 991.018 421.18C983.914 427.9 980.362 438.22 980.362 452.14C980.362 481.228 993.946 495.772 1021.11 495.772C1026.01 495.772 1031 494.572 1036.09 492.172C1041.27 489.772 1044.44 488.572 1045.59 488.572C1046.75 488.572 1047.71 489.148 1048.47 490.3C1049.24 491.548 1049.63 492.748 1049.63 493.9H1052.36V464.668H1049.48C1049.48 471.964 1046.6 478.492 1040.84 484.252C1035.18 490.012 1028.6 492.892 1021.11 492.892C1015.35 492.892 1010.99 489.772 1008.01 483.532C1005.03 477.388 1003.55 467.164 1003.55 452.86C1003.55 438.652 1005.03 428.62 1008.01 422.764C1011.08 416.908 1015.55 413.98 1021.4 413.98C1030.62 413.98 1035.23 422.188 1035.23 438.604V449.26H1026.15V452.14H1060.71V449.26H1053.95V413.26H1051.21ZM1098.21 416.14H1105.41V413.26H1069.41V416.14H1076.61V506.86H1069.41V509.74H1098.21V416.14ZM1185.38 416.14C1184.42 415.18 1182.59 414.316 1179.9 413.548C1177.22 412.876 1174.1 412.54 1170.54 412.54C1162.67 412.54 1157.73 414.892 1155.71 419.596C1150.91 414.604 1143.57 412.108 1133.68 412.108C1128.4 412.108 1124.03 413.308 1120.58 415.708C1117.22 418.204 1115.54 421.852 1115.54 426.652C1115.54 433.084 1118.03 438.028 1123.02 441.484C1128.02 445.036 1136.75 447.532 1149.23 448.972L1154.99 449.692V456.748C1154.99 465.1 1154.37 470.716 1153.12 473.596C1151.87 476.476 1149.38 477.916 1145.63 477.916C1141.98 477.916 1139.63 477.388 1138.58 476.332C1137.52 475.372 1137.14 474.22 1137.42 472.876C1137.71 471.628 1138.19 469.948 1138.86 467.836C1139.54 465.724 1139.87 464.044 1139.87 462.796C1139.87 459.82 1138.82 457.276 1136.7 455.164C1134.69 453.148 1132.19 452.14 1129.22 452.14C1126.34 452.14 1123.84 453.148 1121.73 455.164C1119.62 457.276 1118.56 459.82 1118.56 462.796C1118.56 467.692 1121.06 471.868 1126.05 475.324C1131.14 478.876 1138.67 480.652 1148.66 480.652C1158.74 480.652 1165.89 478.684 1170.11 474.748C1174.43 470.812 1176.59 463.852 1176.59 453.868V427.948C1176.59 422.86 1177.22 419.644 1178.46 418.3C1179.71 417.052 1182.02 416.812 1185.38 417.58V416.14ZM1135.55 429.532C1136.03 425.884 1137.38 423.052 1139.58 421.036C1141.79 419.116 1144.34 418.156 1147.22 418.156C1150.19 418.156 1152.78 419.596 1154.99 422.476V446.956L1149.81 446.236C1145.39 445.66 1141.79 443.98 1139.01 441.196C1136.32 438.412 1135.17 434.524 1135.55 429.532ZM1269.61 416.14H1276.81V413.26H1240.81V416.14H1248.01V456.46C1248.01 463.276 1247 468.124 1244.98 471.004C1242.97 473.884 1239.94 475.324 1235.91 475.324C1230.44 475.324 1226.07 472.444 1222.81 466.684V416.14H1230.01V413.26H1194.01V416.14H1201.21V476.62H1194.01V479.5H1222.81V472.012C1224.63 474.508 1227.46 476.62 1231.3 478.348C1235.24 480.172 1239.46 481.084 1243.97 481.084C1261.06 481.084 1269.61 471.82 1269.61 453.292V416.14ZM1285.38 446.38C1285.38 457.708 1288.69 466.3 1295.31 472.156C1301.94 478.012 1310.34 480.94 1320.51 480.94C1330.79 480.94 1338.42 478.348 1343.41 473.164C1348.4 468.076 1350.18 462.796 1348.74 457.324C1347.97 454.348 1346.34 452.14 1343.84 450.7C1341.44 449.356 1338.8 449.02 1335.92 449.692C1329.87 451.132 1326.85 454.636 1326.85 460.204C1326.85 461.644 1326.99 463.804 1327.28 466.684C1327.67 469.66 1327.81 471.82 1327.71 473.164C1327.62 474.508 1327.33 475.564 1326.85 476.332C1325.89 477.964 1323.63 478.588 1320.08 478.204C1311.44 476.86 1307.12 466.252 1307.12 446.38C1307.12 426.604 1314.18 416.716 1328.29 416.716C1331.55 416.716 1334.87 417.58 1338.23 419.308C1341.59 421.036 1344.08 423.1 1345.71 425.5L1347.73 424.06C1345.52 420.412 1342.21 417.484 1337.79 415.276C1333.38 413.068 1328.43 411.964 1322.96 411.964C1297.91 411.964 1285.38 423.436 1285.38 446.38ZM1422.89 442.06H1379.4C1380.36 425.164 1386.94 416.716 1399.13 416.716C1402.39 416.716 1406.09 417.484 1410.22 419.02C1414.44 420.556 1417.51 422.716 1419.43 425.5L1421.45 424.06C1419.34 420.508 1415.74 417.58 1410.65 415.276C1405.56 412.972 1400.47 411.82 1395.38 411.82C1390.39 411.82 1385.88 412.3 1381.85 413.26C1377.82 414.316 1373.88 416.044 1370.04 418.444C1366.2 420.844 1363.18 424.444 1360.97 429.244C1358.86 434.044 1357.8 439.852 1357.8 446.668C1357.8 458.284 1361.02 466.876 1367.45 472.444C1373.88 478.108 1381.66 480.94 1390.78 480.94C1399.99 480.94 1407.62 477.868 1413.67 471.724C1419.82 465.58 1422.89 455.692 1422.89 442.06ZM1379.26 444.94H1402.73C1402.73 453.772 1401.77 461.5 1399.85 468.124C1398.02 474.748 1395.05 478.06 1390.92 478.06C1386.79 478.06 1383.82 474.844 1381.99 468.412C1380.17 462.076 1379.26 454.78 1379.26 446.524V444.94Z" fill="url(#paint2_linear_21_73)"/>
<path d="M811.252 407.399C810.292 406.439 808.468 405.575 805.78 404.807C803.092 404.135 799.972 403.799 796.42 403.799C788.548 403.799 783.604 406.151 781.588 410.855C776.788 405.863 769.444 403.367 759.556 403.367C754.276 403.367 749.908 404.567 746.452 406.967C743.092 409.463 741.412 413.111 741.412 417.911C741.412 424.343 743.908 429.287 748.9 432.743C753.892 436.295 762.628 438.791 775.108 440.231L780.868 440.951V448.007C780.868 456.359 780.244 461.975 778.996 464.855C777.748 467.735 775.252 469.175 771.508 469.175C767.86 469.175 765.508 468.647 764.452 467.591C763.396 466.631 763.012 465.479 763.3 464.135C763.588 462.887 764.068 461.207 764.74 459.095C765.412 456.983 765.748 455.303 765.748 454.055C765.748 451.079 764.692 448.535 762.58 446.423C760.564 444.407 758.068 443.399 755.092 443.399C752.212 443.399 749.716 444.407 747.604 446.423C745.492 448.535 744.436 451.079 744.436 454.055C744.436 458.951 746.932 463.127 751.924 466.583C757.012 470.135 764.548 471.911 774.532 471.911C784.612 471.911 791.764 469.943 795.988 466.007C800.308 462.071 802.468 455.111 802.468 445.127V419.207C802.468 414.119 803.092 410.903 804.34 409.559C805.588 408.311 807.892 408.071 811.252 408.839V407.399ZM761.428 420.791C761.908 417.143 763.252 414.311 765.46 412.295C767.668 410.375 770.212 409.415 773.092 409.415C776.068 409.415 778.66 410.855 780.868 413.735V438.215L775.684 437.495C771.268 436.919 767.668 435.239 764.884 432.455C762.196 429.671 761.044 425.783 761.428 420.791Z" fill="url(#paint3_linear_21_73)"/>
</g>
<g filter="url(#filter1_d_21_73)">
<path d="M1005.72 421.292C1005.72 418.44 1004.91 416.084 1003.3 414.224C1001.69 412.24 999.578 411.248 996.974 411.248C994.494 411.248 991.89 412.302 989.162 414.41C986.558 416.518 983.458 418.688 979.862 420.92C976.39 423.028 972.174 424.082 967.214 424.082C950.35 424.082 937.268 419.742 927.968 411.062C918.792 402.382 914.204 389.052 914.204 371.072C914.204 333.5 931.75 314.714 966.842 314.714C973.166 314.714 979.614 316.264 986.186 319.364C992.882 322.464 996.974 324.014 998.462 324.014C999.95 324.014 1001.19 323.27 1002.18 321.782C1003.17 320.17 1003.67 318.62 1003.67 317.132H1007.2V354.89H1003.48C1003.48 345.466 999.764 337.034 992.324 329.594C985.008 322.154 976.514 318.434 966.842 318.434C959.402 318.434 953.76 322.464 949.916 330.524C946.072 338.46 944.15 351.666 944.15 370.142C944.15 388.494 946.072 401.452 949.916 409.016C953.884 416.58 959.65 420.362 967.214 420.362C979.118 420.362 985.07 409.76 985.07 388.556V374.792H973.352V371.072H1017.99V374.792H1009.25V421.292H1005.72ZM1066.43 417.572H1075.73V421.292H1029.23V417.572H1038.53V300.392H1029.23V296.672H1066.43V417.572ZM1179.01 417.572C1177.77 418.812 1175.42 419.928 1171.95 420.92C1168.47 421.788 1164.44 422.222 1159.86 422.222C1149.69 422.222 1143.3 419.184 1140.7 413.108C1134.5 419.556 1125.01 422.78 1112.24 422.78C1105.42 422.78 1099.78 421.23 1095.31 418.13C1090.97 414.906 1088.8 410.194 1088.8 403.994C1088.8 395.686 1092.03 389.3 1098.48 384.836C1104.92 380.248 1116.21 377.024 1132.33 375.164L1139.77 374.234V365.12C1139.77 354.332 1138.96 347.078 1137.35 343.358C1135.74 339.638 1132.51 337.778 1127.68 337.778C1122.97 337.778 1119.93 338.46 1118.56 339.824C1117.2 341.064 1116.7 342.552 1117.08 344.288C1117.45 345.9 1118.07 348.07 1118.94 350.798C1119.8 353.526 1120.24 355.696 1120.24 357.308C1120.24 361.152 1118.87 364.438 1116.15 367.166C1113.54 369.77 1110.32 371.072 1106.47 371.072C1102.75 371.072 1099.53 369.77 1096.8 367.166C1094.07 364.438 1092.71 361.152 1092.71 357.308C1092.71 350.984 1095.93 345.59 1102.38 341.126C1108.95 336.538 1118.69 334.244 1131.58 334.244C1144.6 334.244 1153.84 336.786 1159.3 341.87C1164.88 346.954 1167.67 355.944 1167.67 368.84V402.32C1167.67 408.892 1168.47 413.046 1170.09 414.782C1171.7 416.394 1174.67 416.704 1179.01 415.712V417.572ZM1114.66 400.274C1115.28 404.986 1117.01 408.644 1119.87 411.248C1122.72 413.728 1126 414.968 1129.72 414.968C1133.57 414.968 1136.92 413.108 1139.77 409.388V377.768L1133.07 378.698C1127.37 379.442 1122.72 381.612 1119.12 385.208C1115.65 388.804 1114.16 393.826 1114.66 400.274ZM1287.81 417.572H1297.11V421.292H1250.61V417.572H1259.91V365.492C1259.91 356.688 1258.61 350.426 1256 346.706C1253.4 342.986 1249.49 341.126 1244.29 341.126C1237.22 341.126 1231.58 344.846 1227.36 352.286V417.572H1236.66V421.292H1190.16V417.572H1199.46V339.452H1190.16V335.732H1227.36V345.404C1229.72 342.18 1233.37 339.452 1238.33 337.22C1243.42 334.864 1248.87 333.686 1254.7 333.686C1276.77 333.686 1287.81 345.652 1287.81 369.584V417.572ZM1308.18 378.512C1308.18 363.88 1312.46 352.782 1321.02 345.218C1329.57 337.654 1340.42 333.872 1353.57 333.872C1366.83 333.872 1376.69 337.22 1383.14 343.916C1389.59 350.488 1391.88 357.308 1390.02 364.376C1389.03 368.22 1386.92 371.072 1383.7 372.932C1380.6 374.668 1377.19 375.102 1373.47 374.234C1365.66 372.374 1361.75 367.848 1361.75 360.656C1361.75 358.796 1361.94 356.006 1362.31 352.286C1362.8 348.442 1362.99 345.652 1362.87 343.916C1362.74 342.18 1362.37 340.816 1361.75 339.824C1360.51 337.716 1357.6 336.91 1353.01 337.406C1341.85 339.142 1336.27 352.844 1336.27 378.512C1336.27 404.056 1345.38 416.828 1363.61 416.828C1367.83 416.828 1372.1 415.712 1376.44 413.48C1380.78 411.248 1384.01 408.582 1386.12 405.482L1388.72 407.342C1385.87 412.054 1381.59 415.836 1375.89 418.688C1370.18 421.54 1363.8 422.966 1356.73 422.966C1324.36 422.966 1308.18 408.148 1308.18 378.512ZM1485.8 384.092H1429.63C1430.87 405.916 1439.36 416.828 1455.11 416.828C1459.33 416.828 1464.1 415.836 1469.43 413.852C1474.89 411.868 1478.86 409.078 1481.34 405.482L1483.94 407.342C1481.21 411.93 1476.56 415.712 1469.99 418.688C1463.42 421.664 1456.85 423.152 1450.27 423.152C1443.83 423.152 1438 422.532 1432.79 421.292C1427.58 419.928 1422.5 417.696 1417.54 414.596C1412.58 411.496 1408.67 406.846 1405.82 400.646C1403.09 394.446 1401.73 386.944 1401.73 378.14C1401.73 363.136 1405.88 352.038 1414.19 344.846C1422.5 337.53 1432.54 333.872 1444.32 333.872C1456.23 333.872 1466.08 337.84 1473.9 345.776C1481.83 353.712 1485.8 366.484 1485.8 384.092ZM1429.44 380.372H1459.76C1459.76 368.964 1458.52 358.982 1456.04 350.426C1453.68 341.87 1449.84 337.592 1444.51 337.592C1439.18 337.592 1435.33 341.746 1432.98 350.054C1430.62 358.238 1429.44 367.662 1429.44 378.326V380.372Z" fill="url(#paint4_linear_21_73)"/>
<path d="M871.685 163.34H868.085C868.085 153.74 865.025 144.86 858.905 136.7C852.785 128.54 844.025 124.46 832.625 124.46C826.265 124.46 820.985 128.18 816.785 135.62C812.705 143.06 810.665 155.78 810.665 173.78C810.665 191.78 812.705 204.5 816.785 211.94C820.985 219.38 827.465 223.1 836.225 223.1C845.105 223.1 852.545 220.34 858.545 214.82C864.665 209.3 868.445 201.5 869.885 191.42H873.485C871.805 203.3 867.605 212.18 860.885 218.06C854.285 223.82 846.365 226.7 837.125 226.7C819.245 226.7 805.505 222.44 795.905 213.92C786.425 205.28 781.685 191.84 781.685 173.6C781.685 155.24 786.305 141.86 795.545 133.46C804.905 125.06 817.265 120.86 832.625 120.86C840.905 120.86 848.945 123.08 856.745 127.52C859.265 129.08 861.305 129.86 862.865 129.86C864.545 129.86 865.865 129.14 866.825 127.7C867.785 126.14 868.265 124.64 868.265 123.2H871.685V163.34ZM979.608 220.4H988.608V224H943.608V220.4H952.608V170C952.608 161.48 951.348 155.42 948.828 151.82C946.308 148.22 942.528 146.42 937.488 146.42C930.648 146.42 925.188 150.02 921.108 157.22V220.4H930.108V224H885.108V220.4H894.108V107H885.108V103.4H921.108V150.56C923.388 147.32 926.928 144.62 931.728 142.46C936.528 140.3 941.808 139.22 947.568 139.22C968.928 139.22 979.608 150.8 979.608 173.96V220.4ZM1088.42 220.4C1087.22 221.6 1084.94 222.68 1081.58 223.64C1078.22 224.48 1074.32 224.9 1069.88 224.9C1060.04 224.9 1053.86 221.96 1051.34 216.08C1045.34 222.32 1036.16 225.44 1023.8 225.44C1017.2 225.44 1011.74 223.94 1007.42 220.94C1003.22 217.82 1001.12 213.26 1001.12 207.26C1001.12 199.22 1004.24 193.04 1010.48 188.72C1016.72 184.28 1027.64 181.16 1043.24 179.36L1050.44 178.46V169.64C1050.44 159.2 1049.66 152.18 1048.1 148.58C1046.54 144.98 1043.42 143.18 1038.74 143.18C1034.18 143.18 1031.24 143.84 1029.92 145.16C1028.6 146.36 1028.12 147.8 1028.48 149.48C1028.84 151.04 1029.44 153.14 1030.28 155.78C1031.12 158.42 1031.54 160.52 1031.54 162.08C1031.54 165.8 1030.22 168.98 1027.58 171.62C1025.06 174.14 1021.94 175.4 1018.22 175.4C1014.62 175.4 1011.5 174.14 1008.86 171.62C1006.22 168.98 1004.9 165.8 1004.9 162.08C1004.9 155.96 1008.02 150.74 1014.26 146.42C1020.62 141.98 1030.04 139.76 1042.52 139.76C1055.12 139.76 1064.06 142.22 1069.34 147.14C1074.74 152.06 1077.44 160.76 1077.44 173.24V205.64C1077.44 212 1078.22 216.02 1079.78 217.7C1081.34 219.26 1084.22 219.56 1088.42 218.6V220.4ZM1026.14 203.66C1026.74 208.22 1028.42 211.76 1031.18 214.28C1033.94 216.68 1037.12 217.88 1040.72 217.88C1044.44 217.88 1047.68 216.08 1050.44 212.48V181.88L1043.96 182.78C1038.44 183.5 1033.94 185.6 1030.46 189.08C1027.1 192.56 1025.66 197.42 1026.14 203.66ZM1144.21 224H1099.21V220.4H1108.21V144.8H1099.21V141.2H1135.21V162.62C1136.29 156.74 1138.21 151.94 1140.97 148.22C1143.85 144.5 1146.97 142.04 1150.33 140.84C1153.81 139.64 1157.11 139.04 1160.23 139.04C1163.47 139.04 1166.53 139.64 1169.41 140.84C1172.41 141.92 1174.63 144.2 1176.07 147.68C1177.51 151.04 1177.57 154.46 1176.25 157.94C1174.93 161.3 1172.59 163.7 1169.23 165.14C1165.99 166.58 1162.99 166.76 1160.23 165.68C1157.47 164.6 1155.49 163.16 1154.29 161.36C1153.09 159.44 1152.25 157.64 1151.77 155.96C1150.57 151.52 1148.95 149.3 1146.91 149.3C1144.63 149.3 1142.11 153.26 1139.35 161.18C1136.59 168.98 1135.21 177.26 1135.21 186.02V220.4H1144.21V224ZM1219.34 144.8V188.72C1219.34 199.04 1219.76 205.34 1220.6 207.62C1221.44 209.78 1222.34 211.64 1223.3 213.2C1225.1 216.32 1228.22 217.88 1232.66 217.88C1237.22 217.88 1240.4 217.28 1242.2 216.08V219.68C1236.44 223.76 1230.14 225.8 1223.3 225.8C1213.22 225.8 1205.54 223.4 1200.26 218.6C1194.98 213.8 1192.34 205.22 1192.34 192.86V144.8H1179.02V141.2H1192.34C1198.1 140.24 1203.2 137.48 1207.64 132.92C1212.08 128.24 1215.14 121.82 1216.82 113.66H1219.34V141.2H1240.22V144.8H1219.34Z" fill="url(#paint5_linear_21_73)"/>
<path d="M1450.94 215.941C1449.74 217.141 1447.46 218.221 1444.1 219.181C1440.74 220.021 1436.84 220.441 1432.4 220.441C1422.56 220.441 1416.38 217.501 1413.86 211.621C1407.86 217.861 1398.68 220.981 1386.32 220.981C1379.72 220.981 1374.26 219.481 1369.94 216.481C1365.74 213.361 1363.64 208.801 1363.64 202.801C1363.64 194.761 1366.76 188.581 1373 184.261C1379.24 179.821 1390.16 176.701 1405.76 174.901L1412.96 174.001V165.181C1412.96 154.741 1412.18 147.721 1410.62 144.121C1409.06 140.521 1405.94 138.721 1401.26 138.721C1396.7 138.721 1393.76 139.381 1392.44 140.701C1391.12 141.901 1390.64 143.341 1391 145.021C1391.36 146.581 1391.96 148.681 1392.8 151.321C1393.64 153.961 1394.06 156.061 1394.06 157.621C1394.06 161.341 1392.74 164.521 1390.1 167.161C1387.58 169.681 1384.46 170.941 1380.74 170.941C1377.14 170.941 1374.02 169.681 1371.38 167.161C1368.74 164.521 1367.42 161.341 1367.42 157.621C1367.42 151.501 1370.54 146.281 1376.78 141.961C1383.14 137.521 1392.56 135.301 1405.04 135.301C1417.64 135.301 1426.58 137.761 1431.86 142.681C1437.26 147.601 1439.96 156.301 1439.96 168.781V201.181C1439.96 207.541 1440.74 211.561 1442.3 213.241C1443.86 214.801 1446.74 215.101 1450.94 214.141V215.941ZM1388.66 199.201C1389.26 203.761 1390.94 207.301 1393.7 209.821C1396.46 212.221 1399.64 213.421 1403.24 213.421C1406.96 213.421 1410.2 211.621 1412.96 208.021V177.421L1406.48 178.321C1400.96 179.041 1396.46 181.141 1392.98 184.621C1389.62 188.101 1388.18 192.961 1388.66 199.201ZM1494.84 140.341V184.261C1494.84 194.581 1495.26 200.881 1496.1 203.161C1496.94 205.321 1497.84 207.181 1498.8 208.741C1500.6 211.861 1503.72 213.421 1508.16 213.421C1512.72 213.421 1515.9 212.821 1517.7 211.621V215.221C1511.94 219.301 1505.64 221.341 1498.8 221.341C1488.72 221.341 1481.04 218.941 1475.76 214.141C1470.48 209.341 1467.84 200.761 1467.84 188.401V140.341H1454.52V136.741H1467.84C1473.6 135.781 1478.7 133.021 1483.14 128.461C1487.58 123.781 1490.64 117.361 1492.32 109.201H1494.84V136.741H1515.72V140.341H1494.84Z" fill="url(#paint6_linear_21_73)"/>
<path d="M836.513 404.059C835.313 405.259 833.033 406.339 829.673 407.299C826.313 408.139 822.413 408.559 817.973 408.559C808.133 408.559 801.953 405.619 799.433 399.739C793.433 405.979 784.253 409.099 771.893 409.099C765.293 409.099 759.833 407.599 755.513 404.599C751.313 401.479 749.213 396.919 749.213 390.919C749.213 382.879 752.333 376.699 758.573 372.379C764.813 367.939 775.733 364.819 791.333 363.019L798.533 362.119V353.299C798.533 342.859 797.753 335.839 796.193 332.239C794.633 328.639 791.513 326.839 786.833 326.839C782.273 326.839 779.333 327.499 778.013 328.819C776.693 330.019 776.213 331.459 776.573 333.139C776.933 334.699 777.533 336.799 778.373 339.439C779.213 342.079 779.633 344.179 779.633 345.739C779.633 349.459 778.313 352.639 775.673 355.279C773.153 357.799 770.033 359.059 766.313 359.059C762.713 359.059 759.593 357.799 756.953 355.279C754.313 352.639 752.993 349.459 752.993 345.739C752.993 339.619 756.113 334.399 762.353 330.079C768.713 325.639 778.133 323.419 790.613 323.419C803.213 323.419 812.153 325.879 817.433 330.799C822.833 335.719 825.533 344.419 825.533 356.899V389.299C825.533 395.659 826.313 399.679 827.873 401.359C829.433 402.919 832.313 403.219 836.513 402.259V404.059ZM774.233 387.319C774.833 391.879 776.513 395.419 779.273 397.939C782.033 400.339 785.213 401.539 788.813 401.539C792.533 401.539 795.773 399.739 798.533 396.139V365.539L792.053 366.439C786.533 367.159 782.033 369.259 778.553 372.739C775.193 376.219 773.753 381.079 774.233 387.319Z" fill="url(#paint7_linear_21_73)"/>
</g>
<g opacity="0.8" filter="url(#filter2_f_21_73)">
<path d="M228.846 510.527C228.846 523.069 239.013 533.236 251.555 533.236V533.236C264.098 533.236 274.265 523.069 274.265 510.527V449.37C274.265 436.828 264.098 426.66 251.555 426.66V426.66C239.013 426.66 228.846 436.828 228.846 449.37V510.527Z" fill="url(#paint8_linear_21_73)"/>
<rect width="55.3548" height="213.152" rx="23" transform="matrix(1 0 0 -1 524.339 532.481)" fill="url(#paint9_linear_21_73)"/>
<rect width="28.3871" height="84.0311" rx="14.1935" transform="matrix(1 0 0 -1 150.338 545.461)" fill="url(#paint10_linear_21_73)"/>
<rect width="48.258" height="127.071" rx="23" transform="matrix(1 0 0 -1 323.709 496.287)" fill="url(#paint11_linear_21_73)"/>
<rect width="52.5161" height="155.765" rx="23" transform="matrix(1 0 0 -1 421.843 461.488)" fill="url(#paint12_linear_21_73)"/>
</g>
<path d="M343.855 50.0842C313.563 39.8776 281.758 37.5338 250.626 43.214C219.494 48.8942 189.774 62.4636 163.51 82.9892C137.245 103.515 115.059 130.509 98.4765 162.117C81.8945 193.725 71.3099 229.196 67.4508 266.09C63.5916 302.985 66.5494 340.428 76.1207 375.846C85.6921 411.263 101.65 443.814 122.897 471.26C144.144 498.706 170.176 520.397 199.203 534.84C228.23 549.283 259.563 556.136 291.048 554.928L288.347 456.86C268.862 457.608 249.471 453.366 231.507 444.428C213.544 435.49 197.433 422.067 184.285 405.081C171.136 388.096 161.26 367.952 155.337 346.033C149.414 324.115 147.583 300.943 149.971 278.11C152.36 255.278 158.91 233.327 169.172 213.766C179.434 194.205 193.164 177.499 209.418 164.797C225.672 152.095 244.065 143.697 263.331 140.182C282.597 136.667 302.28 138.117 321.026 144.434L343.855 50.0842Z" fill="url(#paint13_linear_21_73)"/>
<path d="M129.361 448.042C117.046 486.516 144.855 526.118 185.224 527.597L655.704 544.834L44 566.938L257.765 49.9056L161.44 347.824L129.361 448.042Z" fill="url(#paint14_linear_21_73)" stroke="white" stroke-width="2"/>
<rect x="255.325" y="373.084" width="82.5358" height="140.796" rx="22" fill="url(#paint15_linear_21_73)" stroke="white" stroke-width="2"/>
<rect x="544.387" y="118.908" width="82.5358" height="285.056" rx="22" fill="url(#paint16_linear_21_73)" stroke="white" stroke-width="2"/>
<rect x="158.971" y="444.482" width="82.5358" height="112.237" rx="22" fill="url(#paint17_linear_21_73)" stroke="white" stroke-width="2"/>
<rect x="351.679" y="273.127" width="82.5358" height="169.355" rx="22" fill="url(#paint18_linear_21_73)" stroke="white" stroke-width="2"/>
<rect x="448.033" y="163.65" width="82.5358" height="207.434" rx="22" fill="url(#paint19_linear_21_73)" stroke="white" stroke-width="2"/>
<defs>
<filter id="filter0_f_21_73" x="725.412" y="194.172" width="771.899" height="331.567" filterUnits="userSpaceOnUse" color-interpolation-filters="sRGB">
<feFlood flood-opacity="0" result="BackgroundImageFix"/>
<feBlend mode="normal" in="SourceGraphic" in2="BackgroundImageFix" result="shape"/>
<feGaussianBlur stdDeviation="8" result="effect1_foregroundBlur_21_73"/>
</filter>
<filter id="filter1_d_21_73" x="749.213" y="103.4" width="770.491" height="322.682" filterUnits="userSpaceOnUse" color-interpolation-filters="sRGB">
<feFlood flood-opacity="0" result="BackgroundImageFix"/>
<feColorMatrix in="SourceAlpha" type="matrix" values="0 0 0 0 0 0 0 0 0 0 0 0 0 0 0 0 0 0 127 0" result="hardAlpha"/>
<feOffset dx="2" dy="2"/>
<feComposite in2="hardAlpha" operator="out"/>
<feColorMatrix type="matrix" values="0 0 0 0 1 0 0 0 0 1 0 0 0 0 1 0 0 0 1 0"/>
<feBlend mode="normal" in2="BackgroundImageFix" result="effect1_dropShadow_21_73"/>
<feBlend mode="normal" in="SourceGraphic" in2="effect1_dropShadow_21_73" result="shape"/>
</filter>
<filter id="filter2_f_21_73" x="123.338" y="278.723" width="483.355" height="293.738" filterUnits="userSpaceOnUse" color-interpolation-filters="sRGB">
<feFlood flood-opacity="0" result="BackgroundImageFix"/>
<feBlend mode="normal" in="SourceGraphic" in2="BackgroundImageFix" result="shape"/>
<feGaussianBlur stdDeviation="13.5" result="effect1_foregroundBlur_21_73"/>
</filter>
<linearGradient id="paint0_linear_21_73" x1="1042.59" y1="99.8264" x2="1038.4" y2="483.108" gradientUnits="userSpaceOnUse">
<stop stop-color="#8F80CC" stop-opacity="0.31"/>
<stop offset="1" stop-color="#3300FF"/>
</linearGradient>
<linearGradient id="paint1_linear_21_73" x1="1440.56" y1="110.19" x2="1436.2" y2="370.09" gradientUnits="userSpaceOnUse">
<stop stop-color="#8F80CC" stop-opacity="0.31"/>
<stop offset="1" stop-color="#3300FF"/>
</linearGradient>
<linearGradient id="paint2_linear_21_73" x1="1271.37" y1="259.826" x2="1268.23" y2="643.128" gradientUnits="userSpaceOnUse">
<stop stop-color="#8F80CC" stop-opacity="0.31"/>
<stop offset="1" stop-color="#3300FF"/>
</linearGradient>
<linearGradient id="paint3_linear_21_73" x1="794.082" y1="305.893" x2="789.52" y2="548.563" gradientUnits="userSpaceOnUse">
<stop stop-color="#8F80CC" stop-opacity="0.31"/>
<stop offset="1" stop-color="#3300FF"/>
</linearGradient>
<linearGradient id="paint4_linear_21_73" x1="1200.78" y1="416.032" x2="1200.78" y2="275.966" gradientUnits="userSpaceOnUse">
<stop stop-color="#434FBF" stop-opacity="0.73"/>
<stop offset="1" stop-color="#4552BF" stop-opacity="0.26"/>
</linearGradient>
<linearGradient id="paint5_linear_21_73" x1="1010.97" y1="218.102" x2="1010.97" y2="80.6132" gradientUnits="userSpaceOnUse">
<stop stop-color="#434FBF" stop-opacity="0.73"/>
<stop offset="1" stop-color="#4552BF" stop-opacity="0.26"/>
</linearGradient>
<linearGradient id="paint6_linear_21_73" x1="1438.23" y1="212.435" x2="1438.23" y2="103.426" gradientUnits="userSpaceOnUse">
<stop stop-color="#434FBF" stop-opacity="0.73"/>
<stop offset="1" stop-color="#4552BF" stop-opacity="0.26"/>
</linearGradient>
<linearGradient id="paint7_linear_21_73" x1="791.215" y1="387.706" x2="791.215" y2="309.756" gradientUnits="userSpaceOnUse">
<stop stop-color="#434FBF" stop-opacity="0.73"/>
<stop offset="1" stop-color="#4552BF" stop-opacity="0.26"/>
</linearGradient>
<linearGradient id="paint8_linear_21_73" x1="259.758" y1="520.711" x2="284.02" y2="513.611" gradientUnits="userSpaceOnUse">
<stop stop-color="#001AFF" stop-opacity="0.72"/>
<stop offset="0.9999" stop-color="#FEFEFF" stop-opacity="0.651823"/>
<stop offset="1" stop-color="white" stop-opacity="0"/>
</linearGradient>
<linearGradient id="paint9_linear_21_73" x1="37.6748" y1="25.0512" x2="68.7861" y2="30.5991" gradientUnits="userSpaceOnUse">
<stop stop-color="#001AFF" stop-opacity="0.72"/>
<stop offset="0.9999" stop-color="#FEFEFF" stop-opacity="0.651823"/>
<stop offset="1" stop-color="white" stop-opacity="0"/>
</linearGradient>
<linearGradient id="paint10_linear_21_73" x1="19.3204" y1="9.87595" x2="34.9417" y2="13.4996" gradientUnits="userSpaceOnUse">
<stop stop-color="#001AFF" stop-opacity="0.72"/>
<stop offset="0.9999" stop-color="#FEFEFF" stop-opacity="0.651823"/>
<stop offset="1" stop-color="white" stop-opacity="0"/>
</linearGradient>
<linearGradient id="paint11_linear_21_73" x1="32.8447" y1="14.9344" x2="59.0479" y2="21.7675" gradientUnits="userSpaceOnUse">
<stop stop-color="#001AFF" stop-opacity="0.72"/>
<stop offset="0.9999" stop-color="#FEFEFF" stop-opacity="0.651823"/>
<stop offset="1" stop-color="white" stop-opacity="0"/>
</linearGradient>
<linearGradient id="paint12_linear_21_73" x1="35.7428" y1="18.3066" x2="64.648" y2="24.9985" gradientUnits="userSpaceOnUse">
<stop stop-color="#001AFF" stop-opacity="0.72"/>
<stop offset="0.9999" stop-color="#FEFEFF" stop-opacity="0.651823"/>
<stop offset="1" stop-color="white" stop-opacity="0"/>
</linearGradient>
<linearGradient id="paint13_linear_21_73" x1="337.139" y1="6.87578" x2="321.776" y2="554.972" gradientUnits="userSpaceOnUse">
<stop stop-color="#FF0000"/>
<stop offset="1" stop-color="#0000FF" stop-opacity="0"/>
</linearGradient>
<linearGradient id="paint14_linear_21_73" x1="34.8045" y1="575.498" x2="503.533" y2="205.865" gradientUnits="userSpaceOnUse">
<stop stop-color="#00810D"/>
<stop offset="1" stop-color="#0500FF"/>
</linearGradient>
<linearGradient id="paint15_linear_21_73" x1="339.842" y1="514.018" x2="251.168" y2="513.21" gradientUnits="userSpaceOnUse">
<stop stop-color="white" stop-opacity="0.69"/>
<stop offset="1" stop-color="#0500FF" stop-opacity="0.31"/>
</linearGradient>
<linearGradient id="paint16_linear_21_73" x1="628.904" y1="403.231" x2="540.225" y2="402.829" gradientUnits="userSpaceOnUse">
<stop stop-color="white" stop-opacity="0.69"/>
<stop offset="1" stop-color="#0500FF" stop-opacity="0.31"/>
</linearGradient>
<linearGradient id="paint17_linear_21_73" x1="243.488" y1="557.029" x2="154.819" y2="556.019" gradientUnits="userSpaceOnUse">
<stop stop-color="white" stop-opacity="0.69"/>
<stop offset="1" stop-color="#0500FF" stop-opacity="0.31"/>
</linearGradient>
<linearGradient id="paint18_linear_21_73" x1="436.196" y1="442.448" x2="347.52" y2="441.774" gradientUnits="userSpaceOnUse">
<stop stop-color="white" stop-opacity="0.69"/>
<stop offset="1" stop-color="#0500FF" stop-opacity="0.31"/>
</linearGradient>
<linearGradient id="paint19_linear_21_73" x1="532.55" y1="370.82" x2="443.872" y2="370.269" gradientUnits="userSpaceOnUse">
<stop stop-color="white" stop-opacity="0.69"/>
<stop offset="1" stop-color="#0500FF" stop-opacity="0.31"/>
</linearGradient>
</defs>
</svg>
