<svg width="1654" height="636" viewBox="0 0 1654 636" fill="none" xmlns="http://www.w3.org/2000/svg">
<path d="M1008.27 397.292C1008.27 394.44 1007.46 392.084 1005.85 390.224C1004.24 388.24 1002.13 387.248 999.528 387.248C997.048 387.248 994.444 388.302 991.716 390.41C989.112 392.518 986.012 394.688 982.416 396.92C978.944 399.028 974.728 400.082 969.768 400.082C952.904 400.082 939.822 395.742 930.522 387.062C921.346 378.382 916.758 365.052 916.758 347.072C916.758 309.5 934.304 290.714 969.396 290.714C975.72 290.714 982.168 292.264 988.74 295.364C995.436 298.464 999.528 300.014 1001.02 300.014C1002.5 300.014 1003.74 299.27 1004.74 297.782C1005.73 296.17 1006.22 294.62 1006.22 293.132H1009.76V330.89H1006.04C1006.04 321.466 1002.32 313.034 994.878 305.594C987.562 298.154 979.068 294.434 969.396 294.434C961.956 294.434 956.314 298.464 952.47 306.524C948.626 314.46 946.704 327.666 946.704 346.142C946.704 364.494 948.626 377.452 952.47 385.016C956.438 392.58 962.204 396.362 969.768 396.362C981.672 396.362 987.624 385.76 987.624 364.556V350.792H975.906V347.072H1020.55V350.792H1011.8V397.292H1008.27ZM1068.98 393.572H1078.28V397.292H1031.78V393.572H1041.08V276.392H1031.78V272.672H1068.98V393.572ZM1181.57 393.572C1180.33 394.812 1177.97 395.928 1174.5 396.92C1171.03 397.788 1167 398.222 1162.41 398.222C1152.24 398.222 1145.86 395.184 1143.25 389.108C1137.05 395.556 1127.57 398.78 1114.79 398.78C1107.97 398.78 1102.33 397.23 1097.87 394.13C1093.53 390.906 1091.36 386.194 1091.36 379.994C1091.36 371.686 1094.58 365.3 1101.03 360.836C1107.48 356.248 1118.76 353.024 1134.88 351.164L1142.32 350.234V341.12C1142.32 330.332 1141.52 323.078 1139.9 319.358C1138.29 315.638 1135.07 313.778 1130.23 313.778C1125.52 313.778 1122.48 314.46 1121.12 315.824C1119.75 317.064 1119.26 318.552 1119.63 320.288C1120 321.9 1120.62 324.07 1121.49 326.798C1122.36 329.526 1122.79 331.696 1122.79 333.308C1122.79 337.152 1121.43 340.438 1118.7 343.166C1116.1 345.77 1112.87 347.072 1109.03 347.072C1105.31 347.072 1102.08 345.77 1099.36 343.166C1096.63 340.438 1095.26 337.152 1095.26 333.308C1095.26 326.984 1098.49 321.59 1104.94 317.126C1111.51 312.538 1121.24 310.244 1134.14 310.244C1147.16 310.244 1156.4 312.786 1161.85 317.87C1167.43 322.954 1170.22 331.944 1170.22 344.84V378.32C1170.22 384.892 1171.03 389.046 1172.64 390.782C1174.25 392.394 1177.23 392.704 1181.57 391.712V393.572ZM1117.21 376.274C1117.83 380.986 1119.57 384.644 1122.42 387.248C1125.27 389.728 1128.56 390.968 1132.28 390.968C1136.12 390.968 1139.47 389.108 1142.32 385.388V353.768L1135.63 354.698C1129.92 355.442 1125.27 357.612 1121.68 361.208C1118.2 364.804 1116.72 369.826 1117.21 376.274ZM1290.36 393.572H1299.66V397.292H1253.16V393.572H1262.46V341.492C1262.46 332.688 1261.16 326.426 1258.56 322.706C1255.95 318.986 1252.05 317.126 1246.84 317.126C1239.77 317.126 1234.13 320.846 1229.91 328.286V393.572H1239.21V397.292H1192.71V393.572H1202.01V315.452H1192.71V311.732H1229.91V321.404C1232.27 318.18 1235.93 315.452 1240.89 313.22C1245.97 310.864 1251.43 309.686 1257.26 309.686C1279.33 309.686 1290.36 321.652 1290.36 345.584V393.572ZM1310.74 354.512C1310.74 339.88 1315.01 328.782 1323.57 321.218C1332.13 313.654 1342.98 309.872 1356.12 309.872C1369.39 309.872 1379.25 313.22 1385.69 319.916C1392.14 326.488 1394.44 333.308 1392.58 340.376C1391.58 344.22 1389.48 347.072 1386.25 348.932C1383.15 350.668 1379.74 351.102 1376.02 350.234C1368.21 348.374 1364.3 343.848 1364.3 336.656C1364.3 334.796 1364.49 332.006 1364.86 328.286C1365.36 324.442 1365.54 321.652 1365.42 319.916C1365.3 318.18 1364.92 316.816 1364.3 315.824C1363.06 313.716 1360.15 312.91 1355.56 313.406C1344.4 315.142 1338.82 328.844 1338.82 354.512C1338.82 380.056 1347.94 392.828 1366.16 392.828C1370.38 392.828 1374.66 391.712 1379 389.48C1383.34 387.248 1386.56 384.582 1388.67 381.482L1391.27 383.342C1388.42 388.054 1384.14 391.836 1378.44 394.688C1372.74 397.54 1366.35 398.966 1359.28 398.966C1326.92 398.966 1310.74 384.148 1310.74 354.512ZM1488.35 360.092H1432.18C1433.42 381.916 1441.92 392.828 1457.66 392.828C1461.88 392.828 1466.65 391.836 1471.99 389.852C1477.44 387.868 1481.41 385.078 1483.89 381.482L1486.49 383.342C1483.77 387.93 1479.12 391.712 1472.54 394.688C1465.97 397.664 1459.4 399.152 1452.83 399.152C1446.38 399.152 1440.55 398.532 1435.34 397.292C1430.14 395.928 1425.05 393.696 1420.09 390.596C1415.13 387.496 1411.23 382.846 1408.37 376.646C1405.65 370.446 1404.28 362.944 1404.28 354.14C1404.28 339.136 1408.44 328.038 1416.74 320.846C1425.05 313.53 1435.1 309.872 1446.88 309.872C1458.78 309.872 1468.64 313.84 1476.45 321.776C1484.39 329.712 1488.35 342.484 1488.35 360.092ZM1432 356.372H1462.31C1462.31 344.964 1461.07 334.982 1458.59 326.426C1456.24 317.87 1452.39 313.592 1447.06 313.592C1441.73 313.592 1437.89 317.746 1435.53 326.054C1433.17 334.238 1432 343.662 1432 354.326V356.372Z" fill="url(#paint0_linear_21_73)"/>
<path d="M1008.27 397.292H1007.27V398.292H1008.27V397.292ZM1005.85 390.224L1005.08 390.854L1005.09 390.867L1005.1 390.879L1005.85 390.224ZM991.716 390.41L991.105 389.619L991.096 389.625L991.087 389.633L991.716 390.41ZM982.416 396.92L982.935 397.775L982.943 397.769L982.416 396.92ZM930.522 387.062L929.835 387.788L929.84 387.793L930.522 387.062ZM988.74 295.364L988.314 296.268L988.32 296.271L988.74 295.364ZM1004.74 297.782L1005.57 298.337L1005.58 298.321L1005.59 298.306L1004.74 297.782ZM1006.22 293.132V292.132H1005.22V293.132H1006.22ZM1009.76 293.132H1010.76V292.132H1009.76V293.132ZM1009.76 330.89V331.89H1010.76V330.89H1009.76ZM1006.04 330.89H1005.04V331.89H1006.04V330.89ZM994.878 305.594L994.165 306.295L994.171 306.301L994.878 305.594ZM952.47 306.524L953.37 306.96L953.373 306.954L952.47 306.524ZM952.47 385.016L951.579 385.469L951.585 385.48L952.47 385.016ZM987.624 350.792H988.624V349.792H987.624V350.792ZM975.906 350.792H974.906V351.792H975.906V350.792ZM975.906 347.072V346.072H974.906V347.072H975.906ZM1020.55 347.072H1021.55V346.072H1020.55V347.072ZM1020.55 350.792V351.792H1021.55V350.792H1020.55ZM1011.8 350.792V349.792H1010.8V350.792H1011.8ZM1011.8 397.292V398.292H1012.8V397.292H1011.8ZM1009.27 397.292C1009.27 394.24 1008.4 391.639 1006.61 389.569L1005.1 390.879C1006.53 392.529 1007.27 394.64 1007.27 397.292H1009.27ZM1006.63 389.593C1004.82 387.37 1002.43 386.248 999.528 386.248V388.248C1001.84 388.248 1003.66 389.109 1005.08 390.854L1006.63 389.593ZM999.528 386.248C996.755 386.248 993.941 387.427 991.105 389.619L992.328 391.201C994.948 389.177 997.341 388.248 999.528 388.248V386.248ZM991.087 389.633C988.522 391.709 985.458 393.855 981.889 396.07L982.943 397.769C986.566 395.521 989.702 393.327 992.345 391.187L991.087 389.633ZM981.897 396.065C978.613 398.059 974.586 399.082 969.768 399.082V401.082C974.871 401.082 979.275 399.997 982.935 397.775L981.897 396.065ZM969.768 399.082C953.073 399.082 940.266 394.788 931.204 386.331L929.84 387.793C939.379 396.696 952.735 401.082 969.768 401.082V399.082ZM931.209 386.335C922.305 377.913 917.758 364.895 917.758 347.072H915.758C915.758 365.208 920.387 378.851 929.835 387.788L931.209 386.335ZM917.758 347.072C917.758 328.424 922.114 314.624 930.648 305.486C939.171 296.361 952.022 291.714 969.396 291.714V289.714C951.678 289.714 938.21 294.46 929.187 304.121C920.175 313.769 915.758 328.148 915.758 347.072H917.758ZM969.396 291.714C975.552 291.714 981.855 293.222 988.314 296.268L989.167 294.459C982.481 291.306 975.888 289.714 969.396 289.714V291.714ZM988.32 296.271C991.677 297.826 994.399 298.999 996.477 299.786C997.516 300.18 998.407 300.482 999.144 300.687C999.863 300.886 1000.5 301.014 1001.02 301.014V299.014C1000.78 299.014 1000.36 298.947 999.68 298.76C999.022 298.577 998.193 298.298 997.185 297.916C995.172 297.153 992.499 296.002 989.16 294.456L988.32 296.271ZM1001.02 301.014C1002.91 301.014 1004.43 300.038 1005.57 298.337L1003.9 297.227C1003.05 298.501 1002.1 299.014 1001.02 299.014V301.014ZM1005.59 298.306C1006.65 296.579 1007.22 294.849 1007.22 293.132H1005.22C1005.22 294.391 1004.81 295.761 1003.88 297.258L1005.59 298.306ZM1006.22 294.132H1009.76V292.132H1006.22V294.132ZM1008.76 293.132V330.89H1010.76V293.132H1008.76ZM1009.76 329.89H1006.04V331.89H1009.76V329.89ZM1007.04 330.89C1007.04 321.169 1003.19 312.49 995.585 304.887L994.171 306.301C1001.45 313.577 1005.04 321.763 1005.04 330.89H1007.04ZM995.591 304.893C988.104 297.278 979.359 293.434 969.396 293.434V295.434C978.777 295.434 987.021 299.029 994.165 306.295L995.591 304.893ZM969.396 293.434C965.484 293.434 962.007 294.497 959.003 296.643C956.01 298.78 953.542 301.953 951.568 306.093L953.373 306.954C955.242 303.034 957.517 300.162 960.166 298.27C962.805 296.385 965.868 295.434 969.396 295.434V293.434ZM951.57 306.088C947.621 314.242 945.704 327.645 945.704 346.142H947.704C947.704 327.687 949.632 314.678 953.37 306.96L951.57 306.088ZM945.704 346.142C945.704 364.509 947.619 377.677 951.579 385.469L953.362 384.563C949.633 377.227 947.704 364.479 947.704 346.142H945.704ZM951.585 385.48C953.629 389.377 956.167 392.358 959.222 394.361C962.284 396.37 965.811 397.362 969.768 397.362V395.362C966.161 395.362 963.023 394.463 960.319 392.689C957.608 390.911 955.279 388.218 953.356 384.551L951.585 385.48ZM969.768 397.362C972.897 397.362 975.683 396.664 978.091 395.234C980.498 393.805 982.473 391.677 984.032 388.9C987.133 383.376 988.624 375.219 988.624 364.556H986.624C986.624 375.097 985.139 382.843 982.288 387.921C980.871 390.445 979.127 392.293 977.07 393.514C975.014 394.735 972.591 395.362 969.768 395.362V397.362ZM988.624 364.556V350.792H986.624V364.556H988.624ZM987.624 349.792H975.906V351.792H987.624V349.792ZM976.906 350.792V347.072H974.906V350.792H976.906ZM975.906 348.072H1020.55V346.072H975.906V348.072ZM1019.55 347.072V350.792H1021.55V347.072H1019.55ZM1020.55 349.792H1011.8V351.792H1020.55V349.792ZM1010.8 350.792V397.292H1012.8V350.792H1010.8ZM1011.8 396.292H1008.27V398.292H1011.8V396.292ZM1068.98 393.572H1067.98V394.572H1068.98V393.572ZM1078.28 393.572H1079.28V392.572H1078.28V393.572ZM1078.28 397.292V398.292H1079.28V397.292H1078.28ZM1031.78 397.292H1030.78V398.292H1031.78V397.292ZM1031.78 393.572V392.572H1030.78V393.572H1031.78ZM1041.08 393.572V394.572H1042.08V393.572H1041.08ZM1041.08 276.392H1042.08V275.392H1041.08V276.392ZM1031.78 276.392H1030.78V277.392H1031.78V276.392ZM1031.78 272.672V271.672H1030.78V272.672H1031.78ZM1068.98 272.672H1069.98V271.672H1068.98V272.672ZM1068.98 394.572H1078.28V392.572H1068.98V394.572ZM1077.28 393.572V397.292H1079.28V393.572H1077.28ZM1078.28 396.292H1031.78V398.292H1078.28V396.292ZM1032.78 397.292V393.572H1030.78V397.292H1032.78ZM1031.78 394.572H1041.08V392.572H1031.78V394.572ZM1042.08 393.572V276.392H1040.08V393.572H1042.08ZM1041.08 275.392H1031.78V277.392H1041.08V275.392ZM1032.78 276.392V272.672H1030.78V276.392H1032.78ZM1031.78 273.672H1068.98V271.672H1031.78V273.672ZM1067.98 272.672V393.572H1069.98V272.672H1067.98ZM1181.57 393.572L1182.28 394.279L1182.57 393.986V393.572H1181.57ZM1174.5 396.92L1174.74 397.89L1174.76 397.886L1174.78 397.881L1174.5 396.92ZM1143.25 389.108L1144.17 388.714L1143.58 387.327L1142.53 388.415L1143.25 389.108ZM1097.87 394.13L1097.27 394.933L1097.28 394.942L1097.3 394.951L1097.87 394.13ZM1101.03 360.836L1101.6 361.658L1101.61 361.651L1101.03 360.836ZM1134.88 351.164L1135 352.157L1135.01 352.156L1134.88 351.164ZM1142.32 350.234L1142.45 351.226L1143.32 351.117V350.234H1142.32ZM1139.9 319.358L1140.82 318.96L1139.9 319.358ZM1121.12 315.824L1121.79 316.564L1121.81 316.548L1121.83 316.531L1121.12 315.824ZM1119.63 320.288L1118.65 320.497L1118.65 320.505L1118.66 320.513L1119.63 320.288ZM1121.49 326.798L1120.54 327.101L1121.49 326.798ZM1118.7 343.166L1119.41 343.873L1118.7 343.166ZM1099.36 343.166L1098.65 343.873L1098.66 343.881L1098.67 343.889L1099.36 343.166ZM1104.94 317.126L1105.51 317.948L1105.51 317.946L1104.94 317.126ZM1161.85 317.87L1161.17 318.601L1161.18 318.609L1161.85 317.87ZM1172.64 390.782L1171.91 391.462L1171.92 391.476L1171.93 391.489L1172.64 390.782ZM1181.57 391.712H1182.57V390.457L1181.35 390.737L1181.57 391.712ZM1117.21 376.274L1116.22 376.351L1116.22 376.377L1116.22 376.404L1117.21 376.274ZM1122.42 387.248L1121.75 387.986L1121.76 387.994L1121.76 388.002L1122.42 387.248ZM1142.32 385.388L1143.12 385.996L1143.32 385.727V385.388H1142.32ZM1142.32 353.768H1143.32V352.619L1142.18 352.777L1142.32 353.768ZM1135.63 354.698L1135.76 355.689L1135.76 355.688L1135.63 354.698ZM1121.68 361.208L1120.97 360.501L1120.96 360.507L1120.96 360.513L1121.68 361.208ZM1180.86 392.865C1179.81 393.913 1177.67 394.973 1174.23 395.958L1174.78 397.881C1178.27 396.882 1180.84 395.711 1182.28 394.279L1180.86 392.865ZM1174.26 395.95C1170.88 396.793 1166.94 397.222 1162.41 397.222V399.222C1167.06 399.222 1171.17 398.782 1174.74 397.89L1174.26 395.95ZM1162.41 397.222C1152.4 397.222 1146.54 394.24 1144.17 388.714L1142.33 389.502C1145.17 396.127 1152.09 399.222 1162.41 399.222V397.222ZM1142.53 388.415C1136.59 394.595 1127.41 397.78 1114.79 397.78V399.78C1127.72 399.78 1137.52 396.516 1143.97 389.801L1142.53 388.415ZM1114.79 397.78C1108.13 397.78 1102.7 396.266 1098.44 393.308L1097.3 394.951C1101.97 398.194 1107.82 399.78 1114.79 399.78V397.78ZM1098.46 393.327C1094.42 390.321 1092.36 385.93 1092.36 379.994H1090.36C1090.36 386.457 1092.64 391.49 1097.27 394.933L1098.46 393.327ZM1092.36 379.994C1092.36 371.991 1095.44 365.922 1101.6 361.658L1100.46 360.014C1093.72 364.677 1090.36 371.381 1090.36 379.994H1092.36ZM1101.61 361.651C1107.84 357.219 1118.9 354.014 1135 352.157L1134.77 350.17C1118.62 352.033 1107.12 355.277 1100.45 360.021L1101.61 361.651ZM1135.01 352.156L1142.45 351.226L1142.2 349.242L1134.76 350.172L1135.01 352.156ZM1143.32 350.234V341.12H1141.32V350.234H1143.32ZM1143.32 341.12C1143.32 335.705 1143.12 331.154 1142.71 327.478C1142.31 323.818 1141.69 320.957 1140.82 318.96L1138.99 319.755C1139.73 321.479 1140.32 324.105 1140.72 327.699C1141.12 331.276 1141.32 335.747 1141.32 341.12H1143.32ZM1140.82 318.96C1139.94 316.922 1138.59 315.354 1136.78 314.307C1134.97 313.266 1132.77 312.778 1130.23 312.778V314.778C1132.53 314.778 1134.36 315.219 1135.78 316.039C1137.19 316.852 1138.26 318.074 1138.99 319.755L1140.82 318.96ZM1130.23 312.778C1127.84 312.778 1125.82 312.95 1124.2 313.314C1122.6 313.673 1121.29 314.242 1120.41 315.117L1121.83 316.531C1122.31 316.042 1123.2 315.588 1124.64 315.265C1126.06 314.946 1127.92 314.778 1130.23 314.778V312.778ZM1120.45 315.084C1118.83 316.552 1118.2 318.397 1118.65 320.497L1120.61 320.078C1120.31 318.707 1120.68 317.575 1121.79 316.564L1120.45 315.084ZM1118.66 320.513C1119.04 322.163 1119.67 324.363 1120.54 327.101L1122.44 326.495C1121.58 323.777 1120.97 321.636 1120.6 320.063L1118.66 320.513ZM1120.54 327.101C1121.39 329.794 1121.79 331.849 1121.79 333.308H1123.79C1123.79 331.543 1123.32 329.257 1122.44 326.495L1120.54 327.101ZM1121.79 333.308C1121.79 336.885 1120.53 339.917 1117.99 342.459L1119.41 343.873C1122.32 340.958 1123.79 337.418 1123.79 333.308H1121.79ZM1117.99 342.459C1115.59 344.866 1112.62 346.072 1109.03 346.072V348.072C1113.12 348.072 1116.61 346.673 1119.41 343.873L1117.99 342.459ZM1109.03 346.072C1105.57 346.072 1102.59 344.872 1100.05 342.442L1098.67 343.889C1101.58 346.668 1105.05 348.072 1109.03 348.072V346.072ZM1100.06 342.459C1097.52 339.917 1096.26 336.885 1096.26 333.308H1094.26C1094.26 337.418 1095.73 340.958 1098.65 343.873L1100.06 342.459ZM1096.26 333.308C1096.26 327.392 1099.25 322.276 1105.51 317.948L1104.37 316.304C1097.72 320.904 1094.26 326.576 1094.26 333.308H1096.26ZM1105.51 317.946C1111.84 313.527 1121.33 311.244 1134.14 311.244V309.244C1121.15 309.244 1111.18 311.549 1104.36 316.306L1105.51 317.946ZM1134.14 311.244C1147.08 311.244 1156 313.78 1161.17 318.601L1162.53 317.138C1156.8 311.792 1147.24 309.244 1134.14 309.244V311.244ZM1161.18 318.609C1166.44 323.406 1169.22 332.036 1169.22 344.84H1171.22C1171.22 331.852 1168.42 322.502 1162.53 317.131L1161.18 318.609ZM1169.22 344.84V378.32H1171.22V344.84H1169.22ZM1169.22 378.32C1169.22 381.639 1169.43 384.391 1169.85 386.555C1170.26 388.69 1170.91 390.387 1171.91 391.462L1173.37 390.101C1172.76 389.44 1172.2 388.192 1171.81 386.174C1171.42 384.184 1171.22 381.573 1171.22 378.32H1169.22ZM1171.93 391.489C1173.95 393.503 1177.42 393.686 1181.79 392.687L1181.35 390.737C1177.04 391.721 1174.56 391.285 1173.35 390.075L1171.93 391.489ZM1180.57 391.712V393.572H1182.57V391.712H1180.57ZM1116.22 376.404C1116.86 381.294 1118.68 385.189 1121.75 387.986L1123.09 386.509C1120.45 384.099 1118.8 380.677 1118.2 376.143L1116.22 376.404ZM1121.76 388.002C1124.79 390.638 1128.31 391.968 1132.28 391.968V389.968C1128.8 389.968 1125.75 388.818 1123.08 386.493L1121.76 388.002ZM1132.28 391.968C1136.5 391.968 1140.12 389.903 1143.12 385.996L1141.53 384.779C1138.82 388.313 1135.74 389.968 1132.28 389.968V391.968ZM1143.32 385.388V353.768H1141.32V385.388H1143.32ZM1142.18 352.777L1135.49 353.707L1135.76 355.688L1142.46 354.758L1142.18 352.777ZM1135.5 353.706C1129.6 354.475 1124.74 356.729 1120.97 360.501L1122.38 361.915C1125.8 358.495 1130.24 356.409 1135.76 355.689L1135.5 353.706ZM1120.96 360.513C1117.23 364.371 1115.7 369.707 1116.22 376.351L1118.21 376.197C1117.73 369.945 1119.18 365.236 1122.4 361.902L1120.96 360.513ZM1290.36 393.572H1289.36V394.572H1290.36V393.572ZM1299.66 393.572H1300.66V392.572H1299.66V393.572ZM1299.66 397.292V398.292H1300.66V397.292H1299.66ZM1253.16 397.292H1252.16V398.292H1253.16V397.292ZM1253.16 393.572V392.572H1252.16V393.572H1253.16ZM1262.46 393.572V394.572H1263.46V393.572H1262.46ZM1229.91 328.286L1229.04 327.793L1228.91 328.022V328.286H1229.91ZM1229.91 393.572H1228.91V394.572H1229.91V393.572ZM1239.21 393.572H1240.21V392.572H1239.21V393.572ZM1239.21 397.292V398.292H1240.21V397.292H1239.21ZM1192.71 397.292H1191.71V398.292H1192.71V397.292ZM1192.71 393.572V392.572H1191.71V393.572H1192.71ZM1202.01 393.572V394.572H1203.01V393.572H1202.01ZM1202.01 315.452H1203.01V314.452H1202.01V315.452ZM1192.71 315.452H1191.71V316.452H1192.71V315.452ZM1192.71 311.732V310.732H1191.71V311.732H1192.71ZM1229.91 311.732H1230.91V310.732H1229.91V311.732ZM1229.91 321.404H1228.91V324.467L1230.72 321.994L1229.91 321.404ZM1240.89 313.22L1241.3 314.132L1241.31 314.127L1240.89 313.22ZM1290.36 394.572H1299.66V392.572H1290.36V394.572ZM1298.66 393.572V397.292H1300.66V393.572H1298.66ZM1299.66 396.292H1253.16V398.292H1299.66V396.292ZM1254.16 397.292V393.572H1252.16V397.292H1254.16ZM1253.16 394.572H1262.46V392.572H1253.16V394.572ZM1263.46 393.572V341.492H1261.46V393.572H1263.46ZM1263.46 341.492C1263.46 332.645 1262.17 326.117 1259.38 322.132L1257.74 323.279C1260.16 326.735 1261.46 332.731 1261.46 341.492H1263.46ZM1259.38 322.132C1256.56 318.103 1252.32 316.126 1246.84 316.126V318.126C1251.78 318.126 1255.35 319.869 1257.74 323.279L1259.38 322.132ZM1246.84 316.126C1239.33 316.126 1233.39 320.117 1229.04 327.793L1230.78 328.779C1234.87 321.574 1240.21 318.126 1246.84 318.126V316.126ZM1228.91 328.286V393.572H1230.91V328.286H1228.91ZM1229.91 394.572H1239.21V392.572H1229.91V394.572ZM1238.21 393.572V397.292H1240.21V393.572H1238.21ZM1239.21 396.292H1192.71V398.292H1239.21V396.292ZM1193.71 397.292V393.572H1191.71V397.292H1193.71ZM1192.71 394.572H1202.01V392.572H1192.71V394.572ZM1203.01 393.572V315.452H1201.01V393.572H1203.01ZM1202.01 314.452H1192.71V316.452H1202.01V314.452ZM1193.71 315.452V311.732H1191.71V315.452H1193.71ZM1192.71 312.732H1229.91V310.732H1192.71V312.732ZM1228.91 311.732V321.404H1230.91V311.732H1228.91ZM1230.72 321.994C1232.94 318.951 1236.44 316.317 1241.3 314.132L1240.48 312.308C1235.41 314.586 1231.6 317.408 1229.11 320.814L1230.72 321.994ZM1241.31 314.127C1246.26 311.835 1251.57 310.686 1257.26 310.686V308.686C1251.29 308.686 1245.69 309.893 1240.47 312.312L1241.31 314.127ZM1257.26 310.686C1268.12 310.686 1276.08 313.626 1281.35 319.338C1286.63 325.066 1289.36 333.753 1289.36 345.584H1291.36C1291.36 333.483 1288.58 324.221 1282.82 317.982C1277.05 311.729 1268.47 308.686 1257.26 308.686V310.686ZM1289.36 345.584V393.572H1291.36V345.584H1289.36ZM1323.57 321.218L1324.23 321.967L1323.57 321.218ZM1385.69 319.916L1384.97 320.609L1384.98 320.616L1385.69 319.916ZM1392.58 340.376L1391.61 340.121L1391.61 340.126L1392.58 340.376ZM1386.25 348.932L1386.74 349.804L1386.75 349.798L1386.25 348.932ZM1376.02 350.234L1375.79 351.207L1375.8 351.208L1376.02 350.234ZM1364.86 328.286L1363.87 328.158L1363.87 328.172L1363.87 328.186L1364.86 328.286ZM1365.42 319.916L1364.42 319.987L1365.42 319.916ZM1364.3 315.824L1363.44 316.331L1363.45 316.342L1363.46 316.354L1364.3 315.824ZM1355.56 313.406L1355.46 312.412L1355.43 312.414L1355.41 312.418L1355.56 313.406ZM1379 389.48L1378.54 388.591L1379 389.48ZM1388.67 381.482L1389.25 380.668L1388.42 380.073L1387.84 380.919L1388.67 381.482ZM1391.27 383.342L1392.13 383.86L1392.61 383.067L1391.86 382.528L1391.27 383.342ZM1378.44 394.688L1377.99 393.793L1378.44 394.688ZM1311.74 354.512C1311.74 340.08 1315.95 329.291 1324.23 321.967L1322.91 320.469C1314.08 328.273 1309.74 339.679 1309.74 354.512H1311.74ZM1324.23 321.967C1332.58 314.589 1343.18 310.872 1356.12 310.872V308.872C1342.77 308.872 1331.67 312.719 1322.91 320.469L1324.23 321.967ZM1356.12 310.872C1369.23 310.872 1378.78 314.18 1384.97 320.609L1386.41 319.222C1379.71 312.259 1369.54 308.872 1356.12 308.872V310.872ZM1384.98 320.616C1391.26 327.012 1393.36 333.485 1391.61 340.121L1393.54 340.63C1395.52 333.131 1393.03 325.964 1386.41 319.215L1384.98 320.616ZM1391.61 340.126C1390.68 343.729 1388.73 346.349 1385.75 348.066L1386.75 349.798C1390.23 347.794 1392.49 344.71 1393.54 340.626L1391.61 340.126ZM1385.76 348.059C1382.9 349.664 1379.75 350.076 1376.25 349.26L1375.8 351.208C1379.74 352.128 1383.41 351.672 1386.74 349.804L1385.76 348.059ZM1376.25 349.261C1372.48 348.363 1369.77 346.848 1367.99 344.791C1366.23 342.745 1365.3 340.063 1365.3 336.656H1363.3C1363.3 340.441 1364.34 343.618 1366.48 346.098C1368.61 348.566 1371.75 350.244 1375.79 351.207L1376.25 349.261ZM1365.3 336.656C1365.3 334.848 1365.49 332.098 1365.86 328.385L1363.87 328.186C1363.49 331.913 1363.3 334.744 1363.3 336.656H1365.3ZM1365.85 328.414C1366.35 324.564 1366.55 321.688 1366.42 319.845L1364.42 319.987C1364.54 321.615 1364.37 324.32 1363.87 328.158L1365.85 328.414ZM1366.42 319.845C1366.29 318.019 1365.89 316.475 1365.15 315.294L1363.46 316.354C1363.96 317.156 1364.31 318.341 1364.42 319.987L1366.42 319.845ZM1365.17 315.317C1363.59 312.644 1360.08 311.912 1355.46 312.412L1355.67 314.4C1360.22 313.908 1362.53 314.787 1363.44 316.331L1365.17 315.317ZM1355.41 312.418C1349.38 313.356 1344.96 317.546 1342.08 324.607C1339.22 331.635 1337.82 341.629 1337.82 354.512H1339.82C1339.82 341.726 1341.22 332.035 1343.93 325.361C1346.64 318.721 1350.59 315.191 1355.72 314.394L1355.41 312.418ZM1337.82 354.512C1337.82 367.373 1340.11 377.198 1344.84 383.83C1349.62 390.524 1356.79 393.828 1366.16 393.828V391.828C1357.31 391.828 1350.81 388.746 1346.47 382.668C1342.09 376.528 1339.82 367.195 1339.82 354.512H1337.82ZM1366.16 393.828C1370.56 393.828 1375 392.662 1379.46 390.369L1378.54 388.591C1374.32 390.761 1370.2 391.828 1366.16 391.828V393.828ZM1379.46 390.369C1383.9 388.083 1387.27 385.318 1389.5 382.044L1387.84 380.919C1385.85 383.846 1382.78 386.413 1378.54 388.591L1379.46 390.369ZM1388.09 382.296L1390.69 384.156L1391.86 382.528L1389.25 380.668L1388.09 382.296ZM1390.42 382.824C1387.68 387.35 1383.56 391.012 1377.99 393.793L1378.89 395.582C1384.73 392.659 1389.17 388.757 1392.13 383.86L1390.42 382.824ZM1377.99 393.793C1372.44 396.569 1366.21 397.966 1359.28 397.966V399.966C1366.49 399.966 1373.03 398.511 1378.89 395.582L1377.99 393.793ZM1359.28 397.966C1343.23 397.966 1331.38 394.29 1323.55 387.115C1315.73 379.955 1311.74 369.152 1311.74 354.512H1309.74C1309.74 369.508 1313.83 380.932 1322.2 388.59C1330.54 396.233 1342.97 399.966 1359.28 399.966V397.966ZM1488.35 360.092V361.092H1489.35V360.092H1488.35ZM1432.18 360.092V359.092H1431.12L1431.18 360.149L1432.18 360.092ZM1471.99 389.852L1471.64 388.912L1471.64 388.915L1471.99 389.852ZM1483.89 381.482L1484.47 380.668L1483.64 380.077L1483.07 380.914L1483.89 381.482ZM1486.49 383.342L1487.35 383.853L1487.82 383.063L1487.07 382.528L1486.49 383.342ZM1472.54 394.688L1472.96 395.599L1472.54 394.688ZM1435.34 397.292L1435.09 398.259L1435.1 398.262L1435.11 398.265L1435.34 397.292ZM1420.09 390.596L1419.56 391.444L1420.09 390.596ZM1408.37 376.646L1407.46 377.049L1407.46 377.056L1407.47 377.064L1408.37 376.646ZM1416.74 320.846L1417.4 321.602L1417.4 321.596L1416.74 320.846ZM1476.45 321.776L1475.74 322.477L1475.74 322.483L1476.45 321.776ZM1432 356.372H1431V357.372H1432V356.372ZM1462.31 356.372V357.372H1463.31V356.372H1462.31ZM1458.59 326.426L1457.63 326.691L1457.63 326.704L1458.59 326.426ZM1435.53 326.054L1436.49 326.33L1436.49 326.327L1435.53 326.054ZM1488.35 359.092H1432.18V361.092H1488.35V359.092ZM1431.18 360.149C1431.81 371.155 1434.27 379.573 1438.69 385.258C1443.16 390.993 1449.53 393.828 1457.66 393.828V391.828C1450.05 391.828 1444.3 389.206 1440.27 384.03C1436.2 378.802 1433.79 370.853 1433.18 360.035L1431.18 360.149ZM1457.66 393.828C1462.03 393.828 1466.93 392.801 1472.33 390.789L1471.64 388.915C1466.38 390.871 1461.73 391.828 1457.66 391.828V393.828ZM1472.33 390.792C1477.92 388.76 1482.08 385.865 1484.71 382.05L1483.07 380.914C1480.74 384.291 1476.97 386.976 1471.64 388.912L1472.33 390.792ZM1483.31 382.296L1485.91 384.156L1487.07 382.528L1484.47 380.668L1483.31 382.296ZM1485.63 382.831C1483.04 387.191 1478.58 390.856 1472.13 393.777L1472.96 395.599C1479.65 392.567 1484.49 388.669 1487.35 383.853L1485.63 382.831ZM1472.13 393.777C1465.68 396.7 1459.24 398.152 1452.83 398.152V400.152C1459.56 400.152 1466.27 398.628 1472.96 395.599L1472.13 393.777ZM1452.83 398.152C1446.44 398.152 1440.69 397.538 1435.58 396.319L1435.11 398.265C1440.41 399.526 1446.32 400.152 1452.83 400.152V398.152ZM1435.6 396.324C1430.49 394.988 1425.5 392.799 1420.62 389.748L1419.56 391.444C1424.6 394.593 1429.78 396.867 1435.09 398.259L1435.6 396.324ZM1420.62 389.748C1415.85 386.768 1412.07 382.281 1409.28 376.228L1407.47 377.064C1410.38 383.411 1414.41 388.224 1419.56 391.444L1420.62 389.748ZM1409.29 376.243C1406.63 370.202 1405.28 362.845 1405.28 354.14H1403.28C1403.28 363.043 1404.66 370.69 1407.46 377.049L1409.29 376.243ZM1405.28 354.14C1405.28 339.315 1409.38 328.542 1417.4 321.602L1416.09 320.09C1407.49 327.534 1403.28 338.957 1403.28 354.14H1405.28ZM1417.4 321.596C1425.52 314.452 1435.32 310.872 1446.88 310.872V308.872C1434.87 308.872 1424.59 312.608 1416.08 320.095L1417.4 321.596ZM1446.88 310.872C1458.53 310.872 1468.13 314.746 1475.74 322.477L1477.16 321.074C1469.15 312.933 1459.03 308.872 1446.88 308.872V310.872ZM1475.74 322.483C1483.41 330.148 1487.35 342.603 1487.35 360.092H1489.35C1489.35 342.365 1485.36 329.275 1477.16 321.069L1475.74 322.483ZM1432 357.372H1462.31V355.372H1432V357.372ZM1463.31 356.372C1463.31 344.895 1462.07 334.815 1459.55 326.147L1457.63 326.704C1460.08 335.149 1461.31 345.033 1461.31 356.372H1463.31ZM1459.56 326.16C1458.36 321.806 1456.75 318.432 1454.69 316.132C1452.59 313.801 1450.04 312.592 1447.06 312.592V314.592C1449.42 314.592 1451.45 315.522 1453.2 317.469C1454.98 319.446 1456.47 322.489 1457.63 326.691L1459.56 326.16ZM1447.06 312.592C1444.1 312.592 1441.54 313.761 1439.45 316.028C1437.38 318.266 1435.77 321.548 1434.57 325.781L1436.49 326.327C1437.65 322.252 1439.14 319.303 1440.91 317.386C1442.66 315.5 1444.69 314.592 1447.06 314.592V312.592ZM1434.57 325.777C1432.18 334.07 1431 343.591 1431 354.326H1433C1433 343.733 1434.17 334.405 1436.49 326.33L1434.57 325.777ZM1431 354.326V356.372H1433V354.326H1431Z" fill="url(#paint1_linear_21_73)"/>
<path d="M874.239 139.34H870.639C870.639 129.74 867.579 120.86 861.459 112.7C855.339 104.54 846.579 100.46 835.179 100.46C828.819 100.46 823.539 104.18 819.339 111.62C815.259 119.06 813.219 131.78 813.219 149.78C813.219 167.78 815.259 180.5 819.339 187.94C823.539 195.38 830.019 199.1 838.779 199.1C847.659 199.1 855.099 196.34 861.099 190.82C867.219 185.3 870.999 177.5 872.439 167.42H876.039C874.359 179.3 870.159 188.18 863.439 194.06C856.839 199.82 848.919 202.7 839.679 202.7C821.799 202.7 808.059 198.44 798.459 189.92C788.979 181.28 784.239 167.84 784.239 149.6C784.239 131.24 788.859 117.86 798.099 109.46C807.459 101.06 819.819 96.86 835.179 96.86C843.459 96.86 851.499 99.08 859.299 103.52C861.819 105.08 863.859 105.86 865.419 105.86C867.099 105.86 868.419 105.14 869.379 103.7C870.339 102.14 870.819 100.64 870.819 99.2H874.239V139.34ZM982.161 196.4H991.161V200H946.161V196.4H955.161V146C955.161 137.48 953.901 131.42 951.381 127.82C948.861 124.22 945.081 122.42 940.041 122.42C933.201 122.42 927.741 126.02 923.661 133.22V196.4H932.661V200H887.661V196.4H896.661V83H887.661V79.4H923.661V126.56C925.941 123.32 929.481 120.62 934.281 118.46C939.081 116.3 944.361 115.22 950.121 115.22C971.481 115.22 982.161 126.8 982.161 149.96V196.4ZM1090.98 196.4C1089.78 197.6 1087.5 198.68 1084.14 199.64C1080.78 200.48 1076.88 200.9 1072.44 200.9C1062.6 200.9 1056.42 197.96 1053.9 192.08C1047.9 198.32 1038.72 201.44 1026.36 201.44C1019.76 201.44 1014.3 199.94 1009.98 196.94C1005.78 193.82 1003.68 189.26 1003.68 183.26C1003.68 175.22 1006.8 169.04 1013.04 164.72C1019.28 160.28 1030.2 157.16 1045.8 155.36L1053 154.46V145.64C1053 135.2 1052.22 128.18 1050.66 124.58C1049.1 120.98 1045.98 119.18 1041.3 119.18C1036.74 119.18 1033.8 119.84 1032.48 121.16C1031.16 122.36 1030.68 123.8 1031.04 125.48C1031.4 127.04 1032 129.14 1032.84 131.78C1033.68 134.42 1034.1 136.52 1034.1 138.08C1034.1 141.8 1032.78 144.98 1030.14 147.62C1027.62 150.14 1024.5 151.4 1020.78 151.4C1017.18 151.4 1014.06 150.14 1011.42 147.62C1008.78 144.98 1007.46 141.8 1007.46 138.08C1007.46 131.96 1010.58 126.74 1016.82 122.42C1023.18 117.98 1032.6 115.76 1045.08 115.76C1057.68 115.76 1066.62 118.22 1071.9 123.14C1077.3 128.06 1080 136.76 1080 149.24V181.64C1080 188 1080.78 192.02 1082.34 193.7C1083.9 195.26 1086.78 195.56 1090.98 194.6V196.4ZM1028.7 179.66C1029.3 184.22 1030.98 187.76 1033.74 190.28C1036.5 192.68 1039.68 193.88 1043.28 193.88C1047 193.88 1050.24 192.08 1053 188.48V157.88L1046.52 158.78C1041 159.5 1036.5 161.6 1033.02 165.08C1029.66 168.56 1028.22 173.42 1028.7 179.66ZM1146.76 200H1101.76V196.4H1110.76V120.8H1101.76V117.2H1137.76V138.62C1138.84 132.74 1140.76 127.94 1143.52 124.22C1146.4 120.5 1149.52 118.04 1152.88 116.84C1156.36 115.64 1159.66 115.04 1162.78 115.04C1166.02 115.04 1169.08 115.64 1171.96 116.84C1174.96 117.92 1177.18 120.2 1178.62 123.68C1180.06 127.04 1180.12 130.46 1178.8 133.94C1177.48 137.3 1175.14 139.7 1171.78 141.14C1168.54 142.58 1165.54 142.76 1162.78 141.68C1160.02 140.6 1158.04 139.16 1156.84 137.36C1155.64 135.44 1154.8 133.64 1154.32 131.96C1153.12 127.52 1151.5 125.3 1149.46 125.3C1147.18 125.3 1144.66 129.26 1141.9 137.18C1139.14 144.98 1137.76 153.26 1137.76 162.02V196.4H1146.76V200ZM1221.89 120.8V164.72C1221.89 175.04 1222.31 181.34 1223.15 183.62C1223.99 185.78 1224.89 187.64 1225.85 189.2C1227.65 192.32 1230.77 193.88 1235.21 193.88C1239.77 193.88 1242.95 193.28 1244.75 192.08V195.68C1238.99 199.76 1232.69 201.8 1225.85 201.8C1215.77 201.8 1208.09 199.4 1202.81 194.6C1197.53 189.8 1194.89 181.22 1194.89 168.86V120.8H1181.57V117.2H1194.89C1200.65 116.24 1205.75 113.48 1210.19 108.92C1214.63 104.24 1217.69 97.82 1219.37 89.66H1221.89V117.2H1242.77V120.8H1221.89Z" fill="url(#paint2_linear_21_73)"/>
<path d="M874.239 139.34V140.34H875.239V139.34H874.239ZM870.639 139.34H869.639V140.34H870.639V139.34ZM861.459 112.7L862.259 112.1L861.459 112.7ZM819.339 111.62L818.468 111.128L818.462 111.139L819.339 111.62ZM819.339 187.94L818.462 188.421L818.468 188.432L819.339 187.94ZM861.099 190.82L860.429 190.077L860.422 190.084L861.099 190.82ZM872.439 167.42V166.42H871.572L871.449 167.279L872.439 167.42ZM876.039 167.42L877.029 167.56L877.19 166.42H876.039V167.42ZM863.439 194.06L864.096 194.813L864.097 194.813L863.439 194.06ZM798.459 189.92L797.785 190.659L797.795 190.668L798.459 189.92ZM798.099 109.46L797.431 108.716L797.426 108.72L798.099 109.46ZM859.299 103.52L859.825 102.67L859.81 102.66L859.794 102.651L859.299 103.52ZM869.379 103.7L870.211 104.255L870.221 104.24L870.23 104.224L869.379 103.7ZM870.819 99.2V98.2H869.819V99.2H870.819ZM874.239 99.2H875.239V98.2H874.239V99.2ZM874.239 138.34H870.639V140.34H874.239V138.34ZM871.639 139.34C871.639 129.51 868.5 120.422 862.259 112.1L860.659 113.3C866.658 121.298 869.639 129.97 869.639 139.34H871.639ZM862.259 112.1C855.926 103.656 846.851 99.46 835.179 99.46V101.46C846.307 101.46 854.752 105.424 860.659 113.3L862.259 112.1ZM835.179 99.46C828.336 99.46 822.776 103.497 818.468 111.128L820.21 112.112C824.302 104.863 829.302 101.46 835.179 101.46V99.46ZM818.462 111.139C814.251 118.817 812.219 131.761 812.219 149.78H814.219C814.219 131.799 816.266 119.303 820.216 112.101L818.462 111.139ZM812.219 149.78C812.219 167.799 814.251 180.743 818.462 188.421L820.216 187.459C816.266 180.257 814.219 167.761 814.219 149.78H812.219ZM818.468 188.432C822.851 196.195 829.669 200.1 838.779 200.1V198.1C830.368 198.1 824.227 194.565 820.21 187.448L818.468 188.432ZM838.779 200.1C847.885 200.1 855.574 197.262 861.776 191.556L860.422 190.084C854.624 195.418 847.432 198.1 838.779 198.1V200.1ZM861.769 191.563C868.1 185.852 871.964 177.817 873.429 167.561L871.449 167.279C870.034 177.183 866.337 184.748 860.429 190.077L861.769 191.563ZM872.439 168.42H876.039V166.42H872.439V168.42ZM875.049 167.28C873.391 179.005 869.266 187.632 862.78 193.307L864.097 194.813C871.052 188.728 875.327 179.595 877.029 167.56L875.049 167.28ZM862.781 193.307C856.374 198.898 848.691 201.7 839.679 201.7V203.7C849.146 203.7 857.304 200.742 864.096 194.813L862.781 193.307ZM839.679 201.7C821.947 201.7 808.479 197.476 799.123 189.172L797.795 190.668C807.639 199.404 821.65 203.7 839.679 203.7V201.7ZM799.132 189.181C789.936 180.799 785.239 167.68 785.239 149.6H783.239C783.239 168 788.022 181.761 797.785 190.659L799.132 189.181ZM785.239 149.6C785.239 131.388 789.822 118.336 798.771 110.2L797.426 108.72C787.896 117.384 783.239 131.092 783.239 149.6H785.239ZM798.767 110.204C807.905 102.003 820.008 97.86 835.179 97.86V95.86C819.629 95.86 807.013 100.117 797.431 108.716L798.767 110.204ZM835.179 97.86C843.271 97.86 851.142 100.027 858.804 104.389L859.794 102.651C851.856 98.1325 843.647 95.86 835.179 95.86V97.86ZM858.772 104.37C861.331 105.954 863.57 106.86 865.419 106.86V104.86C864.148 104.86 862.307 104.206 859.825 102.67L858.772 104.37ZM865.419 106.86C867.445 106.86 869.072 105.963 870.211 104.255L868.547 103.145C867.766 104.317 866.753 104.86 865.419 104.86V106.86ZM870.23 104.224C871.261 102.549 871.819 100.869 871.819 99.2H869.819C869.819 100.411 869.416 101.731 868.527 103.176L870.23 104.224ZM870.819 100.2H874.239V98.2H870.819V100.2ZM873.239 99.2V139.34H875.239V99.2H873.239ZM982.161 196.4H981.161V197.4H982.161V196.4ZM991.161 196.4H992.161V195.4H991.161V196.4ZM991.161 200V201H992.161V200H991.161ZM946.161 200H945.161V201H946.161V200ZM946.161 196.4V195.4H945.161V196.4H946.161ZM955.161 196.4V197.4H956.161V196.4H955.161ZM923.661 133.22L922.791 132.727L922.661 132.956V133.22H923.661ZM923.661 196.4H922.661V197.4H923.661V196.4ZM932.661 196.4H933.661V195.4H932.661V196.4ZM932.661 200V201H933.661V200H932.661ZM887.661 200H886.661V201H887.661V200ZM887.661 196.4V195.4H886.661V196.4H887.661ZM896.661 196.4V197.4H897.661V196.4H896.661ZM896.661 83H897.661V82H896.661V83ZM887.661 83H886.661V84H887.661V83ZM887.661 79.4V78.4H886.661V79.4H887.661ZM923.661 79.4H924.661V78.4H923.661V79.4ZM923.661 126.56H922.661V129.719L924.479 127.135L923.661 126.56ZM934.281 118.46L934.692 119.372L934.281 118.46ZM982.161 197.4H991.161V195.4H982.161V197.4ZM990.161 196.4V200H992.161V196.4H990.161ZM991.161 199H946.161V201H991.161V199ZM947.161 200V196.4H945.161V200H947.161ZM946.161 197.4H955.161V195.4H946.161V197.4ZM956.161 196.4V146H954.161V196.4H956.161ZM956.161 146C956.161 137.437 954.906 131.111 952.201 127.247L950.562 128.393C952.897 131.729 954.161 137.523 954.161 146H956.161ZM952.201 127.247C949.464 123.337 945.352 121.42 940.041 121.42V123.42C944.811 123.42 948.259 125.103 950.562 128.393L952.201 127.247ZM940.041 121.42C932.76 121.42 927.005 125.291 922.791 132.727L924.531 133.713C928.478 126.749 933.643 123.42 940.041 123.42V121.42ZM922.661 133.22V196.4H924.661V133.22H922.661ZM923.661 197.4H932.661V195.4H923.661V197.4ZM931.661 196.4V200H933.661V196.4H931.661ZM932.661 199H887.661V201H932.661V199ZM888.661 200V196.4H886.661V200H888.661ZM887.661 197.4H896.661V195.4H887.661V197.4ZM897.661 196.4V83H895.661V196.4H897.661ZM896.661 82H887.661V84H896.661V82ZM888.661 83V79.4H886.661V83H888.661ZM887.661 80.4H923.661V78.4H887.661V80.4ZM922.661 79.4V126.56H924.661V79.4H922.661ZM924.479 127.135C926.628 124.083 930.003 121.482 934.692 119.372L933.871 117.548C928.96 119.758 925.255 122.557 922.844 125.985L924.479 127.135ZM934.692 119.372C939.351 117.275 944.489 116.22 950.121 116.22V114.22C944.233 114.22 938.812 115.325 933.871 117.548L934.692 119.372ZM950.121 116.22C960.626 116.22 968.326 119.064 973.416 124.583C978.521 130.118 981.161 138.515 981.161 149.96H983.161C983.161 138.245 980.462 129.272 974.887 123.227C969.297 117.166 960.977 114.22 950.121 114.22V116.22ZM981.161 149.96V196.4H983.161V149.96H981.161ZM1090.98 196.4L1091.68 197.107L1091.98 196.814V196.4H1090.98ZM1084.14 199.64L1084.38 200.61L1084.4 200.606L1084.41 200.602L1084.14 199.64ZM1053.9 192.08L1054.82 191.686L1054.22 190.299L1053.18 191.387L1053.9 192.08ZM1009.98 196.94L1009.38 197.743L1009.39 197.752L1009.41 197.761L1009.98 196.94ZM1013.04 164.72L1013.61 165.542L1013.62 165.535L1013.04 164.72ZM1045.8 155.36L1045.91 156.353L1045.92 156.352L1045.8 155.36ZM1053 154.46L1053.12 155.452L1054 155.343V154.46H1053ZM1050.66 124.58L1051.57 124.182L1050.66 124.58ZM1032.48 121.16L1033.15 121.9L1033.17 121.884L1033.18 121.867L1032.48 121.16ZM1031.04 125.48L1030.06 125.69L1030.06 125.697L1030.06 125.705L1031.04 125.48ZM1032.84 131.78L1031.88 132.083L1032.84 131.78ZM1030.14 147.62L1030.84 148.327L1030.14 147.62ZM1011.42 147.62L1010.71 148.327L1010.72 148.335L1010.73 148.343L1011.42 147.62ZM1016.82 122.42L1017.39 123.242L1017.39 123.24L1016.82 122.42ZM1071.9 123.14L1071.22 123.872L1071.22 123.879L1071.9 123.14ZM1082.34 193.7L1081.6 194.38L1081.62 194.394L1081.63 194.407L1082.34 193.7ZM1090.98 194.6H1091.98V193.346L1090.75 193.625L1090.98 194.6ZM1028.7 179.66L1027.7 179.737L1027.7 179.764L1027.71 179.79L1028.7 179.66ZM1033.74 190.28L1033.06 191.018L1033.07 191.027L1033.08 191.035L1033.74 190.28ZM1053 188.48L1053.79 189.088L1054 188.819V188.48H1053ZM1053 157.88H1054V156.732L1052.86 156.89L1053 157.88ZM1046.52 158.78L1046.65 159.772L1046.65 159.77L1046.52 158.78ZM1033.02 165.08L1032.31 164.373L1032.3 164.379L1032.3 164.385L1033.02 165.08ZM1090.27 195.693C1089.26 196.701 1087.2 197.726 1083.86 198.678L1084.41 200.602C1087.8 199.634 1090.29 198.499 1091.68 197.107L1090.27 195.693ZM1083.89 198.67C1080.63 199.485 1076.82 199.9 1072.44 199.9V201.9C1076.94 201.9 1080.92 201.475 1084.38 200.61L1083.89 198.67ZM1072.44 199.9C1062.75 199.9 1057.1 197.017 1054.82 191.686L1052.98 192.474C1055.73 198.903 1062.44 201.9 1072.44 201.9V199.9ZM1053.18 191.387C1047.43 197.36 1038.56 200.44 1026.36 200.44V202.44C1038.87 202.44 1048.36 199.28 1054.62 192.773L1053.18 191.387ZM1026.36 200.44C1019.91 200.44 1014.66 198.976 1010.55 196.119L1009.41 197.761C1013.93 200.904 1019.61 202.44 1026.36 202.44V200.44ZM1010.57 196.137C1006.67 193.235 1004.68 188.997 1004.68 183.26H1002.68C1002.68 189.523 1004.89 194.405 1009.38 197.743L1010.57 196.137ZM1004.68 183.26C1004.68 175.525 1007.65 169.663 1013.61 165.542L1012.47 163.898C1005.94 168.417 1002.68 174.915 1002.68 183.26H1004.68ZM1013.62 165.535C1019.64 161.251 1030.34 158.15 1045.91 156.353L1045.68 154.367C1030.06 156.17 1018.92 159.309 1012.46 163.905L1013.62 165.535ZM1045.92 156.352L1053.12 155.452L1052.87 153.468L1045.67 154.368L1045.92 156.352ZM1054 154.46V145.64H1052V154.46H1054ZM1054 145.64C1054 140.399 1053.8 135.994 1053.41 132.435C1053.01 128.891 1052.41 126.119 1051.57 124.182L1049.74 124.978C1050.46 126.641 1051.03 129.179 1051.42 132.655C1051.8 136.116 1052 140.441 1052 145.64H1054ZM1051.57 124.182C1050.72 122.204 1049.41 120.681 1047.65 119.664C1045.9 118.654 1043.76 118.18 1041.3 118.18V120.18C1043.51 120.18 1045.28 120.606 1046.65 121.396C1048 122.179 1049.04 123.356 1049.74 124.978L1051.57 124.182ZM1041.3 118.18C1038.98 118.18 1037.02 118.347 1035.45 118.699C1033.9 119.048 1032.62 119.6 1031.77 120.453L1033.18 121.867C1033.65 121.4 1034.5 120.962 1035.89 120.651C1037.26 120.343 1039.06 120.18 1041.3 120.18V118.18ZM1031.8 120.42C1030.23 121.848 1029.62 123.645 1030.06 125.69L1032.01 125.27C1031.73 123.955 1032.08 122.872 1033.15 121.9L1031.8 120.42ZM1030.06 125.705C1030.43 127.303 1031.04 129.433 1031.88 132.083L1033.79 131.477C1032.95 128.847 1032.36 126.776 1032.01 125.255L1030.06 125.705ZM1031.88 132.083C1032.71 134.689 1033.1 136.673 1033.1 138.08H1035.1C1035.1 136.367 1034.64 134.151 1033.79 131.477L1031.88 132.083ZM1033.1 138.08C1033.1 141.534 1031.88 144.46 1029.43 146.913L1030.84 148.327C1033.67 145.5 1035.1 142.066 1035.1 138.08H1033.1ZM1029.43 146.913C1027.11 149.236 1024.24 150.4 1020.78 150.4V152.4C1024.75 152.4 1028.13 151.044 1030.84 148.327L1029.43 146.913ZM1020.78 150.4C1017.44 150.4 1014.56 149.242 1012.11 146.897L1010.73 148.343C1013.55 151.038 1016.92 152.4 1020.78 152.4V150.4ZM1012.12 146.913C1009.67 144.46 1008.46 141.534 1008.46 138.08H1006.46C1006.46 142.066 1007.88 145.5 1010.71 148.327L1012.12 146.913ZM1008.46 138.08C1008.46 132.368 1011.34 127.426 1017.39 123.242L1016.25 121.598C1009.81 126.054 1006.46 131.552 1006.46 138.08H1008.46ZM1017.39 123.24C1023.51 118.969 1032.69 116.76 1045.08 116.76V114.76C1032.51 114.76 1022.85 116.991 1016.24 121.6L1017.39 123.24ZM1045.08 116.76C1057.6 116.76 1066.22 119.214 1071.22 123.872L1072.58 122.408C1067.02 117.226 1057.76 114.76 1045.08 114.76V116.76ZM1071.22 123.879C1076.31 128.512 1079 136.852 1079 149.24H1081C1081 136.668 1078.29 127.608 1072.57 122.401L1071.22 123.879ZM1079 149.24V181.64H1081V149.24H1079ZM1079 181.64C1079 184.853 1079.19 187.518 1079.6 189.615C1080 191.684 1080.63 193.333 1081.6 194.38L1083.07 193.02C1082.48 192.387 1081.94 191.186 1081.56 189.235C1081.19 187.312 1081 184.787 1081 181.64H1079ZM1081.63 194.407C1083.59 196.369 1086.97 196.542 1091.2 195.575L1090.75 193.625C1086.59 194.578 1084.2 194.151 1083.04 192.993L1081.63 194.407ZM1089.98 194.6V196.4H1091.98V194.6H1089.98ZM1027.71 179.79C1028.33 184.528 1030.09 188.305 1033.06 191.018L1034.41 189.542C1031.86 187.215 1030.27 183.912 1029.69 179.53L1027.71 179.79ZM1033.08 191.035C1036.02 193.59 1039.43 194.88 1043.28 194.88V192.88C1039.92 192.88 1036.97 191.77 1034.39 189.525L1033.08 191.035ZM1043.28 194.88C1047.38 194.88 1050.89 192.875 1053.79 189.088L1052.2 187.872C1049.59 191.285 1046.62 192.88 1043.28 192.88V194.88ZM1054 188.48V157.88H1052V188.48H1054ZM1052.86 156.89L1046.38 157.79L1046.65 159.77L1053.13 158.87L1052.86 156.89ZM1046.39 157.788C1040.68 158.533 1035.97 160.717 1032.31 164.373L1033.72 165.787C1037.03 162.483 1041.32 160.467 1046.65 159.772L1046.39 157.788ZM1032.3 164.385C1028.68 168.128 1027.2 173.301 1027.7 179.737L1029.69 179.583C1029.23 173.539 1030.63 168.992 1033.74 165.775L1032.3 164.385ZM1146.76 200V201H1147.76V200H1146.76ZM1101.76 200H1100.76V201H1101.76V200ZM1101.76 196.4V195.4H1100.76V196.4H1101.76ZM1110.76 196.4V197.4H1111.76V196.4H1110.76ZM1110.76 120.8H1111.76V119.8H1110.76V120.8ZM1101.76 120.8H1100.76V121.8H1101.76V120.8ZM1101.76 117.2V116.2H1100.76V117.2H1101.76ZM1137.76 117.2H1138.76V116.2H1137.76V117.2ZM1137.76 138.62H1136.76L1138.75 138.801L1137.76 138.62ZM1143.52 124.22L1142.73 123.608L1142.73 123.616L1142.72 123.624L1143.52 124.22ZM1152.88 116.84L1152.56 115.895L1152.55 115.898L1152.88 116.84ZM1171.96 116.84L1171.58 117.763L1171.6 117.773L1171.62 117.781L1171.96 116.84ZM1178.62 123.68L1177.7 124.062L1177.7 124.074L1178.62 123.68ZM1178.8 133.94L1179.73 134.306L1179.74 134.295L1178.8 133.94ZM1171.78 141.14L1171.39 140.221L1171.38 140.226L1171.78 141.14ZM1162.78 141.68L1162.42 142.611L1162.78 141.68ZM1156.84 137.36L1156 137.89L1156 137.902L1156.01 137.915L1156.84 137.36ZM1154.32 131.96L1153.36 132.221L1153.36 132.228L1153.36 132.235L1154.32 131.96ZM1141.9 137.18L1142.85 137.514L1142.85 137.509L1141.9 137.18ZM1137.76 196.4H1136.76V197.4H1137.76V196.4ZM1146.76 196.4H1147.76V195.4H1146.76V196.4ZM1146.76 199H1101.76V201H1146.76V199ZM1102.76 200V196.4H1100.76V200H1102.76ZM1101.76 197.4H1110.76V195.4H1101.76V197.4ZM1111.76 196.4V120.8H1109.76V196.4H1111.76ZM1110.76 119.8H1101.76V121.8H1110.76V119.8ZM1102.76 120.8V117.2H1100.76V120.8H1102.76ZM1101.76 118.2H1137.76V116.2H1101.76V118.2ZM1136.76 117.2V138.62H1138.76V117.2H1136.76ZM1138.75 138.801C1139.81 133.029 1141.68 128.383 1144.33 124.816L1142.72 123.624C1139.85 127.497 1137.88 132.451 1136.78 138.439L1138.75 138.801ZM1144.31 124.832C1147.11 121.216 1150.09 118.9 1153.22 117.782L1152.55 115.898C1148.96 117.18 1145.69 119.784 1142.73 123.608L1144.31 124.832ZM1153.21 117.785C1156.6 116.615 1159.79 116.04 1162.78 116.04V114.04C1159.53 114.04 1156.12 114.665 1152.56 115.895L1153.21 117.785ZM1162.78 116.04C1165.9 116.04 1168.83 116.616 1171.58 117.763L1172.35 115.917C1169.34 114.664 1166.15 114.04 1162.78 114.04V116.04ZM1171.62 117.781C1174.31 118.748 1176.35 120.791 1177.7 124.062L1179.55 123.298C1178.02 119.609 1175.62 117.092 1172.3 115.899L1171.62 117.781ZM1177.7 124.074C1179.04 127.191 1179.1 130.343 1177.87 133.585L1179.74 134.295C1181.15 130.577 1181.09 126.889 1179.54 123.286L1177.7 124.074ZM1177.87 133.574C1176.65 136.682 1174.51 138.885 1171.39 140.221L1172.18 142.059C1175.78 140.515 1178.31 137.918 1179.73 134.306L1177.87 133.574ZM1171.38 140.226C1168.33 141.581 1165.61 141.713 1163.15 140.749L1162.42 142.611C1165.48 143.807 1168.76 143.579 1172.19 142.054L1171.38 140.226ZM1163.15 140.749C1160.51 139.716 1158.73 138.382 1157.68 136.805L1156.01 137.915C1157.36 139.938 1159.54 141.484 1162.42 142.611L1163.15 140.749ZM1157.69 136.83C1156.53 134.967 1155.73 133.253 1155.28 131.685L1153.36 132.235C1153.87 134.027 1154.76 135.913 1156 137.89L1157.69 136.83ZM1155.29 131.699C1154.68 129.43 1153.93 127.629 1153.02 126.376C1152.09 125.105 1150.91 124.3 1149.46 124.3V126.3C1150.06 126.3 1150.71 126.605 1151.4 127.554C1152.11 128.521 1152.77 130.05 1153.36 132.221L1155.29 131.699ZM1149.46 124.3C1148.59 124.3 1147.79 124.682 1147.07 125.271C1146.36 125.858 1145.68 126.695 1145.02 127.733C1143.7 129.81 1142.35 132.865 1140.96 136.851L1142.85 137.509C1144.22 133.575 1145.51 130.69 1146.71 128.807C1147.31 127.865 1147.86 127.217 1148.34 126.814C1148.83 126.413 1149.2 126.3 1149.46 126.3V124.3ZM1140.96 136.846C1138.16 144.76 1136.76 153.153 1136.76 162.02H1138.76C1138.76 153.367 1140.13 145.2 1142.85 137.514L1140.96 136.846ZM1136.76 162.02V196.4H1138.76V162.02H1136.76ZM1137.76 197.4H1146.76V195.4H1137.76V197.4ZM1145.76 196.4V200H1147.76V196.4H1145.76ZM1221.89 120.8V119.8H1220.89V120.8H1221.89ZM1223.15 183.62L1222.22 183.966L1222.22 183.974L1222.22 183.982L1223.15 183.62ZM1225.85 189.2L1226.72 188.7L1226.71 188.688L1226.71 188.676L1225.85 189.2ZM1244.75 192.08H1245.75V190.211L1244.2 191.248L1244.75 192.08ZM1244.75 195.68L1245.33 196.496L1245.75 196.197V195.68H1244.75ZM1202.81 194.6L1203.49 193.86L1202.81 194.6ZM1194.89 120.8H1195.89V119.8H1194.89V120.8ZM1181.57 120.8H1180.57V121.8H1181.57V120.8ZM1181.57 117.2V116.2H1180.57V117.2H1181.57ZM1194.89 117.2V118.2H1194.98L1195.06 118.186L1194.89 117.2ZM1210.19 108.92L1210.91 109.618L1210.92 109.608L1210.19 108.92ZM1219.37 89.66V88.66H1218.56L1218.4 89.4583L1219.37 89.66ZM1221.89 89.66H1222.89V88.66H1221.89V89.66ZM1221.89 117.2H1220.89V118.2H1221.89V117.2ZM1242.77 117.2H1243.77V116.2H1242.77V117.2ZM1242.77 120.8V121.8H1243.77V120.8H1242.77ZM1220.89 120.8V164.72H1222.89V120.8H1220.89ZM1220.89 164.72C1220.89 169.89 1221 174.07 1221.21 177.252C1221.42 180.392 1221.74 182.673 1222.22 183.966L1224.09 183.274C1223.73 182.287 1223.42 180.278 1223.21 177.118C1223 174 1222.89 169.87 1222.89 164.72H1220.89ZM1222.22 183.982C1223.08 186.185 1224 188.101 1225 189.724L1226.71 188.676C1225.79 187.179 1224.91 185.375 1224.09 183.258L1222.22 183.982ZM1224.99 189.7C1227.01 193.205 1230.51 194.88 1235.21 194.88V192.88C1231.03 192.88 1228.3 191.435 1226.72 188.7L1224.99 189.7ZM1235.21 194.88C1239.8 194.88 1243.24 194.29 1245.31 192.912L1244.2 191.248C1242.67 192.27 1239.75 192.88 1235.21 192.88V194.88ZM1243.75 192.08V195.68H1245.75V192.08H1243.75ZM1244.18 194.864C1238.58 198.828 1232.48 200.8 1225.85 200.8V202.8C1232.91 202.8 1239.41 200.692 1245.33 196.496L1244.18 194.864ZM1225.85 200.8C1215.92 200.8 1208.52 198.435 1203.49 193.86L1202.14 195.34C1207.67 200.365 1215.63 202.8 1225.85 202.8V200.8ZM1203.49 193.86C1198.53 189.35 1195.89 181.133 1195.89 168.86H1193.89C1193.89 181.307 1196.54 190.25 1202.14 195.34L1203.49 193.86ZM1195.89 168.86V120.8H1193.89V168.86H1195.89ZM1194.89 119.8H1181.57V121.8H1194.89V119.8ZM1182.57 120.8V117.2H1180.57V120.8H1182.57ZM1181.57 118.2H1194.89V116.2H1181.57V118.2ZM1195.06 118.186C1201.05 117.188 1206.34 114.316 1210.91 109.618L1209.48 108.222C1205.17 112.644 1200.26 115.292 1194.73 116.214L1195.06 118.186ZM1210.92 109.608C1215.52 104.759 1218.65 98.152 1220.35 89.8616L1218.4 89.4583C1216.74 97.488 1213.75 103.721 1209.47 108.232L1210.92 109.608ZM1219.37 90.66H1221.89V88.66H1219.37V90.66ZM1220.89 89.66V117.2H1222.89V89.66H1220.89ZM1221.89 118.2H1242.77V116.2H1221.89V118.2ZM1241.77 117.2V120.8H1243.77V117.2H1241.77ZM1242.77 119.8H1221.89V121.8H1242.77V119.8Z" fill="url(#paint3_linear_21_73)"/>
<path d="M1453.49 191.941C1452.29 193.141 1450.01 194.221 1446.65 195.181C1443.29 196.021 1439.39 196.441 1434.95 196.441C1425.11 196.441 1418.93 193.501 1416.41 187.621C1410.41 193.861 1401.23 196.981 1388.87 196.981C1382.27 196.981 1376.81 195.481 1372.49 192.481C1368.29 189.361 1366.19 184.801 1366.19 178.801C1366.19 170.761 1369.31 164.581 1375.55 160.261C1381.79 155.821 1392.71 152.701 1408.31 150.901L1415.51 150.001V141.181C1415.51 130.741 1414.73 123.721 1413.17 120.121C1411.61 116.521 1408.49 114.721 1403.81 114.721C1399.25 114.721 1396.31 115.381 1394.99 116.701C1393.67 117.901 1393.19 119.341 1393.55 121.021C1393.91 122.581 1394.51 124.681 1395.35 127.321C1396.19 129.961 1396.61 132.061 1396.61 133.621C1396.61 137.341 1395.29 140.521 1392.65 143.161C1390.13 145.681 1387.01 146.941 1383.29 146.941C1379.69 146.941 1376.57 145.681 1373.93 143.161C1371.29 140.521 1369.97 137.341 1369.97 133.621C1369.97 127.501 1373.09 122.281 1379.33 117.961C1385.69 113.521 1395.11 111.301 1407.59 111.301C1420.19 111.301 1429.13 113.761 1434.41 118.681C1439.81 123.601 1442.51 132.301 1442.51 144.781V177.181C1442.51 183.541 1443.29 187.561 1444.85 189.241C1446.41 190.801 1449.29 191.101 1453.49 190.141V191.941ZM1391.21 175.201C1391.81 179.761 1393.49 183.301 1396.25 185.821C1399.01 188.221 1402.19 189.421 1405.79 189.421C1409.51 189.421 1412.75 187.621 1415.51 184.021V153.421L1409.03 154.321C1403.51 155.041 1399.01 157.141 1395.53 160.621C1392.17 164.101 1390.73 168.961 1391.21 175.201ZM1497.4 116.341V160.261C1497.4 170.581 1497.82 176.881 1498.66 179.161C1499.5 181.321 1500.4 183.181 1501.36 184.741C1503.16 187.861 1506.28 189.421 1510.72 189.421C1515.28 189.421 1518.46 188.821 1520.26 187.621V191.221C1514.5 195.301 1508.2 197.341 1501.36 197.341C1491.28 197.341 1483.6 194.941 1478.32 190.141C1473.04 185.341 1470.4 176.761 1470.4 164.401V116.341H1457.08V112.741H1470.4C1476.16 111.781 1481.26 109.021 1485.7 104.461C1490.14 99.7808 1493.2 93.3608 1494.88 85.2008H1497.4V112.741H1518.28V116.341H1497.4Z" fill="url(#paint4_linear_21_73)"/>
<path d="M1453.49 191.941L1454.2 192.648L1454.49 192.355V191.941H1453.49ZM1446.65 195.181L1446.89 196.151L1446.91 196.147L1446.93 196.142L1446.65 195.181ZM1416.41 187.621L1417.33 187.227L1416.74 185.84L1415.69 186.928L1416.41 187.621ZM1372.49 192.481L1371.9 193.284L1371.91 193.293L1371.92 193.302L1372.49 192.481ZM1375.55 160.261L1376.12 161.083L1376.13 161.076L1375.55 160.261ZM1408.31 150.901L1408.43 151.894L1408.44 151.893L1408.31 150.901ZM1415.51 150.001L1415.64 150.993L1416.51 150.884V150.001H1415.51ZM1413.17 120.121L1414.09 119.723L1413.17 120.121ZM1394.99 116.701L1395.66 117.441L1395.68 117.425L1395.7 117.408L1394.99 116.701ZM1393.55 121.021L1392.57 121.23L1392.58 121.238L1392.58 121.246L1393.55 121.021ZM1395.35 127.321L1394.4 127.624L1395.35 127.321ZM1392.65 143.161L1393.36 143.868L1392.65 143.161ZM1373.93 143.161L1373.22 143.868L1373.23 143.876L1373.24 143.884L1373.93 143.161ZM1379.33 117.961L1379.9 118.783L1379.9 118.781L1379.33 117.961ZM1434.41 118.681L1433.73 119.412L1433.74 119.42L1434.41 118.681ZM1444.85 189.241L1444.12 189.921L1444.13 189.935L1444.14 189.948L1444.85 189.241ZM1453.49 190.141H1454.49V188.886L1453.27 189.166L1453.49 190.141ZM1391.21 175.201L1390.21 175.277L1390.22 175.304L1390.22 175.331L1391.21 175.201ZM1396.25 185.821L1395.58 186.559L1395.59 186.567L1395.6 186.575L1396.25 185.821ZM1415.51 184.021L1416.31 184.629L1416.51 184.36V184.021H1415.51ZM1415.51 153.421H1416.51V152.272L1415.37 152.43L1415.51 153.421ZM1409.03 154.321L1409.16 155.312L1409.17 155.311L1409.03 154.321ZM1395.53 160.621L1394.82 159.914L1394.82 159.92L1394.81 159.926L1395.53 160.621ZM1452.78 191.234C1451.78 192.242 1449.71 193.266 1446.38 194.219L1446.93 196.142C1450.31 195.175 1452.81 194.04 1454.2 192.648L1452.78 191.234ZM1446.41 194.211C1443.15 195.026 1439.33 195.441 1434.95 195.441V197.441C1439.45 197.441 1443.44 197.015 1446.89 196.151L1446.41 194.211ZM1434.95 195.441C1425.27 195.441 1419.62 192.557 1417.33 187.227L1415.49 188.015C1418.25 194.444 1424.96 197.441 1434.95 197.441V195.441ZM1415.69 186.928C1409.95 192.9 1401.08 195.981 1388.87 195.981V197.981C1401.39 197.981 1410.88 194.821 1417.13 188.314L1415.69 186.928ZM1388.87 195.981C1382.42 195.981 1377.18 194.516 1373.06 191.659L1371.92 193.302C1376.45 196.445 1382.12 197.981 1388.87 197.981V195.981ZM1373.09 191.678C1369.18 188.776 1367.19 184.537 1367.19 178.801H1365.19C1365.19 185.064 1367.4 189.945 1371.9 193.284L1373.09 191.678ZM1367.19 178.801C1367.19 171.066 1370.17 165.203 1376.12 161.083L1374.98 159.439C1368.45 163.958 1365.19 170.456 1365.19 178.801H1367.19ZM1376.13 161.076C1382.15 156.792 1392.85 153.691 1408.43 151.894L1408.2 149.907C1392.57 151.71 1381.43 154.85 1374.97 159.446L1376.13 161.076ZM1408.44 151.893L1415.64 150.993L1415.39 149.008L1408.19 149.908L1408.44 151.893ZM1416.51 150.001V141.181H1414.51V150.001H1416.51ZM1416.51 141.181C1416.51 135.94 1416.32 131.535 1415.92 127.975C1415.53 124.432 1414.93 121.66 1414.09 119.723L1412.25 120.518C1412.97 122.181 1413.55 124.719 1413.93 128.196C1414.32 131.657 1414.51 135.982 1414.51 141.181H1416.51ZM1414.09 119.723C1413.23 117.745 1411.92 116.222 1410.16 115.205C1408.41 114.194 1406.28 113.721 1403.81 113.721V115.721C1406.03 115.721 1407.79 116.147 1409.16 116.937C1410.52 117.72 1411.55 118.897 1412.25 120.518L1414.09 119.723ZM1403.81 113.721C1401.49 113.721 1399.54 113.888 1397.97 114.24C1396.42 114.588 1395.14 115.141 1394.28 115.994L1395.7 117.408C1396.17 116.941 1397.02 116.503 1398.41 116.191C1399.78 115.884 1401.57 115.721 1403.81 115.721V113.721ZM1394.32 115.961C1392.75 117.389 1392.14 119.186 1392.57 121.23L1394.53 120.811C1394.25 119.496 1394.6 118.412 1395.66 117.441L1394.32 115.961ZM1392.58 121.246C1392.95 122.844 1393.56 124.974 1394.4 127.624L1396.3 127.018C1395.47 124.388 1394.88 122.317 1394.53 120.796L1392.58 121.246ZM1394.4 127.624C1395.23 130.229 1395.61 132.214 1395.61 133.621H1397.61C1397.61 131.908 1397.16 129.692 1396.3 127.018L1394.4 127.624ZM1395.61 133.621C1395.61 137.074 1394.4 140 1391.94 142.454L1393.36 143.868C1396.19 141.041 1397.61 137.607 1397.61 133.621H1395.61ZM1391.94 142.454C1389.62 144.777 1386.76 145.941 1383.29 145.941V147.941C1387.26 147.941 1390.64 146.584 1393.36 143.868L1391.94 142.454ZM1383.29 145.941C1379.95 145.941 1377.08 144.783 1374.62 142.437L1373.24 143.884C1376.06 146.579 1379.43 147.941 1383.29 147.941V145.941ZM1374.64 142.454C1372.19 140 1370.97 137.074 1370.97 133.621H1368.97C1368.97 137.607 1370.4 141.041 1373.22 143.868L1374.64 142.454ZM1370.97 133.621C1370.97 127.909 1373.86 122.967 1379.9 118.783L1378.76 117.139C1372.33 121.595 1368.97 127.093 1368.97 133.621H1370.97ZM1379.9 118.781C1386.02 114.51 1395.2 112.301 1407.59 112.301V110.301C1395.02 110.301 1385.36 112.532 1378.76 117.141L1379.9 118.781ZM1407.59 112.301C1420.11 112.301 1428.73 114.755 1433.73 119.412L1435.09 117.949C1429.53 112.767 1420.27 110.301 1407.59 110.301V112.301ZM1433.74 119.42C1438.82 124.052 1441.51 132.393 1441.51 144.781H1443.51C1443.51 132.208 1440.8 123.149 1435.09 117.942L1433.74 119.42ZM1441.51 144.781V177.181H1443.51V144.781H1441.51ZM1441.51 177.181C1441.51 180.394 1441.71 183.059 1442.12 185.156C1442.52 187.225 1443.15 188.874 1444.12 189.921L1445.58 188.56C1445 187.927 1444.46 186.727 1444.08 184.775C1443.71 182.852 1443.51 180.328 1443.51 177.181H1441.51ZM1444.14 189.948C1446.11 191.91 1449.48 192.083 1453.71 191.116L1453.27 189.166C1449.1 190.118 1446.72 189.691 1445.56 188.534L1444.14 189.948ZM1452.49 190.141V191.941H1454.49V190.141H1452.49ZM1390.22 175.331C1390.84 180.069 1392.61 183.846 1395.58 186.559L1396.93 185.082C1394.38 182.755 1392.78 179.452 1392.2 175.07L1390.22 175.331ZM1395.6 186.575C1398.53 189.131 1401.95 190.421 1405.79 190.421V188.421C1402.44 188.421 1399.49 187.311 1396.91 185.066L1395.6 186.575ZM1405.79 190.421C1409.89 190.421 1413.4 188.416 1416.31 184.629L1414.72 183.412C1412.1 186.826 1409.13 188.421 1405.79 188.421V190.421ZM1416.51 184.021V153.421H1414.51V184.021H1416.51ZM1415.37 152.43L1408.89 153.33L1409.17 155.311L1415.65 154.411L1415.37 152.43ZM1408.9 153.329C1403.19 154.074 1398.48 156.258 1394.82 159.914L1396.24 161.328C1399.54 158.024 1403.83 156.008 1409.16 155.312L1408.9 153.329ZM1394.81 159.926C1391.2 163.668 1389.72 168.842 1390.21 175.277L1392.21 175.124C1391.74 169.08 1393.14 164.533 1396.25 161.315L1394.81 159.926ZM1497.4 116.341V115.341H1496.4V116.341H1497.4ZM1498.66 179.161L1497.72 179.506L1497.72 179.515L1497.73 179.523L1498.66 179.161ZM1501.36 184.741L1502.22 184.241L1502.22 184.229L1502.21 184.217L1501.36 184.741ZM1520.26 187.621H1521.26V185.752L1519.7 186.789L1520.26 187.621ZM1520.26 191.221L1520.84 192.037L1521.26 191.738V191.221H1520.26ZM1478.32 190.141L1478.99 189.401L1478.32 190.141ZM1470.4 116.341H1471.4V115.341H1470.4V116.341ZM1457.08 116.341H1456.08V117.341H1457.08V116.341ZM1457.08 112.741V111.741H1456.08V112.741H1457.08ZM1470.4 112.741V113.741H1470.48L1470.56 113.727L1470.4 112.741ZM1485.7 104.461L1486.41 105.158L1486.42 105.149L1485.7 104.461ZM1494.88 85.2008V84.2008H1494.06L1493.9 84.9991L1494.88 85.2008ZM1497.4 85.2008H1498.4V84.2008H1497.4V85.2008ZM1497.4 112.741H1496.4V113.741H1497.4V112.741ZM1518.28 112.741H1519.28V111.741H1518.28V112.741ZM1518.28 116.341V117.341H1519.28V116.341H1518.28ZM1496.4 116.341V160.261H1498.4V116.341H1496.4ZM1496.4 160.261C1496.4 165.431 1496.5 169.611 1496.72 172.792C1496.92 175.933 1497.24 178.214 1497.72 179.506L1499.6 178.815C1499.23 177.828 1498.92 175.819 1498.71 172.659C1498.5 169.541 1498.4 165.411 1498.4 160.261H1496.4ZM1497.73 179.523C1498.58 181.725 1499.51 183.642 1500.51 185.265L1502.21 184.217C1501.29 182.719 1500.41 180.916 1499.59 178.798L1497.73 179.523ZM1500.49 185.24C1502.51 188.746 1506.02 190.421 1510.72 190.421V188.421C1506.54 188.421 1503.8 186.976 1502.22 184.241L1500.49 185.24ZM1510.72 190.421C1515.3 190.421 1518.75 189.831 1520.81 188.453L1519.7 186.789C1518.17 187.811 1515.26 188.421 1510.72 188.421V190.421ZM1519.26 187.621V191.221H1521.26V187.621H1519.26ZM1519.68 190.405C1514.08 194.369 1507.98 196.341 1501.36 196.341V198.341C1508.41 198.341 1514.91 196.232 1520.84 192.037L1519.68 190.405ZM1501.36 196.341C1491.42 196.341 1484.02 193.975 1478.99 189.401L1477.65 190.881C1483.17 195.906 1491.13 198.341 1501.36 198.341V196.341ZM1478.99 189.401C1474.03 184.89 1471.4 176.674 1471.4 164.401H1469.4C1469.4 176.848 1472.05 185.791 1477.65 190.881L1478.99 189.401ZM1471.4 164.401V116.341H1469.4V164.401H1471.4ZM1470.4 115.341H1457.08V117.341H1470.4V115.341ZM1458.08 116.341V112.741H1456.08V116.341H1458.08ZM1457.08 113.741H1470.4V111.741H1457.08V113.741ZM1470.56 113.727C1476.55 112.729 1481.84 109.856 1486.41 105.158L1484.98 103.763C1480.68 108.185 1475.76 110.833 1470.23 111.754L1470.56 113.727ZM1486.42 105.149C1491.02 100.3 1494.15 93.6927 1495.86 85.4024L1493.9 84.9991C1492.25 93.0288 1489.25 99.262 1484.97 103.773L1486.42 105.149ZM1494.88 86.2008H1497.4V84.2008H1494.88V86.2008ZM1496.4 85.2008V112.741H1498.4V85.2008H1496.4ZM1497.4 113.741H1518.28V111.741H1497.4V113.741ZM1517.28 112.741V116.341H1519.28V112.741H1517.28ZM1518.28 115.341H1497.4V117.341H1518.28V115.341Z" fill="url(#paint5_linear_21_73)"/>
<path d="M839.067 380.059C837.867 381.259 835.587 382.339 832.227 383.299C828.867 384.139 824.967 384.559 820.527 384.559C810.687 384.559 804.507 381.619 801.987 375.739C795.987 381.979 786.807 385.099 774.447 385.099C767.847 385.099 762.387 383.599 758.067 380.599C753.867 377.479 751.767 372.919 751.767 366.919C751.767 358.879 754.887 352.699 761.127 348.379C767.367 343.939 778.287 340.819 793.887 339.019L801.087 338.119V329.299C801.087 318.859 800.307 311.839 798.747 308.239C797.187 304.639 794.067 302.839 789.387 302.839C784.827 302.839 781.887 303.499 780.567 304.819C779.247 306.019 778.767 307.459 779.127 309.139C779.487 310.699 780.087 312.799 780.927 315.439C781.767 318.079 782.187 320.179 782.187 321.739C782.187 325.459 780.867 328.639 778.227 331.279C775.707 333.799 772.587 335.059 768.867 335.059C765.267 335.059 762.147 333.799 759.507 331.279C756.867 328.639 755.547 325.459 755.547 321.739C755.547 315.619 758.667 310.399 764.907 306.079C771.267 301.639 780.687 299.419 793.167 299.419C805.767 299.419 814.707 301.879 819.987 306.799C825.387 311.719 828.087 320.419 828.087 332.899V365.299C828.087 371.659 828.867 375.679 830.427 377.359C831.987 378.919 834.867 379.219 839.067 378.259V380.059ZM776.787 363.319C777.387 367.879 779.067 371.419 781.827 373.939C784.587 376.339 787.767 377.539 791.367 377.539C795.087 377.539 798.327 375.739 801.087 372.139V341.539L794.607 342.439C789.087 343.159 784.587 345.259 781.107 348.739C777.747 352.219 776.307 357.079 776.787 363.319Z" fill="url(#paint6_linear_21_73)"/>
<path d="M839.067 380.059L839.774 380.766L840.067 380.473V380.059H839.067ZM832.227 383.299L832.47 384.269L832.486 384.265L832.502 384.26L832.227 383.299ZM801.987 375.739L802.906 375.345L802.312 373.958L801.266 375.046L801.987 375.739ZM758.067 380.599L757.471 381.401L757.484 381.411L757.497 381.42L758.067 380.599ZM761.127 348.379L761.697 349.201L761.707 349.193L761.127 348.379ZM793.887 339.019L794.002 340.012L794.011 340.011L793.887 339.019ZM801.087 338.119L801.211 339.111L802.087 339.001V338.119H801.087ZM798.747 308.239L799.665 307.841H799.665L798.747 308.239ZM780.567 304.819L781.24 305.559L781.258 305.543L781.274 305.526L780.567 304.819ZM779.127 309.139L778.149 309.348L778.151 309.356L778.153 309.364L779.127 309.139ZM780.927 315.439L779.974 315.742L780.927 315.439ZM778.227 331.279L778.934 331.986L778.227 331.279ZM759.507 331.279L758.8 331.986L758.808 331.994L758.817 332.002L759.507 331.279ZM764.907 306.079L765.477 306.901L765.48 306.899L764.907 306.079ZM819.987 306.799L819.306 307.53L819.314 307.538L819.987 306.799ZM830.427 377.359L829.695 378.039L829.707 378.053L829.72 378.066L830.427 377.359ZM839.067 378.259H840.067V377.004L838.844 377.284L839.067 378.259ZM776.787 363.319L775.79 363.395L775.792 363.422L775.796 363.449L776.787 363.319ZM781.827 373.939L781.153 374.677L781.162 374.685L781.171 374.693L781.827 373.939ZM801.087 372.139L801.881 372.747L802.087 372.478V372.139H801.087ZM801.087 341.539H802.087V340.39L800.95 340.548L801.087 341.539ZM794.607 342.439L794.737 343.43L794.745 343.429L794.607 342.439ZM781.107 348.739L780.4 348.032L780.394 348.038L780.388 348.044L781.107 348.739ZM838.36 379.352C837.352 380.359 835.288 381.384 831.953 382.337L832.502 384.26C835.887 383.293 838.382 382.158 839.774 380.766L838.36 379.352ZM831.985 382.329C828.723 383.144 824.907 383.559 820.527 383.559V385.559C825.027 385.559 829.012 385.133 832.47 384.269L831.985 382.329ZM820.527 383.559C810.843 383.559 805.191 380.675 802.906 375.345L801.068 376.133C803.824 382.562 810.532 385.559 820.527 385.559V383.559ZM801.266 375.046C795.524 381.018 786.653 384.099 774.447 384.099V386.099C786.961 386.099 796.451 382.939 802.708 376.432L801.266 375.046ZM774.447 384.099C767.999 384.099 762.752 382.634 758.638 379.777L757.497 381.42C762.023 384.563 767.696 386.099 774.447 386.099V384.099ZM758.664 379.796C754.757 376.894 752.767 372.655 752.767 366.919H750.767C750.767 373.182 752.977 378.063 757.471 381.401L758.664 379.796ZM752.767 366.919C752.767 359.184 755.745 353.321 761.697 349.201L760.558 347.556C754.03 352.076 750.767 358.574 750.767 366.919H752.767ZM761.707 349.193C767.728 344.91 778.428 341.809 794.002 340.012L793.773 338.025C778.146 339.828 767.007 342.968 760.548 347.564L761.707 349.193ZM794.011 340.011L801.211 339.111L800.963 337.126L793.763 338.026L794.011 340.011ZM802.087 338.119V329.299H800.087V338.119H802.087ZM802.087 329.299C802.087 324.057 801.892 319.653 801.496 316.093C801.102 312.55 800.504 309.778 799.665 307.841L797.83 308.636C798.55 310.299 799.122 312.837 799.508 316.314C799.893 319.775 800.087 324.1 800.087 329.299H802.087ZM799.665 307.841C798.808 305.863 797.5 304.339 795.737 303.323C793.986 302.312 791.852 301.839 789.387 301.839V303.839C791.603 303.839 793.368 304.265 794.738 305.055C796.095 305.838 797.127 307.015 797.83 308.636L799.665 307.841ZM789.387 301.839C787.067 301.839 785.112 302.006 783.543 302.358C781.991 302.706 780.713 303.259 779.86 304.112L781.274 305.526C781.742 305.059 782.593 304.621 783.981 304.309C785.353 304.002 787.148 303.839 789.387 303.839V301.839ZM779.895 304.079C778.324 305.507 777.711 307.304 778.149 309.348L780.105 308.929C779.823 307.614 780.171 306.53 781.24 305.559L779.895 304.079ZM778.153 309.364C778.522 310.962 779.131 313.092 779.974 315.742L781.88 315.135C781.043 312.506 780.453 310.435 780.102 308.914L778.153 309.364ZM779.974 315.742C780.803 318.347 781.187 320.332 781.187 321.739H783.187C783.187 320.025 782.731 317.81 781.88 315.135L779.974 315.742ZM781.187 321.739C781.187 325.192 779.973 328.118 777.52 330.572L778.934 331.986C781.761 329.159 783.187 325.725 783.187 321.739H781.187ZM777.52 330.572C775.197 332.895 772.335 334.059 768.867 334.059V336.059C772.84 336.059 776.218 334.702 778.934 331.986L777.52 330.572ZM768.867 334.059C765.528 334.059 762.655 332.9 760.198 330.555L758.817 332.002C761.64 334.697 765.006 336.059 768.867 336.059V334.059ZM760.214 330.572C757.761 328.118 756.547 325.192 756.547 321.739H754.547C754.547 325.725 755.973 329.159 758.8 331.986L760.214 330.572ZM756.547 321.739C756.547 316.027 759.433 311.085 765.477 306.901L764.338 305.256C757.901 309.713 754.547 315.211 754.547 321.739H756.547ZM765.48 306.899C771.598 302.628 780.778 300.419 793.167 300.419V298.419C780.597 298.419 770.937 300.65 764.335 305.259L765.48 306.899ZM793.167 300.419C805.687 300.419 814.307 302.873 819.306 307.53L820.669 306.067C815.108 300.885 805.847 298.419 793.167 298.419V300.419ZM819.314 307.538C824.398 312.17 827.087 320.511 827.087 332.899H829.087C829.087 320.326 826.376 311.267 820.661 306.059L819.314 307.538ZM827.087 332.899V365.299H829.087V332.899H827.087ZM827.087 365.299C827.087 368.512 827.284 371.177 827.691 373.274C828.092 375.343 828.722 376.992 829.695 378.039L831.16 376.678C830.572 376.045 830.033 374.845 829.654 372.893C829.281 370.97 829.087 368.446 829.087 365.299H827.087ZM829.72 378.066C831.682 380.028 835.057 380.201 839.29 379.234L838.844 377.284C834.677 378.236 832.292 377.809 831.134 376.652L829.72 378.066ZM838.067 378.259V380.059H840.067V378.259H838.067ZM775.796 363.449C776.419 368.187 778.181 371.964 781.153 374.677L782.502 373.2C779.953 370.873 778.355 367.57 777.779 363.188L775.796 363.449ZM781.171 374.693C784.11 377.249 787.522 378.539 791.367 378.539V376.539C788.013 376.539 785.065 375.429 782.483 373.184L781.171 374.693ZM791.367 378.539C795.467 378.539 798.978 376.534 801.881 372.747L800.294 371.53C797.677 374.944 794.707 376.539 791.367 376.539V378.539ZM802.087 372.139V341.539H800.087V372.139H802.087ZM800.95 340.548L794.47 341.448L794.745 343.429L801.225 342.529L800.95 340.548ZM794.478 341.447C788.769 342.192 784.056 344.375 780.4 348.032L781.814 349.446C785.118 346.142 789.405 344.126 794.737 343.43L794.478 341.447ZM780.388 348.044C776.775 351.786 775.295 356.96 775.79 363.395L777.784 363.242C777.319 357.198 778.72 352.651 781.827 349.433L780.388 348.044Z" fill="url(#paint7_linear_21_73)"/>
<g filter="url(#filter0_f_21_73)">
<path d="M900.367 253.788H897.487C897.487 261.468 895.039 268.572 890.143 275.1C885.247 281.628 878.239 284.892 869.119 284.892C864.031 284.892 859.807 281.916 856.447 275.964C853.183 270.012 851.551 259.836 851.551 245.436C851.551 231.036 853.183 220.86 856.447 214.908C859.807 208.956 864.991 205.98 871.999 205.98C879.103 205.98 885.055 208.188 889.855 212.604C894.751 217.02 897.775 223.26 898.927 231.324H901.807C900.463 221.82 897.103 214.716 891.727 210.012C886.447 205.404 880.111 203.1 872.719 203.1C858.415 203.1 847.423 206.508 839.743 213.324C832.159 220.236 828.367 230.988 828.367 245.58C828.367 260.268 832.063 270.972 839.455 277.692C846.943 284.412 856.831 287.772 869.119 287.772C875.743 287.772 882.175 285.996 888.415 282.444C890.431 281.196 892.063 280.572 893.311 280.572C894.655 280.572 895.711 281.148 896.479 282.3C897.247 283.548 897.631 284.748 897.631 285.9H900.367V253.788ZM986.705 208.14H993.905V205.26H957.905V208.14H965.105V248.46C965.105 255.276 964.097 260.124 962.081 263.004C960.065 265.884 957.041 267.324 953.009 267.324C947.537 267.324 943.169 264.444 939.905 258.684V208.14H947.105V205.26H911.105V208.14H918.305V298.86H911.105V301.74H939.905V264.012C941.729 266.604 944.561 268.764 948.401 270.492C952.241 272.22 956.465 273.084 961.073 273.084C978.161 273.084 986.705 263.82 986.705 245.292V208.14ZM1073.76 208.14C1072.8 207.18 1070.97 206.316 1068.29 205.548C1065.6 204.876 1062.48 204.54 1058.93 204.54C1051.05 204.54 1046.11 206.892 1044.09 211.596C1039.29 206.604 1031.95 204.108 1022.06 204.108C1016.78 204.108 1012.41 205.308 1008.96 207.708C1005.6 210.204 1003.92 213.852 1003.92 218.652C1003.92 225.084 1006.41 230.028 1011.41 233.484C1016.4 237.036 1025.13 239.532 1037.61 240.972L1043.37 241.692V248.748C1043.37 257.1 1042.75 262.716 1041.5 265.596C1040.25 268.476 1037.76 269.916 1034.01 269.916C1030.37 269.916 1028.01 269.388 1026.96 268.332C1025.9 267.372 1025.52 266.22 1025.81 264.876C1026.09 263.628 1026.57 261.948 1027.25 259.836C1027.92 257.724 1028.25 256.044 1028.25 254.796C1028.25 251.82 1027.2 249.276 1025.09 247.164C1023.07 245.148 1020.57 244.14 1017.6 244.14C1014.72 244.14 1012.22 245.148 1010.11 247.164C1008 249.276 1006.94 251.82 1006.94 254.796C1006.94 259.692 1009.44 263.868 1014.43 267.324C1019.52 270.876 1027.05 272.652 1037.04 272.652C1047.12 272.652 1054.27 270.684 1058.49 266.748C1062.81 262.812 1064.97 255.852 1064.97 245.868V219.948C1064.97 214.86 1065.6 211.644 1066.85 210.3C1068.09 209.052 1070.4 208.812 1073.76 209.58V208.14ZM1023.93 221.532C1024.41 217.884 1025.76 215.052 1027.97 213.036C1030.17 211.116 1032.72 210.156 1035.6 210.156C1038.57 210.156 1041.17 211.596 1043.37 214.476V238.956L1038.19 238.236C1033.77 237.66 1030.17 235.98 1027.39 233.196C1024.7 230.412 1023.55 226.524 1023.93 221.532ZM1118.39 205.26H1082.39V208.14H1089.59V268.62H1082.39V271.5H1111.19V254.364C1112.05 259.068 1113.59 262.908 1115.79 265.884C1118.1 268.86 1120.59 270.828 1123.28 271.788C1126.07 272.748 1128.71 273.228 1131.2 273.228C1133.79 273.228 1136.24 272.748 1138.55 271.788C1140.95 270.924 1142.72 269.1 1143.87 266.316C1145.03 263.628 1145.07 260.892 1144.02 258.108C1142.96 255.42 1141.09 253.5 1138.4 252.348C1135.81 251.196 1133.41 251.052 1131.2 251.916C1128.99 252.78 1127.41 253.932 1126.45 255.372C1125.49 256.908 1124.82 258.348 1124.43 259.692C1123.47 263.244 1122.18 265.02 1120.55 265.02C1118.72 265.02 1116.71 261.852 1114.5 255.516C1112.29 249.276 1111.19 242.652 1111.19 235.644V208.14H1118.39V205.26ZM1178.49 268.62V233.484C1178.49 225.228 1178.83 220.188 1179.5 218.364C1180.17 216.636 1180.89 215.148 1181.66 213.9C1183.1 211.404 1185.6 210.156 1189.15 210.156C1192.8 210.156 1195.34 210.636 1196.78 211.596V208.716C1192.17 205.452 1187.13 203.82 1181.66 203.82C1173.6 203.82 1167.45 205.74 1163.23 209.58C1159 213.42 1156.89 220.284 1156.89 230.172V268.62H1146.24V271.5H1156.89C1161.5 272.268 1165.58 274.476 1169.13 278.124C1172.68 281.868 1175.13 287.004 1176.48 293.532H1178.49V271.5H1195.2V268.62H1178.49Z" fill="url(#paint8_linear_21_73)"/>
<path d="M1448.9 199.492C1447.94 198.532 1446.11 197.668 1443.43 196.9C1440.74 196.228 1437.62 195.892 1434.07 195.892C1426.19 195.892 1421.25 198.244 1419.23 202.948C1414.43 197.956 1407.09 195.46 1397.2 195.46C1391.92 195.46 1387.55 196.66 1384.1 199.06C1380.74 201.556 1379.06 205.204 1379.06 210.004C1379.06 216.436 1381.55 221.38 1386.55 224.836C1391.54 228.388 1400.27 230.884 1412.75 232.324L1418.51 233.044V240.1C1418.51 248.452 1417.89 254.068 1416.64 256.948C1415.39 259.828 1412.9 261.268 1409.15 261.268C1405.51 261.268 1403.15 260.74 1402.1 259.684C1401.04 258.724 1400.66 257.572 1400.95 256.228C1401.23 254.98 1401.71 253.3 1402.39 251.188C1403.06 249.076 1403.39 247.396 1403.39 246.148C1403.39 243.172 1402.34 240.628 1400.23 238.516C1398.21 236.5 1395.71 235.492 1392.74 235.492C1389.86 235.492 1387.36 236.5 1385.25 238.516C1383.14 240.628 1382.08 243.172 1382.08 246.148C1382.08 251.044 1384.58 255.22 1389.57 258.676C1394.66 262.228 1402.19 264.004 1412.18 264.004C1422.26 264.004 1429.41 262.036 1433.63 258.1C1437.95 254.164 1440.11 247.204 1440.11 237.22V211.3C1440.11 206.212 1440.74 202.996 1441.99 201.652C1443.23 200.404 1445.54 200.164 1448.9 200.932V199.492ZM1399.07 212.884C1399.55 209.236 1400.9 206.404 1403.11 204.388C1405.31 202.468 1407.86 201.508 1410.74 201.508C1413.71 201.508 1416.31 202.948 1418.51 205.828V230.308L1413.33 229.588C1408.91 229.012 1405.31 227.332 1402.53 224.548C1399.84 221.764 1398.69 217.876 1399.07 212.884ZM1484.02 259.972V224.836C1484.02 216.58 1484.36 211.54 1485.03 209.716C1485.7 207.988 1486.42 206.5 1487.19 205.252C1488.63 202.756 1491.13 201.508 1494.68 201.508C1498.33 201.508 1500.87 201.988 1502.31 202.948V200.068C1497.7 196.804 1492.66 195.172 1487.19 195.172C1479.13 195.172 1472.98 197.092 1468.76 200.932C1464.54 204.772 1462.42 211.636 1462.42 221.524V259.972H1451.77V262.852H1462.42C1467.03 263.62 1471.11 265.828 1474.66 269.476C1478.22 273.22 1480.66 278.356 1482.01 284.884H1484.02V262.852H1500.73V259.972H1484.02Z" fill="url(#paint9_linear_21_73)"/>
<path d="M1072.21 398.26C1072.21 400.468 1071.59 402.292 1070.34 403.732C1069.09 405.268 1067.46 406.036 1065.44 406.036C1063.52 406.036 1061.51 405.22 1059.39 403.588C1057.38 401.956 1054.98 400.276 1052.19 398.548C1049.51 396.916 1046.24 396.1 1042.4 396.1C1029.35 396.1 1019.22 399.46 1012.02 406.18C1004.91 412.9 1001.36 423.22 1001.36 437.14C1001.36 466.228 1014.95 480.772 1042.11 480.772C1047.01 480.772 1052 479.572 1057.09 477.172C1062.27 474.772 1065.44 473.572 1066.59 473.572C1067.75 473.572 1068.71 474.148 1069.47 475.3C1070.24 476.548 1070.63 477.748 1070.63 478.9H1073.36V449.668H1070.48C1070.48 456.964 1067.6 463.492 1061.84 469.252C1056.18 475.012 1049.6 477.892 1042.11 477.892C1036.35 477.892 1031.99 474.772 1029.01 468.532C1026.03 462.388 1024.55 452.164 1024.55 437.86C1024.55 423.652 1026.03 413.62 1029.01 407.764C1032.08 401.908 1036.55 398.98 1042.4 398.98C1051.62 398.98 1056.23 407.188 1056.23 423.604V434.26H1047.15V437.14H1081.71V434.26H1074.95V398.26H1072.21ZM1119.21 401.14H1126.41V398.26H1090.41V401.14H1097.61V491.86H1090.41V494.74H1119.21V401.14ZM1206.38 401.14C1205.42 400.18 1203.59 399.316 1200.9 398.548C1198.22 397.876 1195.1 397.54 1191.54 397.54C1183.67 397.54 1178.73 399.892 1176.71 404.596C1171.91 399.604 1164.57 397.108 1154.68 397.108C1149.4 397.108 1145.03 398.308 1141.58 400.708C1138.22 403.204 1136.54 406.852 1136.54 411.652C1136.54 418.084 1139.03 423.028 1144.02 426.484C1149.02 430.036 1157.75 432.532 1170.23 433.972L1175.99 434.692V441.748C1175.99 450.1 1175.37 455.716 1174.12 458.596C1172.87 461.476 1170.38 462.916 1166.63 462.916C1162.98 462.916 1160.63 462.388 1159.58 461.332C1158.52 460.372 1158.14 459.22 1158.42 457.876C1158.71 456.628 1159.19 454.948 1159.86 452.836C1160.54 450.724 1160.87 449.044 1160.87 447.796C1160.87 444.82 1159.82 442.276 1157.7 440.164C1155.69 438.148 1153.19 437.14 1150.22 437.14C1147.34 437.14 1144.84 438.148 1142.73 440.164C1140.62 442.276 1139.56 444.82 1139.56 447.796C1139.56 452.692 1142.06 456.868 1147.05 460.324C1152.14 463.876 1159.67 465.652 1169.66 465.652C1179.74 465.652 1186.89 463.684 1191.11 459.748C1195.43 455.812 1197.59 448.852 1197.59 438.868V412.948C1197.59 407.86 1198.22 404.644 1199.46 403.3C1200.71 402.052 1203.02 401.812 1206.38 402.58V401.14ZM1156.55 414.532C1157.03 410.884 1158.38 408.052 1160.58 406.036C1162.79 404.116 1165.34 403.156 1168.22 403.156C1171.19 403.156 1173.78 404.596 1175.99 407.476V431.956L1170.81 431.236C1166.39 430.66 1162.79 428.98 1160.01 426.196C1157.32 423.412 1156.17 419.524 1156.55 414.532ZM1290.61 401.14H1297.81V398.26H1261.81V401.14H1269.01V441.46C1269.01 448.276 1268 453.124 1265.98 456.004C1263.97 458.884 1260.94 460.324 1256.91 460.324C1251.44 460.324 1247.07 457.444 1243.81 451.684V401.14H1251.01V398.26H1215.01V401.14H1222.21V461.62H1215.01V464.5H1243.81V457.012C1245.63 459.508 1248.46 461.62 1252.3 463.348C1256.24 465.172 1260.46 466.084 1264.97 466.084C1282.06 466.084 1290.61 456.82 1290.61 438.292V401.14ZM1306.38 431.38C1306.38 442.708 1309.69 451.3 1316.31 457.156C1322.94 463.012 1331.34 465.94 1341.51 465.94C1351.79 465.94 1359.42 463.348 1364.41 458.164C1369.4 453.076 1371.18 447.796 1369.74 442.324C1368.97 439.348 1367.34 437.14 1364.84 435.7C1362.44 434.356 1359.8 434.02 1356.92 434.692C1350.87 436.132 1347.85 439.636 1347.85 445.204C1347.85 446.644 1347.99 448.804 1348.28 451.684C1348.67 454.66 1348.81 456.82 1348.71 458.164C1348.62 459.508 1348.33 460.564 1347.85 461.332C1346.89 462.964 1344.63 463.588 1341.08 463.204C1332.44 461.86 1328.12 451.252 1328.12 431.38C1328.12 411.604 1335.18 401.716 1349.29 401.716C1352.55 401.716 1355.87 402.58 1359.23 404.308C1362.59 406.036 1365.08 408.1 1366.71 410.5L1368.73 409.06C1366.52 405.412 1363.21 402.484 1358.79 400.276C1354.38 398.068 1349.43 396.964 1343.96 396.964C1318.91 396.964 1306.38 408.436 1306.38 431.38ZM1443.89 427.06H1400.4C1401.36 410.164 1407.94 401.716 1420.13 401.716C1423.39 401.716 1427.09 402.484 1431.22 404.02C1435.44 405.556 1438.51 407.716 1440.43 410.5L1442.45 409.06C1440.34 405.508 1436.74 402.58 1431.65 400.276C1426.56 397.972 1421.47 396.82 1416.38 396.82C1411.39 396.82 1406.88 397.3 1402.85 398.26C1398.82 399.316 1394.88 401.044 1391.04 403.444C1387.2 405.844 1384.18 409.444 1381.97 414.244C1379.86 419.044 1378.8 424.852 1378.8 431.668C1378.8 443.284 1382.02 451.876 1388.45 457.444C1394.88 463.108 1402.66 465.94 1411.78 465.94C1420.99 465.94 1428.62 462.868 1434.67 456.724C1440.82 450.58 1443.89 440.692 1443.89 427.06ZM1400.26 429.94H1423.73C1423.73 438.772 1422.77 446.5 1420.85 453.124C1419.02 459.748 1416.05 463.06 1411.92 463.06C1407.79 463.06 1404.82 459.844 1402.99 453.412C1401.17 447.076 1400.26 439.78 1400.26 431.524V429.94Z" fill="url(#paint10_linear_21_73)"/>
<path d="M832.252 392.399C831.292 391.439 829.468 390.575 826.78 389.807C824.092 389.135 820.972 388.799 817.42 388.799C809.548 388.799 804.604 391.151 802.588 395.855C797.788 390.863 790.444 388.367 780.556 388.367C775.276 388.367 770.908 389.567 767.452 391.967C764.092 394.463 762.412 398.111 762.412 402.911C762.412 409.343 764.908 414.287 769.9 417.743C774.892 421.295 783.628 423.791 796.108 425.231L801.868 425.951V433.007C801.868 441.359 801.244 446.975 799.996 449.855C798.748 452.735 796.252 454.175 792.508 454.175C788.86 454.175 786.508 453.647 785.452 452.591C784.396 451.631 784.012 450.479 784.3 449.135C784.588 447.887 785.068 446.207 785.74 444.095C786.412 441.983 786.748 440.303 786.748 439.055C786.748 436.079 785.692 433.535 783.58 431.423C781.564 429.407 779.068 428.399 776.092 428.399C773.212 428.399 770.716 429.407 768.604 431.423C766.492 433.535 765.436 436.079 765.436 439.055C765.436 443.951 767.932 448.127 772.924 451.583C778.012 455.135 785.548 456.911 795.532 456.911C805.612 456.911 812.764 454.943 816.988 451.007C821.308 447.071 823.468 440.111 823.468 430.127V404.207C823.468 399.119 824.092 395.903 825.34 394.559C826.588 393.311 828.892 393.071 832.252 393.839V392.399ZM782.428 405.791C782.908 402.143 784.252 399.311 786.46 397.295C788.668 395.375 791.212 394.415 794.092 394.415C797.068 394.415 799.66 395.855 801.868 398.735V423.215L796.684 422.495C792.268 421.919 788.668 420.239 785.884 417.455C783.196 414.671 782.044 410.783 782.428 405.791Z" fill="url(#paint11_linear_21_73)"/>
</g>
<g opacity="0.8" filter="url(#filter1_f_21_73)">
<path d="M294.649 347.862C294.649 355.954 301.209 362.513 309.301 362.513V362.513C317.392 362.513 323.952 355.954 323.952 347.862V270.589C323.952 262.497 317.392 255.937 309.301 255.937V255.937C301.209 255.937 294.649 262.497 294.649 270.588V347.862Z" fill="url(#paint12_linear_21_73)"/>
<rect width="35.7123" height="213.152" rx="17.8562" transform="matrix(1 0 0 -1 485.288 361.757)" fill="url(#paint13_linear_21_73)"/>
<rect width="18.314" height="84.0311" rx="9.157" transform="matrix(1 0 0 -1 244 374.738)" fill="url(#paint14_linear_21_73)"/>
<rect width="31.1338" height="127.071" rx="15.5669" transform="matrix(1 0 0 -1 355.851 325.563)" fill="url(#paint15_linear_21_73)"/>
<rect width="33.8809" height="155.765" rx="16.9405" transform="matrix(1 0 0 -1 419.162 290.765)" fill="url(#paint16_linear_21_73)"/>
</g>
<path d="M367.855 26.0842C337.563 15.8776 305.758 13.5338 274.626 19.214C243.494 24.8942 213.774 38.4636 187.51 58.9892C161.245 79.5147 139.059 106.509 122.477 138.117C105.894 169.725 95.3099 205.196 91.4508 242.09C87.5916 278.985 90.5494 316.428 100.121 351.846C109.692 387.263 125.65 419.814 146.897 447.26C168.144 474.706 194.176 496.397 223.203 510.84C252.23 525.283 283.563 532.136 315.048 530.928L312.347 432.86C292.862 433.608 273.471 429.366 255.507 420.428C237.544 411.49 221.433 398.067 208.285 381.081C195.136 364.096 185.26 343.952 179.337 322.033C173.414 300.115 171.583 276.943 173.971 254.11C176.36 231.278 182.91 209.327 193.172 189.766C203.434 170.205 217.164 153.499 233.418 140.797C249.672 128.095 268.065 119.697 287.331 116.182C306.597 112.667 326.28 114.117 345.026 120.434L367.855 26.0842Z" fill="url(#paint17_linear_21_73)"/>
<path d="M153.361 424.042C141.046 462.516 168.855 502.118 209.224 503.597L679.704 520.834L68 542.938L281.765 25.9056L185.44 323.824L153.361 424.042Z" fill="url(#paint18_linear_21_73)" stroke="white" stroke-width="2"/>
<rect x="279.325" y="349.084" width="82.5358" height="140.796" rx="22" fill="url(#paint19_linear_21_73)" stroke="white" stroke-width="2"/>
<rect x="568.387" y="94.9077" width="82.5358" height="285.056" rx="22" fill="url(#paint20_linear_21_73)" stroke="white" stroke-width="2"/>
<rect x="182.971" y="420.482" width="82.5358" height="112.237" rx="22" fill="url(#paint21_linear_21_73)" stroke="white" stroke-width="2"/>
<rect x="375.679" y="249.127" width="82.5358" height="169.355" rx="22" fill="url(#paint22_linear_21_73)" stroke="white" stroke-width="2"/>
<rect x="472.033" y="139.65" width="82.5358" height="207.434" rx="22" fill="url(#paint23_linear_21_73)" stroke="white" stroke-width="2"/>
<defs>
<filter id="filter0_f_21_73" x="746.412" y="179.172" width="771.899" height="331.567" filterUnits="userSpaceOnUse" color-interpolation-filters="sRGB">
<feFlood flood-opacity="0" result="BackgroundImageFix"/>
<feBlend mode="normal" in="SourceGraphic" in2="BackgroundImageFix" result="shape"/>
<feGaussianBlur stdDeviation="8" result="effect1_foregroundBlur_21_73"/>
</filter>
<filter id="filter1_f_21_73" x="217" y="108" width="331" height="293.738" filterUnits="userSpaceOnUse" color-interpolation-filters="sRGB">
<feFlood flood-opacity="0" result="BackgroundImageFix"/>
<feBlend mode="normal" in="SourceGraphic" in2="BackgroundImageFix" result="shape"/>
<feGaussianBlur stdDeviation="13.5" result="effect1_foregroundBlur_21_73"/>
</filter>
<linearGradient id="paint0_linear_21_73" x1="1617.54" y1="332.738" x2="629.768" y2="318.329" gradientUnits="userSpaceOnUse">
<stop stop-color="#434FBF" stop-opacity="0.73"/>
<stop offset="1" stop-color="#4552BF" stop-opacity="0.26"/>
</linearGradient>
<linearGradient id="paint1_linear_21_73" x1="1202.8" y1="194.292" x2="1202.8" y2="475.798" gradientUnits="userSpaceOnUse">
<stop stop-color="#69C0FF"/>
<stop offset="1" stop-color="#FFE8E8" stop-opacity="0.65"/>
</linearGradient>
<linearGradient id="paint2_linear_21_73" x1="1280.39" y1="135.899" x2="643.892" y2="129.804" gradientUnits="userSpaceOnUse">
<stop stop-color="#434FBF" stop-opacity="0.73"/>
<stop offset="1" stop-color="#4552BF" stop-opacity="0.26"/>
</linearGradient>
<linearGradient id="paint3_linear_21_73" x1="1013.18" y1="0" x2="1013.18" y2="276.326" gradientUnits="userSpaceOnUse">
<stop stop-color="#69C0FF"/>
<stop offset="1" stop-color="#FFE8E8" stop-opacity="0.65"/>
</linearGradient>
<linearGradient id="paint4_linear_21_73" x1="1621.89" y1="142.288" x2="1189.95" y2="138.748" gradientUnits="userSpaceOnUse">
<stop stop-color="#434FBF" stop-opacity="0.73"/>
<stop offset="1" stop-color="#4552BF" stop-opacity="0.26"/>
</linearGradient>
<linearGradient id="paint5_linear_21_73" x1="1440.55" y1="34.5408" x2="1440.55" y2="253.626" gradientUnits="userSpaceOnUse">
<stop stop-color="#69C0FF"/>
<stop offset="1" stop-color="#FFE8E8" stop-opacity="0.65"/>
</linearGradient>
<linearGradient id="paint6_linear_21_73" x1="917.358" y1="330.707" x2="622.586" y2="328.402" gradientUnits="userSpaceOnUse">
<stop stop-color="#434FBF" stop-opacity="0.73"/>
<stop offset="1" stop-color="#4552BF" stop-opacity="0.26"/>
</linearGradient>
<linearGradient id="paint7_linear_21_73" x1="793.61" y1="253.659" x2="793.61" y2="410.323" gradientUnits="userSpaceOnUse">
<stop stop-color="#69C0FF"/>
<stop offset="1" stop-color="#FFE8E8" stop-opacity="0.65"/>
</linearGradient>
<linearGradient id="paint8_linear_21_73" x1="1063.59" y1="84.8264" x2="1059.4" y2="468.108" gradientUnits="userSpaceOnUse">
<stop stop-color="#8F80CC" stop-opacity="0.31"/>
<stop offset="1" stop-color="#3300FF"/>
</linearGradient>
<linearGradient id="paint9_linear_21_73" x1="1461.56" y1="95.1903" x2="1457.2" y2="355.09" gradientUnits="userSpaceOnUse">
<stop stop-color="#8F80CC" stop-opacity="0.31"/>
<stop offset="1" stop-color="#3300FF"/>
</linearGradient>
<linearGradient id="paint10_linear_21_73" x1="1292.37" y1="244.826" x2="1289.23" y2="628.128" gradientUnits="userSpaceOnUse">
<stop stop-color="#8F80CC" stop-opacity="0.31"/>
<stop offset="1" stop-color="#3300FF"/>
</linearGradient>
<linearGradient id="paint11_linear_21_73" x1="815.082" y1="290.893" x2="810.52" y2="533.563" gradientUnits="userSpaceOnUse">
<stop stop-color="#8F80CC" stop-opacity="0.31"/>
<stop offset="1" stop-color="#3300FF"/>
</linearGradient>
<linearGradient id="paint12_linear_21_73" x1="314.593" y1="349.988" x2="331.001" y2="346.89" gradientUnits="userSpaceOnUse">
<stop stop-color="#001AFF" stop-opacity="0.72"/>
<stop offset="0.9999" stop-color="#FEFEFF" stop-opacity="0.651823"/>
<stop offset="1" stop-color="white" stop-opacity="0"/>
</linearGradient>
<linearGradient id="paint13_linear_21_73" x1="24.306" y1="25.0512" x2="44.7453" y2="27.4027" gradientUnits="userSpaceOnUse">
<stop stop-color="#001AFF" stop-opacity="0.72"/>
<stop offset="0.9999" stop-color="#FEFEFF" stop-opacity="0.651823"/>
<stop offset="1" stop-color="white" stop-opacity="0"/>
</linearGradient>
<linearGradient id="paint14_linear_21_73" x1="12.4646" y1="9.87595" x2="22.8524" y2="11.4305" gradientUnits="userSpaceOnUse">
<stop stop-color="#001AFF" stop-opacity="0.72"/>
<stop offset="0.9999" stop-color="#FEFEFF" stop-opacity="0.651823"/>
<stop offset="1" stop-color="white" stop-opacity="0"/>
</linearGradient>
<linearGradient id="paint15_linear_21_73" x1="21.1899" y1="14.9344" x2="38.7476" y2="17.8883" gradientUnits="userSpaceOnUse">
<stop stop-color="#001AFF" stop-opacity="0.72"/>
<stop offset="0.9999" stop-color="#FEFEFF" stop-opacity="0.651823"/>
<stop offset="1" stop-color="white" stop-opacity="0"/>
</linearGradient>
<linearGradient id="paint16_linear_21_73" x1="23.0596" y1="18.3066" x2="42.2786" y2="21.1772" gradientUnits="userSpaceOnUse">
<stop stop-color="#001AFF" stop-opacity="0.72"/>
<stop offset="0.9999" stop-color="#FEFEFF" stop-opacity="0.651823"/>
<stop offset="1" stop-color="white" stop-opacity="0"/>
</linearGradient>
<linearGradient id="paint17_linear_21_73" x1="361.139" y1="-17.1242" x2="345.776" y2="530.972" gradientUnits="userSpaceOnUse">
<stop stop-color="#FF0000"/>
<stop offset="1" stop-color="#0000FF" stop-opacity="0"/>
</linearGradient>
<linearGradient id="paint18_linear_21_73" x1="58.8045" y1="551.498" x2="527.533" y2="181.865" gradientUnits="userSpaceOnUse">
<stop stop-color="#00810D"/>
<stop offset="1" stop-color="#0500FF"/>
</linearGradient>
<linearGradient id="paint19_linear_21_73" x1="363.842" y1="490.018" x2="275.168" y2="489.21" gradientUnits="userSpaceOnUse">
<stop stop-color="white" stop-opacity="0.69"/>
<stop offset="1" stop-color="#0500FF" stop-opacity="0.31"/>
</linearGradient>
<linearGradient id="paint20_linear_21_73" x1="652.904" y1="379.231" x2="564.225" y2="378.829" gradientUnits="userSpaceOnUse">
<stop stop-color="white" stop-opacity="0.69"/>
<stop offset="1" stop-color="#0500FF" stop-opacity="0.31"/>
</linearGradient>
<linearGradient id="paint21_linear_21_73" x1="267.488" y1="533.029" x2="178.819" y2="532.019" gradientUnits="userSpaceOnUse">
<stop stop-color="white" stop-opacity="0.69"/>
<stop offset="1" stop-color="#0500FF" stop-opacity="0.31"/>
</linearGradient>
<linearGradient id="paint22_linear_21_73" x1="460.196" y1="418.448" x2="371.52" y2="417.774" gradientUnits="userSpaceOnUse">
<stop stop-color="white" stop-opacity="0.69"/>
<stop offset="1" stop-color="#0500FF" stop-opacity="0.31"/>
</linearGradient>
<linearGradient id="paint23_linear_21_73" x1="556.55" y1="346.82" x2="467.872" y2="346.269" gradientUnits="userSpaceOnUse">
<stop stop-color="white" stop-opacity="0.69"/>
<stop offset="1" stop-color="#0500FF" stop-opacity="0.31"/>
</linearGradient>
</defs>
</svg>
