<svg width="1354" height="522" viewBox="0 0 1354 522" fill="none" xmlns="http://www.w3.org/2000/svg">
<g filter="url(#filter0_f_0_1)">
<path d="M668.9 260.352H666.98C666.98 265.472 665.348 270.208 662.084 274.56C658.82 278.912 654.148 281.088 648.068 281.088C644.676 281.088 641.86 279.104 639.62 275.136C637.444 271.168 636.356 264.384 636.356 254.784C636.356 245.184 637.444 238.4 639.62 234.432C641.86 230.464 645.316 228.48 649.988 228.48C654.724 228.48 658.692 229.952 661.892 232.896C665.156 235.84 667.172 240 667.94 245.376H669.86C668.964 239.04 666.724 234.304 663.14 231.168C659.62 228.096 655.396 226.56 650.468 226.56C640.932 226.56 633.604 228.832 628.484 233.376C623.428 237.984 620.9 245.152 620.9 254.88C620.9 264.672 623.364 271.808 628.292 276.288C633.284 280.768 639.876 283.008 648.068 283.008C652.484 283.008 656.772 281.824 660.932 279.456C662.276 278.624 663.364 278.208 664.196 278.208C665.092 278.208 665.796 278.592 666.308 279.36C666.82 280.192 667.076 280.992 667.076 281.76H668.9V260.352ZM726.459 229.92H731.259V228H707.259V229.92H712.059V256.8C712.059 261.344 711.387 264.576 710.043 266.496C708.699 268.416 706.683 269.376 703.995 269.376C700.347 269.376 697.435 267.456 695.259 263.616V229.92H700.059V228H676.059V229.92H680.859V290.4H676.059V292.32H695.259V267.168C696.475 268.896 698.363 270.336 700.923 271.488C703.483 272.64 706.299 273.216 709.371 273.216C720.763 273.216 726.459 267.04 726.459 254.688V229.92ZM784.494 229.92C783.854 229.28 782.638 228.704 780.846 228.192C779.054 227.744 776.974 227.52 774.606 227.52C769.358 227.52 766.062 229.088 764.718 232.224C761.518 228.896 756.622 227.232 750.03 227.232C746.51 227.232 743.598 228.032 741.294 229.632C739.054 231.296 737.934 233.728 737.934 236.928C737.934 241.216 739.598 244.512 742.926 246.816C746.254 249.184 752.078 250.848 760.398 251.808L764.238 252.288V256.992C764.238 262.56 763.822 266.304 762.99 268.224C762.158 270.144 760.494 271.104 757.998 271.104C755.566 271.104 753.998 270.752 753.294 270.048C752.59 269.408 752.334 268.64 752.526 267.744C752.718 266.912 753.038 265.792 753.486 264.384C753.934 262.976 754.158 261.856 754.158 261.024C754.158 259.04 753.454 257.344 752.046 255.936C750.702 254.592 749.038 253.92 747.054 253.92C745.134 253.92 743.47 254.592 742.062 255.936C740.654 257.344 739.95 259.04 739.95 261.024C739.95 264.288 741.614 267.072 744.942 269.376C748.334 271.744 753.358 272.928 760.014 272.928C766.734 272.928 771.502 271.616 774.318 268.992C777.198 266.368 778.638 261.728 778.638 255.072V237.792C778.638 234.4 779.054 232.256 779.886 231.36C780.718 230.528 782.254 230.368 784.494 230.88V229.92ZM751.278 238.848C751.598 236.416 752.494 234.528 753.966 233.184C755.438 231.904 757.134 231.264 759.054 231.264C761.038 231.264 762.766 232.224 764.238 234.144V250.464L760.782 249.984C757.838 249.6 755.438 248.48 753.582 246.624C751.79 244.768 751.022 242.176 751.278 238.848ZM814.246 228H790.246V229.92H795.046V270.24H790.246V272.16H809.446V260.736C810.022 263.872 811.046 266.432 812.518 268.416C814.054 270.4 815.718 271.712 817.51 272.352C819.366 272.992 821.126 273.312 822.79 273.312C824.518 273.312 826.15 272.992 827.686 272.352C829.286 271.776 830.47 270.56 831.238 268.704C832.006 266.912 832.038 265.088 831.334 263.232C830.63 261.44 829.382 260.16 827.59 259.392C825.862 258.624 824.262 258.528 822.79 259.104C821.318 259.68 820.262 260.448 819.622 261.408C818.982 262.432 818.534 263.392 818.278 264.288C817.638 266.656 816.774 267.84 815.686 267.84C814.47 267.84 813.126 265.728 811.654 261.504C810.182 257.344 809.446 252.928 809.446 248.256V229.92H814.246V228ZM854.317 270.24V246.816C854.317 241.312 854.541 237.952 854.989 236.736C855.437 235.584 855.917 234.592 856.429 233.76C857.389 232.096 859.053 231.264 861.421 231.264C863.853 231.264 865.549 231.584 866.509 232.224V230.304C863.437 228.128 860.077 227.04 856.429 227.04C851.053 227.04 846.957 228.32 844.141 230.88C841.325 233.44 839.917 238.016 839.917 244.608V270.24H832.812V272.16H839.917C842.989 272.672 845.709 274.144 848.077 276.576C850.445 279.072 852.077 282.496 852.973 286.848H854.317V272.16H865.453V270.24H854.317Z" fill="#60A081"/>
</g>
<g filter="url(#filter1_f_0_1)">
<path d="M737.096 374C737.096 375.472 736.68 376.688 735.848 377.648C735.016 378.672 733.928 379.184 732.584 379.184C731.304 379.184 729.96 378.64 728.552 377.552C727.208 376.464 725.608 375.344 723.752 374.192C721.96 373.104 719.784 372.56 717.224 372.56C708.52 372.56 701.768 374.8 696.968 379.28C692.232 383.76 689.864 390.64 689.864 399.92C689.864 419.312 698.92 429.008 717.032 429.008C720.296 429.008 723.624 428.208 727.016 426.608C730.472 425.008 732.584 424.208 733.352 424.208C734.12 424.208 734.76 424.592 735.272 425.36C735.784 426.192 736.04 426.992 736.04 427.76H737.864V408.272H735.944C735.944 413.136 734.024 417.488 730.184 421.328C726.408 425.168 722.024 427.088 717.032 427.088C713.192 427.088 710.28 425.008 708.296 420.848C706.312 416.752 705.32 409.936 705.32 400.4C705.32 390.928 706.312 384.24 708.296 380.336C710.344 376.432 713.32 374.48 717.224 374.48C723.368 374.48 726.44 379.952 726.44 390.896V398H720.392V399.92H743.432V398H738.92V374H737.096ZM768.431 375.92H773.231V374H749.231V375.92H754.031V436.4H749.231V438.32H768.431V375.92ZM826.541 375.92C825.901 375.28 824.685 374.704 822.893 374.192C821.101 373.744 819.021 373.52 816.653 373.52C811.405 373.52 808.109 375.088 806.765 378.224C803.565 374.896 798.669 373.232 792.077 373.232C788.557 373.232 785.645 374.032 783.341 375.632C781.101 377.296 779.981 379.728 779.981 382.928C779.981 387.216 781.645 390.512 784.973 392.816C788.301 395.184 794.125 396.848 802.445 397.808L806.285 398.288V402.992C806.285 408.56 805.869 412.304 805.037 414.224C804.205 416.144 802.541 417.104 800.045 417.104C797.613 417.104 796.045 416.752 795.341 416.048C794.637 415.408 794.381 414.64 794.573 413.744C794.765 412.912 795.085 411.792 795.533 410.384C795.981 408.976 796.205 407.856 796.205 407.024C796.205 405.04 795.501 403.344 794.093 401.936C792.749 400.592 791.085 399.92 789.101 399.92C787.181 399.92 785.517 400.592 784.109 401.936C782.701 403.344 781.997 405.04 781.997 407.024C781.997 410.288 783.661 413.072 786.989 415.376C790.381 417.744 795.405 418.928 802.061 418.928C808.781 418.928 813.549 417.616 816.365 414.992C819.245 412.368 820.685 407.728 820.685 401.072V383.792C820.685 380.4 821.101 378.256 821.933 377.36C822.765 376.528 824.301 376.368 826.541 376.88V375.92ZM793.325 384.848C793.645 382.416 794.541 380.528 796.013 379.184C797.485 377.904 799.181 377.264 801.101 377.264C803.085 377.264 804.813 378.224 806.285 380.144V396.464L802.829 395.984C799.885 395.6 797.485 394.48 795.629 392.624C793.837 390.768 793.069 388.176 793.325 384.848ZM882.693 375.92H887.493V374H863.493V375.92H868.293V402.8C868.293 407.344 867.621 410.576 866.277 412.496C864.933 414.416 862.917 415.376 860.229 415.376C856.581 415.376 853.669 413.456 851.493 409.616V375.92H856.293V374H832.293V375.92H837.093V416.24H832.293V418.16H851.493V413.168C852.709 414.832 854.597 416.24 857.157 417.392C859.781 418.608 862.597 419.216 865.605 419.216C876.997 419.216 882.693 413.04 882.693 400.688V375.92ZM893.208 396.08C893.208 403.632 895.416 409.36 899.832 413.264C904.248 417.168 909.848 419.12 916.632 419.12C923.48 419.12 928.568 417.392 931.896 413.936C935.224 410.544 936.408 407.024 935.448 403.376C934.936 401.392 933.848 399.92 932.184 398.96C930.584 398.064 928.824 397.84 926.904 398.288C922.872 399.248 920.856 401.584 920.856 405.296C920.856 406.256 920.952 407.696 921.144 409.616C921.4 411.6 921.496 413.04 921.432 413.936C921.368 414.832 921.176 415.536 920.856 416.048C920.216 417.136 918.712 417.552 916.344 417.296C910.584 416.4 907.704 409.328 907.704 396.08C907.704 382.896 912.408 376.304 921.816 376.304C923.992 376.304 926.2 376.88 928.44 378.032C930.68 379.184 932.344 380.56 933.432 382.16L934.776 381.2C933.304 378.768 931.096 376.816 928.152 375.344C925.208 373.872 921.912 373.136 918.264 373.136C901.56 373.136 893.208 380.784 893.208 396.08ZM984.881 393.2H955.889C956.529 381.936 960.913 376.304 969.041 376.304C971.217 376.304 973.681 376.816 976.433 377.84C979.249 378.864 981.297 380.304 982.577 382.16L983.921 381.2C982.513 378.832 980.113 376.88 976.721 375.344C973.329 373.808 969.937 373.04 966.545 373.04C963.217 373.04 960.209 373.36 957.521 374C954.833 374.704 952.209 375.856 949.649 377.456C947.089 379.056 945.073 381.456 943.601 384.656C942.193 387.856 941.489 391.728 941.489 396.272C941.489 404.016 943.633 409.744 947.921 413.456C952.209 417.232 957.393 419.12 963.473 419.12C969.617 419.12 974.705 417.072 978.737 412.976C982.833 408.88 984.881 402.288 984.881 393.2ZM955.793 395.12H971.441C971.441 401.008 970.801 406.16 969.521 410.576C968.305 414.992 966.321 417.2 963.569 417.2C960.817 417.2 958.833 415.056 957.617 410.768C956.401 406.544 955.793 401.68 955.793 396.176V395.12Z" fill="#60A081"/>
</g>
<g filter="url(#filter2_d_0_1)">
<path d="M663.763 375C663.763 372.148 662.957 369.792 661.345 367.932C659.733 365.948 657.625 364.956 655.021 364.956C652.541 364.956 649.937 366.01 647.209 368.118C644.605 370.226 641.505 372.396 637.909 374.628C634.437 376.736 630.221 377.79 625.261 377.79C608.397 377.79 595.315 373.45 586.015 364.77C576.839 356.09 572.251 342.76 572.251 324.78C572.251 287.208 589.797 268.422 624.889 268.422C631.213 268.422 637.661 269.972 644.233 273.072C650.929 276.172 655.021 277.722 656.509 277.722C657.997 277.722 659.237 276.978 660.229 275.49C661.221 273.878 661.717 272.328 661.717 270.84H665.251V308.598H661.531C661.531 299.174 657.811 290.742 650.371 283.302C643.055 275.862 634.561 272.142 624.889 272.142C617.449 272.142 611.807 276.172 607.963 284.232C604.119 292.168 602.197 305.374 602.197 323.85C602.197 342.202 604.119 355.16 607.963 362.724C611.931 370.288 617.697 374.07 625.261 374.07C637.165 374.07 643.117 363.468 643.117 342.264V328.5H631.399V324.78H676.039V328.5H667.297V375H663.763ZM724.473 371.28H733.773V375H687.273V371.28H696.573V254.1H687.273V250.38H724.473V371.28ZM837.061 371.28C835.821 372.52 833.465 373.636 829.993 374.628C826.521 375.496 822.491 375.93 817.903 375.93C807.735 375.93 801.349 372.892 798.745 366.816C792.545 373.264 783.059 376.488 770.287 376.488C763.467 376.488 757.825 374.938 753.361 371.838C749.021 368.614 746.851 363.902 746.851 357.702C746.851 349.394 750.075 343.008 756.523 338.544C762.971 333.956 774.255 330.732 790.375 328.872L797.815 327.942V318.828C797.815 308.04 797.009 300.786 795.397 297.066C793.785 293.346 790.561 291.486 785.725 291.486C781.013 291.486 777.975 292.168 776.611 293.532C775.247 294.772 774.751 296.26 775.123 297.996C775.495 299.608 776.115 301.778 776.983 304.506C777.851 307.234 778.285 309.404 778.285 311.016C778.285 314.86 776.921 318.146 774.193 320.874C771.589 323.478 768.365 324.78 764.521 324.78C760.801 324.78 757.577 323.478 754.849 320.874C752.121 318.146 750.757 314.86 750.757 311.016C750.757 304.692 753.981 299.298 760.429 294.834C767.001 290.246 776.735 287.952 789.631 287.952C802.651 287.952 811.889 290.494 817.345 295.578C822.925 300.662 825.715 309.652 825.715 322.548V356.028C825.715 362.6 826.521 366.754 828.133 368.49C829.745 370.102 832.721 370.412 837.061 369.42V371.28ZM772.705 353.982C773.325 358.694 775.061 362.352 777.913 364.956C780.765 367.436 784.051 368.676 787.771 368.676C791.615 368.676 794.963 366.816 797.815 363.096V331.476L791.119 332.406C785.415 333.15 780.765 335.32 777.169 338.916C773.697 342.512 772.209 347.534 772.705 353.982ZM945.857 371.28H955.157V375H908.657V371.28H917.957V319.2C917.957 310.396 916.655 304.134 914.051 300.414C911.447 296.694 907.541 294.834 902.333 294.834C895.265 294.834 889.623 298.554 885.407 305.994V371.28H894.707V375H848.207V371.28H857.507V293.16H848.207V289.44H885.407V299.112C887.763 295.888 891.421 293.16 896.381 290.928C901.465 288.572 906.921 287.394 912.749 287.394C934.821 287.394 945.857 299.36 945.857 323.292V371.28ZM966.229 332.22C966.229 317.588 970.507 306.49 979.063 298.926C987.619 291.362 998.469 287.58 1011.61 287.58C1024.88 287.58 1034.74 290.928 1041.19 297.624C1047.64 304.196 1049.93 311.016 1048.07 318.084C1047.08 321.928 1044.97 324.78 1041.75 326.64C1038.65 328.376 1035.24 328.81 1031.52 327.942C1023.7 326.082 1019.8 321.556 1019.8 314.364C1019.8 312.504 1019.98 309.714 1020.36 305.994C1020.85 302.15 1021.04 299.36 1020.91 297.624C1020.79 295.888 1020.42 294.524 1019.8 293.532C1018.56 291.424 1015.64 290.618 1011.06 291.114C999.895 292.85 994.315 306.552 994.315 332.22C994.315 357.764 1003.43 370.536 1021.66 370.536C1025.87 370.536 1030.15 369.42 1034.49 367.188C1038.83 364.956 1042.06 362.29 1044.16 359.19L1046.77 361.05C1043.92 365.762 1039.64 369.544 1033.93 372.396C1028.23 375.248 1021.84 376.674 1014.78 376.674C982.411 376.674 966.229 361.856 966.229 332.22ZM1143.85 337.8H1087.67C1088.91 359.624 1097.41 370.536 1113.16 370.536C1117.37 370.536 1122.15 369.544 1127.48 367.56C1132.93 365.576 1136.9 362.786 1139.38 359.19L1141.99 361.05C1139.26 365.638 1134.61 369.42 1128.04 372.396C1121.46 375.372 1114.89 376.86 1108.32 376.86C1101.87 376.86 1096.04 376.24 1090.84 375C1085.63 373.636 1080.54 371.404 1075.58 368.304C1070.62 365.204 1066.72 360.554 1063.87 354.354C1061.14 348.154 1059.77 340.652 1059.77 331.848C1059.77 316.844 1063.93 305.746 1072.24 298.554C1080.54 291.238 1090.59 287.58 1102.37 287.58C1114.27 287.58 1124.13 291.548 1131.94 299.484C1139.88 307.42 1143.85 320.192 1143.85 337.8ZM1087.49 334.08H1117.81C1117.81 322.672 1116.57 312.69 1114.09 304.134C1111.73 295.578 1107.89 291.3 1102.55 291.3C1097.22 291.3 1093.38 295.454 1091.02 303.762C1088.67 311.946 1087.49 321.37 1087.49 332.034V334.08Z" fill="url(#paint0_linear_0_1)"/>
<path d="M538.357 179.34H534.757C534.757 169.74 531.697 160.86 525.577 152.7C519.457 144.54 510.697 140.46 499.297 140.46C492.937 140.46 487.657 144.18 483.457 151.62C479.377 159.06 477.337 171.78 477.337 189.78C477.337 207.78 479.377 220.5 483.457 227.94C487.657 235.38 494.137 239.1 502.897 239.1C511.777 239.1 519.217 236.34 525.217 230.82C531.337 225.3 535.117 217.5 536.557 207.42H540.157C538.477 219.3 534.277 228.18 527.557 234.06C520.957 239.82 513.037 242.7 503.797 242.7C485.917 242.7 472.177 238.44 462.577 229.92C453.097 221.28 448.357 207.84 448.357 189.6C448.357 171.24 452.977 157.86 462.217 149.46C471.577 141.06 483.937 136.86 499.297 136.86C507.577 136.86 515.617 139.08 523.417 143.52C525.937 145.08 527.977 145.86 529.537 145.86C531.217 145.86 532.537 145.14 533.497 143.7C534.457 142.14 534.937 140.64 534.937 139.2H538.357V179.34ZM646.28 236.4H655.28V240H610.28V236.4H619.28V186C619.28 177.48 618.02 171.42 615.5 167.82C612.98 164.22 609.2 162.42 604.16 162.42C597.32 162.42 591.86 166.02 587.78 173.22V236.4H596.78V240H551.78V236.4H560.78V123H551.78V119.4H587.78V166.56C590.06 163.32 593.6 160.62 598.4 158.46C603.2 156.3 608.48 155.22 614.24 155.22C635.6 155.22 646.28 166.8 646.28 189.96V236.4ZM755.096 236.4C753.896 237.6 751.616 238.68 748.256 239.64C744.896 240.48 740.996 240.9 736.556 240.9C726.716 240.9 720.536 237.96 718.016 232.08C712.016 238.32 702.836 241.44 690.476 241.44C683.876 241.44 678.416 239.94 674.096 236.94C669.896 233.82 667.796 229.26 667.796 223.26C667.796 215.22 670.916 209.04 677.156 204.72C683.396 200.28 694.316 197.16 709.916 195.36L717.116 194.46V185.64C717.116 175.2 716.336 168.18 714.776 164.58C713.216 160.98 710.096 159.18 705.416 159.18C700.856 159.18 697.916 159.84 696.596 161.16C695.276 162.36 694.796 163.8 695.156 165.48C695.516 167.04 696.116 169.14 696.956 171.78C697.796 174.42 698.216 176.52 698.216 178.08C698.216 181.8 696.896 184.98 694.256 187.62C691.736 190.14 688.616 191.4 684.896 191.4C681.296 191.4 678.176 190.14 675.536 187.62C672.896 184.98 671.576 181.8 671.576 178.08C671.576 171.96 674.696 166.74 680.936 162.42C687.296 157.98 696.716 155.76 709.196 155.76C721.796 155.76 730.736 158.22 736.016 163.14C741.416 168.06 744.116 176.76 744.116 189.24V221.64C744.116 228 744.896 232.02 746.456 233.7C748.016 235.26 750.896 235.56 755.096 234.6V236.4ZM692.816 219.66C693.416 224.22 695.096 227.76 697.856 230.28C700.616 232.68 703.796 233.88 707.396 233.88C711.116 233.88 714.356 232.08 717.116 228.48V197.88L710.636 198.78C705.116 199.5 700.616 201.6 697.136 205.08C693.776 208.56 692.336 213.42 692.816 219.66ZM810.882 240H765.882V236.4H774.882V160.8H765.882V157.2H801.882V178.62C802.962 172.74 804.882 167.94 807.642 164.22C810.522 160.5 813.642 158.04 817.002 156.84C820.482 155.64 823.782 155.04 826.902 155.04C830.142 155.04 833.202 155.64 836.082 156.84C839.082 157.92 841.302 160.2 842.742 163.68C844.182 167.04 844.242 170.46 842.922 173.94C841.602 177.3 839.262 179.7 835.902 181.14C832.662 182.58 829.662 182.76 826.902 181.68C824.142 180.6 822.162 179.16 820.962 177.36C819.762 175.44 818.922 173.64 818.442 171.96C817.242 167.52 815.622 165.3 813.582 165.3C811.302 165.3 808.782 169.26 806.022 177.18C803.262 184.98 801.882 193.26 801.882 202.02V236.4H810.882V240ZM886.013 160.8V204.72C886.013 215.04 886.433 221.34 887.273 223.62C888.113 225.78 889.013 227.64 889.973 229.2C891.773 232.32 894.893 233.88 899.333 233.88C903.893 233.88 907.073 233.28 908.873 232.08V235.68C903.113 239.76 896.813 241.8 889.973 241.8C879.893 241.8 872.213 239.4 866.933 234.6C861.653 229.8 859.013 221.22 859.013 208.86V160.8H845.693V157.2H859.013C864.773 156.24 869.873 153.48 874.313 148.92C878.753 144.24 881.813 137.82 883.493 129.66H886.013V157.2H906.893V160.8H886.013Z" fill="url(#paint1_linear_0_1)"/>
<path d="M1058.19 226.08C1057.55 226.72 1056.34 227.296 1054.55 227.808C1052.75 228.256 1050.67 228.48 1048.31 228.48C1043.06 228.48 1039.76 226.912 1038.42 223.776C1035.22 227.104 1030.32 228.768 1023.73 228.768C1020.21 228.768 1017.3 227.968 1014.99 226.368C1012.75 224.704 1011.63 222.272 1011.63 219.072C1011.63 214.784 1013.3 211.488 1016.63 209.184C1019.95 206.816 1025.78 205.152 1034.1 204.192L1037.94 203.712V199.008C1037.94 193.44 1037.52 189.696 1036.69 187.776C1035.86 185.856 1034.19 184.896 1031.7 184.896C1029.27 184.896 1027.7 185.248 1026.99 185.952C1026.29 186.592 1026.03 187.36 1026.23 188.256C1026.42 189.088 1026.74 190.208 1027.19 191.616C1027.63 193.024 1027.86 194.144 1027.86 194.976C1027.86 196.96 1027.15 198.656 1025.75 200.064C1024.4 201.408 1022.74 202.08 1020.75 202.08C1018.83 202.08 1017.17 201.408 1015.76 200.064C1014.35 198.656 1013.65 196.96 1013.65 194.976C1013.65 191.712 1015.31 188.928 1018.64 186.624C1022.03 184.256 1027.06 183.072 1033.71 183.072C1040.43 183.072 1045.2 184.384 1048.02 187.008C1050.9 189.632 1052.34 194.272 1052.34 200.928V218.208C1052.34 221.6 1052.75 223.744 1053.59 224.64C1054.42 225.472 1055.95 225.632 1058.19 225.12V226.08ZM1024.98 217.152C1025.3 219.584 1026.19 221.472 1027.67 222.816C1029.14 224.096 1030.83 224.736 1032.75 224.736C1034.74 224.736 1036.47 223.776 1037.94 221.856V205.536L1034.48 206.016C1031.54 206.4 1029.14 207.52 1027.28 209.376C1025.49 211.232 1024.72 213.824 1024.98 217.152ZM1081.61 185.76V209.184C1081.61 214.688 1081.84 218.048 1082.28 219.264C1082.73 220.416 1083.21 221.408 1083.72 222.24C1084.68 223.904 1086.35 224.736 1088.72 224.736C1091.15 224.736 1092.84 224.416 1093.8 223.776V225.696C1090.73 227.872 1087.37 228.96 1083.72 228.96C1078.35 228.96 1074.25 227.68 1071.44 225.12C1068.62 222.56 1067.21 217.984 1067.21 211.392V185.76H1060.11V183.84H1067.21C1070.28 183.328 1073 181.856 1075.37 179.424C1077.74 176.928 1079.37 173.504 1080.27 169.152H1081.61V183.84H1092.75V185.76H1081.61Z" fill="url(#paint2_linear_0_1)"/>
<path d="M522.66 372.12C521.7 373.08 519.876 373.944 517.188 374.712C514.5 375.384 511.38 375.72 507.828 375.72C499.956 375.72 495.012 373.368 492.996 368.664C488.196 373.656 480.852 376.152 470.964 376.152C465.684 376.152 461.316 374.952 457.86 372.552C454.5 370.056 452.82 366.408 452.82 361.608C452.82 355.176 455.316 350.232 460.308 346.776C465.3 343.224 474.036 340.728 486.516 339.288L492.276 338.568V331.512C492.276 323.16 491.652 317.544 490.404 314.664C489.156 311.784 486.66 310.344 482.916 310.344C479.268 310.344 476.916 310.872 475.86 311.928C474.804 312.888 474.42 314.04 474.708 315.384C474.996 316.632 475.476 318.312 476.148 320.424C476.82 322.536 477.156 324.216 477.156 325.464C477.156 328.44 476.1 330.984 473.988 333.096C471.972 335.112 469.476 336.12 466.5 336.12C463.62 336.12 461.124 335.112 459.012 333.096C456.9 330.984 455.844 328.44 455.844 325.464C455.844 320.568 458.34 316.392 463.332 312.936C468.42 309.384 475.956 307.608 485.94 307.608C496.02 307.608 503.172 309.576 507.396 313.512C511.716 317.448 513.876 324.408 513.876 334.392V360.312C513.876 365.4 514.5 368.616 515.748 369.96C516.996 371.208 519.3 371.448 522.66 370.68V372.12ZM472.836 358.728C473.316 362.376 474.66 365.208 476.868 367.224C479.076 369.144 481.62 370.104 484.5 370.104C487.476 370.104 490.068 368.664 492.276 365.784V341.304L487.092 342.024C482.676 342.6 479.076 344.28 476.292 347.064C473.604 349.848 472.452 353.736 472.836 358.728Z" fill="url(#paint3_linear_0_1)"/>
</g>
<path d="M226 114.533C203.449 107.793 179.771 106.245 156.594 109.996C133.417 113.747 111.29 122.708 91.737 136.262C72.1834 149.816 55.6663 167.642 43.3213 188.515C30.9763 209.387 23.0964 232.81 20.2233 257.174C17.3503 281.538 19.5523 306.264 26.6779 329.652C33.8035 353.04 45.6838 374.535 61.5017 392.659C77.3195 410.784 96.6998 425.107 118.31 434.645C139.92 444.182 163.247 448.708 186.687 447.91L184.675 383.15C170.169 383.644 155.733 380.843 142.36 374.941C128.986 369.038 116.993 360.174 107.204 348.958C97.4146 337.741 90.0624 324.439 85.6526 309.965C81.2429 295.491 79.8802 280.189 81.6582 265.112C83.4362 250.034 88.3127 235.538 95.9525 222.621C103.592 209.704 113.814 198.673 125.915 190.284C138.016 181.896 151.709 176.351 166.052 174.03C180.395 171.708 195.049 172.666 209.005 176.837L226 114.533Z" fill="url(#paint4_linear_0_1)"/>
<path d="M76.04 341.135C61.8904 380.13 89.9502 421.57 131.411 422.91L458 433.465L2 448L161.353 108L89.547 303.911L76.04 341.135Z" fill="url(#paint5_linear_0_1)" stroke="white" stroke-width="2"/>
<g opacity="0.49" filter="url(#filter3_f_0_1)">
<rect x="168.308" y="357.844" width="46.7693" height="49.3507" rx="23" fill="#AADBFF"/>
<rect x="328.231" y="270" width="46.7693" height="99.2075" rx="23" fill="#AADBFF"/>
<rect x="115" y="382.52" width="46.7693" height="39.4805" rx="19.7403" fill="#AADBFF"/>
<rect x="221.615" y="323.299" width="46.7693" height="59.2208" rx="23" fill="#AADBFF"/>
<rect x="274.923" y="285.463" width="46.7693" height="72.381" rx="23" fill="#AADBFF"/>
</g>
<rect x="133" y="303.156" width="62.0462" height="98.6494" rx="22" fill="url(#paint6_linear_0_1)" stroke="white" stroke-width="2"/>
<rect x="352" y="124" width="62.0462" height="200.331" rx="22" fill="url(#paint7_linear_0_1)" stroke="white" stroke-width="2"/>
<rect x="60" y="353.481" width="62.0462" height="78.5195" rx="22" fill="url(#paint8_linear_0_1)" stroke="white" stroke-width="2"/>
<rect x="206" y="232.701" width="62.0462" height="118.779" rx="22" fill="url(#paint9_linear_0_1)" stroke="white" stroke-width="2"/>
<rect x="279" y="155.537" width="62.0462" height="145.619" rx="22" fill="url(#paint10_linear_0_1)" stroke="white" stroke-width="2"/>
<defs>
<filter id="filter0_f_0_1" x="580.9" y="186.56" width="325.609" height="145.76" filterUnits="userSpaceOnUse" color-interpolation-filters="sRGB">
<feFlood flood-opacity="0" result="BackgroundImageFix"/>
<feBlend mode="normal" in="SourceGraphic" in2="BackgroundImageFix" result="shape"/>
<feGaussianBlur stdDeviation="20" result="effect1_foregroundBlur_0_1"/>
</filter>
<filter id="filter1_f_0_1" x="648.864" y="331.56" width="377.017" height="147.76" filterUnits="userSpaceOnUse" color-interpolation-filters="sRGB">
<feFlood flood-opacity="0" result="BackgroundImageFix"/>
<feBlend mode="normal" in="SourceGraphic" in2="BackgroundImageFix" result="shape"/>
<feGaussianBlur stdDeviation="20.5" result="effect1_foregroundBlur_0_1"/>
</filter>
<filter id="filter2_d_0_1" x="448.357" y="119.4" width="697.489" height="260.39" filterUnits="userSpaceOnUse" color-interpolation-filters="sRGB">
<feFlood flood-opacity="0" result="BackgroundImageFix"/>
<feColorMatrix in="SourceAlpha" type="matrix" values="0 0 0 0 0 0 0 0 0 0 0 0 0 0 0 0 0 0 127 0" result="hardAlpha"/>
<feOffset dx="2" dy="2"/>
<feComposite in2="hardAlpha" operator="out"/>
<feColorMatrix type="matrix" values="0 0 0 0 1 0 0 0 0 1 0 0 0 0 1 0 0 0 1 0"/>
<feBlend mode="normal" in2="BackgroundImageFix" result="effect1_dropShadow_0_1"/>
<feBlend mode="normal" in="SourceGraphic" in2="effect1_dropShadow_0_1" result="shape"/>
</filter>
<filter id="filter3_f_0_1" x="65" y="220" width="360" height="252" filterUnits="userSpaceOnUse" color-interpolation-filters="sRGB">
<feFlood flood-opacity="0" result="BackgroundImageFix"/>
<feBlend mode="normal" in="SourceGraphic" in2="BackgroundImageFix" result="shape"/>
<feGaussianBlur stdDeviation="25" result="effect1_foregroundBlur_0_1"/>
</filter>
<linearGradient id="paint0_linear_0_1" x1="861.769" y1="165.969" x2="861.769" y2="488.892" gradientUnits="userSpaceOnUse">
<stop stop-color="white" stop-opacity="0.71"/>
<stop offset="1" stop-color="#1B00FF" stop-opacity="0.34"/>
</linearGradient>
<linearGradient id="paint1_linear_0_1" x1="680.769" y1="32.9686" x2="680.769" y2="355.892" gradientUnits="userSpaceOnUse">
<stop stop-color="white" stop-opacity="0.71"/>
<stop offset="1" stop-color="#1B00FF" stop-opacity="0.34"/>
</linearGradient>
<linearGradient id="paint2_linear_0_1" x1="1054.77" y1="44.9686" x2="1054.77" y2="367.892" gradientUnits="userSpaceOnUse">
<stop stop-color="white" stop-opacity="0.71"/>
<stop offset="1" stop-color="#1B00FF" stop-opacity="0.34"/>
</linearGradient>
<linearGradient id="paint3_linear_0_1" x1="489.769" y1="177.969" x2="489.769" y2="500.892" gradientUnits="userSpaceOnUse">
<stop stop-color="white" stop-opacity="0.71"/>
<stop offset="1" stop-color="#1B00FF" stop-opacity="0.34"/>
</linearGradient>
<linearGradient id="paint4_linear_0_1" x1="221" y1="86" x2="212" y2="448" gradientUnits="userSpaceOnUse">
<stop stop-color="#FF0000"/>
<stop offset="1" stop-color="#0000FF" stop-opacity="0"/>
</linearGradient>
<linearGradient id="paint5_linear_0_1" x1="-4.8549" y1="453.629" x2="310.135" y2="172.045" gradientUnits="userSpaceOnUse">
<stop stop-color="#00810D"/>
<stop offset="1" stop-color="#0500FF"/>
</linearGradient>
<linearGradient id="paint6_linear_0_1" x1="194.639" y1="403.958" x2="159.635" y2="404.962" gradientUnits="userSpaceOnUse">
<stop stop-color="white" stop-opacity="0.69"/>
<stop offset="1" stop-color="#000AFF" stop-opacity="0.84"/>
</linearGradient>
<linearGradient id="paint7_linear_0_1" x1="413.639" y1="327.648" x2="378.613" y2="328.148" gradientUnits="userSpaceOnUse">
<stop stop-color="white" stop-opacity="0.69"/>
<stop offset="1" stop-color="#000AFF" stop-opacity="0.84"/>
</linearGradient>
<linearGradient id="paint8_linear_0_1" x1="121.639" y1="433.922" x2="86.6508" y2="435.177" gradientUnits="userSpaceOnUse">
<stop stop-color="white" stop-opacity="0.69"/>
<stop offset="1" stop-color="#000AFF" stop-opacity="0.84"/>
</linearGradient>
<linearGradient id="paint9_linear_0_1" x1="267.639" y1="353.863" x2="232.626" y2="354.701" gradientUnits="userSpaceOnUse">
<stop stop-color="white" stop-opacity="0.69"/>
<stop offset="1" stop-color="#000AFF" stop-opacity="0.84"/>
</linearGradient>
<linearGradient id="paint10_linear_0_1" x1="340.639" y1="303.846" x2="305.619" y2="304.531" gradientUnits="userSpaceOnUse">
<stop stop-color="white" stop-opacity="0.69"/>
<stop offset="1" stop-color="#000AFF" stop-opacity="0.84"/>
</linearGradient>
</defs>
</svg>
