<svg width="1654" height="636" viewBox="0 0 1654 636" fill="none" xmlns="http://www.w3.org/2000/svg">
<g filter="url(#filter0_f_21_73)">
<path d="M879.367 268.788H876.487C876.487 276.468 874.039 283.572 869.143 290.1C864.247 296.628 857.239 299.892 848.119 299.892C843.031 299.892 838.807 296.916 835.447 290.964C832.183 285.012 830.551 274.836 830.551 260.436C830.551 246.036 832.183 235.86 835.447 229.908C838.807 223.956 843.991 220.98 850.999 220.98C858.103 220.98 864.055 223.188 868.855 227.604C873.751 232.02 876.775 238.26 877.927 246.324H880.807C879.463 236.82 876.103 229.716 870.727 225.012C865.447 220.404 859.111 218.1 851.719 218.1C837.415 218.1 826.423 221.508 818.743 228.324C811.159 235.236 807.367 245.988 807.367 260.58C807.367 275.268 811.063 285.972 818.455 292.692C825.943 299.412 835.831 302.772 848.119 302.772C854.743 302.772 861.175 300.996 867.415 297.444C869.431 296.196 871.063 295.572 872.311 295.572C873.655 295.572 874.711 296.148 875.479 297.3C876.247 298.548 876.631 299.748 876.631 300.9H879.367V268.788ZM965.705 223.14H972.905V220.26H936.905V223.14H944.105V263.46C944.105 270.276 943.097 275.124 941.081 278.004C939.065 280.884 936.041 282.324 932.009 282.324C926.537 282.324 922.169 279.444 918.905 273.684V223.14H926.105V220.26H890.105V223.14H897.305V313.86H890.105V316.74H918.905V279.012C920.729 281.604 923.561 283.764 927.401 285.492C931.241 287.22 935.465 288.084 940.073 288.084C957.161 288.084 965.705 278.82 965.705 260.292V223.14ZM1052.76 223.14C1051.8 222.18 1049.97 221.316 1047.29 220.548C1044.6 219.876 1041.48 219.54 1037.93 219.54C1030.05 219.54 1025.11 221.892 1023.09 226.596C1018.29 221.604 1010.95 219.108 1001.06 219.108C995.781 219.108 991.413 220.308 987.957 222.708C984.597 225.204 982.917 228.852 982.917 233.652C982.917 240.084 985.413 245.028 990.405 248.484C995.397 252.036 1004.13 254.532 1016.61 255.972L1022.37 256.692V263.748C1022.37 272.1 1021.75 277.716 1020.5 280.596C1019.25 283.476 1016.76 284.916 1013.01 284.916C1009.37 284.916 1007.01 284.388 1005.96 283.332C1004.9 282.372 1004.52 281.22 1004.81 279.876C1005.09 278.628 1005.57 276.948 1006.25 274.836C1006.92 272.724 1007.25 271.044 1007.25 269.796C1007.25 266.82 1006.2 264.276 1004.09 262.164C1002.07 260.148 999.573 259.14 996.597 259.14C993.717 259.14 991.221 260.148 989.109 262.164C986.997 264.276 985.941 266.82 985.941 269.796C985.941 274.692 988.437 278.868 993.429 282.324C998.517 285.876 1006.05 287.652 1016.04 287.652C1026.12 287.652 1033.27 285.684 1037.49 281.748C1041.81 277.812 1043.97 270.852 1043.97 260.868V234.948C1043.97 229.86 1044.6 226.644 1045.85 225.3C1047.09 224.052 1049.4 223.812 1052.76 224.58V223.14ZM1002.93 236.532C1003.41 232.884 1004.76 230.052 1006.97 228.036C1009.17 226.116 1011.72 225.156 1014.6 225.156C1017.57 225.156 1020.17 226.596 1022.37 229.476V253.956L1017.19 253.236C1012.77 252.66 1009.17 250.98 1006.39 248.196C1003.7 245.412 1002.55 241.524 1002.93 236.532ZM1097.39 220.26H1061.39V223.14H1068.59V283.62H1061.39V286.5H1090.19V269.364C1091.05 274.068 1092.59 277.908 1094.79 280.884C1097.1 283.86 1099.59 285.828 1102.28 286.788C1105.07 287.748 1107.71 288.228 1110.2 288.228C1112.79 288.228 1115.24 287.748 1117.55 286.788C1119.95 285.924 1121.72 284.1 1122.87 281.316C1124.03 278.628 1124.07 275.892 1123.02 273.108C1121.96 270.42 1120.09 268.5 1117.4 267.348C1114.81 266.196 1112.41 266.052 1110.2 266.916C1107.99 267.78 1106.41 268.932 1105.45 270.372C1104.49 271.908 1103.82 273.348 1103.43 274.692C1102.47 278.244 1101.18 280.02 1099.55 280.02C1097.72 280.02 1095.71 276.852 1093.5 270.516C1091.29 264.276 1090.19 257.652 1090.19 250.644V223.14H1097.39V220.26ZM1157.49 283.62V248.484C1157.49 240.228 1157.83 235.188 1158.5 233.364C1159.17 231.636 1159.89 230.148 1160.66 228.9C1162.1 226.404 1164.6 225.156 1168.15 225.156C1171.8 225.156 1174.34 225.636 1175.78 226.596V223.716C1171.17 220.452 1166.13 218.82 1160.66 218.82C1152.6 218.82 1146.45 220.74 1142.23 224.58C1138 228.42 1135.89 235.284 1135.89 245.172V283.62H1125.24V286.5H1135.89C1140.5 287.268 1144.58 289.476 1148.13 293.124C1151.68 296.868 1154.13 302.004 1155.48 308.532H1157.49V286.5H1174.2V283.62H1157.49Z" fill="url(#paint0_linear_21_73)"/>
<path d="M1427.9 214.492C1426.94 213.532 1425.11 212.668 1422.43 211.9C1419.74 211.228 1416.62 210.892 1413.07 210.892C1405.19 210.892 1400.25 213.244 1398.23 217.948C1393.43 212.956 1386.09 210.46 1376.2 210.46C1370.92 210.46 1366.55 211.66 1363.1 214.06C1359.74 216.556 1358.06 220.204 1358.06 225.004C1358.06 231.436 1360.55 236.38 1365.55 239.836C1370.54 243.388 1379.27 245.884 1391.75 247.324L1397.51 248.044V255.1C1397.51 263.452 1396.89 269.068 1395.64 271.948C1394.39 274.828 1391.9 276.268 1388.15 276.268C1384.51 276.268 1382.15 275.74 1381.1 274.684C1380.04 273.724 1379.66 272.572 1379.95 271.228C1380.23 269.98 1380.71 268.3 1381.39 266.188C1382.06 264.076 1382.39 262.396 1382.39 261.148C1382.39 258.172 1381.34 255.628 1379.23 253.516C1377.21 251.5 1374.71 250.492 1371.74 250.492C1368.86 250.492 1366.36 251.5 1364.25 253.516C1362.14 255.628 1361.08 258.172 1361.08 261.148C1361.08 266.044 1363.58 270.22 1368.57 273.676C1373.66 277.228 1381.19 279.004 1391.18 279.004C1401.26 279.004 1408.41 277.036 1412.63 273.1C1416.95 269.164 1419.11 262.204 1419.11 252.22V226.3C1419.11 221.212 1419.74 217.996 1420.99 216.652C1422.23 215.404 1424.54 215.164 1427.9 215.932V214.492ZM1378.07 227.884C1378.55 224.236 1379.9 221.404 1382.11 219.388C1384.31 217.468 1386.86 216.508 1389.74 216.508C1392.71 216.508 1395.31 217.948 1397.51 220.828V245.308L1392.33 244.588C1387.91 244.012 1384.31 242.332 1381.53 239.548C1378.84 236.764 1377.69 232.876 1378.07 227.884ZM1463.02 274.972V239.836C1463.02 231.58 1463.36 226.54 1464.03 224.716C1464.7 222.988 1465.42 221.5 1466.19 220.252C1467.63 217.756 1470.13 216.508 1473.68 216.508C1477.33 216.508 1479.87 216.988 1481.31 217.948V215.068C1476.7 211.804 1471.66 210.172 1466.19 210.172C1458.13 210.172 1451.98 212.092 1447.76 215.932C1443.54 219.772 1441.42 226.636 1441.42 236.524V274.972H1430.77V277.852H1441.42C1446.03 278.62 1450.11 280.828 1453.66 284.476C1457.22 288.22 1459.66 293.356 1461.01 299.884H1463.02V277.852H1479.73V274.972H1463.02Z" fill="url(#paint1_linear_21_73)"/>
<path d="M1051.21 413.26C1051.21 415.468 1050.59 417.292 1049.34 418.732C1048.09 420.268 1046.46 421.036 1044.44 421.036C1042.52 421.036 1040.51 420.22 1038.39 418.588C1036.38 416.956 1033.98 415.276 1031.19 413.548C1028.51 411.916 1025.24 411.1 1021.4 411.1C1008.35 411.1 998.218 414.46 991.018 421.18C983.914 427.9 980.362 438.22 980.362 452.14C980.362 481.228 993.946 495.772 1021.11 495.772C1026.01 495.772 1031 494.572 1036.09 492.172C1041.27 489.772 1044.44 488.572 1045.59 488.572C1046.75 488.572 1047.71 489.148 1048.47 490.3C1049.24 491.548 1049.63 492.748 1049.63 493.9H1052.36V464.668H1049.48C1049.48 471.964 1046.6 478.492 1040.84 484.252C1035.18 490.012 1028.6 492.892 1021.11 492.892C1015.35 492.892 1010.99 489.772 1008.01 483.532C1005.03 477.388 1003.55 467.164 1003.55 452.86C1003.55 438.652 1005.03 428.62 1008.01 422.764C1011.08 416.908 1015.55 413.98 1021.4 413.98C1030.62 413.98 1035.23 422.188 1035.23 438.604V449.26H1026.15V452.14H1060.71V449.26H1053.95V413.26H1051.21ZM1098.21 416.14H1105.41V413.26H1069.41V416.14H1076.61V506.86H1069.41V509.74H1098.21V416.14ZM1185.38 416.14C1184.42 415.18 1182.59 414.316 1179.9 413.548C1177.22 412.876 1174.1 412.54 1170.54 412.54C1162.67 412.54 1157.73 414.892 1155.71 419.596C1150.91 414.604 1143.57 412.108 1133.68 412.108C1128.4 412.108 1124.03 413.308 1120.58 415.708C1117.22 418.204 1115.54 421.852 1115.54 426.652C1115.54 433.084 1118.03 438.028 1123.02 441.484C1128.02 445.036 1136.75 447.532 1149.23 448.972L1154.99 449.692V456.748C1154.99 465.1 1154.37 470.716 1153.12 473.596C1151.87 476.476 1149.38 477.916 1145.63 477.916C1141.98 477.916 1139.63 477.388 1138.58 476.332C1137.52 475.372 1137.14 474.22 1137.42 472.876C1137.71 471.628 1138.19 469.948 1138.86 467.836C1139.54 465.724 1139.87 464.044 1139.87 462.796C1139.87 459.82 1138.82 457.276 1136.7 455.164C1134.69 453.148 1132.19 452.14 1129.22 452.14C1126.34 452.14 1123.84 453.148 1121.73 455.164C1119.62 457.276 1118.56 459.82 1118.56 462.796C1118.56 467.692 1121.06 471.868 1126.05 475.324C1131.14 478.876 1138.67 480.652 1148.66 480.652C1158.74 480.652 1165.89 478.684 1170.11 474.748C1174.43 470.812 1176.59 463.852 1176.59 453.868V427.948C1176.59 422.86 1177.22 419.644 1178.46 418.3C1179.71 417.052 1182.02 416.812 1185.38 417.58V416.14ZM1135.55 429.532C1136.03 425.884 1137.38 423.052 1139.58 421.036C1141.79 419.116 1144.34 418.156 1147.22 418.156C1150.19 418.156 1152.78 419.596 1154.99 422.476V446.956L1149.81 446.236C1145.39 445.66 1141.79 443.98 1139.01 441.196C1136.32 438.412 1135.17 434.524 1135.55 429.532ZM1269.61 416.14H1276.81V413.26H1240.81V416.14H1248.01V456.46C1248.01 463.276 1247 468.124 1244.98 471.004C1242.97 473.884 1239.94 475.324 1235.91 475.324C1230.44 475.324 1226.07 472.444 1222.81 466.684V416.14H1230.01V413.26H1194.01V416.14H1201.21V476.62H1194.01V479.5H1222.81V472.012C1224.63 474.508 1227.46 476.62 1231.3 478.348C1235.24 480.172 1239.46 481.084 1243.97 481.084C1261.06 481.084 1269.61 471.82 1269.61 453.292V416.14ZM1285.38 446.38C1285.38 457.708 1288.69 466.3 1295.31 472.156C1301.94 478.012 1310.34 480.94 1320.51 480.94C1330.79 480.94 1338.42 478.348 1343.41 473.164C1348.4 468.076 1350.18 462.796 1348.74 457.324C1347.97 454.348 1346.34 452.14 1343.84 450.7C1341.44 449.356 1338.8 449.02 1335.92 449.692C1329.87 451.132 1326.85 454.636 1326.85 460.204C1326.85 461.644 1326.99 463.804 1327.28 466.684C1327.67 469.66 1327.81 471.82 1327.71 473.164C1327.62 474.508 1327.33 475.564 1326.85 476.332C1325.89 477.964 1323.63 478.588 1320.08 478.204C1311.44 476.86 1307.12 466.252 1307.12 446.38C1307.12 426.604 1314.18 416.716 1328.29 416.716C1331.55 416.716 1334.87 417.58 1338.23 419.308C1341.59 421.036 1344.08 423.1 1345.71 425.5L1347.73 424.06C1345.52 420.412 1342.21 417.484 1337.79 415.276C1333.38 413.068 1328.43 411.964 1322.96 411.964C1297.91 411.964 1285.38 423.436 1285.38 446.38ZM1422.89 442.06H1379.4C1380.36 425.164 1386.94 416.716 1399.13 416.716C1402.39 416.716 1406.09 417.484 1410.22 419.02C1414.44 420.556 1417.51 422.716 1419.43 425.5L1421.45 424.06C1419.34 420.508 1415.74 417.58 1410.65 415.276C1405.56 412.972 1400.47 411.82 1395.38 411.82C1390.39 411.82 1385.88 412.3 1381.85 413.26C1377.82 414.316 1373.88 416.044 1370.04 418.444C1366.2 420.844 1363.18 424.444 1360.97 429.244C1358.86 434.044 1357.8 439.852 1357.8 446.668C1357.8 458.284 1361.02 466.876 1367.45 472.444C1373.88 478.108 1381.66 480.94 1390.78 480.94C1399.99 480.94 1407.62 477.868 1413.67 471.724C1419.82 465.58 1422.89 455.692 1422.89 442.06ZM1379.26 444.94H1402.73C1402.73 453.772 1401.77 461.5 1399.85 468.124C1398.02 474.748 1395.05 478.06 1390.92 478.06C1386.79 478.06 1383.82 474.844 1381.99 468.412C1380.17 462.076 1379.26 454.78 1379.26 446.524V444.94Z" fill="url(#paint2_linear_21_73)"/>
<path d="M811.252 407.399C810.292 406.439 808.468 405.575 805.78 404.807C803.092 404.135 799.972 403.799 796.42 403.799C788.548 403.799 783.604 406.151 781.588 410.855C776.788 405.863 769.444 403.367 759.556 403.367C754.276 403.367 749.908 404.567 746.452 406.967C743.092 409.463 741.412 413.111 741.412 417.911C741.412 424.343 743.908 429.287 748.9 432.743C753.892 436.295 762.628 438.791 775.108 440.231L780.868 440.951V448.007C780.868 456.359 780.244 461.975 778.996 464.855C777.748 467.735 775.252 469.175 771.508 469.175C767.86 469.175 765.508 468.647 764.452 467.591C763.396 466.631 763.012 465.479 763.3 464.135C763.588 462.887 764.068 461.207 764.74 459.095C765.412 456.983 765.748 455.303 765.748 454.055C765.748 451.079 764.692 448.535 762.58 446.423C760.564 444.407 758.068 443.399 755.092 443.399C752.212 443.399 749.716 444.407 747.604 446.423C745.492 448.535 744.436 451.079 744.436 454.055C744.436 458.951 746.932 463.127 751.924 466.583C757.012 470.135 764.548 471.911 774.532 471.911C784.612 471.911 791.764 469.943 795.988 466.007C800.308 462.071 802.468 455.111 802.468 445.127V419.207C802.468 414.119 803.092 410.903 804.34 409.559C805.588 408.311 807.892 408.071 811.252 408.839V407.399ZM761.428 420.791C761.908 417.143 763.252 414.311 765.46 412.295C767.668 410.375 770.212 409.415 773.092 409.415C776.068 409.415 778.66 410.855 780.868 413.735V438.215L775.684 437.495C771.268 436.919 767.668 435.239 764.884 432.455C762.196 429.671 761.044 425.783 761.428 420.791Z" fill="url(#paint3_linear_21_73)"/>
</g>
<path d="M1005.72 421.292C1005.72 418.44 1004.91 416.084 1003.3 414.224C1001.69 412.24 999.578 411.248 996.974 411.248C994.494 411.248 991.89 412.302 989.162 414.41C986.558 416.518 983.458 418.688 979.862 420.92C976.39 423.028 972.174 424.082 967.214 424.082C950.35 424.082 937.268 419.742 927.968 411.062C918.792 402.382 914.204 389.052 914.204 371.072C914.204 333.5 931.75 314.714 966.842 314.714C973.166 314.714 979.614 316.264 986.186 319.364C992.882 322.464 996.974 324.014 998.462 324.014C999.95 324.014 1001.19 323.27 1002.18 321.782C1003.17 320.17 1003.67 318.62 1003.67 317.132H1007.2V354.89H1003.48C1003.48 345.466 999.764 337.034 992.324 329.594C985.008 322.154 976.514 318.434 966.842 318.434C959.402 318.434 953.76 322.464 949.916 330.524C946.072 338.46 944.15 351.666 944.15 370.142C944.15 388.494 946.072 401.452 949.916 409.016C953.884 416.58 959.65 420.362 967.214 420.362C979.118 420.362 985.07 409.76 985.07 388.556V374.792H973.352V371.072H1017.99V374.792H1009.25V421.292H1005.72ZM1066.43 417.572H1075.73V421.292H1029.23V417.572H1038.53V300.392H1029.23V296.672H1066.43V417.572ZM1179.01 417.572C1177.77 418.812 1175.42 419.928 1171.95 420.92C1168.47 421.788 1164.44 422.222 1159.86 422.222C1149.69 422.222 1143.3 419.184 1140.7 413.108C1134.5 419.556 1125.01 422.78 1112.24 422.78C1105.42 422.78 1099.78 421.23 1095.31 418.13C1090.97 414.906 1088.8 410.194 1088.8 403.994C1088.8 395.686 1092.03 389.3 1098.48 384.836C1104.92 380.248 1116.21 377.024 1132.33 375.164L1139.77 374.234V365.12C1139.77 354.332 1138.96 347.078 1137.35 343.358C1135.74 339.638 1132.51 337.778 1127.68 337.778C1122.97 337.778 1119.93 338.46 1118.56 339.824C1117.2 341.064 1116.7 342.552 1117.08 344.288C1117.45 345.9 1118.07 348.07 1118.94 350.798C1119.8 353.526 1120.24 355.696 1120.24 357.308C1120.24 361.152 1118.87 364.438 1116.15 367.166C1113.54 369.77 1110.32 371.072 1106.47 371.072C1102.75 371.072 1099.53 369.77 1096.8 367.166C1094.07 364.438 1092.71 361.152 1092.71 357.308C1092.71 350.984 1095.93 345.59 1102.38 341.126C1108.95 336.538 1118.69 334.244 1131.58 334.244C1144.6 334.244 1153.84 336.786 1159.3 341.87C1164.88 346.954 1167.67 355.944 1167.67 368.84V402.32C1167.67 408.892 1168.47 413.046 1170.09 414.782C1171.7 416.394 1174.67 416.704 1179.01 415.712V417.572ZM1114.66 400.274C1115.28 404.986 1117.01 408.644 1119.87 411.248C1122.72 413.728 1126 414.968 1129.72 414.968C1133.57 414.968 1136.92 413.108 1139.77 409.388V377.768L1133.07 378.698C1127.37 379.442 1122.72 381.612 1119.12 385.208C1115.65 388.804 1114.16 393.826 1114.66 400.274ZM1287.81 417.572H1297.11V421.292H1250.61V417.572H1259.91V365.492C1259.91 356.688 1258.61 350.426 1256 346.706C1253.4 342.986 1249.49 341.126 1244.29 341.126C1237.22 341.126 1231.58 344.846 1227.36 352.286V417.572H1236.66V421.292H1190.16V417.572H1199.46V339.452H1190.16V335.732H1227.36V345.404C1229.72 342.18 1233.37 339.452 1238.33 337.22C1243.42 334.864 1248.87 333.686 1254.7 333.686C1276.77 333.686 1287.81 345.652 1287.81 369.584V417.572ZM1308.18 378.512C1308.18 363.88 1312.46 352.782 1321.02 345.218C1329.57 337.654 1340.42 333.872 1353.57 333.872C1366.83 333.872 1376.69 337.22 1383.14 343.916C1389.59 350.488 1391.88 357.308 1390.02 364.376C1389.03 368.22 1386.92 371.072 1383.7 372.932C1380.6 374.668 1377.19 375.102 1373.47 374.234C1365.66 372.374 1361.75 367.848 1361.75 360.656C1361.75 358.796 1361.94 356.006 1362.31 352.286C1362.8 348.442 1362.99 345.652 1362.87 343.916C1362.74 342.18 1362.37 340.816 1361.75 339.824C1360.51 337.716 1357.6 336.91 1353.01 337.406C1341.85 339.142 1336.27 352.844 1336.27 378.512C1336.27 404.056 1345.38 416.828 1363.61 416.828C1367.83 416.828 1372.1 415.712 1376.44 413.48C1380.78 411.248 1384.01 408.582 1386.12 405.482L1388.72 407.342C1385.87 412.054 1381.59 415.836 1375.89 418.688C1370.18 421.54 1363.8 422.966 1356.73 422.966C1324.36 422.966 1308.18 408.148 1308.18 378.512ZM1485.8 384.092H1429.63C1430.87 405.916 1439.36 416.828 1455.11 416.828C1459.33 416.828 1464.1 415.836 1469.43 413.852C1474.89 411.868 1478.86 409.078 1481.34 405.482L1483.94 407.342C1481.21 411.93 1476.56 415.712 1469.99 418.688C1463.42 421.664 1456.85 423.152 1450.27 423.152C1443.83 423.152 1438 422.532 1432.79 421.292C1427.58 419.928 1422.5 417.696 1417.54 414.596C1412.58 411.496 1408.67 406.846 1405.82 400.646C1403.09 394.446 1401.73 386.944 1401.73 378.14C1401.73 363.136 1405.88 352.038 1414.19 344.846C1422.5 337.53 1432.54 333.872 1444.32 333.872C1456.23 333.872 1466.08 337.84 1473.9 345.776C1481.83 353.712 1485.8 366.484 1485.8 384.092ZM1429.44 380.372H1459.76C1459.76 368.964 1458.52 358.982 1456.04 350.426C1453.68 341.87 1449.84 337.592 1444.51 337.592C1439.18 337.592 1435.33 341.746 1432.98 350.054C1430.62 358.238 1429.44 367.662 1429.44 378.326V380.372Z" fill="url(#paint4_linear_21_73)"/>
<path d="M1005.72 421.292H1004.72V422.292H1005.72V421.292ZM1003.3 414.224L1002.52 414.854L1002.53 414.867L1002.54 414.879L1003.3 414.224ZM989.162 414.41L988.551 413.619L988.542 413.625L988.533 413.633L989.162 414.41ZM979.862 420.92L980.381 421.775L980.39 421.769L979.862 420.92ZM927.968 411.062L927.281 411.788L927.286 411.793L927.968 411.062ZM986.186 319.364L985.76 320.268L985.766 320.271L986.186 319.364ZM1002.18 321.782L1003.01 322.337L1003.02 322.321L1003.03 322.306L1002.18 321.782ZM1003.67 317.132V316.132H1002.67V317.132H1003.67ZM1007.2 317.132H1008.2V316.132H1007.2V317.132ZM1007.2 354.89V355.89H1008.2V354.89H1007.2ZM1003.48 354.89H1002.48V355.89H1003.48V354.89ZM992.324 329.594L991.611 330.295L991.617 330.301L992.324 329.594ZM949.916 330.524L950.816 330.96L950.819 330.954L949.916 330.524ZM949.916 409.016L949.025 409.469L949.031 409.48L949.916 409.016ZM985.07 374.792H986.07V373.792H985.07V374.792ZM973.352 374.792H972.352V375.792H973.352V374.792ZM973.352 371.072V370.072H972.352V371.072H973.352ZM1017.99 371.072H1018.99V370.072H1017.99V371.072ZM1017.99 374.792V375.792H1018.99V374.792H1017.99ZM1009.25 374.792V373.792H1008.25V374.792H1009.25ZM1009.25 421.292V422.292H1010.25V421.292H1009.25ZM1006.72 421.292C1006.72 418.24 1005.85 415.639 1004.05 413.569L1002.54 414.879C1003.97 416.529 1004.72 418.64 1004.72 421.292H1006.72ZM1004.07 413.593C1002.27 411.37 999.873 410.248 996.974 410.248V412.248C999.284 412.248 1001.1 413.109 1002.52 414.854L1004.07 413.593ZM996.974 410.248C994.201 410.248 991.387 411.427 988.551 413.619L989.774 415.201C992.394 413.177 994.787 412.248 996.974 412.248V410.248ZM988.533 413.633C985.969 415.709 982.904 417.855 979.335 420.07L980.39 421.769C984.012 419.521 987.148 417.327 989.791 415.187L988.533 413.633ZM979.343 420.065C976.059 422.059 972.032 423.082 967.214 423.082V425.082C972.317 425.082 976.721 423.997 980.381 421.775L979.343 420.065ZM967.214 423.082C950.519 423.082 937.712 418.788 928.65 410.331L927.286 411.793C936.825 420.696 950.181 425.082 967.214 425.082V423.082ZM928.655 410.335C919.751 401.913 915.204 388.895 915.204 371.072H913.204C913.204 389.208 917.833 402.851 927.281 411.788L928.655 410.335ZM915.204 371.072C915.204 352.424 919.56 338.624 928.094 329.486C936.617 320.361 949.468 315.714 966.842 315.714V313.714C949.124 313.714 935.656 318.46 926.633 328.121C917.621 337.769 913.204 352.148 913.204 371.072H915.204ZM966.842 315.714C972.998 315.714 979.301 317.222 985.76 320.268L986.613 318.459C979.927 315.306 973.334 313.714 966.842 313.714V315.714ZM985.766 320.271C989.123 321.826 991.845 322.999 993.923 323.786C994.962 324.18 995.853 324.482 996.59 324.687C997.309 324.886 997.95 325.014 998.462 325.014V323.014C998.23 323.014 997.802 322.947 997.126 322.76C996.468 322.577 995.639 322.298 994.631 321.916C992.618 321.153 989.945 320.002 986.606 318.456L985.766 320.271ZM998.462 325.014C1000.36 325.014 1001.88 324.038 1003.01 322.337L1001.35 321.227C1000.5 322.501 999.545 323.014 998.462 323.014V325.014ZM1003.03 322.306C1004.1 320.579 1004.67 318.849 1004.67 317.132H1002.67C1002.67 318.391 1002.25 319.761 1001.33 321.258L1003.03 322.306ZM1003.67 318.132H1007.2V316.132H1003.67V318.132ZM1006.2 317.132V354.89H1008.2V317.132H1006.2ZM1007.2 353.89H1003.48V355.89H1007.2V353.89ZM1004.48 354.89C1004.48 345.169 1000.63 336.49 993.031 328.887L991.617 330.301C998.893 337.577 1002.48 345.763 1002.48 354.89H1004.48ZM993.037 328.893C985.55 321.278 976.805 317.434 966.842 317.434V319.434C976.224 319.434 984.467 323.029 991.611 330.295L993.037 328.893ZM966.842 317.434C962.93 317.434 959.453 318.497 956.449 320.643C953.456 322.78 950.988 325.953 949.014 330.093L950.819 330.954C952.688 327.034 954.963 324.162 957.612 322.27C960.251 320.385 963.315 319.434 966.842 319.434V317.434ZM949.016 330.088C945.067 338.242 943.15 351.645 943.15 370.142H945.15C945.15 351.687 947.078 338.678 950.816 330.96L949.016 330.088ZM943.15 370.142C943.15 388.509 945.065 401.677 949.025 409.469L950.808 408.563C947.079 401.227 945.15 388.479 945.15 370.142H943.15ZM949.031 409.48C951.075 413.377 953.613 416.358 956.668 418.361C959.73 420.37 963.257 421.362 967.214 421.362V419.362C963.607 419.362 960.469 418.463 957.765 416.689C955.054 414.911 952.725 412.218 950.802 408.551L949.031 409.48ZM967.214 421.362C970.343 421.362 973.129 420.664 975.537 419.234C977.944 417.805 979.919 415.677 981.478 412.9C984.579 407.376 986.07 399.219 986.07 388.556H984.07C984.07 399.097 982.585 406.843 979.734 411.921C978.317 414.445 976.573 416.293 974.516 417.514C972.46 418.735 970.037 419.362 967.214 419.362V421.362ZM986.07 388.556V374.792H984.07V388.556H986.07ZM985.07 373.792H973.352V375.792H985.07V373.792ZM974.352 374.792V371.072H972.352V374.792H974.352ZM973.352 372.072H1017.99V370.072H973.352V372.072ZM1016.99 371.072V374.792H1018.99V371.072H1016.99ZM1017.99 373.792H1009.25V375.792H1017.99V373.792ZM1008.25 374.792V421.292H1010.25V374.792H1008.25ZM1009.25 420.292H1005.72V422.292H1009.25V420.292ZM1066.43 417.572H1065.43V418.572H1066.43V417.572ZM1075.73 417.572H1076.73V416.572H1075.73V417.572ZM1075.73 421.292V422.292H1076.73V421.292H1075.73ZM1029.23 421.292H1028.23V422.292H1029.23V421.292ZM1029.23 417.572V416.572H1028.23V417.572H1029.23ZM1038.53 417.572V418.572H1039.53V417.572H1038.53ZM1038.53 300.392H1039.53V299.392H1038.53V300.392ZM1029.23 300.392H1028.23V301.392H1029.23V300.392ZM1029.23 296.672V295.672H1028.23V296.672H1029.23ZM1066.43 296.672H1067.43V295.672H1066.43V296.672ZM1066.43 418.572H1075.73V416.572H1066.43V418.572ZM1074.73 417.572V421.292H1076.73V417.572H1074.73ZM1075.73 420.292H1029.23V422.292H1075.73V420.292ZM1030.23 421.292V417.572H1028.23V421.292H1030.23ZM1029.23 418.572H1038.53V416.572H1029.23V418.572ZM1039.53 417.572V300.392H1037.53V417.572H1039.53ZM1038.53 299.392H1029.23V301.392H1038.53V299.392ZM1030.23 300.392V296.672H1028.23V300.392H1030.23ZM1029.23 297.672H1066.43V295.672H1029.23V297.672ZM1065.43 296.672V417.572H1067.43V296.672H1065.43ZM1179.01 417.572L1179.72 418.279L1180.01 417.986V417.572H1179.01ZM1171.95 420.92L1172.19 421.89L1172.21 421.886L1172.22 421.881L1171.95 420.92ZM1140.7 413.108L1141.62 412.714L1141.02 411.327L1139.98 412.415L1140.7 413.108ZM1095.31 418.13L1094.72 418.933L1094.73 418.942L1094.74 418.951L1095.31 418.13ZM1098.48 384.836L1099.05 385.658L1099.06 385.651L1098.48 384.836ZM1132.33 375.164L1132.44 376.157L1132.45 376.156L1132.33 375.164ZM1139.77 374.234L1139.89 375.226L1140.77 375.117V374.234H1139.77ZM1137.35 343.358L1138.27 342.96L1138.27 342.96L1137.35 343.358ZM1118.56 339.824L1119.24 340.564L1119.25 340.548L1119.27 340.531L1118.56 339.824ZM1117.08 344.288L1116.1 344.497L1116.1 344.505L1116.1 344.513L1117.08 344.288ZM1118.94 350.798L1117.98 351.101L1117.98 351.101L1118.94 350.798ZM1116.15 367.166L1116.85 367.873L1116.85 367.873L1116.15 367.166ZM1096.8 367.166L1096.1 367.873L1096.1 367.881L1096.11 367.889L1096.8 367.166ZM1102.38 341.126L1102.95 341.948L1102.95 341.946L1102.38 341.126ZM1159.3 341.87L1158.62 342.601L1158.62 342.609L1159.3 341.87ZM1170.09 414.782L1169.35 415.462L1169.37 415.476L1169.38 415.489L1170.09 414.782ZM1179.01 415.712H1180.01V414.457L1178.79 414.737L1179.01 415.712ZM1114.66 400.274L1113.66 400.351L1113.66 400.377L1113.67 400.404L1114.66 400.274ZM1119.87 411.248L1119.19 411.986L1119.2 411.994L1119.21 412.002L1119.87 411.248ZM1139.77 409.388L1140.56 409.996L1140.77 409.727V409.388H1139.77ZM1139.77 377.768H1140.77V376.619L1139.63 376.777L1139.77 377.768ZM1133.07 378.698L1133.2 379.689L1133.21 379.688L1133.07 378.698ZM1119.12 385.208L1118.42 384.501L1118.41 384.507L1118.4 384.513L1119.12 385.208ZM1178.31 416.865C1177.26 417.913 1175.12 418.973 1171.67 419.958L1172.22 421.881C1175.72 420.882 1178.29 419.711 1179.72 418.279L1178.31 416.865ZM1171.7 419.95C1168.33 420.793 1164.38 421.222 1159.86 421.222V423.222C1164.5 423.222 1168.62 422.782 1172.19 421.89L1171.7 419.95ZM1159.86 421.222C1149.84 421.222 1143.99 418.24 1141.62 412.714L1139.78 413.502C1142.62 420.127 1149.53 423.222 1159.86 423.222V421.222ZM1139.98 412.415C1134.03 418.595 1124.86 421.78 1112.24 421.78V423.78C1125.17 423.78 1134.96 420.516 1141.42 413.801L1139.98 412.415ZM1112.24 421.78C1105.57 421.78 1100.14 420.266 1095.88 417.308L1094.74 418.951C1099.41 422.194 1105.27 423.78 1112.24 423.78V421.78ZM1095.91 417.327C1091.86 414.321 1089.8 409.93 1089.8 403.994H1087.8C1087.8 410.457 1090.08 415.49 1094.72 418.933L1095.91 417.327ZM1089.8 403.994C1089.8 395.991 1092.89 389.922 1099.05 385.658L1097.91 384.014C1091.17 388.677 1087.8 395.381 1087.8 403.994H1089.8ZM1099.06 385.651C1105.28 381.219 1116.35 378.014 1132.44 376.157L1132.21 374.17C1116.07 376.033 1104.56 379.277 1097.9 384.021L1099.06 385.651ZM1132.45 376.156L1139.89 375.226L1139.64 373.242L1132.2 374.172L1132.45 376.156ZM1140.77 374.234V365.12H1138.77V374.234H1140.77ZM1140.77 365.12C1140.77 359.705 1140.57 355.154 1140.16 351.478C1139.75 347.818 1139.13 344.957 1138.27 342.96L1136.43 343.755C1137.18 345.479 1137.77 348.105 1138.17 351.699C1138.57 355.276 1138.77 359.747 1138.77 365.12H1140.77ZM1138.27 342.96C1137.38 340.922 1136.04 339.354 1134.22 338.307C1132.42 337.266 1130.22 336.778 1127.68 336.778V338.778C1129.97 338.778 1131.8 339.219 1133.22 340.039C1134.63 340.852 1135.7 342.074 1136.43 343.755L1138.27 342.96ZM1127.68 336.778C1125.28 336.778 1123.26 336.95 1121.65 337.314C1120.05 337.673 1118.73 338.242 1117.86 339.117L1119.27 340.531C1119.76 340.042 1120.65 339.588 1122.08 339.265C1123.51 338.946 1125.36 338.778 1127.68 338.778V336.778ZM1117.89 339.084C1116.28 340.552 1115.65 342.397 1116.1 344.497L1118.05 344.078C1117.76 342.707 1118.12 341.575 1119.24 340.564L1117.89 339.084ZM1116.1 344.513C1116.48 346.163 1117.11 348.363 1117.98 351.101L1119.89 350.495C1119.02 347.777 1118.41 345.636 1118.05 344.063L1116.1 344.513ZM1117.98 351.101C1118.84 353.794 1119.24 355.849 1119.24 357.308H1121.24C1121.24 355.543 1120.77 353.257 1119.89 350.495L1117.98 351.101ZM1119.24 357.308C1119.24 360.886 1117.98 363.917 1115.44 366.459L1116.85 367.873C1119.77 364.958 1121.24 361.418 1121.24 357.308H1119.24ZM1115.44 366.459C1113.03 368.866 1110.07 370.072 1106.47 370.072V372.072C1110.57 372.072 1114.05 370.673 1116.85 367.873L1115.44 366.459ZM1106.47 370.072C1103.02 370.072 1100.04 368.872 1097.49 366.442L1096.11 367.889C1099.02 370.668 1102.49 372.072 1106.47 372.072V370.072ZM1097.51 366.459C1094.97 363.917 1093.71 360.886 1093.71 357.308H1091.71C1091.71 361.418 1093.18 364.958 1096.1 367.873L1097.51 366.459ZM1093.71 357.308C1093.71 351.392 1096.7 346.276 1102.95 341.948L1101.81 340.304C1095.17 344.904 1091.71 350.576 1091.71 357.308H1093.71ZM1102.95 341.946C1109.28 337.527 1118.78 335.244 1131.58 335.244V333.244C1118.6 333.244 1108.62 335.549 1101.81 340.306L1102.95 341.946ZM1131.58 335.244C1144.52 335.244 1153.44 337.78 1158.62 342.601L1159.98 341.138C1154.24 335.792 1144.68 333.244 1131.58 333.244V335.244ZM1158.62 342.609C1163.89 347.406 1166.67 356.036 1166.67 368.84H1168.67C1168.67 355.852 1165.87 346.502 1159.97 341.131L1158.62 342.609ZM1166.67 368.84V402.32H1168.67V368.84H1166.67ZM1166.67 402.32C1166.67 405.639 1166.87 408.391 1167.29 410.555C1167.71 412.69 1168.36 414.387 1169.35 415.462L1170.82 414.101C1170.21 413.44 1169.65 412.192 1169.25 410.174C1168.87 408.184 1168.67 405.573 1168.67 402.32H1166.67ZM1169.38 415.489C1171.39 417.503 1174.86 417.686 1179.24 416.687L1178.79 414.737C1174.48 415.721 1172 415.284 1170.79 414.075L1169.38 415.489ZM1178.01 415.712V417.572H1180.01V415.712H1178.01ZM1113.67 400.404C1114.31 405.294 1116.13 409.189 1119.19 411.986L1120.54 410.509C1117.9 408.099 1116.25 404.677 1115.65 400.143L1113.67 400.404ZM1119.21 412.002C1122.24 414.638 1125.76 415.968 1129.72 415.968V413.968C1126.25 413.968 1123.2 412.818 1120.52 410.493L1119.21 412.002ZM1129.72 415.968C1133.95 415.968 1137.57 413.903 1140.56 409.996L1138.97 408.779C1136.27 412.313 1133.19 413.968 1129.72 413.968V415.968ZM1140.77 409.388V377.768H1138.77V409.388H1140.77ZM1139.63 376.777L1132.93 377.707L1133.21 379.688L1139.91 378.758L1139.63 376.777ZM1132.94 377.706C1127.05 378.475 1122.19 380.729 1118.42 384.501L1119.83 385.915C1123.25 382.495 1127.69 380.409 1133.2 379.689L1132.94 377.706ZM1118.4 384.513C1114.68 388.371 1113.15 393.707 1113.66 400.351L1115.66 400.197C1115.17 393.945 1116.62 389.236 1119.84 385.902L1118.4 384.513ZM1287.81 417.572H1286.81V418.572H1287.81V417.572ZM1297.11 417.572H1298.11V416.572H1297.11V417.572ZM1297.11 421.292V422.292H1298.11V421.292H1297.11ZM1250.61 421.292H1249.61V422.292H1250.61V421.292ZM1250.61 417.572V416.572H1249.61V417.572H1250.61ZM1259.91 417.572V418.572H1260.91V417.572H1259.91ZM1227.36 352.286L1226.49 351.793L1226.36 352.022V352.286H1227.36ZM1227.36 417.572H1226.36V418.572H1227.36V417.572ZM1236.66 417.572H1237.66V416.572H1236.66V417.572ZM1236.66 421.292V422.292H1237.66V421.292H1236.66ZM1190.16 421.292H1189.16V422.292H1190.16V421.292ZM1190.16 417.572V416.572H1189.16V417.572H1190.16ZM1199.46 417.572V418.572H1200.46V417.572H1199.46ZM1199.46 339.452H1200.46V338.452H1199.46V339.452ZM1190.16 339.452H1189.16V340.452H1190.16V339.452ZM1190.16 335.732V334.732H1189.16V335.732H1190.16ZM1227.36 335.732H1228.36V334.732H1227.36V335.732ZM1227.36 345.404H1226.36V348.467L1228.17 345.994L1227.36 345.404ZM1238.33 337.22L1238.74 338.132L1238.75 338.127L1238.33 337.22ZM1287.81 418.572H1297.11V416.572H1287.81V418.572ZM1296.11 417.572V421.292H1298.11V417.572H1296.11ZM1297.11 420.292H1250.61V422.292H1297.11V420.292ZM1251.61 421.292V417.572H1249.61V421.292H1251.61ZM1250.61 418.572H1259.91V416.572H1250.61V418.572ZM1260.91 417.572V365.492H1258.91V417.572H1260.91ZM1260.91 365.492C1260.91 356.645 1259.61 350.117 1256.82 346.132L1255.18 347.279C1257.6 350.735 1258.91 356.731 1258.91 365.492H1260.91ZM1256.82 346.132C1254 342.103 1249.76 340.126 1244.29 340.126V342.126C1249.22 342.126 1252.8 343.869 1255.18 347.279L1256.82 346.132ZM1244.29 340.126C1236.78 340.126 1230.84 344.117 1226.49 351.793L1228.23 352.779C1232.31 345.574 1237.66 342.126 1244.29 342.126V340.126ZM1226.36 352.286V417.572H1228.36V352.286H1226.36ZM1227.36 418.572H1236.66V416.572H1227.36V418.572ZM1235.66 417.572V421.292H1237.66V417.572H1235.66ZM1236.66 420.292H1190.16V422.292H1236.66V420.292ZM1191.16 421.292V417.572H1189.16V421.292H1191.16ZM1190.16 418.572H1199.46V416.572H1190.16V418.572ZM1200.46 417.572V339.452H1198.46V417.572H1200.46ZM1199.46 338.452H1190.16V340.452H1199.46V338.452ZM1191.16 339.452V335.732H1189.16V339.452H1191.16ZM1190.16 336.732H1227.36V334.732H1190.16V336.732ZM1226.36 335.732V345.404H1228.36V335.732H1226.36ZM1228.17 345.994C1230.39 342.951 1233.89 340.317 1238.74 338.132L1237.92 336.308C1232.86 338.586 1229.04 341.408 1226.55 344.814L1228.17 345.994ZM1238.75 338.127C1243.7 335.835 1249.01 334.686 1254.7 334.686V332.686C1248.73 332.686 1243.13 333.893 1237.91 336.312L1238.75 338.127ZM1254.7 334.686C1265.56 334.686 1273.53 337.626 1278.8 343.338C1284.08 349.066 1286.81 357.753 1286.81 369.584H1288.81C1288.81 357.483 1286.02 348.221 1280.27 341.982C1274.5 335.729 1265.91 332.686 1254.7 332.686V334.686ZM1286.81 369.584V417.572H1288.81V369.584H1286.81ZM1321.02 345.218L1321.68 345.967L1321.68 345.967L1321.02 345.218ZM1383.14 343.916L1382.42 344.609L1382.43 344.616L1383.14 343.916ZM1390.02 364.376L1389.06 364.121L1389.05 364.126L1390.02 364.376ZM1383.7 372.932L1384.19 373.804L1384.2 373.798L1383.7 372.932ZM1373.47 374.234L1373.24 375.207L1373.24 375.208L1373.47 374.234ZM1362.31 352.286L1361.32 352.158L1361.32 352.172L1361.31 352.186L1362.31 352.286ZM1362.87 343.916L1361.87 343.987L1361.87 343.987L1362.87 343.916ZM1361.75 339.824L1360.89 340.331L1360.9 340.342L1360.9 340.354L1361.75 339.824ZM1353.01 337.406L1352.9 336.412L1352.88 336.414L1352.85 336.418L1353.01 337.406ZM1376.44 413.48L1375.99 412.591L1375.99 412.591L1376.44 413.48ZM1386.12 405.482L1386.7 404.668L1385.87 404.073L1385.29 404.919L1386.12 405.482ZM1388.72 407.342L1389.58 407.86L1390.06 407.067L1389.3 406.528L1388.72 407.342ZM1375.89 418.688L1375.44 417.793L1375.89 418.688ZM1309.18 378.512C1309.18 364.08 1313.39 353.291 1321.68 345.967L1320.35 344.469C1311.53 352.273 1307.18 363.679 1307.18 378.512H1309.18ZM1321.68 345.967C1330.02 338.589 1340.63 334.872 1353.57 334.872V332.872C1340.22 332.872 1329.12 336.719 1320.35 344.469L1321.68 345.967ZM1353.57 334.872C1366.68 334.872 1376.23 338.18 1382.42 344.609L1383.86 343.222C1377.16 336.259 1366.99 332.872 1353.57 332.872V334.872ZM1382.43 344.616C1388.7 351.012 1390.8 357.485 1389.06 364.121L1390.99 364.63C1392.96 357.131 1390.48 349.964 1383.85 343.215L1382.43 344.616ZM1389.05 364.126C1388.12 367.729 1386.17 370.349 1383.2 372.066L1384.2 373.798C1387.67 371.794 1389.94 368.71 1390.99 364.626L1389.05 364.126ZM1383.21 372.059C1380.34 373.664 1377.19 374.076 1373.7 373.26L1373.24 375.208C1377.18 376.128 1380.85 375.672 1384.19 373.804L1383.21 372.059ZM1373.7 373.261C1369.93 372.363 1367.21 370.848 1365.44 368.791C1363.67 366.745 1362.75 364.063 1362.75 360.656H1360.75C1360.75 364.441 1361.78 367.618 1363.92 370.098C1366.05 372.566 1369.2 374.244 1373.24 375.207L1373.7 373.261ZM1362.75 360.656C1362.75 358.848 1362.93 356.098 1363.3 352.385L1361.31 352.186C1360.94 355.913 1360.75 358.744 1360.75 360.656H1362.75ZM1363.3 352.414C1363.8 348.564 1364 345.688 1363.86 343.845L1361.87 343.987C1361.99 345.615 1361.81 348.32 1361.32 352.158L1363.3 352.414ZM1363.86 343.845C1363.73 342.019 1363.34 340.475 1362.6 339.294L1360.9 340.354C1361.4 341.156 1361.75 342.341 1361.87 343.987L1363.86 343.845ZM1362.61 339.317C1361.04 336.644 1357.53 335.912 1352.9 336.412L1353.12 338.4C1357.67 337.908 1359.98 338.787 1360.89 340.331L1362.61 339.317ZM1352.85 336.418C1346.82 337.356 1342.4 341.546 1339.53 348.607C1336.67 355.635 1335.27 365.629 1335.27 378.512H1337.27C1337.27 365.726 1338.66 356.035 1341.38 349.361C1344.08 342.721 1348.04 339.191 1353.16 338.394L1352.85 336.418ZM1335.27 378.512C1335.27 391.373 1337.56 401.198 1342.29 407.83C1347.07 414.524 1354.23 417.828 1363.61 417.828V415.828C1354.76 415.828 1348.26 412.746 1343.92 406.668C1339.54 400.528 1337.27 391.195 1337.27 378.512H1335.27ZM1363.61 417.828C1368.01 417.828 1372.44 416.662 1376.9 414.369L1375.99 412.591C1371.77 414.761 1367.64 415.828 1363.61 415.828V417.828ZM1376.9 414.369C1381.35 412.083 1384.72 409.318 1386.94 406.044L1385.29 404.919C1383.3 407.846 1380.22 410.413 1375.99 412.591L1376.9 414.369ZM1385.54 406.296L1388.14 408.156L1389.3 406.528L1386.7 404.668L1385.54 406.296ZM1387.87 406.824C1385.13 411.35 1381 415.012 1375.44 417.793L1376.33 419.582C1382.18 416.659 1386.61 412.757 1389.58 407.86L1387.87 406.824ZM1375.44 417.793C1369.89 420.569 1363.66 421.966 1356.73 421.966V423.966C1363.93 423.966 1370.48 422.511 1376.33 419.582L1375.44 417.793ZM1356.73 421.966C1340.68 421.966 1328.83 418.29 1320.99 411.115C1313.18 403.955 1309.18 393.152 1309.18 378.512H1307.18C1307.18 393.508 1311.28 404.932 1319.64 412.59C1327.99 420.233 1340.41 423.966 1356.73 423.966V421.966ZM1485.8 384.092V385.092H1486.8V384.092H1485.8ZM1429.63 384.092V383.092H1428.57L1428.63 384.149L1429.63 384.092ZM1469.43 413.852L1469.09 412.912L1469.08 412.915L1469.43 413.852ZM1481.34 405.482L1481.92 404.668L1481.09 404.077L1480.51 404.914L1481.34 405.482ZM1483.94 407.342L1484.8 407.853L1485.27 407.063L1484.52 406.528L1483.94 407.342ZM1469.99 418.688L1470.4 419.599L1469.99 418.688ZM1432.79 421.292L1432.54 422.259L1432.55 422.262L1432.56 422.265L1432.79 421.292ZM1417.54 414.596L1417.01 415.444L1417.54 414.596ZM1405.82 400.646L1404.9 401.049L1404.91 401.056L1404.91 401.064L1405.82 400.646ZM1414.19 344.846L1414.84 345.602L1414.85 345.596L1414.19 344.846ZM1473.9 345.776L1473.18 346.477L1473.19 346.483L1473.9 345.776ZM1429.44 380.372H1428.44V381.372H1429.44V380.372ZM1459.76 380.372V381.372H1460.76V380.372H1459.76ZM1456.04 350.426L1455.08 350.691L1455.08 350.704L1456.04 350.426ZM1432.98 350.054L1433.94 350.33L1433.94 350.327L1432.98 350.054ZM1485.8 383.092H1429.63V385.092H1485.8V383.092ZM1428.63 384.149C1429.25 395.155 1431.71 403.573 1436.14 409.258C1440.6 414.993 1446.98 417.828 1455.11 417.828V415.828C1447.5 415.828 1441.75 413.206 1437.72 408.03C1433.65 402.802 1431.24 394.853 1430.63 384.035L1428.63 384.149ZM1455.11 417.828C1459.48 417.828 1464.37 416.801 1469.78 414.789L1469.08 412.915C1463.83 414.871 1459.17 415.828 1455.11 415.828V417.828ZM1469.77 414.792C1475.36 412.76 1479.53 409.865 1482.16 406.05L1480.51 404.914C1478.18 408.291 1474.41 410.976 1469.09 412.912L1469.77 414.792ZM1480.75 406.296L1483.36 408.156L1484.52 406.528L1481.92 404.668L1480.75 406.296ZM1483.08 406.831C1480.49 411.191 1476.03 414.856 1469.58 417.777L1470.4 419.599C1477.1 416.567 1481.94 412.669 1484.8 407.853L1483.08 406.831ZM1469.58 417.777C1463.12 420.7 1456.69 422.152 1450.27 422.152V424.152C1457 424.152 1463.71 422.628 1470.4 419.599L1469.58 417.777ZM1450.27 422.152C1443.89 422.152 1438.14 421.538 1433.02 420.319L1432.56 422.265C1437.86 423.526 1443.76 424.152 1450.27 424.152V422.152ZM1433.04 420.324C1427.94 418.988 1422.95 416.799 1418.07 413.748L1417.01 415.444C1422.05 418.593 1427.22 420.867 1432.54 422.259L1433.04 420.324ZM1418.07 413.748C1413.3 410.768 1409.51 406.281 1406.73 400.228L1404.91 401.064C1407.83 407.411 1411.86 412.224 1417.01 415.444L1418.07 413.748ZM1406.73 400.243C1404.08 394.202 1402.73 386.845 1402.73 378.14H1400.73C1400.73 387.043 1402.11 394.69 1404.9 401.049L1406.73 400.243ZM1402.73 378.14C1402.73 363.315 1406.83 352.542 1414.84 345.602L1413.54 344.09C1404.94 351.534 1400.73 362.957 1400.73 378.14H1402.73ZM1414.85 345.596C1422.96 338.452 1432.77 334.872 1444.32 334.872V332.872C1432.32 332.872 1422.03 336.608 1413.53 344.095L1414.85 345.596ZM1444.32 334.872C1455.98 334.872 1465.57 338.746 1473.18 346.477L1474.61 345.074C1466.59 336.933 1456.47 332.872 1444.32 332.872V334.872ZM1473.19 346.483C1480.85 354.148 1484.8 366.603 1484.8 384.092H1486.8C1486.8 366.365 1482.81 353.275 1474.6 345.069L1473.19 346.483ZM1429.44 381.372H1459.76V379.372H1429.44V381.372ZM1460.76 380.372C1460.76 368.895 1459.51 358.815 1457 350.147L1455.08 350.704C1457.53 359.149 1458.76 369.033 1458.76 380.372H1460.76ZM1457 350.16C1455.8 345.806 1454.2 342.432 1452.13 340.132C1450.04 337.801 1447.48 336.592 1444.51 336.592V338.592C1446.87 338.592 1448.9 339.522 1450.65 341.469C1452.42 343.446 1453.92 346.489 1455.08 350.691L1457 350.16ZM1444.51 336.592C1441.54 336.592 1438.99 337.761 1436.89 340.028C1434.82 342.266 1433.21 345.548 1432.01 349.781L1433.94 350.327C1435.09 346.252 1436.59 343.303 1438.36 341.386C1440.11 339.5 1442.14 338.592 1444.51 338.592V336.592ZM1432.01 349.777C1429.63 358.07 1428.44 367.591 1428.44 378.326H1430.44C1430.44 367.733 1431.61 358.405 1433.94 350.33L1432.01 349.777ZM1428.44 378.326V380.372H1430.44V378.326H1428.44Z" fill="url(#paint5_linear_21_73)"/>
<path d="M871.685 163.34H868.085C868.085 153.74 865.025 144.86 858.905 136.7C852.785 128.54 844.025 124.46 832.625 124.46C826.265 124.46 820.985 128.18 816.785 135.62C812.705 143.06 810.665 155.78 810.665 173.78C810.665 191.78 812.705 204.5 816.785 211.94C820.985 219.38 827.465 223.1 836.225 223.1C845.105 223.1 852.545 220.34 858.545 214.82C864.665 209.3 868.445 201.5 869.885 191.42H873.485C871.805 203.3 867.605 212.18 860.885 218.06C854.285 223.82 846.365 226.7 837.125 226.7C819.245 226.7 805.505 222.44 795.905 213.92C786.425 205.28 781.685 191.84 781.685 173.6C781.685 155.24 786.305 141.86 795.545 133.46C804.905 125.06 817.265 120.86 832.625 120.86C840.905 120.86 848.945 123.08 856.745 127.52C859.265 129.08 861.305 129.86 862.865 129.86C864.545 129.86 865.865 129.14 866.825 127.7C867.785 126.14 868.265 124.64 868.265 123.2H871.685V163.34ZM979.608 220.4H988.608V224H943.608V220.4H952.608V170C952.608 161.48 951.348 155.42 948.828 151.82C946.308 148.22 942.528 146.42 937.488 146.42C930.648 146.42 925.188 150.02 921.108 157.22V220.4H930.108V224H885.108V220.4H894.108V107H885.108V103.4H921.108V150.56C923.388 147.32 926.928 144.62 931.728 142.46C936.528 140.3 941.808 139.22 947.568 139.22C968.928 139.22 979.608 150.8 979.608 173.96V220.4ZM1088.42 220.4C1087.22 221.6 1084.94 222.68 1081.58 223.64C1078.22 224.48 1074.32 224.9 1069.88 224.9C1060.04 224.9 1053.86 221.96 1051.34 216.08C1045.34 222.32 1036.16 225.44 1023.8 225.44C1017.2 225.44 1011.74 223.94 1007.42 220.94C1003.22 217.82 1001.12 213.26 1001.12 207.26C1001.12 199.22 1004.24 193.04 1010.48 188.72C1016.72 184.28 1027.64 181.16 1043.24 179.36L1050.44 178.46V169.64C1050.44 159.2 1049.66 152.18 1048.1 148.58C1046.54 144.98 1043.42 143.18 1038.74 143.18C1034.18 143.18 1031.24 143.84 1029.92 145.16C1028.6 146.36 1028.12 147.8 1028.48 149.48C1028.84 151.04 1029.44 153.14 1030.28 155.78C1031.12 158.42 1031.54 160.52 1031.54 162.08C1031.54 165.8 1030.22 168.98 1027.58 171.62C1025.06 174.14 1021.94 175.4 1018.22 175.4C1014.62 175.4 1011.5 174.14 1008.86 171.62C1006.22 168.98 1004.9 165.8 1004.9 162.08C1004.9 155.96 1008.02 150.74 1014.26 146.42C1020.62 141.98 1030.04 139.76 1042.52 139.76C1055.12 139.76 1064.06 142.22 1069.34 147.14C1074.74 152.06 1077.44 160.76 1077.44 173.24V205.64C1077.44 212 1078.22 216.02 1079.78 217.7C1081.34 219.26 1084.22 219.56 1088.42 218.6V220.4ZM1026.14 203.66C1026.74 208.22 1028.42 211.76 1031.18 214.28C1033.94 216.68 1037.12 217.88 1040.72 217.88C1044.44 217.88 1047.68 216.08 1050.44 212.48V181.88L1043.96 182.78C1038.44 183.5 1033.94 185.6 1030.46 189.08C1027.1 192.56 1025.66 197.42 1026.14 203.66ZM1144.21 224H1099.21V220.4H1108.21V144.8H1099.21V141.2H1135.21V162.62C1136.29 156.74 1138.21 151.94 1140.97 148.22C1143.85 144.5 1146.97 142.04 1150.33 140.84C1153.81 139.64 1157.11 139.04 1160.23 139.04C1163.47 139.04 1166.53 139.64 1169.41 140.84C1172.41 141.92 1174.63 144.2 1176.07 147.68C1177.51 151.04 1177.57 154.46 1176.25 157.94C1174.93 161.3 1172.59 163.7 1169.23 165.14C1165.99 166.58 1162.99 166.76 1160.23 165.68C1157.47 164.6 1155.49 163.16 1154.29 161.36C1153.09 159.44 1152.25 157.64 1151.77 155.96C1150.57 151.52 1148.95 149.3 1146.91 149.3C1144.63 149.3 1142.11 153.26 1139.35 161.18C1136.59 168.98 1135.21 177.26 1135.21 186.02V220.4H1144.21V224ZM1219.34 144.8V188.72C1219.34 199.04 1219.76 205.34 1220.6 207.62C1221.44 209.78 1222.34 211.64 1223.3 213.2C1225.1 216.32 1228.22 217.88 1232.66 217.88C1237.22 217.88 1240.4 217.28 1242.2 216.08V219.68C1236.44 223.76 1230.14 225.8 1223.3 225.8C1213.22 225.8 1205.54 223.4 1200.26 218.6C1194.98 213.8 1192.34 205.22 1192.34 192.86V144.8H1179.02V141.2H1192.34C1198.1 140.24 1203.2 137.48 1207.64 132.92C1212.08 128.24 1215.14 121.82 1216.82 113.66H1219.34V141.2H1240.22V144.8H1219.34Z" fill="url(#paint6_linear_21_73)"/>
<path d="M871.685 163.34V164.34H872.685V163.34H871.685ZM868.085 163.34H867.085V164.34H868.085V163.34ZM858.905 136.7L859.705 136.1L859.705 136.1L858.905 136.7ZM816.785 135.62L815.914 135.128L815.908 135.139L816.785 135.62ZM816.785 211.94L815.908 212.421L815.914 212.432L816.785 211.94ZM858.545 214.82L857.875 214.077L857.868 214.084L858.545 214.82ZM869.885 191.42V190.42H869.018L868.895 191.279L869.885 191.42ZM873.485 191.42L874.475 191.56L874.636 190.42H873.485V191.42ZM860.885 218.06L861.542 218.813L861.543 218.813L860.885 218.06ZM795.905 213.92L795.231 214.659L795.241 214.668L795.905 213.92ZM795.545 133.46L794.877 132.716L794.872 132.72L795.545 133.46ZM856.745 127.52L857.271 126.67L857.256 126.66L857.24 126.651L856.745 127.52ZM866.825 127.7L867.657 128.255L867.667 128.24L867.677 128.224L866.825 127.7ZM868.265 123.2V122.2H867.265V123.2H868.265ZM871.685 123.2H872.685V122.2H871.685V123.2ZM871.685 162.34H868.085V164.34H871.685V162.34ZM869.085 163.34C869.085 153.51 865.946 144.422 859.705 136.1L858.105 137.3C864.104 145.298 867.085 153.97 867.085 163.34H869.085ZM859.705 136.1C853.372 127.656 844.297 123.46 832.625 123.46V125.46C843.753 125.46 852.198 129.424 858.105 137.3L859.705 136.1ZM832.625 123.46C825.782 123.46 820.222 127.497 815.914 135.128L817.656 136.112C821.748 128.863 826.748 125.46 832.625 125.46V123.46ZM815.908 135.139C811.697 142.817 809.665 155.761 809.665 173.78H811.665C811.665 155.799 813.712 143.303 817.662 136.101L815.908 135.139ZM809.665 173.78C809.665 191.799 811.697 204.743 815.908 212.421L817.662 211.459C813.712 204.257 811.665 191.761 811.665 173.78H809.665ZM815.914 212.432C820.297 220.195 827.115 224.1 836.225 224.1V222.1C827.814 222.1 821.673 218.565 817.656 211.448L815.914 212.432ZM836.225 224.1C845.331 224.1 853.02 221.262 859.222 215.556L857.868 214.084C852.07 219.418 844.878 222.1 836.225 222.1V224.1ZM859.215 215.563C865.546 209.852 869.41 201.817 870.875 191.561L868.895 191.279C867.48 201.183 863.783 208.748 857.875 214.077L859.215 215.563ZM869.885 192.42H873.485V190.42H869.885V192.42ZM872.495 191.28C870.837 203.005 866.712 211.632 860.226 217.307L861.543 218.813C868.498 212.728 872.773 203.595 874.475 191.56L872.495 191.28ZM860.227 217.307C853.82 222.898 846.138 225.7 837.125 225.7V227.7C846.592 227.7 854.75 224.742 861.542 218.813L860.227 217.307ZM837.125 225.7C819.393 225.7 805.925 221.476 796.569 213.172L795.241 214.668C805.085 223.404 819.096 227.7 837.125 227.7V225.7ZM796.578 213.181C787.382 204.799 782.685 191.68 782.685 173.6H780.685C780.685 192 785.468 205.761 795.231 214.659L796.578 213.181ZM782.685 173.6C782.685 155.388 787.268 142.336 796.218 134.2L794.872 132.72C785.342 141.384 780.685 155.092 780.685 173.6H782.685ZM796.213 134.204C805.351 126.003 817.454 121.86 832.625 121.86V119.86C817.075 119.86 804.459 124.117 794.877 132.716L796.213 134.204ZM832.625 121.86C840.717 121.86 848.588 124.027 856.25 128.389L857.24 126.651C849.302 122.133 841.093 119.86 832.625 119.86V121.86ZM856.219 128.37C858.777 129.954 861.016 130.86 862.865 130.86V128.86C861.594 128.86 859.753 128.206 857.271 126.67L856.219 128.37ZM862.865 130.86C864.891 130.86 866.518 129.963 867.657 128.255L865.993 127.145C865.212 128.317 864.199 128.86 862.865 128.86V130.86ZM867.677 128.224C868.707 126.549 869.265 124.869 869.265 123.2H867.265C867.265 124.411 866.862 125.731 865.973 127.176L867.677 128.224ZM868.265 124.2H871.685V122.2H868.265V124.2ZM870.685 123.2V163.34H872.685V123.2H870.685ZM979.608 220.4H978.608V221.4H979.608V220.4ZM988.608 220.4H989.608V219.4H988.608V220.4ZM988.608 224V225H989.608V224H988.608ZM943.608 224H942.608V225H943.608V224ZM943.608 220.4V219.4H942.608V220.4H943.608ZM952.608 220.4V221.4H953.608V220.4H952.608ZM921.108 157.22L920.237 156.727L920.108 156.956V157.22H921.108ZM921.108 220.4H920.108V221.4H921.108V220.4ZM930.108 220.4H931.108V219.4H930.108V220.4ZM930.108 224V225H931.108V224H930.108ZM885.108 224H884.108V225H885.108V224ZM885.108 220.4V219.4H884.108V220.4H885.108ZM894.108 220.4V221.4H895.108V220.4H894.108ZM894.108 107H895.108V106H894.108V107ZM885.108 107H884.108V108H885.108V107ZM885.108 103.4V102.4H884.108V103.4H885.108ZM921.108 103.4H922.108V102.4H921.108V103.4ZM921.108 150.56H920.108V153.719L921.925 151.135L921.108 150.56ZM931.728 142.46L932.138 143.372L932.138 143.372L931.728 142.46ZM979.608 221.4H988.608V219.4H979.608V221.4ZM987.608 220.4V224H989.608V220.4H987.608ZM988.608 223H943.608V225H988.608V223ZM944.608 224V220.4H942.608V224H944.608ZM943.608 221.4H952.608V219.4H943.608V221.4ZM953.608 220.4V170H951.608V220.4H953.608ZM953.608 170C953.608 161.437 952.352 155.111 949.647 151.247L948.008 152.393C950.343 155.729 951.608 161.523 951.608 170H953.608ZM949.647 151.247C946.91 147.337 942.798 145.42 937.488 145.42V147.42C942.257 147.42 945.705 149.103 948.008 152.393L949.647 151.247ZM937.488 145.42C930.206 145.42 924.451 149.291 920.237 156.727L921.978 157.713C925.924 150.749 931.089 147.42 937.488 147.42V145.42ZM920.108 157.22V220.4H922.108V157.22H920.108ZM921.108 221.4H930.108V219.4H921.108V221.4ZM929.108 220.4V224H931.108V220.4H929.108ZM930.108 223H885.108V225H930.108V223ZM886.108 224V220.4H884.108V224H886.108ZM885.108 221.4H894.108V219.4H885.108V221.4ZM895.108 220.4V107H893.108V220.4H895.108ZM894.108 106H885.108V108H894.108V106ZM886.108 107V103.4H884.108V107H886.108ZM885.108 104.4H921.108V102.4H885.108V104.4ZM920.108 103.4V150.56H922.108V103.4H920.108ZM921.925 151.135C924.074 148.083 927.449 145.482 932.138 143.372L931.317 141.548C926.406 143.758 922.701 146.557 920.29 149.985L921.925 151.135ZM932.138 143.372C936.797 141.275 941.936 140.22 947.568 140.22V138.22C941.68 138.22 936.258 139.325 931.317 141.548L932.138 143.372ZM947.568 140.22C958.072 140.22 965.772 143.064 970.862 148.583C975.967 154.118 978.608 162.515 978.608 173.96H980.608C980.608 162.245 977.908 153.272 972.333 147.227C966.743 141.166 958.423 138.22 947.568 138.22V140.22ZM978.608 173.96V220.4H980.608V173.96H978.608ZM1088.42 220.4L1089.13 221.107L1089.42 220.814V220.4H1088.42ZM1081.58 223.64L1081.83 224.61L1081.84 224.606L1081.86 224.602L1081.58 223.64ZM1051.34 216.08L1052.26 215.686L1051.67 214.299L1050.62 215.387L1051.34 216.08ZM1007.42 220.94L1006.83 221.743L1006.84 221.752L1006.85 221.761L1007.42 220.94ZM1010.48 188.72L1011.05 189.542L1011.06 189.535L1010.48 188.72ZM1043.24 179.36L1043.36 180.353L1043.37 180.352L1043.24 179.36ZM1050.44 178.46L1050.57 179.452L1051.44 179.343V178.46H1050.44ZM1048.1 148.58L1049.02 148.182L1049.02 148.182L1048.1 148.58ZM1029.92 145.16L1030.6 145.9L1030.61 145.884L1030.63 145.867L1029.92 145.16ZM1028.48 149.48L1027.51 149.69L1027.51 149.697L1027.51 149.705L1028.48 149.48ZM1030.28 155.78L1029.33 156.083L1029.33 156.083L1030.28 155.78ZM1027.58 171.62L1028.29 172.327L1028.29 172.327L1027.58 171.62ZM1008.86 171.62L1008.16 172.327L1008.16 172.335L1008.17 172.343L1008.86 171.62ZM1014.26 146.42L1014.83 147.242L1014.84 147.24L1014.26 146.42ZM1069.34 147.14L1068.66 147.872L1068.67 147.879L1069.34 147.14ZM1079.78 217.7L1079.05 218.38L1079.06 218.394L1079.08 218.407L1079.78 217.7ZM1088.42 218.6H1089.42V217.346L1088.2 217.625L1088.42 218.6ZM1026.14 203.66L1025.15 203.737L1025.15 203.764L1025.15 203.79L1026.14 203.66ZM1031.18 214.28L1030.51 215.018L1030.52 215.027L1030.53 215.035L1031.18 214.28ZM1050.44 212.48L1051.24 213.088L1051.44 212.819V212.48H1050.44ZM1050.44 181.88H1051.44V180.732L1050.31 180.89L1050.44 181.88ZM1043.96 182.78L1044.09 183.772L1044.1 183.77L1043.96 182.78ZM1030.46 189.08L1029.76 188.373L1029.75 188.379L1029.74 188.385L1030.46 189.08ZM1087.72 219.693C1086.71 220.701 1084.64 221.726 1081.31 222.678L1081.86 224.602C1085.24 223.634 1087.74 222.499 1089.13 221.107L1087.72 219.693ZM1081.34 222.67C1078.08 223.485 1074.26 223.9 1069.88 223.9V225.9C1074.38 225.9 1078.37 225.475 1081.83 224.61L1081.34 222.67ZM1069.88 223.9C1060.2 223.9 1054.55 221.017 1052.26 215.686L1050.42 216.474C1053.18 222.903 1059.89 225.9 1069.88 225.9V223.9ZM1050.62 215.387C1044.88 221.36 1036.01 224.44 1023.8 224.44V226.44C1036.32 226.44 1045.81 223.28 1052.06 216.773L1050.62 215.387ZM1023.8 224.44C1017.35 224.44 1012.11 222.976 1007.99 220.119L1006.85 221.761C1011.38 224.904 1017.05 226.44 1023.8 226.44V224.44ZM1008.02 220.137C1004.11 217.235 1002.12 212.997 1002.12 207.26H1000.12C1000.12 213.523 1002.33 218.405 1006.83 221.743L1008.02 220.137ZM1002.12 207.26C1002.12 199.525 1005.1 193.663 1011.05 189.542L1009.91 187.898C1003.39 192.417 1000.12 198.915 1000.12 207.26H1002.12ZM1011.06 189.535C1017.08 185.251 1027.78 182.15 1043.36 180.353L1043.13 178.367C1027.5 180.17 1016.36 183.309 1009.9 187.905L1011.06 189.535ZM1043.37 180.352L1050.57 179.452L1050.32 177.468L1043.12 178.368L1043.37 180.352ZM1051.44 178.46V169.64H1049.44V178.46H1051.44ZM1051.44 169.64C1051.44 164.399 1051.25 159.994 1050.85 156.435C1050.46 152.891 1049.86 150.119 1049.02 148.182L1047.19 148.978C1047.91 150.641 1048.48 153.179 1048.86 156.655C1049.25 160.116 1049.44 164.441 1049.44 169.64H1051.44ZM1049.02 148.182C1048.16 146.204 1046.86 144.681 1045.09 143.664C1043.34 142.654 1041.21 142.18 1038.74 142.18V144.18C1040.96 144.18 1042.72 144.606 1044.09 145.396C1045.45 146.179 1046.48 147.356 1047.19 148.978L1049.02 148.182ZM1038.74 142.18C1036.42 142.18 1034.47 142.347 1032.9 142.699C1031.35 143.048 1030.07 143.6 1029.22 144.453L1030.63 145.867C1031.1 145.4 1031.95 144.962 1033.34 144.651C1034.71 144.343 1036.5 144.18 1038.74 144.18V142.18ZM1029.25 144.42C1027.68 145.848 1027.07 147.645 1027.51 149.69L1029.46 149.27C1029.18 147.955 1029.53 146.872 1030.6 145.9L1029.25 144.42ZM1027.51 149.705C1027.88 151.303 1028.49 153.433 1029.33 156.083L1031.24 155.477C1030.4 152.847 1029.81 150.776 1029.46 149.255L1027.51 149.705ZM1029.33 156.083C1030.16 158.689 1030.54 160.673 1030.54 162.08H1032.54C1032.54 160.367 1032.09 158.151 1031.24 155.477L1029.33 156.083ZM1030.54 162.08C1030.54 165.534 1029.33 168.46 1026.88 170.913L1028.29 172.327C1031.12 169.5 1032.54 166.066 1032.54 162.08H1030.54ZM1026.88 170.913C1024.55 173.236 1021.69 174.4 1018.22 174.4V176.4C1022.2 176.4 1025.57 175.044 1028.29 172.327L1026.88 170.913ZM1018.22 174.4C1014.88 174.4 1012.01 173.242 1009.55 170.897L1008.17 172.343C1011 175.038 1014.36 176.4 1018.22 176.4V174.4ZM1009.57 170.913C1007.12 168.46 1005.9 165.534 1005.9 162.08H1003.9C1003.9 166.066 1005.33 169.5 1008.16 172.327L1009.57 170.913ZM1005.9 162.08C1005.9 156.368 1008.79 151.426 1014.83 147.242L1013.69 145.598C1007.26 150.054 1003.9 155.552 1003.9 162.08H1005.9ZM1014.84 147.24C1020.95 142.969 1030.13 140.76 1042.52 140.76V138.76C1029.95 138.76 1020.29 140.991 1013.69 145.6L1014.84 147.24ZM1042.52 140.76C1055.04 140.76 1063.66 143.214 1068.66 147.872L1070.02 146.408C1064.46 141.226 1055.2 138.76 1042.52 138.76V140.76ZM1068.67 147.879C1073.75 152.512 1076.44 160.852 1076.44 173.24H1078.44C1078.44 160.668 1075.73 151.608 1070.02 146.401L1068.67 147.879ZM1076.44 173.24V205.64H1078.44V173.24H1076.44ZM1076.44 205.64C1076.44 208.853 1076.64 211.518 1077.05 213.615C1077.45 215.684 1078.08 217.333 1079.05 218.38L1080.52 217.02C1079.93 216.387 1079.39 215.186 1079.01 213.235C1078.64 211.312 1078.44 208.787 1078.44 205.64H1076.44ZM1079.08 218.407C1081.04 220.369 1084.41 220.542 1088.65 219.575L1088.2 217.625C1084.03 218.578 1081.65 218.151 1080.49 216.993L1079.08 218.407ZM1087.42 218.6V220.4H1089.42V218.6H1087.42ZM1025.15 203.79C1025.78 208.528 1027.54 212.305 1030.51 215.018L1031.86 213.542C1029.31 211.215 1027.71 207.912 1027.13 203.53L1025.15 203.79ZM1030.53 215.035C1033.47 217.59 1036.88 218.88 1040.72 218.88V216.88C1037.37 216.88 1034.42 215.77 1031.84 213.525L1030.53 215.035ZM1040.72 218.88C1044.82 218.88 1048.33 216.875 1051.24 213.088L1049.65 211.872C1047.03 215.285 1044.06 216.88 1040.72 216.88V218.88ZM1051.44 212.48V181.88H1049.44V212.48H1051.44ZM1050.31 180.89L1043.83 181.79L1044.1 183.77L1050.58 182.87L1050.31 180.89ZM1043.83 181.788C1038.13 182.533 1033.41 184.717 1029.76 188.373L1031.17 189.787C1034.47 186.483 1038.76 184.467 1044.09 183.772L1043.83 181.788ZM1029.74 188.385C1026.13 192.128 1024.65 197.301 1025.15 203.737L1027.14 203.583C1026.68 197.539 1028.08 192.992 1031.18 189.775L1029.74 188.385ZM1144.21 224V225H1145.21V224H1144.21ZM1099.21 224H1098.21V225H1099.21V224ZM1099.21 220.4V219.4H1098.21V220.4H1099.21ZM1108.21 220.4V221.4H1109.21V220.4H1108.21ZM1108.21 144.8H1109.21V143.8H1108.21V144.8ZM1099.21 144.8H1098.21V145.8H1099.21V144.8ZM1099.21 141.2V140.2H1098.21V141.2H1099.21ZM1135.21 141.2H1136.21V140.2H1135.21V141.2ZM1135.21 162.62H1134.21L1136.19 162.801L1135.21 162.62ZM1140.97 148.22L1140.18 147.608L1140.17 147.616L1140.17 147.624L1140.97 148.22ZM1150.33 140.84L1150 139.895L1149.99 139.898L1150.33 140.84ZM1169.41 140.84L1169.02 141.763L1169.05 141.773L1169.07 141.781L1169.41 140.84ZM1176.07 147.68L1175.15 148.062L1175.15 148.074L1176.07 147.68ZM1176.25 157.94L1177.18 158.306L1177.18 158.295L1176.25 157.94ZM1169.23 165.14L1168.84 164.221L1168.82 164.226L1169.23 165.14ZM1160.23 165.68L1159.86 166.611L1159.86 166.611L1160.23 165.68ZM1154.29 161.36L1153.44 161.89L1153.45 161.902L1153.46 161.915L1154.29 161.36ZM1151.77 155.96L1150.8 156.221L1150.81 156.228L1150.81 156.235L1151.77 155.96ZM1139.35 161.18L1140.29 161.514L1140.29 161.509L1139.35 161.18ZM1135.21 220.4H1134.21V221.4H1135.21V220.4ZM1144.21 220.4H1145.21V219.4H1144.21V220.4ZM1144.21 223H1099.21V225H1144.21V223ZM1100.21 224V220.4H1098.21V224H1100.21ZM1099.21 221.4H1108.21V219.4H1099.21V221.4ZM1109.21 220.4V144.8H1107.21V220.4H1109.21ZM1108.21 143.8H1099.21V145.8H1108.21V143.8ZM1100.21 144.8V141.2H1098.21V144.8H1100.21ZM1099.21 142.2H1135.21V140.2H1099.21V142.2ZM1134.21 141.2V162.62H1136.21V141.2H1134.21ZM1136.19 162.801C1137.25 157.029 1139.13 152.383 1141.77 148.816L1140.17 147.624C1137.29 151.497 1135.33 156.451 1134.23 162.439L1136.19 162.801ZM1141.76 148.832C1144.56 145.216 1147.53 142.9 1150.67 141.782L1149.99 139.898C1146.4 141.18 1143.14 143.784 1140.18 147.608L1141.76 148.832ZM1150.66 141.785C1154.05 140.615 1157.24 140.04 1160.23 140.04V138.04C1156.98 138.04 1153.57 138.665 1150 139.895L1150.66 141.785ZM1160.23 140.04C1163.34 140.04 1166.27 140.616 1169.02 141.763L1169.79 139.917C1166.79 138.664 1163.6 138.04 1160.23 138.04V140.04ZM1169.07 141.781C1171.76 142.748 1173.79 144.791 1175.15 148.062L1176.99 147.298C1175.47 143.609 1173.06 141.092 1169.75 139.899L1169.07 141.781ZM1175.15 148.074C1176.49 151.191 1176.54 154.343 1175.31 157.585L1177.18 158.295C1178.59 154.577 1178.53 150.889 1176.99 147.286L1175.15 148.074ZM1175.32 157.574C1174.1 160.682 1171.95 162.885 1168.84 164.221L1169.62 166.059C1173.23 164.515 1175.76 161.918 1177.18 158.306L1175.32 157.574ZM1168.82 164.226C1165.78 165.581 1163.06 165.713 1160.59 164.749L1159.86 166.611C1162.92 167.807 1166.2 167.579 1169.64 166.054L1168.82 164.226ZM1160.59 164.749C1157.96 163.716 1156.17 162.382 1155.12 160.805L1153.46 161.915C1154.81 163.938 1156.98 165.484 1159.86 166.611L1160.59 164.749ZM1155.14 160.83C1153.97 158.967 1153.18 157.253 1152.73 155.685L1150.81 156.235C1151.32 158.027 1152.21 159.913 1153.44 161.89L1155.14 160.83ZM1152.73 155.699C1152.12 153.43 1151.38 151.629 1150.46 150.376C1149.53 149.105 1148.35 148.3 1146.91 148.3V150.3C1147.51 150.3 1148.15 150.605 1148.85 151.554C1149.55 152.521 1150.22 154.05 1150.8 156.221L1152.73 155.699ZM1146.91 148.3C1146.03 148.3 1145.23 148.682 1144.52 149.271C1143.81 149.858 1143.13 150.695 1142.47 151.733C1141.14 153.81 1139.79 156.865 1138.4 160.851L1140.29 161.509C1141.66 157.575 1142.95 154.69 1144.15 152.807C1144.75 151.865 1145.3 151.217 1145.79 150.814C1146.28 150.413 1146.64 150.3 1146.91 150.3V148.3ZM1138.41 160.846C1135.61 168.76 1134.21 177.153 1134.21 186.02H1136.21C1136.21 177.367 1137.57 169.2 1140.29 161.514L1138.41 160.846ZM1134.21 186.02V220.4H1136.21V186.02H1134.21ZM1135.21 221.4H1144.21V219.4H1135.21V221.4ZM1143.21 220.4V224H1145.21V220.4H1143.21ZM1219.34 144.8V143.8H1218.34V144.8H1219.34ZM1220.6 207.62L1219.66 207.966L1219.67 207.974L1219.67 207.982L1220.6 207.62ZM1223.3 213.2L1224.17 212.7L1224.16 212.688L1224.15 212.676L1223.3 213.2ZM1242.2 216.08H1243.2V214.211L1241.65 215.248L1242.2 216.08ZM1242.2 219.68L1242.78 220.496L1243.2 220.197V219.68H1242.2ZM1200.26 218.6L1200.93 217.86L1200.93 217.86L1200.26 218.6ZM1192.34 144.8H1193.34V143.8H1192.34V144.8ZM1179.02 144.8H1178.02V145.8H1179.02V144.8ZM1179.02 141.2V140.2H1178.02V141.2H1179.02ZM1192.34 141.2V142.2H1192.42L1192.51 142.186L1192.34 141.2ZM1207.64 132.92L1208.36 133.618L1208.37 133.608L1207.64 132.92ZM1216.82 113.66V112.66H1216.01L1215.84 113.458L1216.82 113.66ZM1219.34 113.66H1220.34V112.66H1219.34V113.66ZM1219.34 141.2H1218.34V142.2H1219.34V141.2ZM1240.22 141.2H1241.22V140.2H1240.22V141.2ZM1240.22 144.8V145.8H1241.22V144.8H1240.22ZM1218.34 144.8V188.72H1220.34V144.8H1218.34ZM1218.34 188.72C1218.34 193.89 1218.45 198.07 1218.66 201.252C1218.87 204.392 1219.19 206.673 1219.66 207.966L1221.54 207.274C1221.18 206.287 1220.86 204.278 1220.65 201.118C1220.45 198 1220.34 193.87 1220.34 188.72H1218.34ZM1219.67 207.982C1220.53 210.185 1221.45 212.101 1222.45 213.724L1224.15 212.676C1223.23 211.179 1222.36 209.375 1221.53 207.258L1219.67 207.982ZM1222.43 213.7C1224.46 217.205 1227.96 218.88 1232.66 218.88V216.88C1228.48 216.88 1225.74 215.435 1224.17 212.7L1222.43 213.7ZM1232.66 218.88C1237.24 218.88 1240.69 218.29 1242.76 216.912L1241.65 215.248C1240.11 216.27 1237.2 216.88 1232.66 216.88V218.88ZM1241.2 216.08V219.68H1243.2V216.08H1241.2ZM1241.62 218.864C1236.03 222.828 1229.93 224.8 1223.3 224.8V226.8C1230.35 226.8 1236.86 224.692 1242.78 220.496L1241.62 218.864ZM1223.3 224.8C1213.37 224.8 1205.97 222.435 1200.93 217.86L1199.59 219.34C1205.12 224.365 1213.07 226.8 1223.3 226.8V224.8ZM1200.93 217.86C1195.97 213.35 1193.34 205.133 1193.34 192.86H1191.34C1191.34 205.307 1193.99 214.25 1199.59 219.34L1200.93 217.86ZM1193.34 192.86V144.8H1191.34V192.86H1193.34ZM1192.34 143.8H1179.02V145.8H1192.34V143.8ZM1180.02 144.8V141.2H1178.02V144.8H1180.02ZM1179.02 142.2H1192.34V140.2H1179.02V142.2ZM1192.51 142.186C1198.49 141.188 1203.78 138.316 1208.36 133.618L1206.92 132.222C1202.62 136.644 1197.71 139.292 1192.18 140.214L1192.51 142.186ZM1208.37 133.608C1212.97 128.759 1216.09 122.152 1217.8 113.862L1215.84 113.458C1214.19 121.488 1211.19 127.721 1206.92 132.232L1208.37 133.608ZM1216.82 114.66H1219.34V112.66H1216.82V114.66ZM1218.34 113.66V141.2H1220.34V113.66H1218.34ZM1219.34 142.2H1240.22V140.2H1219.34V142.2ZM1239.22 141.2V144.8H1241.22V141.2H1239.22ZM1240.22 143.8H1219.34V145.8H1240.22V143.8Z" fill="url(#paint7_linear_21_73)"/>
<path d="M1450.94 215.941C1449.74 217.141 1447.46 218.221 1444.1 219.181C1440.74 220.021 1436.84 220.441 1432.4 220.441C1422.56 220.441 1416.38 217.501 1413.86 211.621C1407.86 217.861 1398.68 220.981 1386.32 220.981C1379.72 220.981 1374.26 219.481 1369.94 216.481C1365.74 213.361 1363.64 208.801 1363.64 202.801C1363.64 194.761 1366.76 188.581 1373 184.261C1379.24 179.821 1390.16 176.701 1405.76 174.901L1412.96 174.001V165.181C1412.96 154.741 1412.18 147.721 1410.62 144.121C1409.06 140.521 1405.94 138.721 1401.26 138.721C1396.7 138.721 1393.76 139.381 1392.44 140.701C1391.12 141.901 1390.64 143.341 1391 145.021C1391.36 146.581 1391.96 148.681 1392.8 151.321C1393.64 153.961 1394.06 156.061 1394.06 157.621C1394.06 161.341 1392.74 164.521 1390.1 167.161C1387.58 169.681 1384.46 170.941 1380.74 170.941C1377.14 170.941 1374.02 169.681 1371.38 167.161C1368.74 164.521 1367.42 161.341 1367.42 157.621C1367.42 151.501 1370.54 146.281 1376.78 141.961C1383.14 137.521 1392.56 135.301 1405.04 135.301C1417.64 135.301 1426.58 137.761 1431.86 142.681C1437.26 147.601 1439.96 156.301 1439.96 168.781V201.181C1439.96 207.541 1440.74 211.561 1442.3 213.241C1443.86 214.801 1446.74 215.101 1450.94 214.141V215.941ZM1388.66 199.201C1389.26 203.761 1390.94 207.301 1393.7 209.821C1396.46 212.221 1399.64 213.421 1403.24 213.421C1406.96 213.421 1410.2 211.621 1412.96 208.021V177.421L1406.48 178.321C1400.96 179.041 1396.46 181.141 1392.98 184.621C1389.62 188.101 1388.18 192.961 1388.66 199.201ZM1494.84 140.341V184.261C1494.84 194.581 1495.26 200.881 1496.1 203.161C1496.94 205.321 1497.84 207.181 1498.8 208.741C1500.6 211.861 1503.72 213.421 1508.16 213.421C1512.72 213.421 1515.9 212.821 1517.7 211.621V215.221C1511.94 219.301 1505.64 221.341 1498.8 221.341C1488.72 221.341 1481.04 218.941 1475.76 214.141C1470.48 209.341 1467.84 200.761 1467.84 188.401V140.341H1454.52V136.741H1467.84C1473.6 135.781 1478.7 133.021 1483.14 128.461C1487.58 123.781 1490.64 117.361 1492.32 109.201H1494.84V136.741H1515.72V140.341H1494.84Z" fill="url(#paint8_linear_21_73)"/>
<path d="M1450.94 215.941L1451.65 216.648L1451.94 216.355V215.941H1450.94ZM1444.1 219.181L1444.34 220.151L1444.36 220.147L1444.37 220.142L1444.1 219.181ZM1413.86 211.621L1414.78 211.227L1414.18 209.84L1413.14 210.928L1413.86 211.621ZM1369.94 216.481L1369.34 217.284L1369.35 217.293L1369.37 217.302L1369.94 216.481ZM1373 184.261L1373.57 185.083L1373.58 185.076L1373 184.261ZM1405.76 174.901L1405.87 175.894L1405.88 175.893L1405.76 174.901ZM1412.96 174.001L1413.08 174.993L1413.96 174.884V174.001H1412.96ZM1410.62 144.121L1411.54 143.723L1411.54 143.723L1410.62 144.121ZM1392.44 140.701L1393.11 141.441L1393.13 141.425L1393.15 141.408L1392.44 140.701ZM1391 145.021L1390.02 145.23L1390.02 145.238L1390.02 145.246L1391 145.021ZM1392.8 151.321L1391.84 151.624L1391.84 151.624L1392.8 151.321ZM1390.1 167.161L1390.81 167.868L1390.81 167.868L1390.1 167.161ZM1371.38 167.161L1370.67 167.868L1370.68 167.876L1370.69 167.884L1371.38 167.161ZM1376.78 141.961L1377.35 142.783L1377.35 142.781L1376.78 141.961ZM1431.86 142.681L1431.18 143.412L1431.18 143.42L1431.86 142.681ZM1442.3 213.241L1441.57 213.921L1441.58 213.935L1441.59 213.948L1442.3 213.241ZM1450.94 214.141H1451.94V212.886L1450.72 213.166L1450.94 214.141ZM1388.66 199.201L1387.66 199.277L1387.66 199.304L1387.67 199.331L1388.66 199.201ZM1393.7 209.821L1393.02 210.559L1393.03 210.567L1393.04 210.575L1393.7 209.821ZM1412.96 208.021L1413.75 208.629L1413.96 208.36V208.021H1412.96ZM1412.96 177.421H1413.96V176.272L1412.82 176.43L1412.96 177.421ZM1406.48 178.321L1406.61 179.312L1406.62 179.311L1406.48 178.321ZM1392.98 184.621L1392.27 183.914L1392.26 183.92L1392.26 183.926L1392.98 184.621ZM1450.23 215.234C1449.22 216.242 1447.16 217.266 1443.82 218.219L1444.37 220.142C1447.76 219.175 1450.25 218.04 1451.65 216.648L1450.23 215.234ZM1443.86 218.211C1440.59 219.026 1436.78 219.441 1432.4 219.441V221.441C1436.9 221.441 1440.88 221.015 1444.34 220.151L1443.86 218.211ZM1432.4 219.441C1422.71 219.441 1417.06 216.557 1414.78 211.227L1412.94 212.015C1415.69 218.444 1422.4 221.441 1432.4 221.441V219.441ZM1413.14 210.928C1407.39 216.9 1398.52 219.981 1386.32 219.981V221.981C1398.83 221.981 1408.32 218.821 1414.58 212.314L1413.14 210.928ZM1386.32 219.981C1379.87 219.981 1374.62 218.516 1370.51 215.659L1369.37 217.302C1373.89 220.445 1379.57 221.981 1386.32 221.981V219.981ZM1370.53 215.678C1366.63 212.776 1364.64 208.537 1364.64 202.801H1362.64C1362.64 209.064 1364.85 213.945 1369.34 217.284L1370.53 215.678ZM1364.64 202.801C1364.64 195.066 1367.62 189.203 1373.57 185.083L1372.43 183.439C1365.9 187.958 1362.64 194.456 1362.64 202.801H1364.64ZM1373.58 185.076C1379.6 180.792 1390.3 177.691 1405.87 175.894L1405.64 173.907C1390.02 175.71 1378.88 178.85 1372.42 183.446L1373.58 185.076ZM1405.88 175.893L1413.08 174.993L1412.83 173.008L1405.63 173.908L1405.88 175.893ZM1413.96 174.001V165.181H1411.96V174.001H1413.96ZM1413.96 165.181C1413.96 159.94 1413.76 155.535 1413.37 151.975C1412.97 148.432 1412.37 145.66 1411.54 143.723L1409.7 144.518C1410.42 146.181 1410.99 148.719 1411.38 152.196C1411.76 155.657 1411.96 159.982 1411.96 165.181H1413.96ZM1411.54 143.723C1410.68 141.745 1409.37 140.222 1407.61 139.205C1405.86 138.194 1403.72 137.721 1401.26 137.721V139.721C1403.47 139.721 1405.24 140.147 1406.61 140.937C1407.97 141.72 1409 142.897 1409.7 144.518L1411.54 143.723ZM1401.26 137.721C1398.94 137.721 1396.98 137.888 1395.41 138.24C1393.86 138.588 1392.58 139.141 1391.73 139.994L1393.15 141.408C1393.61 140.941 1394.46 140.503 1395.85 140.191C1397.22 139.884 1399.02 139.721 1401.26 139.721V137.721ZM1391.77 139.961C1390.19 141.389 1389.58 143.186 1390.02 145.23L1391.98 144.811C1391.69 143.496 1392.04 142.412 1393.11 141.441L1391.77 139.961ZM1390.02 145.246C1390.39 146.844 1391 148.974 1391.84 151.624L1393.75 151.018C1392.91 148.388 1392.32 146.317 1391.97 144.796L1390.02 145.246ZM1391.84 151.624C1392.67 154.229 1393.06 156.214 1393.06 157.621H1395.06C1395.06 155.908 1394.6 153.692 1393.75 151.018L1391.84 151.624ZM1393.06 157.621C1393.06 161.074 1391.84 164 1389.39 166.454L1390.81 167.868C1393.63 165.041 1395.06 161.607 1395.06 157.621H1393.06ZM1389.39 166.454C1387.07 168.777 1384.21 169.941 1380.74 169.941V171.941C1384.71 171.941 1388.09 170.584 1390.81 167.868L1389.39 166.454ZM1380.74 169.941C1377.4 169.941 1374.53 168.783 1372.07 166.437L1370.69 167.884C1373.51 170.579 1376.88 171.941 1380.74 171.941V169.941ZM1372.09 166.454C1369.63 164 1368.42 161.074 1368.42 157.621H1366.42C1366.42 161.607 1367.84 165.041 1370.67 167.868L1372.09 166.454ZM1368.42 157.621C1368.42 151.909 1371.3 146.967 1377.35 142.783L1376.21 141.139C1369.77 145.595 1366.42 151.093 1366.42 157.621H1368.42ZM1377.35 142.781C1383.47 138.51 1392.65 136.301 1405.04 136.301V134.301C1392.47 134.301 1382.81 136.532 1376.21 141.141L1377.35 142.781ZM1405.04 136.301C1417.56 136.301 1426.18 138.755 1431.18 143.412L1432.54 141.949C1426.98 136.767 1417.72 134.301 1405.04 134.301V136.301ZM1431.18 143.42C1436.27 148.052 1438.96 156.393 1438.96 168.781H1440.96C1440.96 156.208 1438.25 147.149 1432.53 141.942L1431.18 143.42ZM1438.96 168.781V201.181H1440.96V168.781H1438.96ZM1438.96 201.181C1438.96 204.394 1439.15 207.059 1439.56 209.156C1439.96 211.225 1440.59 212.874 1441.57 213.921L1443.03 212.56C1442.44 211.927 1441.9 210.727 1441.52 208.775C1441.15 206.852 1440.96 204.328 1440.96 201.181H1438.96ZM1441.59 213.948C1443.55 215.91 1446.93 216.083 1451.16 215.116L1450.72 213.166C1446.55 214.118 1444.16 213.691 1443.01 212.534L1441.59 213.948ZM1449.94 214.141V215.941H1451.94V214.141H1449.94ZM1387.67 199.331C1388.29 204.069 1390.05 207.846 1393.02 210.559L1394.37 209.082C1391.82 206.755 1390.23 203.452 1389.65 199.07L1387.67 199.331ZM1393.04 210.575C1395.98 213.131 1399.39 214.421 1403.24 214.421V212.421C1399.88 212.421 1396.94 211.311 1394.35 209.066L1393.04 210.575ZM1403.24 214.421C1407.34 214.421 1410.85 212.416 1413.75 208.629L1412.16 207.412C1409.55 210.826 1406.58 212.421 1403.24 212.421V214.421ZM1413.96 208.021V177.421H1411.96V208.021H1413.96ZM1412.82 176.43L1406.34 177.33L1406.62 179.311L1413.1 178.411L1412.82 176.43ZM1406.35 177.329C1400.64 178.074 1395.93 180.258 1392.27 183.914L1393.69 185.328C1396.99 182.024 1401.28 180.008 1406.61 179.312L1406.35 177.329ZM1392.26 183.926C1388.65 187.668 1387.17 192.842 1387.66 199.277L1389.65 199.124C1389.19 193.08 1390.59 188.533 1393.7 185.315L1392.26 183.926ZM1494.84 140.341V139.341H1493.84V140.341H1494.84ZM1496.1 203.161L1495.17 203.506L1495.17 203.515L1495.17 203.523L1496.1 203.161ZM1498.8 208.741L1499.67 208.241L1499.66 208.229L1499.66 208.217L1498.8 208.741ZM1517.7 211.621H1518.7V209.752L1517.15 210.789L1517.7 211.621ZM1517.7 215.221L1518.28 216.037L1518.7 215.738V215.221H1517.7ZM1475.76 214.141L1476.44 213.401L1476.44 213.401L1475.76 214.141ZM1467.84 140.341H1468.84V139.341H1467.84V140.341ZM1454.52 140.341H1453.52V141.341H1454.52V140.341ZM1454.52 136.741V135.741H1453.52V136.741H1454.52ZM1467.84 136.741V137.741H1467.93L1468.01 137.727L1467.84 136.741ZM1483.14 128.461L1483.86 129.158L1483.87 129.149L1483.14 128.461ZM1492.32 109.201V108.201H1491.51L1491.34 108.999L1492.32 109.201ZM1494.84 109.201H1495.84V108.201H1494.84V109.201ZM1494.84 136.741H1493.84V137.741H1494.84V136.741ZM1515.72 136.741H1516.72V135.741H1515.72V136.741ZM1515.72 140.341V141.341H1516.72V140.341H1515.72ZM1493.84 140.341V184.261H1495.84V140.341H1493.84ZM1493.84 184.261C1493.84 189.431 1493.95 193.611 1494.16 196.792C1494.37 199.933 1494.69 202.214 1495.17 203.506L1497.04 202.815C1496.68 201.828 1496.37 199.819 1496.16 196.659C1495.95 193.541 1495.84 189.411 1495.84 184.261H1493.84ZM1495.17 203.523C1496.03 205.725 1496.95 207.642 1497.95 209.265L1499.66 208.217C1498.73 206.719 1497.86 204.916 1497.04 202.798L1495.17 203.523ZM1497.94 209.24C1499.96 212.746 1503.46 214.421 1508.16 214.421V212.421C1503.98 212.421 1501.25 210.976 1499.67 208.241L1497.94 209.24ZM1508.16 214.421C1512.75 214.421 1516.19 213.831 1518.26 212.453L1517.15 210.789C1515.62 211.811 1512.7 212.421 1508.16 212.421V214.421ZM1516.7 211.621V215.221H1518.7V211.621H1516.7ZM1517.13 214.405C1511.53 218.369 1505.43 220.341 1498.8 220.341V222.341C1505.86 222.341 1512.36 220.232 1518.28 216.037L1517.13 214.405ZM1498.8 220.341C1488.87 220.341 1481.47 217.975 1476.44 213.401L1475.09 214.881C1480.62 219.906 1488.58 222.341 1498.8 222.341V220.341ZM1476.44 213.401C1471.48 208.89 1468.84 200.674 1468.84 188.401H1466.84C1466.84 200.848 1469.49 209.791 1475.09 214.881L1476.44 213.401ZM1468.84 188.401V140.341H1466.84V188.401H1468.84ZM1467.84 139.341H1454.52V141.341H1467.84V139.341ZM1455.52 140.341V136.741H1453.52V140.341H1455.52ZM1454.52 137.741H1467.84V135.741H1454.52V137.741ZM1468.01 137.727C1474 136.729 1479.29 133.856 1483.86 129.158L1482.43 127.763C1478.12 132.185 1473.21 134.833 1467.68 135.754L1468.01 137.727ZM1483.87 129.149C1488.47 124.3 1491.6 117.693 1493.3 109.402L1491.34 108.999C1489.69 117.029 1486.7 123.262 1482.42 127.773L1483.87 129.149ZM1492.32 110.201H1494.84V108.201H1492.32V110.201ZM1493.84 109.201V136.741H1495.84V109.201H1493.84ZM1494.84 137.741H1515.72V135.741H1494.84V137.741ZM1514.72 136.741V140.341H1516.72V136.741H1514.72ZM1515.72 139.341H1494.84V141.341H1515.72V139.341Z" fill="url(#paint9_linear_21_73)"/>
<path d="M836.513 404.059C835.313 405.259 833.033 406.339 829.673 407.299C826.313 408.139 822.413 408.559 817.973 408.559C808.133 408.559 801.953 405.619 799.433 399.739C793.433 405.979 784.253 409.099 771.893 409.099C765.293 409.099 759.833 407.599 755.513 404.599C751.313 401.479 749.213 396.919 749.213 390.919C749.213 382.879 752.333 376.699 758.573 372.379C764.813 367.939 775.733 364.819 791.333 363.019L798.533 362.119V353.299C798.533 342.859 797.753 335.839 796.193 332.239C794.633 328.639 791.513 326.839 786.833 326.839C782.273 326.839 779.333 327.499 778.013 328.819C776.693 330.019 776.213 331.459 776.573 333.139C776.933 334.699 777.533 336.799 778.373 339.439C779.213 342.079 779.633 344.179 779.633 345.739C779.633 349.459 778.313 352.639 775.673 355.279C773.153 357.799 770.033 359.059 766.313 359.059C762.713 359.059 759.593 357.799 756.953 355.279C754.313 352.639 752.993 349.459 752.993 345.739C752.993 339.619 756.113 334.399 762.353 330.079C768.713 325.639 778.133 323.419 790.613 323.419C803.213 323.419 812.153 325.879 817.433 330.799C822.833 335.719 825.533 344.419 825.533 356.899V389.299C825.533 395.659 826.313 399.679 827.873 401.359C829.433 402.919 832.313 403.219 836.513 402.259V404.059ZM774.233 387.319C774.833 391.879 776.513 395.419 779.273 397.939C782.033 400.339 785.213 401.539 788.813 401.539C792.533 401.539 795.773 399.739 798.533 396.139V365.539L792.053 366.439C786.533 367.159 782.033 369.259 778.553 372.739C775.193 376.219 773.753 381.079 774.233 387.319Z" fill="url(#paint10_linear_21_73)"/>
<path d="M836.513 404.059L837.22 404.766L837.513 404.473V404.059H836.513ZM829.673 407.299L829.916 408.269L829.932 408.265L829.948 408.26L829.673 407.299ZM799.433 399.739L800.352 399.345L799.758 397.958L798.713 399.046L799.433 399.739ZM755.513 404.599L754.917 405.401L754.93 405.411L754.943 405.42L755.513 404.599ZM758.573 372.379L759.143 373.201L759.153 373.193L758.573 372.379ZM791.333 363.019L791.448 364.012L791.457 364.011L791.333 363.019ZM798.533 362.119L798.657 363.111L799.533 363.001V362.119H798.533ZM796.193 332.239L797.111 331.841L797.111 331.841L796.193 332.239ZM778.013 328.819L778.686 329.559L778.704 329.543L778.72 329.526L778.013 328.819ZM776.573 333.139L775.596 333.348L775.597 333.356L775.599 333.364L776.573 333.139ZM778.373 339.439L777.42 339.742L777.42 339.742L778.373 339.439ZM775.673 355.279L776.38 355.986L776.38 355.986L775.673 355.279ZM756.953 355.279L756.246 355.986L756.254 355.994L756.263 356.002L756.953 355.279ZM762.353 330.079L762.923 330.901L762.926 330.899L762.353 330.079ZM817.433 330.799L816.752 331.53L816.76 331.538L817.433 330.799ZM827.873 401.359L827.141 402.039L827.153 402.053L827.166 402.066L827.873 401.359ZM836.513 402.259H837.513V401.004L836.291 401.284L836.513 402.259ZM774.233 387.319L773.236 387.395L773.238 387.422L773.242 387.449L774.233 387.319ZM779.273 397.939L778.599 398.677L778.608 398.685L778.617 398.693L779.273 397.939ZM798.533 396.139L799.327 396.747L799.533 396.478V396.139H798.533ZM798.533 365.539H799.533V364.39L798.396 364.548L798.533 365.539ZM792.053 366.439L792.183 367.43L792.191 367.429L792.053 366.439ZM778.553 372.739L777.846 372.032L777.84 372.038L777.834 372.044L778.553 372.739ZM835.806 403.352C834.798 404.359 832.734 405.384 829.399 406.337L829.948 408.26C833.333 407.293 835.828 406.158 837.22 404.766L835.806 403.352ZM829.431 406.329C826.169 407.144 822.353 407.559 817.973 407.559V409.559C822.473 409.559 826.458 409.133 829.916 408.269L829.431 406.329ZM817.973 407.559C808.289 407.559 802.637 404.675 800.352 399.345L798.514 400.133C801.27 406.562 807.978 409.559 817.973 409.559V407.559ZM798.713 399.046C792.97 405.018 784.099 408.099 771.893 408.099V410.099C784.407 410.099 793.897 406.939 800.154 400.432L798.713 399.046ZM771.893 408.099C765.445 408.099 760.198 406.634 756.084 403.777L754.943 405.42C759.469 408.563 765.142 410.099 771.893 410.099V408.099ZM756.11 403.796C752.203 400.894 750.213 396.655 750.213 390.919H748.213C748.213 397.182 750.423 402.063 754.917 405.401L756.11 403.796ZM750.213 390.919C750.213 383.184 753.191 377.321 759.143 373.201L758.004 371.556C751.476 376.076 748.213 382.574 748.213 390.919H750.213ZM759.153 373.193C765.174 368.91 775.874 365.809 791.448 364.012L791.219 362.025C775.593 363.828 764.453 366.968 757.994 371.564L759.153 373.193ZM791.457 364.011L798.657 363.111L798.409 361.126L791.209 362.026L791.457 364.011ZM799.533 362.119V353.299H797.533V362.119H799.533ZM799.533 353.299C799.533 348.057 799.338 343.653 798.942 340.093C798.549 336.55 797.95 333.778 797.111 331.841L795.276 332.636C795.996 334.299 796.568 336.837 796.954 340.314C797.339 343.775 797.533 348.1 797.533 353.299H799.533ZM797.111 331.841C796.254 329.863 794.946 328.339 793.183 327.323C791.432 326.312 789.298 325.839 786.833 325.839V327.839C789.049 327.839 790.815 328.265 792.184 329.055C793.541 329.838 794.573 331.015 795.276 332.636L797.111 331.841ZM786.833 325.839C784.513 325.839 782.558 326.006 780.989 326.358C779.437 326.706 778.159 327.259 777.306 328.112L778.72 329.526C779.188 329.059 780.039 328.621 781.427 328.309C782.799 328.002 784.594 327.839 786.833 327.839V325.839ZM777.341 328.079C775.77 329.507 775.157 331.304 775.596 333.348L777.551 332.929C777.269 331.614 777.617 330.53 778.686 329.559L777.341 328.079ZM775.599 333.364C775.968 334.962 776.577 337.092 777.42 339.742L779.326 339.135C778.489 336.506 777.899 334.435 777.548 332.914L775.599 333.364ZM777.42 339.742C778.249 342.347 778.633 344.332 778.633 345.739H780.633C780.633 344.025 780.177 341.81 779.326 339.135L777.42 339.742ZM778.633 345.739C778.633 349.192 777.419 352.118 774.966 354.572L776.38 355.986C779.207 353.159 780.633 349.725 780.633 345.739H778.633ZM774.966 354.572C772.643 356.895 769.781 358.059 766.313 358.059V360.059C770.286 360.059 773.664 358.702 776.38 355.986L774.966 354.572ZM766.313 358.059C762.974 358.059 760.101 356.9 757.644 354.555L756.263 356.002C759.086 358.697 762.452 360.059 766.313 360.059V358.059ZM757.66 354.572C755.207 352.118 753.993 349.192 753.993 345.739H751.993C751.993 349.725 753.419 353.159 756.246 355.986L757.66 354.572ZM753.993 345.739C753.993 340.027 756.879 335.085 762.923 330.901L761.784 329.256C755.347 333.713 751.993 339.211 751.993 345.739H753.993ZM762.926 330.899C769.044 326.628 778.224 324.419 790.613 324.419V322.419C778.043 322.419 768.383 324.65 761.781 329.259L762.926 330.899ZM790.613 324.419C803.133 324.419 811.753 326.873 816.752 331.53L818.115 330.067C812.554 324.885 803.293 322.419 790.613 322.419V324.419ZM816.76 331.538C821.844 336.17 824.533 344.511 824.533 356.899H826.533C826.533 344.326 823.822 335.267 818.107 330.059L816.76 331.538ZM824.533 356.899V389.299H826.533V356.899H824.533ZM824.533 389.299C824.533 392.512 824.73 395.177 825.137 397.274C825.538 399.343 826.168 400.992 827.141 402.039L828.606 400.678C828.018 400.045 827.479 398.845 827.1 396.893C826.727 394.97 826.533 392.446 826.533 389.299H824.533ZM827.166 402.066C829.128 404.028 832.503 404.201 836.736 403.234L836.291 401.284C832.123 402.236 829.738 401.809 828.58 400.652L827.166 402.066ZM835.513 402.259V404.059H837.513V402.259H835.513ZM773.242 387.449C773.865 392.187 775.627 395.964 778.599 398.677L779.948 397.2C777.399 394.873 775.801 391.57 775.225 387.188L773.242 387.449ZM778.617 398.693C781.556 401.249 784.968 402.539 788.813 402.539V400.539C785.459 400.539 782.511 399.429 779.93 397.184L778.617 398.693ZM788.813 402.539C792.913 402.539 796.424 400.534 799.327 396.747L797.74 395.53C795.123 398.944 792.153 400.539 788.813 400.539V402.539ZM799.533 396.139V365.539H797.533V396.139H799.533ZM798.396 364.548L791.916 365.448L792.191 367.429L798.671 366.529L798.396 364.548ZM791.924 365.447C786.215 366.192 781.502 368.375 777.846 372.032L779.26 373.446C782.564 370.142 786.851 368.126 792.183 367.43L791.924 365.447ZM777.834 372.044C774.221 375.786 772.741 380.96 773.236 387.395L775.23 387.242C774.765 381.198 776.166 376.651 779.273 373.433L777.834 372.044Z" fill="url(#paint11_linear_21_73)"/>
<g opacity="0.8" filter="url(#filter1_f_21_73)">
<path d="M228.846 510.527C228.846 523.069 239.013 533.236 251.555 533.236V533.236C264.098 533.236 274.265 523.069 274.265 510.527V449.37C274.265 436.828 264.098 426.66 251.555 426.66V426.66C239.013 426.66 228.846 436.828 228.846 449.37V510.527Z" fill="url(#paint12_linear_21_73)"/>
<rect width="55.3548" height="213.152" rx="23" transform="matrix(1 0 0 -1 524.339 532.481)" fill="url(#paint13_linear_21_73)"/>
<rect width="28.3871" height="84.0311" rx="14.1935" transform="matrix(1 0 0 -1 150.338 545.461)" fill="url(#paint14_linear_21_73)"/>
<rect width="48.258" height="127.071" rx="23" transform="matrix(1 0 0 -1 323.709 496.287)" fill="url(#paint15_linear_21_73)"/>
<rect width="52.5161" height="155.765" rx="23" transform="matrix(1 0 0 -1 421.843 461.488)" fill="url(#paint16_linear_21_73)"/>
</g>
<path d="M343.855 50.0842C313.563 39.8776 281.758 37.5338 250.626 43.214C219.494 48.8942 189.774 62.4636 163.51 82.9892C137.245 103.515 115.059 130.509 98.4765 162.117C81.8945 193.725 71.3099 229.196 67.4508 266.09C63.5916 302.985 66.5494 340.428 76.1207 375.846C85.6921 411.263 101.65 443.814 122.897 471.26C144.144 498.706 170.176 520.397 199.203 534.84C228.23 549.283 259.563 556.136 291.048 554.928L288.347 456.86C268.862 457.608 249.471 453.366 231.507 444.428C213.544 435.49 197.433 422.067 184.285 405.081C171.136 388.096 161.26 367.952 155.337 346.033C149.414 324.115 147.583 300.943 149.971 278.11C152.36 255.278 158.91 233.327 169.172 213.766C179.434 194.205 193.164 177.499 209.418 164.797C225.672 152.095 244.065 143.697 263.331 140.182C282.597 136.667 302.28 138.117 321.026 144.434L343.855 50.0842Z" fill="url(#paint17_linear_21_73)"/>
<path d="M129.361 448.042C117.046 486.516 144.855 526.118 185.224 527.597L655.704 544.834L44 566.938L257.765 49.9056L161.44 347.824L129.361 448.042Z" fill="url(#paint18_linear_21_73)" stroke="white" stroke-width="2"/>
<rect x="255.325" y="373.084" width="82.5358" height="140.796" rx="22" fill="url(#paint19_linear_21_73)" stroke="white" stroke-width="2"/>
<rect x="544.387" y="118.908" width="82.5358" height="285.056" rx="22" fill="url(#paint20_linear_21_73)" stroke="white" stroke-width="2"/>
<rect x="158.971" y="444.482" width="82.5358" height="112.237" rx="22" fill="url(#paint21_linear_21_73)" stroke="white" stroke-width="2"/>
<rect x="351.679" y="273.127" width="82.5358" height="169.355" rx="22" fill="url(#paint22_linear_21_73)" stroke="white" stroke-width="2"/>
<rect x="448.033" y="163.65" width="82.5358" height="207.434" rx="22" fill="url(#paint23_linear_21_73)" stroke="white" stroke-width="2"/>
<defs>
<filter id="filter0_f_21_73" x="725.412" y="194.172" width="771.899" height="331.567" filterUnits="userSpaceOnUse" color-interpolation-filters="sRGB">
<feFlood flood-opacity="0" result="BackgroundImageFix"/>
<feBlend mode="normal" in="SourceGraphic" in2="BackgroundImageFix" result="shape"/>
<feGaussianBlur stdDeviation="8" result="effect1_foregroundBlur_21_73"/>
</filter>
<filter id="filter1_f_21_73" x="123.338" y="278.723" width="483.355" height="293.738" filterUnits="userSpaceOnUse" color-interpolation-filters="sRGB">
<feFlood flood-opacity="0" result="BackgroundImageFix"/>
<feBlend mode="normal" in="SourceGraphic" in2="BackgroundImageFix" result="shape"/>
<feGaussianBlur stdDeviation="13.5" result="effect1_foregroundBlur_21_73"/>
</filter>
<linearGradient id="paint0_linear_21_73" x1="1042.59" y1="99.8264" x2="1038.4" y2="483.108" gradientUnits="userSpaceOnUse">
<stop stop-color="#8F80CC" stop-opacity="0.31"/>
<stop offset="1" stop-color="#3300FF"/>
</linearGradient>
<linearGradient id="paint1_linear_21_73" x1="1440.56" y1="110.19" x2="1436.2" y2="370.09" gradientUnits="userSpaceOnUse">
<stop stop-color="#8F80CC" stop-opacity="0.31"/>
<stop offset="1" stop-color="#3300FF"/>
</linearGradient>
<linearGradient id="paint2_linear_21_73" x1="1271.37" y1="259.826" x2="1268.23" y2="643.128" gradientUnits="userSpaceOnUse">
<stop stop-color="#8F80CC" stop-opacity="0.31"/>
<stop offset="1" stop-color="#3300FF"/>
</linearGradient>
<linearGradient id="paint3_linear_21_73" x1="794.082" y1="305.893" x2="789.52" y2="548.563" gradientUnits="userSpaceOnUse">
<stop stop-color="#8F80CC" stop-opacity="0.31"/>
<stop offset="1" stop-color="#3300FF"/>
</linearGradient>
<linearGradient id="paint4_linear_21_73" x1="1614.99" y1="356.738" x2="627.214" y2="342.329" gradientUnits="userSpaceOnUse">
<stop stop-color="#434FBF" stop-opacity="0.73"/>
<stop offset="1" stop-color="#4552BF" stop-opacity="0.26"/>
</linearGradient>
<linearGradient id="paint5_linear_21_73" x1="1200.25" y1="218.292" x2="1200.25" y2="499.798" gradientUnits="userSpaceOnUse">
<stop stop-color="#69C0FF"/>
<stop offset="1" stop-color="#FFE8E8" stop-opacity="0.65"/>
</linearGradient>
<linearGradient id="paint6_linear_21_73" x1="1277.84" y1="159.899" x2="641.338" y2="153.804" gradientUnits="userSpaceOnUse">
<stop stop-color="#434FBF" stop-opacity="0.73"/>
<stop offset="1" stop-color="#4552BF" stop-opacity="0.26"/>
</linearGradient>
<linearGradient id="paint7_linear_21_73" x1="1010.62" y1="24" x2="1010.62" y2="300.326" gradientUnits="userSpaceOnUse">
<stop stop-color="#69C0FF"/>
<stop offset="1" stop-color="#FFE8E8" stop-opacity="0.65"/>
</linearGradient>
<linearGradient id="paint8_linear_21_73" x1="1619.33" y1="166.288" x2="1187.39" y2="162.748" gradientUnits="userSpaceOnUse">
<stop stop-color="#434FBF" stop-opacity="0.73"/>
<stop offset="1" stop-color="#4552BF" stop-opacity="0.26"/>
</linearGradient>
<linearGradient id="paint9_linear_21_73" x1="1438" y1="58.5408" x2="1438" y2="277.626" gradientUnits="userSpaceOnUse">
<stop stop-color="#69C0FF"/>
<stop offset="1" stop-color="#FFE8E8" stop-opacity="0.65"/>
</linearGradient>
<linearGradient id="paint10_linear_21_73" x1="914.804" y1="354.707" x2="620.032" y2="352.402" gradientUnits="userSpaceOnUse">
<stop stop-color="#434FBF" stop-opacity="0.73"/>
<stop offset="1" stop-color="#4552BF" stop-opacity="0.26"/>
</linearGradient>
<linearGradient id="paint11_linear_21_73" x1="791.056" y1="277.659" x2="791.056" y2="434.323" gradientUnits="userSpaceOnUse">
<stop stop-color="#69C0FF"/>
<stop offset="1" stop-color="#FFE8E8" stop-opacity="0.65"/>
</linearGradient>
<linearGradient id="paint12_linear_21_73" x1="259.758" y1="520.711" x2="284.02" y2="513.611" gradientUnits="userSpaceOnUse">
<stop stop-color="#001AFF" stop-opacity="0.72"/>
<stop offset="0.9999" stop-color="#FEFEFF" stop-opacity="0.651823"/>
<stop offset="1" stop-color="white" stop-opacity="0"/>
</linearGradient>
<linearGradient id="paint13_linear_21_73" x1="37.6748" y1="25.0512" x2="68.7861" y2="30.5991" gradientUnits="userSpaceOnUse">
<stop stop-color="#001AFF" stop-opacity="0.72"/>
<stop offset="0.9999" stop-color="#FEFEFF" stop-opacity="0.651823"/>
<stop offset="1" stop-color="white" stop-opacity="0"/>
</linearGradient>
<linearGradient id="paint14_linear_21_73" x1="19.3204" y1="9.87595" x2="34.9417" y2="13.4996" gradientUnits="userSpaceOnUse">
<stop stop-color="#001AFF" stop-opacity="0.72"/>
<stop offset="0.9999" stop-color="#FEFEFF" stop-opacity="0.651823"/>
<stop offset="1" stop-color="white" stop-opacity="0"/>
</linearGradient>
<linearGradient id="paint15_linear_21_73" x1="32.8447" y1="14.9344" x2="59.0479" y2="21.7675" gradientUnits="userSpaceOnUse">
<stop stop-color="#001AFF" stop-opacity="0.72"/>
<stop offset="0.9999" stop-color="#FEFEFF" stop-opacity="0.651823"/>
<stop offset="1" stop-color="white" stop-opacity="0"/>
</linearGradient>
<linearGradient id="paint16_linear_21_73" x1="35.7428" y1="18.3066" x2="64.648" y2="24.9985" gradientUnits="userSpaceOnUse">
<stop stop-color="#001AFF" stop-opacity="0.72"/>
<stop offset="0.9999" stop-color="#FEFEFF" stop-opacity="0.651823"/>
<stop offset="1" stop-color="white" stop-opacity="0"/>
</linearGradient>
<linearGradient id="paint17_linear_21_73" x1="337.139" y1="6.87578" x2="321.776" y2="554.972" gradientUnits="userSpaceOnUse">
<stop stop-color="#FF0000"/>
<stop offset="1" stop-color="#0000FF" stop-opacity="0"/>
</linearGradient>
<linearGradient id="paint18_linear_21_73" x1="34.8045" y1="575.498" x2="503.533" y2="205.865" gradientUnits="userSpaceOnUse">
<stop stop-color="#00810D"/>
<stop offset="1" stop-color="#0500FF"/>
</linearGradient>
<linearGradient id="paint19_linear_21_73" x1="339.842" y1="514.018" x2="251.168" y2="513.21" gradientUnits="userSpaceOnUse">
<stop stop-color="white" stop-opacity="0.69"/>
<stop offset="1" stop-color="#0500FF" stop-opacity="0.31"/>
</linearGradient>
<linearGradient id="paint20_linear_21_73" x1="628.904" y1="403.231" x2="540.225" y2="402.829" gradientUnits="userSpaceOnUse">
<stop stop-color="white" stop-opacity="0.69"/>
<stop offset="1" stop-color="#0500FF" stop-opacity="0.31"/>
</linearGradient>
<linearGradient id="paint21_linear_21_73" x1="243.488" y1="557.029" x2="154.819" y2="556.019" gradientUnits="userSpaceOnUse">
<stop stop-color="white" stop-opacity="0.69"/>
<stop offset="1" stop-color="#0500FF" stop-opacity="0.31"/>
</linearGradient>
<linearGradient id="paint22_linear_21_73" x1="436.196" y1="442.448" x2="347.52" y2="441.774" gradientUnits="userSpaceOnUse">
<stop stop-color="white" stop-opacity="0.69"/>
<stop offset="1" stop-color="#0500FF" stop-opacity="0.31"/>
</linearGradient>
<linearGradient id="paint23_linear_21_73" x1="532.55" y1="370.82" x2="443.872" y2="370.269" gradientUnits="userSpaceOnUse">
<stop stop-color="white" stop-opacity="0.69"/>
<stop offset="1" stop-color="#0500FF" stop-opacity="0.31"/>
</linearGradient>
</defs>
</svg>
