<svg width="769" height="320" viewBox="0 0 769 320" fill="none" xmlns="http://www.w3.org/2000/svg">
<path d="M396.395 289C396.395 286.792 395.771 284.968 394.523 283.528C393.275 281.992 391.643 281.224 389.627 281.224C387.707 281.224 385.691 282.04 383.579 283.672C381.563 285.304 379.163 286.984 376.379 288.712C373.691 290.344 370.427 291.16 366.587 291.16C353.531 291.16 343.403 287.8 336.203 281.08C329.099 274.36 325.547 264.04 325.547 250.12C325.547 221.032 339.131 206.488 366.299 206.488C371.195 206.488 376.187 207.688 381.275 210.088C386.459 212.488 389.627 213.688 390.779 213.688C391.931 213.688 392.891 213.112 393.659 211.96C394.427 210.712 394.811 209.512 394.811 208.36H397.547V237.592H394.667C394.667 230.296 391.787 223.768 386.027 218.008C380.363 212.248 373.787 209.368 366.299 209.368C360.539 209.368 356.171 212.488 353.195 218.728C350.219 224.872 348.731 235.096 348.731 249.4C348.731 263.608 350.219 273.64 353.195 279.496C356.267 285.352 360.731 288.28 366.587 288.28C375.803 288.28 380.411 280.072 380.411 263.656V253H371.339V250.12H405.899V253H399.131V289H396.395ZM443.396 286.12H450.596V289H414.596V286.12H421.796V195.4H414.596V192.52H443.396V286.12ZM530.561 286.12C529.601 287.08 527.777 287.944 525.089 288.712C522.401 289.384 519.281 289.72 515.729 289.72C507.857 289.72 502.913 287.368 500.897 282.664C496.097 287.656 488.753 290.152 478.865 290.152C473.585 290.152 469.217 288.952 465.761 286.552C462.401 284.056 460.721 280.408 460.721 275.608C460.721 269.176 463.217 264.232 468.209 260.776C473.201 257.224 481.937 254.728 494.417 253.288L500.177 252.568V245.512C500.177 237.16 499.553 231.544 498.305 228.664C497.057 225.784 494.561 224.344 490.817 224.344C487.169 224.344 484.817 224.872 483.761 225.928C482.705 226.888 482.321 228.04 482.609 229.384C482.897 230.632 483.377 232.312 484.049 234.424C484.721 236.536 485.057 238.216 485.057 239.464C485.057 242.44 484.001 244.984 481.889 247.096C479.873 249.112 477.377 250.12 474.401 250.12C471.521 250.12 469.025 249.112 466.913 247.096C464.801 244.984 463.745 242.44 463.745 239.464C463.745 234.568 466.241 230.392 471.233 226.936C476.321 223.384 483.857 221.608 493.841 221.608C503.921 221.608 511.073 223.576 515.297 227.512C519.617 231.448 521.777 238.408 521.777 248.392V274.312C521.777 279.4 522.401 282.616 523.649 283.96C524.897 285.208 527.201 285.448 530.561 284.68V286.12ZM480.737 272.728C481.217 276.376 482.561 279.208 484.769 281.224C486.977 283.144 489.521 284.104 492.401 284.104C495.377 284.104 497.969 282.664 500.177 279.784V255.304L494.993 256.024C490.577 256.6 486.977 258.28 484.193 261.064C481.505 263.848 480.353 267.736 480.737 272.728ZM614.79 286.12H621.99V289H585.99V286.12H593.19V245.8C593.19 238.984 592.182 234.136 590.166 231.256C588.15 228.376 585.126 226.936 581.094 226.936C575.622 226.936 571.254 229.816 567.99 235.576V286.12H575.19V289H539.19V286.12H546.39V225.64H539.19V222.76H567.99V230.248C569.814 227.752 572.646 225.64 576.486 223.912C580.422 222.088 584.646 221.176 589.158 221.176C606.246 221.176 614.79 230.44 614.79 248.968V286.12ZM630.562 255.88C630.562 244.552 633.874 235.96 640.498 230.104C647.122 224.248 655.522 221.32 665.698 221.32C675.97 221.32 683.602 223.912 688.594 229.096C693.586 234.184 695.362 239.464 693.922 244.936C693.154 247.912 691.522 250.12 689.026 251.56C686.626 252.904 683.986 253.24 681.106 252.568C675.058 251.128 672.034 247.624 672.034 242.056C672.034 240.616 672.178 238.456 672.466 235.576C672.85 232.6 672.994 230.44 672.898 229.096C672.802 227.752 672.514 226.696 672.034 225.928C671.074 224.296 668.818 223.672 665.266 224.056C656.626 225.4 652.306 236.008 652.306 255.88C652.306 275.656 659.362 285.544 673.474 285.544C676.738 285.544 680.05 284.68 683.41 282.952C686.77 281.224 689.266 279.16 690.898 276.76L692.914 278.2C690.706 281.848 687.394 284.776 682.978 286.984C678.562 289.192 673.618 290.296 668.146 290.296C643.09 290.296 630.562 278.824 630.562 255.88ZM768.072 260.2H724.584C725.544 277.096 732.12 285.544 744.312 285.544C747.576 285.544 751.272 284.776 755.4 283.24C759.624 281.704 762.696 279.544 764.616 276.76L766.632 278.2C764.52 281.752 760.92 284.68 755.832 286.984C750.744 289.288 745.656 290.44 740.568 290.44C735.576 290.44 731.064 289.96 727.032 289C723 287.944 719.064 286.216 715.224 283.816C711.384 281.416 708.36 277.816 706.152 273.016C704.04 268.216 702.984 262.408 702.984 255.592C702.984 243.976 706.2 235.384 712.632 229.816C719.064 224.152 726.84 221.32 735.96 221.32C745.176 221.32 752.808 224.392 758.856 230.536C765 236.68 768.072 246.568 768.072 260.2ZM724.44 257.32H747.912C747.912 248.488 746.952 240.76 745.032 234.136C743.208 227.512 740.232 224.2 736.104 224.2C731.976 224.2 729 227.416 727.176 233.848C725.352 240.184 724.44 247.48 724.44 255.736V257.32Z" fill="url(#paint0_linear_0_1)"/>
<path d="M502.9 90.648H500.98C500.98 85.528 499.348 80.792 496.084 76.44C492.82 72.088 488.148 69.912 482.068 69.912C478.676 69.912 475.86 71.896 473.62 75.864C471.444 79.832 470.356 86.616 470.356 96.216C470.356 105.816 471.444 112.6 473.62 116.568C475.86 120.536 479.316 122.52 483.988 122.52C488.724 122.52 492.692 121.048 495.892 118.104C499.156 115.16 501.172 111 501.94 105.624H503.86C502.964 111.96 500.724 116.696 497.14 119.832C493.62 122.904 489.396 124.44 484.468 124.44C474.932 124.44 467.604 122.168 462.484 117.624C457.428 113.016 454.9 105.848 454.9 96.12C454.9 86.328 457.364 79.192 462.292 74.712C467.284 70.232 473.876 67.992 482.068 67.992C486.484 67.992 490.772 69.176 494.932 71.544C496.276 72.376 497.364 72.792 498.196 72.792C499.092 72.792 499.796 72.408 500.308 71.64C500.82 70.808 501.076 70.008 501.076 69.24H502.9V90.648ZM560.459 121.08H565.259V123H541.259V121.08H546.059V94.2C546.059 89.656 545.387 86.424 544.043 84.504C542.699 82.584 540.683 81.624 537.995 81.624C534.347 81.624 531.435 83.544 529.259 87.384V121.08H534.059V123H510.059V121.08H514.859V60.6H510.059V58.68H529.259V83.832C530.475 82.104 532.363 80.664 534.923 79.512C537.483 78.36 540.299 77.784 543.371 77.784C554.763 77.784 560.459 83.96 560.459 96.312V121.08ZM618.494 121.08C617.854 121.72 616.638 122.296 614.846 122.808C613.054 123.256 610.974 123.48 608.606 123.48C603.358 123.48 600.062 121.912 598.718 118.776C595.518 122.104 590.622 123.768 584.03 123.768C580.51 123.768 577.598 122.968 575.294 121.368C573.054 119.704 571.934 117.272 571.934 114.072C571.934 109.784 573.598 106.488 576.926 104.184C580.254 101.816 586.078 100.152 594.398 99.192L598.238 98.712V94.008C598.238 88.44 597.822 84.696 596.99 82.776C596.158 80.856 594.494 79.896 591.998 79.896C589.566 79.896 587.998 80.248 587.294 80.952C586.59 81.592 586.334 82.36 586.526 83.256C586.718 84.088 587.038 85.208 587.486 86.616C587.934 88.024 588.158 89.144 588.158 89.976C588.158 91.96 587.454 93.656 586.046 95.064C584.702 96.408 583.038 97.08 581.054 97.08C579.134 97.08 577.47 96.408 576.062 95.064C574.654 93.656 573.95 91.96 573.95 89.976C573.95 86.712 575.614 83.928 578.942 81.624C582.334 79.256 587.358 78.072 594.014 78.072C600.734 78.072 605.502 79.384 608.318 82.008C611.198 84.632 612.638 89.272 612.638 95.928V113.208C612.638 116.6 613.054 118.744 613.886 119.64C614.718 120.472 616.254 120.632 618.494 120.12V121.08ZM585.278 112.152C585.598 114.584 586.494 116.472 587.966 117.816C589.438 119.096 591.134 119.736 593.054 119.736C595.038 119.736 596.766 118.776 598.238 116.856V100.536L594.782 101.016C591.838 101.4 589.438 102.52 587.582 104.376C585.79 106.232 585.022 108.824 585.278 112.152ZM648.246 123H624.246V121.08H629.046V80.76H624.246V78.84H643.446V90.264C644.022 87.128 645.046 84.568 646.518 82.584C648.054 80.6 649.718 79.288 651.51 78.648C653.366 78.008 655.126 77.688 656.79 77.688C658.518 77.688 660.15 78.008 661.686 78.648C663.286 79.224 664.47 80.44 665.238 82.296C666.006 84.088 666.038 85.912 665.334 87.768C664.63 89.56 663.382 90.84 661.59 91.608C659.862 92.376 658.262 92.472 656.79 91.896C655.318 91.32 654.262 90.552 653.622 89.592C652.982 88.568 652.534 87.608 652.278 86.712C651.638 84.344 650.774 83.16 649.686 83.16C648.47 83.16 647.126 85.272 645.654 89.496C644.182 93.656 643.446 98.072 643.446 102.744V121.08H648.246V123ZM688.317 80.76V104.184C688.317 109.688 688.541 113.048 688.989 114.264C689.437 115.416 689.917 116.408 690.429 117.24C691.389 118.904 693.053 119.736 695.421 119.736C697.853 119.736 699.549 119.416 700.509 118.776V120.696C697.437 122.872 694.077 123.96 690.429 123.96C685.053 123.96 680.957 122.68 678.141 120.12C675.325 117.56 673.917 112.984 673.917 106.392V80.76H666.812V78.84H673.917C676.989 78.328 679.709 76.856 682.077 74.424C684.445 71.928 686.077 68.504 686.973 64.152H688.317V78.84H699.453V80.76H688.317Z" fill="url(#paint1_linear_0_1)"/>
<path d="M553.9 198.08C553.26 198.72 552.044 199.296 550.252 199.808C548.46 200.256 546.38 200.48 544.012 200.48C538.764 200.48 535.468 198.912 534.124 195.776C530.924 199.104 526.028 200.768 519.436 200.768C515.916 200.768 513.004 199.968 510.7 198.368C508.46 196.704 507.34 194.272 507.34 191.072C507.34 186.784 509.004 183.488 512.332 181.184C515.66 178.816 521.484 177.152 529.804 176.192L533.644 175.712V171.008C533.644 165.44 533.228 161.696 532.396 159.776C531.564 157.856 529.9 156.896 527.404 156.896C524.972 156.896 523.404 157.248 522.7 157.952C521.996 158.592 521.74 159.36 521.932 160.256C522.124 161.088 522.444 162.208 522.892 163.616C523.34 165.024 523.564 166.144 523.564 166.976C523.564 168.96 522.86 170.656 521.452 172.064C520.108 173.408 518.444 174.08 516.46 174.08C514.54 174.08 512.876 173.408 511.468 172.064C510.06 170.656 509.356 168.96 509.356 166.976C509.356 163.712 511.02 160.928 514.348 158.624C517.74 156.256 522.764 155.072 529.42 155.072C536.14 155.072 540.908 156.384 543.724 159.008C546.604 161.632 548.044 166.272 548.044 172.928V190.208C548.044 193.6 548.46 195.744 549.292 196.64C550.124 197.472 551.66 197.632 553.9 197.12V198.08ZM520.684 189.152C521.004 191.584 521.9 193.472 523.372 194.816C524.844 196.096 526.54 196.736 528.46 196.736C530.444 196.736 532.172 195.776 533.644 193.856V177.536L530.188 178.016C527.244 178.4 524.844 179.52 522.988 181.376C521.196 183.232 520.428 185.824 520.684 189.152ZM577.317 157.76V181.184C577.317 186.688 577.541 190.048 577.989 191.264C578.437 192.416 578.917 193.408 579.429 194.24C580.389 195.904 582.053 196.736 584.421 196.736C586.853 196.736 588.549 196.416 589.509 195.776V197.696C586.437 199.872 583.077 200.96 579.429 200.96C574.053 200.96 569.957 199.68 567.141 197.12C564.325 194.56 562.917 189.984 562.917 183.392V157.76H555.812V155.84H562.917C565.989 155.328 568.709 153.856 571.077 151.424C573.445 148.928 575.077 145.504 575.973 141.152H577.317V155.84H588.453V157.76H577.317Z" fill="url(#paint2_linear_0_1)"/>
<path d="M283.244 287.08C282.604 287.72 281.388 288.296 279.596 288.808C277.804 289.256 275.724 289.48 273.356 289.48C268.108 289.48 264.812 287.912 263.468 284.776C260.268 288.104 255.372 289.768 248.78 289.768C245.26 289.768 242.348 288.968 240.044 287.368C237.804 285.704 236.684 283.272 236.684 280.072C236.684 275.784 238.348 272.488 241.676 270.184C245.004 267.816 250.828 266.152 259.148 265.192L262.988 264.712V260.008C262.988 254.44 262.572 250.696 261.74 248.776C260.908 246.856 259.244 245.896 256.748 245.896C254.316 245.896 252.748 246.248 252.044 246.952C251.34 247.592 251.084 248.36 251.276 249.256C251.468 250.088 251.788 251.208 252.236 252.616C252.684 254.024 252.908 255.144 252.908 255.976C252.908 257.96 252.204 259.656 250.796 261.064C249.452 262.408 247.788 263.08 245.804 263.08C243.884 263.08 242.22 262.408 240.812 261.064C239.404 259.656 238.7 257.96 238.7 255.976C238.7 252.712 240.364 249.928 243.692 247.624C247.084 245.256 252.108 244.072 258.764 244.072C265.484 244.072 270.252 245.384 273.068 248.008C275.948 250.632 277.388 255.272 277.388 261.928V279.208C277.388 282.6 277.804 284.744 278.636 285.64C279.468 286.472 281.004 286.632 283.244 286.12V287.08ZM250.028 278.152C250.348 280.584 251.244 282.472 252.716 283.816C254.188 285.096 255.884 285.736 257.804 285.736C259.788 285.736 261.516 284.776 262.988 282.856V266.536L259.532 267.016C256.588 267.4 254.188 268.52 252.332 270.376C250.54 272.232 249.772 274.824 250.028 278.152Z" fill="url(#paint3_linear_0_1)"/>
<path d="M224.281 283.721C201.578 289.093 177.741 290.327 154.408 287.337C131.075 284.348 108.801 277.205 89.1159 266.402C69.431 255.598 52.803 241.39 40.3751 224.753C27.9472 208.117 20.0143 189.447 17.122 170.028C14.2296 150.609 16.4464 130.901 23.6199 112.259C30.7934 93.6173 42.7534 76.4844 58.6775 62.0382C74.6017 47.592 94.1121 36.1754 115.867 28.5734C137.622 20.9713 161.106 17.3642 184.704 18L182.678 69.6175C168.075 69.2241 153.542 71.4564 140.079 76.1609C126.615 80.8655 114.541 87.9308 104.686 96.8709C94.8316 105.811 87.4301 116.414 82.9907 127.95C78.5513 139.487 77.1795 151.683 78.9694 163.701C80.7594 175.719 85.6687 187.273 93.3598 197.568C101.051 207.864 111.341 216.657 123.523 223.343C135.705 230.029 149.49 234.449 163.93 236.299C178.37 238.149 193.121 237.386 207.171 234.061L224.281 283.721Z" fill="url(#paint4_linear_0_1)"/>
<path d="M73.6808 212.834C59.3901 251.865 87.4661 293.445 129.009 294.776L431 304.448L2 318L151.918 1L84.3633 183.658L73.6808 212.834Z" fill="url(#paint5_linear_0_1)" stroke="white" stroke-width="2"/>
<rect x="123.999" y="181.156" width="65.8031" height="98.6494" rx="22" fill="url(#paint6_linear_0_1)" stroke="white" stroke-width="2"/>
<rect x="359.197" y="2" width="65.8031" height="200.331" rx="22" fill="url(#paint7_linear_0_1)" stroke="white" stroke-width="2"/>
<rect x="48" y="231.481" width="65.8031" height="78.5195" rx="22" fill="url(#paint8_linear_0_1)" stroke="white" stroke-width="2"/>
<rect x="196.798" y="110.701" width="65.8031" height="118.779" rx="22" fill="url(#paint9_linear_0_1)" stroke="white" stroke-width="2"/>
<rect x="273.598" y="33.5368" width="65.8031" height="145.619" rx="22" fill="url(#paint10_linear_0_1)" stroke="white" stroke-width="2"/>
<defs>
<linearGradient id="paint0_linear_0_1" x1="547" y1="72" x2="547" y2="423" gradientUnits="userSpaceOnUse">
<stop stop-color="#A2A2A2" stop-opacity="0.3"/>
<stop offset="1" stop-color="#0000FF"/>
</linearGradient>
<linearGradient id="paint1_linear_0_1" x1="577" y1="-80" x2="577" y2="271" gradientUnits="userSpaceOnUse">
<stop stop-color="#A0A0A0" stop-opacity="0.3"/>
<stop offset="1" stop-color="#0000FF"/>
</linearGradient>
<linearGradient id="paint2_linear_0_1" x1="547" y1="-3" x2="547" y2="348" gradientUnits="userSpaceOnUse">
<stop stop-color="#A2A2A2" stop-opacity="0.72"/>
<stop offset="1" stop-color="#0000FF"/>
</linearGradient>
<linearGradient id="paint3_linear_0_1" x1="259" y1="225" x2="259" y2="309" gradientUnits="userSpaceOnUse">
<stop stop-color="#A3A3A3" stop-opacity="0.3"/>
<stop offset="1" stop-color="#0000FF" stop-opacity="0.64"/>
</linearGradient>
<linearGradient id="paint4_linear_0_1" x1="196.5" y1="-58.6175" x2="196.5" y2="212.382" gradientUnits="userSpaceOnUse">
<stop stop-color="#742A2A"/>
<stop offset="1" stop-color="#30016B" stop-opacity="0"/>
</linearGradient>
<linearGradient id="paint5_linear_0_1" x1="-4.44902" y1="323.248" x2="289.516" y2="58.0814" gradientUnits="userSpaceOnUse">
<stop stop-color="#00810D"/>
<stop offset="1" stop-color="#0500FF"/>
</linearGradient>
<linearGradient id="paint6_linear_0_1" x1="189.312" y1="281.958" x2="152.259" y2="283.083" gradientUnits="userSpaceOnUse">
<stop stop-color="white" stop-opacity="0.69"/>
<stop offset="1" stop-color="#000AFF" stop-opacity="0.84"/>
</linearGradient>
<linearGradient id="paint7_linear_0_1" x1="424.51" y1="205.648" x2="387.431" y2="206.208" gradientUnits="userSpaceOnUse">
<stop stop-color="white" stop-opacity="0.69"/>
<stop offset="1" stop-color="#000AFF" stop-opacity="0.84"/>
</linearGradient>
<linearGradient id="paint8_linear_0_1" x1="113.313" y1="311.922" x2="76.2786" y2="313.328" gradientUnits="userSpaceOnUse">
<stop stop-color="white" stop-opacity="0.69"/>
<stop offset="1" stop-color="#000AFF" stop-opacity="0.84"/>
</linearGradient>
<linearGradient id="paint9_linear_0_1" x1="262.111" y1="231.863" x2="225.047" y2="232.802" gradientUnits="userSpaceOnUse">
<stop stop-color="white" stop-opacity="0.69"/>
<stop offset="1" stop-color="#000AFF" stop-opacity="0.84"/>
</linearGradient>
<linearGradient id="paint10_linear_0_1" x1="338.911" y1="181.846" x2="301.839" y2="182.614" gradientUnits="userSpaceOnUse">
<stop stop-color="white" stop-opacity="0.69"/>
<stop offset="1" stop-color="#000AFF" stop-opacity="0.84"/>
</linearGradient>
</defs>
</svg>
