<svg width="1353" height="524" viewBox="0 0 1353 524" fill="none" xmlns="http://www.w3.org/2000/svg">
<g filter="url(#filter0_f_0_1)">
<path d="M686.872 375C686.872 378.051 686.009 380.572 684.285 382.562C682.56 384.685 680.305 385.746 677.519 385.746C674.865 385.746 672.079 384.618 669.161 382.363C666.375 380.108 663.058 377.786 659.211 375.398C655.496 373.143 650.985 372.015 645.679 372.015C627.636 372.015 613.64 376.658 603.69 385.945C593.872 395.232 588.964 409.493 588.964 428.73C588.964 468.928 607.736 489.027 645.281 489.027C652.047 489.027 658.945 487.369 665.977 484.052C673.141 480.735 677.519 479.077 679.111 479.077C680.703 479.077 682.029 479.873 683.091 481.465C684.152 483.19 684.683 484.848 684.683 486.44H688.464V446.043H684.484C684.484 456.126 680.504 465.147 672.544 473.107C664.716 481.067 655.629 485.047 645.281 485.047C637.321 485.047 631.284 480.735 627.172 472.112C623.059 463.621 621.003 449.492 621.003 429.725C621.003 410.09 623.059 396.227 627.172 388.134C631.417 380.041 637.586 375.995 645.679 375.995C658.415 375.995 664.783 387.338 664.783 410.024V424.75H652.246V428.73H700.006V424.75H690.653V375H686.872ZM751.825 378.98H761.775V375H712.025V378.98H721.975V504.35H712.025V508.33H751.825V378.98ZM872.282 378.98C870.955 377.653 868.435 376.459 864.72 375.398C861.005 374.469 856.694 374.005 851.785 374.005C840.906 374.005 834.074 377.255 831.288 383.756C824.655 376.857 814.506 373.408 800.841 373.408C793.544 373.408 787.508 375.066 782.732 378.383C778.089 381.832 775.767 386.874 775.767 393.507C775.767 402.396 779.216 409.228 786.115 414.004C793.014 418.913 805.086 422.362 822.333 424.352L830.293 425.347V435.098C830.293 446.64 829.431 454.401 827.706 458.381C825.981 462.361 822.532 464.351 817.358 464.351C812.317 464.351 809.066 463.621 807.607 462.162C806.148 460.835 805.617 459.243 806.015 457.386C806.413 455.661 807.076 453.34 808.005 450.421C808.934 447.502 809.398 445.181 809.398 443.456C809.398 439.343 807.939 435.828 805.02 432.909C802.234 430.123 798.785 428.73 794.672 428.73C790.692 428.73 787.243 430.123 784.324 432.909C781.405 435.828 779.946 439.343 779.946 443.456C779.946 450.222 783.395 455.993 790.294 460.769C797.325 465.678 807.74 468.132 821.537 468.132C835.467 468.132 845.351 465.412 851.188 459.973C857.158 454.534 860.143 444.915 860.143 431.118V395.298C860.143 388.267 861.005 383.822 862.73 381.965C864.455 380.24 867.639 379.909 872.282 380.97V378.98ZM803.428 397.487C804.091 392.446 805.949 388.532 809 385.746C812.051 383.093 815.567 381.766 819.547 381.766C823.66 381.766 827.242 383.756 830.293 387.736V421.566L823.129 420.571C817.026 419.775 812.051 417.453 808.204 413.606C804.489 409.759 802.897 404.386 803.428 397.487ZM988.682 378.98H998.632V375H948.882V378.98H958.832V434.7C958.832 444.119 957.439 450.819 954.653 454.799C951.867 458.779 947.688 460.769 942.116 460.769C934.554 460.769 928.517 456.789 924.007 448.829V378.98H933.957V375H884.207V378.98H894.157V462.56H884.207V466.54H924.007V456.192C926.527 459.641 930.441 462.56 935.748 464.948C941.187 467.469 947.024 468.729 953.26 468.729C976.874 468.729 988.682 455.927 988.682 430.322V378.98ZM1010.48 420.77C1010.48 436.425 1015.06 448.298 1024.21 456.391C1033.36 464.484 1044.97 468.53 1059.03 468.53C1073.23 468.53 1083.78 464.948 1090.68 457.784C1097.57 450.753 1100.03 443.456 1098.04 435.894C1096.98 431.781 1094.72 428.73 1091.27 426.74C1087.96 424.883 1084.31 424.418 1080.33 425.347C1071.97 427.337 1067.79 432.179 1067.79 439.874C1067.79 441.864 1067.99 444.849 1068.39 448.829C1068.92 452.942 1069.12 455.927 1068.98 457.784C1068.85 459.641 1068.45 461.101 1067.79 462.162C1066.46 464.417 1063.35 465.28 1058.44 464.749C1046.5 462.892 1040.53 448.232 1040.53 420.77C1040.53 393.441 1050.28 379.776 1069.78 379.776C1074.29 379.776 1078.87 380.97 1083.51 383.358C1088.15 385.746 1091.6 388.598 1093.86 391.915L1096.65 389.925C1093.59 384.884 1089.02 380.837 1082.91 377.786C1076.81 374.735 1069.98 373.209 1062.42 373.209C1027.79 373.209 1010.48 389.063 1010.48 420.77ZM1200.51 414.8H1140.41C1141.74 391.451 1150.83 379.776 1167.67 379.776C1172.18 379.776 1177.29 380.837 1183 382.96C1188.83 385.083 1193.08 388.068 1195.73 391.915L1198.52 389.925C1195.6 385.016 1190.63 380.97 1183.59 377.786C1176.56 374.602 1169.53 373.01 1162.5 373.01C1155.6 373.01 1149.37 373.673 1143.79 375C1138.22 376.459 1132.78 378.847 1127.48 382.164C1122.17 385.481 1117.99 390.456 1114.94 397.089C1112.02 403.722 1110.56 411.749 1110.56 421.168C1110.56 437.221 1115.01 449.094 1123.89 456.789C1132.78 464.616 1143.53 468.53 1156.13 468.53C1168.87 468.53 1179.42 464.285 1187.77 455.794C1196.26 447.303 1200.51 433.639 1200.51 414.8ZM1140.21 418.78H1172.65C1172.65 430.985 1171.32 441.665 1168.67 450.819C1166.15 459.973 1162.04 464.55 1156.33 464.55C1150.63 464.55 1146.51 460.106 1143.99 451.217C1141.47 442.461 1140.21 432.378 1140.21 420.969V418.78Z" fill="url(#paint0_linear_0_1)" fill-opacity="0.51"/>
</g>
<g filter="url(#filter1_f_0_1)">
<path d="M589.897 308.063H585.917C585.917 318.676 582.534 328.494 575.768 337.515C569.002 346.536 559.317 351.047 546.714 351.047C539.683 351.047 533.845 346.934 529.202 338.709C524.691 330.484 522.436 316.421 522.436 296.521C522.436 276.621 524.691 262.558 529.202 254.333C533.845 246.108 541.009 241.995 550.694 241.995C560.511 241.995 568.737 245.046 575.37 251.149C582.136 257.252 586.315 265.875 587.907 277.019H591.887C590.03 263.885 585.386 254.068 577.957 247.567C570.66 241.199 561.904 238.015 551.689 238.015C531.922 238.015 516.731 242.725 506.118 252.144C495.637 261.696 490.397 276.555 490.397 296.72C490.397 317.018 495.505 331.81 505.72 341.097C516.068 350.384 529.733 355.027 546.714 355.027C555.868 355.027 564.757 352.573 573.38 347.664C576.166 345.939 578.421 345.077 580.146 345.077C582.003 345.077 583.463 345.873 584.524 347.465C585.585 349.19 586.116 350.848 586.116 352.44H589.897V308.063ZM709.211 244.98H719.161V241H669.411V244.98H679.361V300.7C679.361 310.119 677.968 316.819 675.182 320.799C672.396 324.779 668.217 326.769 662.645 326.769C655.083 326.769 649.047 322.789 644.536 314.829V244.98H654.486V241H604.736V244.98H614.686V370.35H604.736V374.33H644.536V322.192C647.057 325.774 650.971 328.759 656.277 331.147C661.584 333.535 667.421 334.729 673.789 334.729C697.404 334.729 709.211 321.927 709.211 296.322V244.98ZM829.513 244.98C828.186 243.653 825.666 242.459 821.951 241.398C818.236 240.469 813.925 240.005 809.016 240.005C798.137 240.005 791.305 243.255 788.519 249.756C781.886 242.857 771.737 239.408 758.072 239.408C750.775 239.408 744.739 241.066 739.963 244.383C735.32 247.832 732.998 252.874 732.998 259.507C732.998 268.396 736.447 275.228 743.346 280.004C750.245 284.913 762.317 288.362 779.564 290.352L787.524 291.347V301.098C787.524 312.64 786.662 320.401 784.937 324.381C783.212 328.361 779.763 330.351 774.589 330.351C769.548 330.351 766.297 329.621 764.838 328.162C763.379 326.835 762.848 325.243 763.246 323.386C763.644 321.661 764.307 319.34 765.236 316.421C766.165 313.502 766.629 311.181 766.629 309.456C766.629 305.343 765.17 301.828 762.251 298.909C759.465 296.123 756.016 294.73 751.903 294.73C747.923 294.73 744.474 296.123 741.555 298.909C738.636 301.828 737.177 305.343 737.177 309.456C737.177 316.222 740.626 321.993 747.525 326.769C754.556 331.678 764.971 334.132 778.768 334.132C792.698 334.132 802.582 331.412 808.419 325.973C814.389 320.534 817.374 310.915 817.374 297.118V261.298C817.374 254.267 818.236 249.822 819.961 247.965C821.686 246.24 824.87 245.909 829.513 246.97V244.98ZM760.659 263.487C761.322 258.446 763.18 254.532 766.231 251.746C769.282 249.093 772.798 247.766 776.778 247.766C780.891 247.766 784.473 249.756 787.524 253.736V287.566L780.36 286.571C774.257 285.775 769.282 283.453 765.435 279.606C761.72 275.759 760.128 270.386 760.659 263.487ZM891.188 241H841.438V244.98H851.388V328.56H841.438V332.54H881.238V308.859C882.432 315.36 884.554 320.666 887.606 324.779C890.79 328.892 894.239 331.611 897.954 332.938C901.801 334.265 905.449 334.928 908.899 334.928C912.481 334.928 915.864 334.265 919.048 332.938C922.364 331.744 924.819 329.223 926.411 325.376C928.003 321.661 928.069 317.88 926.61 314.033C925.15 310.318 922.563 307.665 918.849 306.073C915.267 304.481 911.95 304.282 908.899 305.476C905.847 306.67 903.658 308.262 902.332 310.252C901.005 312.375 900.076 314.365 899.546 316.222C898.219 321.131 896.428 323.585 894.173 323.585C891.652 323.585 888.866 319.207 885.815 310.451C882.763 301.828 881.238 292.674 881.238 282.989V244.98H891.188V241ZM974.25 328.56V280.004C974.25 268.595 974.714 261.63 975.643 259.109C976.571 256.721 977.566 254.665 978.628 252.94C980.618 249.491 984.067 247.766 988.976 247.766C994.017 247.766 997.533 248.429 999.523 249.756V245.776C993.155 241.265 986.19 239.01 978.628 239.01C967.484 239.01 958.993 241.663 953.156 246.97C947.318 252.277 944.4 261.762 944.4 275.427V328.56H929.674V332.54H944.4C950.768 333.601 956.406 336.653 961.315 341.694C966.223 346.868 969.606 353.966 971.464 362.987H974.25V332.54H997.334V328.56H974.25Z" fill="url(#paint1_linear_0_1)" fill-opacity="0.51"/>
</g>
<g filter="url(#filter2_f_0_1)">
<path d="M522.744 380.92C522.104 380.28 520.888 379.704 519.096 379.192C517.304 378.744 515.224 378.52 512.856 378.52C507.608 378.52 504.312 380.088 502.968 383.224C499.768 379.896 494.872 378.232 488.28 378.232C484.76 378.232 481.848 379.032 479.544 380.632C477.304 382.296 476.184 384.728 476.184 387.928C476.184 392.216 477.848 395.512 481.176 397.816C484.504 400.184 490.328 401.848 498.648 402.808L502.488 403.288V407.992C502.488 413.56 502.072 417.304 501.24 419.224C500.408 421.144 498.744 422.104 496.248 422.104C493.816 422.104 492.248 421.752 491.544 421.048C490.84 420.408 490.584 419.64 490.776 418.744C490.968 417.912 491.288 416.792 491.736 415.384C492.184 413.976 492.408 412.856 492.408 412.024C492.408 410.04 491.704 408.344 490.296 406.936C488.952 405.592 487.288 404.92 485.304 404.92C483.384 404.92 481.72 405.592 480.312 406.936C478.904 408.344 478.2 410.04 478.2 412.024C478.2 415.288 479.864 418.072 483.192 420.376C486.584 422.744 491.608 423.928 498.264 423.928C504.984 423.928 509.752 422.616 512.568 419.992C515.448 417.368 516.888 412.728 516.888 406.072V388.792C516.888 385.4 517.304 383.256 518.136 382.36C518.968 381.528 520.504 381.368 522.744 381.88V380.92ZM489.528 389.848C489.848 387.416 490.744 385.528 492.216 384.184C493.688 382.904 495.384 382.264 497.304 382.264C499.288 382.264 501.016 383.224 502.488 385.144V401.464L499.032 400.984C496.088 400.6 493.688 399.48 491.832 397.624C490.04 395.768 489.272 393.176 489.528 389.848Z" fill="url(#paint2_linear_0_1)"/>
</g>
<g filter="url(#filter3_f_0_1)">
<path d="M1078.4 235.92C1077.76 235.28 1076.54 234.704 1074.75 234.192C1072.96 233.744 1070.88 233.52 1068.51 233.52C1063.26 233.52 1059.97 235.088 1058.62 238.224C1055.42 234.896 1050.53 233.232 1043.94 233.232C1040.42 233.232 1037.5 234.032 1035.2 235.632C1032.96 237.296 1031.84 239.728 1031.84 242.928C1031.84 247.216 1033.5 250.512 1036.83 252.816C1040.16 255.184 1045.98 256.848 1054.3 257.808L1058.14 258.288V262.992C1058.14 268.56 1057.73 272.304 1056.9 274.224C1056.06 276.144 1054.4 277.104 1051.9 277.104C1049.47 277.104 1047.9 276.752 1047.2 276.048C1046.5 275.408 1046.24 274.64 1046.43 273.744C1046.62 272.912 1046.94 271.792 1047.39 270.384C1047.84 268.976 1048.06 267.856 1048.06 267.024C1048.06 265.04 1047.36 263.344 1045.95 261.936C1044.61 260.592 1042.94 259.92 1040.96 259.92C1039.04 259.92 1037.38 260.592 1035.97 261.936C1034.56 263.344 1033.86 265.04 1033.86 267.024C1033.86 270.288 1035.52 273.072 1038.85 275.376C1042.24 277.744 1047.26 278.928 1053.92 278.928C1060.64 278.928 1065.41 277.616 1068.22 274.992C1071.1 272.368 1072.54 267.728 1072.54 261.072V243.792C1072.54 240.4 1072.96 238.256 1073.79 237.36C1074.62 236.528 1076.16 236.368 1078.4 236.88V235.92ZM1045.18 244.848C1045.5 242.416 1046.4 240.528 1047.87 239.184C1049.34 237.904 1051.04 237.264 1052.96 237.264C1054.94 237.264 1056.67 238.224 1058.14 240.144V256.464L1054.69 255.984C1051.74 255.6 1049.34 254.48 1047.49 252.624C1045.7 250.768 1044.93 248.176 1045.18 244.848ZM1101.82 276.24V252.816C1101.82 247.312 1102.04 243.952 1102.49 242.736C1102.94 241.584 1103.42 240.592 1103.93 239.76C1104.89 238.096 1106.55 237.264 1108.92 237.264C1111.35 237.264 1113.05 237.584 1114.01 238.224V236.304C1110.94 234.128 1107.58 233.04 1103.93 233.04C1098.55 233.04 1094.46 234.32 1091.64 236.88C1088.82 239.44 1087.42 244.016 1087.42 250.608V276.24H1080.31V278.16H1087.42C1090.49 278.672 1093.21 280.144 1095.58 282.576C1097.94 285.072 1099.58 288.496 1100.47 292.848H1101.82V278.16H1112.95V276.24H1101.82Z" fill="url(#paint3_linear_0_1)" fill-opacity="0.71"/>
</g>
<g filter="url(#filter4_d_0_1)">
<path d="M662.763 375C662.763 372.148 661.957 369.792 660.345 367.932C658.733 365.948 656.625 364.956 654.021 364.956C651.541 364.956 648.937 366.01 646.209 368.118C643.605 370.226 640.505 372.396 636.909 374.628C633.437 376.736 629.221 377.79 624.261 377.79C607.397 377.79 594.315 373.45 585.015 364.77C575.839 356.09 571.251 342.76 571.251 324.78C571.251 287.208 588.797 268.422 623.889 268.422C630.213 268.422 636.661 269.972 643.233 273.072C649.929 276.172 654.021 277.722 655.509 277.722C656.997 277.722 658.237 276.978 659.229 275.49C660.221 273.878 660.717 272.328 660.717 270.84H664.251V308.598H660.531C660.531 299.174 656.811 290.742 649.371 283.302C642.055 275.862 633.561 272.142 623.889 272.142C616.449 272.142 610.807 276.172 606.963 284.232C603.119 292.168 601.197 305.374 601.197 323.85C601.197 342.202 603.119 355.16 606.963 362.724C610.931 370.288 616.697 374.07 624.261 374.07C636.165 374.07 642.117 363.468 642.117 342.264V328.5H630.399V324.78H675.039V328.5H666.297V375H662.763ZM723.473 371.28H732.773V375H686.273V371.28H695.573V254.1H686.273V250.38H723.473V371.28ZM836.061 371.28C834.821 372.52 832.465 373.636 828.993 374.628C825.521 375.496 821.491 375.93 816.903 375.93C806.735 375.93 800.349 372.892 797.745 366.816C791.545 373.264 782.059 376.488 769.287 376.488C762.467 376.488 756.825 374.938 752.361 371.838C748.021 368.614 745.851 363.902 745.851 357.702C745.851 349.394 749.075 343.008 755.523 338.544C761.971 333.956 773.255 330.732 789.375 328.872L796.815 327.942V318.828C796.815 308.04 796.009 300.786 794.397 297.066C792.785 293.346 789.561 291.486 784.725 291.486C780.013 291.486 776.975 292.168 775.611 293.532C774.247 294.772 773.751 296.26 774.123 297.996C774.495 299.608 775.115 301.778 775.983 304.506C776.851 307.234 777.285 309.404 777.285 311.016C777.285 314.86 775.921 318.146 773.193 320.874C770.589 323.478 767.365 324.78 763.521 324.78C759.801 324.78 756.577 323.478 753.849 320.874C751.121 318.146 749.757 314.86 749.757 311.016C749.757 304.692 752.981 299.298 759.429 294.834C766.001 290.246 775.735 287.952 788.631 287.952C801.651 287.952 810.889 290.494 816.345 295.578C821.925 300.662 824.715 309.652 824.715 322.548V356.028C824.715 362.6 825.521 366.754 827.133 368.49C828.745 370.102 831.721 370.412 836.061 369.42V371.28ZM771.705 353.982C772.325 358.694 774.061 362.352 776.913 364.956C779.765 367.436 783.051 368.676 786.771 368.676C790.615 368.676 793.963 366.816 796.815 363.096V331.476L790.119 332.406C784.415 333.15 779.765 335.32 776.169 338.916C772.697 342.512 771.209 347.534 771.705 353.982ZM944.857 371.28H954.157V375H907.657V371.28H916.957V319.2C916.957 310.396 915.655 304.134 913.051 300.414C910.447 296.694 906.541 294.834 901.333 294.834C894.265 294.834 888.623 298.554 884.407 305.994V371.28H893.707V375H847.207V371.28H856.507V293.16H847.207V289.44H884.407V299.112C886.763 295.888 890.421 293.16 895.381 290.928C900.465 288.572 905.921 287.394 911.749 287.394C933.821 287.394 944.857 299.36 944.857 323.292V371.28ZM965.229 332.22C965.229 317.588 969.507 306.49 978.063 298.926C986.619 291.362 997.469 287.58 1010.61 287.58C1023.88 287.58 1033.74 290.928 1040.19 297.624C1046.64 304.196 1048.93 311.016 1047.07 318.084C1046.08 321.928 1043.97 324.78 1040.75 326.64C1037.65 328.376 1034.24 328.81 1030.52 327.942C1022.7 326.082 1018.8 321.556 1018.8 314.364C1018.8 312.504 1018.98 309.714 1019.36 305.994C1019.85 302.15 1020.04 299.36 1019.91 297.624C1019.79 295.888 1019.42 294.524 1018.8 293.532C1017.56 291.424 1014.64 290.618 1010.06 291.114C998.895 292.85 993.315 306.552 993.315 332.22C993.315 357.764 1002.43 370.536 1020.66 370.536C1024.87 370.536 1029.15 369.42 1033.49 367.188C1037.83 364.956 1041.06 362.29 1043.16 359.19L1045.77 361.05C1042.92 365.762 1038.64 369.544 1032.93 372.396C1027.23 375.248 1020.84 376.674 1013.78 376.674C981.411 376.674 965.229 361.856 965.229 332.22ZM1142.85 337.8H1086.67C1087.91 359.624 1096.41 370.536 1112.16 370.536C1116.37 370.536 1121.15 369.544 1126.48 367.56C1131.93 365.576 1135.9 362.786 1138.38 359.19L1140.99 361.05C1138.26 365.638 1133.61 369.42 1127.04 372.396C1120.46 375.372 1113.89 376.86 1107.32 376.86C1100.87 376.86 1095.04 376.24 1089.84 375C1084.63 373.636 1079.54 371.404 1074.58 368.304C1069.62 365.204 1065.72 360.554 1062.87 354.354C1060.14 348.154 1058.77 340.652 1058.77 331.848C1058.77 316.844 1062.93 305.746 1071.24 298.554C1079.54 291.238 1089.59 287.58 1101.37 287.58C1113.27 287.58 1123.13 291.548 1130.94 299.484C1138.88 307.42 1142.85 320.192 1142.85 337.8ZM1086.49 334.08H1116.81C1116.81 322.672 1115.57 312.69 1113.09 304.134C1110.73 295.578 1106.89 291.3 1101.55 291.3C1096.22 291.3 1092.38 295.454 1090.02 303.762C1087.67 311.946 1086.49 321.37 1086.49 332.034V334.08Z" fill="url(#paint4_linear_0_1)"/>
<path d="M537.357 179.34H533.757C533.757 169.74 530.697 160.86 524.577 152.7C518.457 144.54 509.697 140.46 498.297 140.46C491.937 140.46 486.657 144.18 482.457 151.62C478.377 159.06 476.337 171.78 476.337 189.78C476.337 207.78 478.377 220.5 482.457 227.94C486.657 235.38 493.137 239.1 501.897 239.1C510.777 239.1 518.217 236.34 524.217 230.82C530.337 225.3 534.117 217.5 535.557 207.42H539.157C537.477 219.3 533.277 228.18 526.557 234.06C519.957 239.82 512.037 242.7 502.797 242.7C484.917 242.7 471.177 238.44 461.577 229.92C452.097 221.28 447.357 207.84 447.357 189.6C447.357 171.24 451.977 157.86 461.217 149.46C470.577 141.06 482.937 136.86 498.297 136.86C506.577 136.86 514.617 139.08 522.417 143.52C524.937 145.08 526.977 145.86 528.537 145.86C530.217 145.86 531.537 145.14 532.497 143.7C533.457 142.14 533.937 140.64 533.937 139.2H537.357V179.34ZM645.28 236.4H654.28V240H609.28V236.4H618.28V186C618.28 177.48 617.02 171.42 614.5 167.82C611.98 164.22 608.2 162.42 603.16 162.42C596.32 162.42 590.86 166.02 586.78 173.22V236.4H595.78V240H550.78V236.4H559.78V123H550.78V119.4H586.78V166.56C589.06 163.32 592.6 160.62 597.4 158.46C602.2 156.3 607.48 155.22 613.24 155.22C634.6 155.22 645.28 166.8 645.28 189.96V236.4ZM754.096 236.4C752.896 237.6 750.616 238.68 747.256 239.64C743.896 240.48 739.996 240.9 735.556 240.9C725.716 240.9 719.536 237.96 717.016 232.08C711.016 238.32 701.836 241.44 689.476 241.44C682.876 241.44 677.416 239.94 673.096 236.94C668.896 233.82 666.796 229.26 666.796 223.26C666.796 215.22 669.916 209.04 676.156 204.72C682.396 200.28 693.316 197.16 708.916 195.36L716.116 194.46V185.64C716.116 175.2 715.336 168.18 713.776 164.58C712.216 160.98 709.096 159.18 704.416 159.18C699.856 159.18 696.916 159.84 695.596 161.16C694.276 162.36 693.796 163.8 694.156 165.48C694.516 167.04 695.116 169.14 695.956 171.78C696.796 174.42 697.216 176.52 697.216 178.08C697.216 181.8 695.896 184.98 693.256 187.62C690.736 190.14 687.616 191.4 683.896 191.4C680.296 191.4 677.176 190.14 674.536 187.62C671.896 184.98 670.576 181.8 670.576 178.08C670.576 171.96 673.696 166.74 679.936 162.42C686.296 157.98 695.716 155.76 708.196 155.76C720.796 155.76 729.736 158.22 735.016 163.14C740.416 168.06 743.116 176.76 743.116 189.24V221.64C743.116 228 743.896 232.02 745.456 233.7C747.016 235.26 749.896 235.56 754.096 234.6V236.4ZM691.816 219.66C692.416 224.22 694.096 227.76 696.856 230.28C699.616 232.68 702.796 233.88 706.396 233.88C710.116 233.88 713.356 232.08 716.116 228.48V197.88L709.636 198.78C704.116 199.5 699.616 201.6 696.136 205.08C692.776 208.56 691.336 213.42 691.816 219.66ZM809.882 240H764.882V236.4H773.882V160.8H764.882V157.2H800.882V178.62C801.962 172.74 803.882 167.94 806.642 164.22C809.522 160.5 812.642 158.04 816.002 156.84C819.482 155.64 822.782 155.04 825.902 155.04C829.142 155.04 832.202 155.64 835.082 156.84C838.082 157.92 840.302 160.2 841.742 163.68C843.182 167.04 843.242 170.46 841.922 173.94C840.602 177.3 838.262 179.7 834.902 181.14C831.662 182.58 828.662 182.76 825.902 181.68C823.142 180.6 821.162 179.16 819.962 177.36C818.762 175.44 817.922 173.64 817.442 171.96C816.242 167.52 814.622 165.3 812.582 165.3C810.302 165.3 807.782 169.26 805.022 177.18C802.262 184.98 800.882 193.26 800.882 202.02V236.4H809.882V240ZM885.013 160.8V204.72C885.013 215.04 885.433 221.34 886.273 223.62C887.113 225.78 888.013 227.64 888.973 229.2C890.773 232.32 893.893 233.88 898.333 233.88C902.893 233.88 906.073 233.28 907.873 232.08V235.68C902.113 239.76 895.813 241.8 888.973 241.8C878.893 241.8 871.213 239.4 865.933 234.6C860.653 229.8 858.013 221.22 858.013 208.86V160.8H844.693V157.2H858.013C863.773 156.24 868.873 153.48 873.313 148.92C877.753 144.24 880.813 137.82 882.493 129.66H885.013V157.2H905.893V160.8H885.013Z" fill="url(#paint5_linear_0_1)"/>
<path d="M1057.19 226.08C1056.55 226.72 1055.34 227.296 1053.55 227.808C1051.75 228.256 1049.67 228.48 1047.31 228.48C1042.06 228.48 1038.76 226.912 1037.42 223.776C1034.22 227.104 1029.32 228.768 1022.73 228.768C1019.21 228.768 1016.3 227.968 1013.99 226.368C1011.75 224.704 1010.63 222.272 1010.63 219.072C1010.63 214.784 1012.3 211.488 1015.63 209.184C1018.95 206.816 1024.78 205.152 1033.1 204.192L1036.94 203.712V199.008C1036.94 193.44 1036.52 189.696 1035.69 187.776C1034.86 185.856 1033.19 184.896 1030.7 184.896C1028.27 184.896 1026.7 185.248 1025.99 185.952C1025.29 186.592 1025.03 187.36 1025.23 188.256C1025.42 189.088 1025.74 190.208 1026.19 191.616C1026.63 193.024 1026.86 194.144 1026.86 194.976C1026.86 196.96 1026.15 198.656 1024.75 200.064C1023.4 201.408 1021.74 202.08 1019.75 202.08C1017.83 202.08 1016.17 201.408 1014.76 200.064C1013.35 198.656 1012.65 196.96 1012.65 194.976C1012.65 191.712 1014.31 188.928 1017.64 186.624C1021.03 184.256 1026.06 183.072 1032.71 183.072C1039.43 183.072 1044.2 184.384 1047.02 187.008C1049.9 189.632 1051.34 194.272 1051.34 200.928V218.208C1051.34 221.6 1051.75 223.744 1052.59 224.64C1053.42 225.472 1054.95 225.632 1057.19 225.12V226.08ZM1023.98 217.152C1024.3 219.584 1025.19 221.472 1026.67 222.816C1028.14 224.096 1029.83 224.736 1031.75 224.736C1033.74 224.736 1035.47 223.776 1036.94 221.856V205.536L1033.48 206.016C1030.54 206.4 1028.14 207.52 1026.28 209.376C1024.49 211.232 1023.72 213.824 1023.98 217.152ZM1080.61 185.76V209.184C1080.61 214.688 1080.84 218.048 1081.28 219.264C1081.73 220.416 1082.21 221.408 1082.72 222.24C1083.68 223.904 1085.35 224.736 1087.72 224.736C1090.15 224.736 1091.84 224.416 1092.8 223.776V225.696C1089.73 227.872 1086.37 228.96 1082.72 228.96C1077.35 228.96 1073.25 227.68 1070.44 225.12C1067.62 222.56 1066.21 217.984 1066.21 211.392V185.76H1059.11V183.84H1066.21C1069.28 183.328 1072 181.856 1074.37 179.424C1076.74 176.928 1078.37 173.504 1079.27 169.152H1080.61V183.84H1091.75V185.76H1080.61Z" fill="url(#paint6_linear_0_1)"/>
<path d="M521.66 372.12C520.7 373.08 518.876 373.944 516.188 374.712C513.5 375.384 510.38 375.72 506.828 375.72C498.956 375.72 494.012 373.368 491.996 368.664C487.196 373.656 479.852 376.152 469.964 376.152C464.684 376.152 460.316 374.952 456.86 372.552C453.5 370.056 451.82 366.408 451.82 361.608C451.82 355.176 454.316 350.232 459.308 346.776C464.3 343.224 473.036 340.728 485.516 339.288L491.276 338.568V331.512C491.276 323.16 490.652 317.544 489.404 314.664C488.156 311.784 485.66 310.344 481.916 310.344C478.268 310.344 475.916 310.872 474.86 311.928C473.804 312.888 473.42 314.04 473.708 315.384C473.996 316.632 474.476 318.312 475.148 320.424C475.82 322.536 476.156 324.216 476.156 325.464C476.156 328.44 475.1 330.984 472.988 333.096C470.972 335.112 468.476 336.12 465.5 336.12C462.62 336.12 460.124 335.112 458.012 333.096C455.9 330.984 454.844 328.44 454.844 325.464C454.844 320.568 457.34 316.392 462.332 312.936C467.42 309.384 474.956 307.608 484.94 307.608C495.02 307.608 502.172 309.576 506.396 313.512C510.716 317.448 512.876 324.408 512.876 334.392V360.312C512.876 365.4 513.5 368.616 514.748 369.96C515.996 371.208 518.3 371.448 521.66 370.68V372.12ZM471.836 358.728C472.316 362.376 473.66 365.208 475.868 367.224C478.076 369.144 480.62 370.104 483.5 370.104C486.476 370.104 489.068 368.664 491.276 365.784V341.304L486.092 342.024C481.676 342.6 478.076 344.28 475.292 347.064C472.604 349.848 471.452 353.736 471.836 358.728Z" fill="url(#paint7_linear_0_1)"/>
</g>
<path d="M226 116.533C203.449 109.793 179.771 108.245 156.594 111.996C133.417 115.747 111.29 124.708 91.737 138.262C72.1834 151.816 55.6663 169.642 43.3213 190.515C30.9763 211.387 23.0964 234.81 20.2233 259.174C17.3503 283.538 19.5523 308.264 26.6779 331.652C33.8035 355.04 45.6838 376.535 61.5017 394.659C77.3195 412.784 96.6998 427.107 118.31 436.645C139.92 446.182 163.247 450.708 186.687 449.91L184.675 385.15C170.169 385.644 155.733 382.843 142.36 376.941C128.986 371.038 116.993 362.174 107.204 350.958C97.4146 339.741 90.0624 326.439 85.6526 311.965C81.2429 297.491 79.8802 282.189 81.6582 267.112C83.4362 252.034 88.3127 237.538 95.9525 224.621C103.592 211.704 113.814 200.673 125.915 192.284C138.016 183.896 151.709 178.351 166.052 176.03C180.395 173.708 195.049 174.666 209.005 178.837L226 116.533Z" fill="url(#paint8_linear_0_1)"/>
<path d="M76.04 343.135C61.8904 382.13 89.9502 423.57 131.411 424.91L458 435.465L2 450L161.353 110L89.547 305.911L76.04 343.135Z" fill="url(#paint9_linear_0_1)" stroke="white" stroke-width="2"/>
<g opacity="0.62" filter="url(#filter5_f_0_1)">
<path d="M186.832 437.584V400.916C186.832 392.126 179.706 385 170.916 385C162.126 385 155 392.126 155 400.916V437.584C155 446.374 162.126 453.5 170.916 453.5C179.706 453.5 186.832 446.374 186.832 437.584Z" fill="url(#paint10_linear_0_1)" stroke="white" stroke-width="2"/>
<rect x="1" y="-1" width="39.2328" height="139" rx="19.6164" transform="matrix(1 0 0 -1 368.767 452)" fill="url(#paint11_linear_0_1)" stroke="white" stroke-width="2"/>
<rect x="1" y="-1" width="19.145" height="53.5865" rx="9.57252" transform="matrix(1 0 0 -1 91 460.587)" fill="url(#paint12_linear_0_1)" stroke="white" stroke-width="2"/>
<rect x="1" y="-1" width="33.9466" height="82.0577" rx="16.9733" transform="matrix(1 0 0 -1 230 428.058)" fill="url(#paint13_linear_0_1)" stroke="white" stroke-width="2"/>
<rect x="1" y="-1" width="37.1183" height="101.038" rx="18.5592" transform="matrix(1 0 0 -1 296 405.038)" fill="url(#paint14_linear_0_1)" stroke="white" stroke-width="2"/>
</g>
<rect x="133" y="305.156" width="62.0462" height="98.6494" rx="22" fill="url(#paint15_linear_0_1)" stroke="white" stroke-width="2"/>
<rect x="352" y="126" width="62.0462" height="200.331" rx="22" fill="url(#paint16_linear_0_1)" stroke="white" stroke-width="2"/>
<rect x="60" y="355.481" width="62.0462" height="78.5195" rx="22" fill="url(#paint17_linear_0_1)" stroke="white" stroke-width="2"/>
<rect x="206" y="234.701" width="62.0462" height="118.779" rx="22" fill="url(#paint18_linear_0_1)" stroke="white" stroke-width="2"/>
<rect x="279" y="157.537" width="62.0462" height="145.619" rx="22" fill="url(#paint19_linear_0_1)" stroke="white" stroke-width="2"/>
<defs>
<filter id="filter0_f_0_1" x="573.964" y="357.015" width="641.546" height="166.315" filterUnits="userSpaceOnUse" color-interpolation-filters="sRGB">
<feFlood flood-opacity="0" result="BackgroundImageFix"/>
<feBlend mode="normal" in="SourceGraphic" in2="BackgroundImageFix" result="shape"/>
<feGaussianBlur stdDeviation="7.5" result="effect1_foregroundBlur_0_1"/>
</filter>
<filter id="filter1_f_0_1" x="475.397" y="223.015" width="539.126" height="166.315" filterUnits="userSpaceOnUse" color-interpolation-filters="sRGB">
<feFlood flood-opacity="0" result="BackgroundImageFix"/>
<feBlend mode="normal" in="SourceGraphic" in2="BackgroundImageFix" result="shape"/>
<feGaussianBlur stdDeviation="7.5" result="effect1_foregroundBlur_0_1"/>
</filter>
<filter id="filter2_f_0_1" x="461.184" y="363.232" width="76.56" height="75.696" filterUnits="userSpaceOnUse" color-interpolation-filters="sRGB">
<feFlood flood-opacity="0" result="BackgroundImageFix"/>
<feBlend mode="normal" in="SourceGraphic" in2="BackgroundImageFix" result="shape"/>
<feGaussianBlur stdDeviation="7.5" result="effect1_foregroundBlur_0_1"/>
</filter>
<filter id="filter3_f_0_1" x="1016.84" y="218.04" width="112.169" height="89.808" filterUnits="userSpaceOnUse" color-interpolation-filters="sRGB">
<feFlood flood-opacity="0" result="BackgroundImageFix"/>
<feBlend mode="normal" in="SourceGraphic" in2="BackgroundImageFix" result="shape"/>
<feGaussianBlur stdDeviation="7.5" result="effect1_foregroundBlur_0_1"/>
</filter>
<filter id="filter4_d_0_1" x="447.357" y="119.4" width="697.489" height="260.39" filterUnits="userSpaceOnUse" color-interpolation-filters="sRGB">
<feFlood flood-opacity="0" result="BackgroundImageFix"/>
<feColorMatrix in="SourceAlpha" type="matrix" values="0 0 0 0 0 0 0 0 0 0 0 0 0 0 0 0 0 0 127 0" result="hardAlpha"/>
<feOffset dx="2" dy="2"/>
<feComposite in2="hardAlpha" operator="out"/>
<feColorMatrix type="matrix" values="0 0 0 0 1 0 0 0 0 1 0 0 0 0 1 0 0 0 1 0"/>
<feBlend mode="normal" in2="BackgroundImageFix" result="effect1_dropShadow_0_1"/>
<feBlend mode="normal" in="SourceGraphic" in2="effect1_dropShadow_0_1" result="shape"/>
</filter>
<filter id="filter5_f_0_1" x="69" y="282" width="363" height="202.587" filterUnits="userSpaceOnUse" color-interpolation-filters="sRGB">
<feFlood flood-opacity="0" result="BackgroundImageFix"/>
<feBlend mode="normal" in="SourceGraphic" in2="BackgroundImageFix" result="shape"/>
<feGaussianBlur stdDeviation="11" result="effect1_foregroundBlur_0_1"/>
</filter>
<linearGradient id="paint0_linear_0_1" x1="895.744" y1="391" x2="895.744" y2="493" gradientUnits="userSpaceOnUse">
<stop stop-color="#5138B6" stop-opacity="0.73"/>
<stop offset="1" stop-color="#5037B4" stop-opacity="0.33"/>
</linearGradient>
<linearGradient id="paint1_linear_0_1" x1="743.852" y1="267.098" x2="743.852" y2="451.195" gradientUnits="userSpaceOnUse">
<stop stop-color="#5138B6" stop-opacity="0.73"/>
<stop offset="1" stop-color="#5037B4" stop-opacity="0.33"/>
</linearGradient>
<linearGradient id="paint2_linear_0_1" x1="498.852" y1="449.098" x2="498.852" y2="633.195" gradientUnits="userSpaceOnUse">
<stop stop-color="#5138B6" stop-opacity="0.73"/>
<stop offset="1" stop-color="#5037B4" stop-opacity="0.33"/>
</linearGradient>
<linearGradient id="paint3_linear_0_1" x1="1071.85" y1="304.098" x2="1071.85" y2="488.195" gradientUnits="userSpaceOnUse">
<stop stop-color="#5138B6" stop-opacity="0.73"/>
<stop offset="1" stop-color="#5037B4" stop-opacity="0.33"/>
</linearGradient>
<linearGradient id="paint4_linear_0_1" x1="860.769" y1="165.969" x2="860.769" y2="488.892" gradientUnits="userSpaceOnUse">
<stop stop-color="white" stop-opacity="0.71"/>
<stop offset="1" stop-color="#1B00FF" stop-opacity="0.34"/>
</linearGradient>
<linearGradient id="paint5_linear_0_1" x1="679.769" y1="32.9686" x2="679.769" y2="355.892" gradientUnits="userSpaceOnUse">
<stop stop-color="white" stop-opacity="0.71"/>
<stop offset="1" stop-color="#1B00FF" stop-opacity="0.34"/>
</linearGradient>
<linearGradient id="paint6_linear_0_1" x1="1053.77" y1="44.9686" x2="1053.77" y2="367.892" gradientUnits="userSpaceOnUse">
<stop stop-color="white" stop-opacity="0.71"/>
<stop offset="1" stop-color="#1B00FF" stop-opacity="0.34"/>
</linearGradient>
<linearGradient id="paint7_linear_0_1" x1="488.769" y1="177.969" x2="488.769" y2="500.892" gradientUnits="userSpaceOnUse">
<stop stop-color="white" stop-opacity="0.71"/>
<stop offset="1" stop-color="#1B00FF" stop-opacity="0.34"/>
</linearGradient>
<linearGradient id="paint8_linear_0_1" x1="221" y1="88" x2="212" y2="450" gradientUnits="userSpaceOnUse">
<stop stop-color="#FF0000"/>
<stop offset="1" stop-color="#0000FF" stop-opacity="0"/>
</linearGradient>
<linearGradient id="paint9_linear_0_1" x1="-4.8549" y1="455.629" x2="310.135" y2="174.045" gradientUnits="userSpaceOnUse">
<stop stop-color="#00810D"/>
<stop offset="1" stop-color="#0500FF"/>
</linearGradient>
<linearGradient id="paint10_linear_0_1" x1="187.089" y1="347.943" x2="168.591" y2="347.543" gradientUnits="userSpaceOnUse">
<stop stop-color="white" stop-opacity="0.69"/>
<stop offset="1" stop-color="#000AFF" stop-opacity="0.84"/>
</linearGradient>
<linearGradient id="paint11_linear_0_1" x1="40.3266" y1="142.615" x2="17.7765" y2="142.912" gradientUnits="userSpaceOnUse">
<stop stop-color="white" stop-opacity="0.69"/>
<stop offset="1" stop-color="#000AFF" stop-opacity="0.84"/>
</linearGradient>
<linearGradient id="paint12_linear_0_1" x1="20.6803" y1="56.223" x2="9.11754" y2="56.4213" gradientUnits="userSpaceOnUse">
<stop stop-color="white" stop-opacity="0.69"/>
<stop offset="1" stop-color="#000AFF" stop-opacity="0.84"/>
</linearGradient>
<linearGradient id="paint13_linear_0_1" x1="35.1565" y1="85.0202" x2="15.5013" y2="85.3992" gradientUnits="userSpaceOnUse">
<stop stop-color="white" stop-opacity="0.69"/>
<stop offset="1" stop-color="#000AFF" stop-opacity="0.84"/>
</linearGradient>
<linearGradient id="paint14_linear_0_1" x1="38.2586" y1="104.218" x2="16.8674" y2="104.584" gradientUnits="userSpaceOnUse">
<stop stop-color="white" stop-opacity="0.69"/>
<stop offset="1" stop-color="#000AFF" stop-opacity="0.84"/>
</linearGradient>
<linearGradient id="paint15_linear_0_1" x1="194.639" y1="405.958" x2="159.635" y2="406.962" gradientUnits="userSpaceOnUse">
<stop stop-color="white" stop-opacity="0.69"/>
<stop offset="1" stop-color="#000AFF" stop-opacity="0.84"/>
</linearGradient>
<linearGradient id="paint16_linear_0_1" x1="413.639" y1="329.648" x2="378.613" y2="330.148" gradientUnits="userSpaceOnUse">
<stop stop-color="white" stop-opacity="0.69"/>
<stop offset="1" stop-color="#000AFF" stop-opacity="0.84"/>
</linearGradient>
<linearGradient id="paint17_linear_0_1" x1="121.639" y1="435.922" x2="86.6508" y2="437.177" gradientUnits="userSpaceOnUse">
<stop stop-color="white" stop-opacity="0.69"/>
<stop offset="1" stop-color="#000AFF" stop-opacity="0.84"/>
</linearGradient>
<linearGradient id="paint18_linear_0_1" x1="267.639" y1="355.863" x2="232.626" y2="356.701" gradientUnits="userSpaceOnUse">
<stop stop-color="white" stop-opacity="0.69"/>
<stop offset="1" stop-color="#000AFF" stop-opacity="0.84"/>
</linearGradient>
<linearGradient id="paint19_linear_0_1" x1="340.639" y1="305.846" x2="305.619" y2="306.531" gradientUnits="userSpaceOnUse">
<stop stop-color="white" stop-opacity="0.69"/>
<stop offset="1" stop-color="#000AFF" stop-opacity="0.84"/>
</linearGradient>
</defs>
</svg>
