<svg width="1725" height="794" viewBox="0 0 1725 794" fill="none" xmlns="http://www.w3.org/2000/svg">
<g opacity="0.71">
<g filter="url(#filter0_f_0_1)">
<path d="M881.218 436.144C881.218 439.196 880.356 441.716 878.631 443.706C876.907 445.829 874.651 446.89 871.865 446.89C869.212 446.89 866.426 445.763 863.507 443.507C860.721 441.252 857.405 438.93 853.557 436.542C849.843 434.287 845.332 433.159 840.025 433.159C821.983 433.159 807.986 437.803 798.036 447.089C788.219 456.376 783.31 470.638 783.31 489.874C783.31 530.072 802.083 550.171 839.627 550.171C846.393 550.171 853.292 548.513 860.323 545.196C867.487 541.88 871.865 540.221 873.457 540.221C875.049 540.221 876.376 541.017 877.437 542.609C878.499 544.334 879.029 545.992 879.029 547.584H882.81V507.187H878.83C878.83 517.27 874.85 526.291 866.89 534.251C859.063 542.211 849.975 546.191 839.627 546.191C831.667 546.191 825.631 541.88 821.518 533.256C817.406 524.766 815.349 510.637 815.349 490.869C815.349 471.235 817.406 457.371 821.518 449.278C825.764 441.186 831.933 437.139 840.025 437.139C852.761 437.139 859.129 448.482 859.129 471.168V485.894H846.592V489.874H894.352V485.894H884.999V436.144H881.218ZM946.172 440.124H956.122V436.144H906.372V440.124H916.322V565.494H906.372V569.474H946.172V440.124ZM1066.63 440.124C1065.3 438.798 1062.78 437.604 1059.07 436.542C1055.35 435.614 1051.04 435.149 1046.13 435.149C1035.25 435.149 1028.42 438.4 1025.63 444.9C1019 438.002 1008.85 434.552 995.188 434.552C987.891 434.552 981.855 436.211 977.079 439.527C972.436 442.977 970.114 448.018 970.114 454.651C970.114 463.54 973.563 470.372 980.462 475.148C987.361 480.057 999.433 483.506 1016.68 485.496L1024.64 486.491V496.242C1024.64 507.784 1023.78 515.545 1022.05 519.525C1020.33 523.505 1016.88 525.495 1011.7 525.495C1006.66 525.495 1003.41 524.766 1001.95 523.306C1000.49 521.98 999.964 520.388 1000.36 518.53C1000.76 516.806 1001.42 514.484 1002.35 511.565C1003.28 508.647 1003.74 506.325 1003.74 504.6C1003.74 500.488 1002.29 496.972 999.367 494.053C996.581 491.267 993.132 489.874 989.019 489.874C985.039 489.874 981.59 491.267 978.671 494.053C975.752 496.972 974.293 500.488 974.293 504.6C974.293 511.366 977.742 517.137 984.641 521.913C991.672 526.822 1002.09 529.276 1015.88 529.276C1029.81 529.276 1039.7 526.557 1045.53 521.117C1051.5 515.678 1054.49 506.06 1054.49 492.262V456.442C1054.49 449.411 1055.35 444.967 1057.08 443.109C1058.8 441.385 1061.99 441.053 1066.63 442.114V440.124ZM997.775 458.631C998.438 453.59 1000.3 449.676 1003.35 446.89C1006.4 444.237 1009.91 442.91 1013.89 442.91C1018.01 442.91 1021.59 444.9 1024.64 448.88V482.71L1017.48 481.715C1011.37 480.919 1006.4 478.598 1002.55 474.75C998.836 470.903 997.244 465.53 997.775 458.631ZM1183.03 440.124H1192.98V436.144H1143.23V440.124H1153.18V495.844C1153.18 505.264 1151.79 511.963 1149 515.943C1146.21 519.923 1142.03 521.913 1136.46 521.913C1128.9 521.913 1122.86 517.933 1118.35 509.973V440.124H1128.3V436.144H1078.55V440.124H1088.5V523.704H1078.55V527.684H1118.35V517.336C1120.87 520.786 1124.79 523.704 1130.09 526.092C1135.53 528.613 1141.37 529.873 1147.61 529.873C1171.22 529.873 1183.03 517.071 1183.03 491.466V440.124ZM1204.83 481.914C1204.83 497.569 1209.4 509.443 1218.56 517.535C1227.71 525.628 1239.32 529.674 1253.38 529.674C1267.58 529.674 1278.12 526.092 1285.02 518.928C1291.92 511.897 1294.38 504.6 1292.39 497.038C1291.32 492.926 1289.07 489.874 1285.62 487.884C1282.3 486.027 1278.65 485.563 1274.67 486.491C1266.32 488.481 1262.14 493.324 1262.14 501.018C1262.14 503.008 1262.34 505.993 1262.73 509.973C1263.26 514.086 1263.46 517.071 1263.33 518.928C1263.2 520.786 1262.8 522.245 1262.14 523.306C1260.81 525.562 1257.69 526.424 1252.78 525.893C1240.84 524.036 1234.87 509.376 1234.87 481.914C1234.87 454.585 1244.63 440.92 1264.13 440.92C1268.64 440.92 1273.21 442.114 1277.86 444.502C1282.5 446.89 1285.95 449.743 1288.21 453.059L1290.99 451.069C1287.94 446.028 1283.36 441.982 1277.26 438.93C1271.16 435.879 1264.33 434.353 1256.76 434.353C1222.14 434.353 1204.83 450.207 1204.83 481.914ZM1394.86 475.944H1334.76C1336.08 452.595 1345.17 440.92 1362.02 440.92C1366.53 440.92 1371.64 441.982 1377.34 444.104C1383.18 446.227 1387.43 449.212 1390.08 453.059L1392.87 451.069C1389.95 446.161 1384.97 442.114 1377.94 438.93C1370.91 435.746 1363.88 434.154 1356.85 434.154C1349.95 434.154 1343.71 434.818 1338.14 436.144C1332.57 437.604 1327.13 439.992 1321.82 443.308C1316.52 446.625 1312.34 451.6 1309.29 458.233C1306.37 464.867 1304.91 472.893 1304.91 482.312C1304.91 498.365 1309.35 510.239 1318.24 517.933C1327.13 525.761 1337.88 529.674 1350.48 529.674C1363.22 529.674 1373.76 525.429 1382.12 516.938C1390.61 508.448 1394.86 494.783 1394.86 475.944ZM1334.56 479.924H1367C1367 492.13 1365.67 502.809 1363.02 511.963C1360.5 521.117 1356.38 525.694 1350.68 525.694C1344.97 525.694 1340.86 521.25 1338.34 512.361C1335.82 503.605 1334.56 493.523 1334.56 482.113V479.924Z" fill="url(#paint0_linear_0_1)" fill-opacity="0.51"/>
</g>
<g filter="url(#filter1_f_0_1)">
<path d="M761.6 346.524H757.62C757.62 357.138 754.237 366.955 747.471 375.976C740.705 384.998 731.02 389.508 718.417 389.508C711.386 389.508 705.548 385.396 700.905 377.17C696.394 368.945 694.139 354.882 694.139 334.982C694.139 315.082 696.394 301.02 700.905 292.794C705.548 284.569 712.712 280.456 722.397 280.456C732.214 280.456 740.44 283.508 747.073 289.61C753.839 295.713 758.018 304.336 759.61 315.48H763.59C761.733 302.346 757.089 292.529 749.66 286.028C742.363 279.66 733.607 276.476 723.392 276.476C703.625 276.476 688.434 281.186 677.821 290.605C667.34 300.157 662.1 315.016 662.1 335.181C662.1 355.479 667.208 370.272 677.423 379.558C687.771 388.845 701.436 393.488 718.417 393.488C727.571 393.488 736.46 391.034 745.083 386.125C747.869 384.401 750.124 383.538 751.849 383.538C753.706 383.538 755.166 384.334 756.227 385.926C757.288 387.651 757.819 389.309 757.819 390.901H761.6V346.524ZM880.914 283.441H890.864V279.461H841.114V283.441H851.064V339.161C851.064 348.581 849.671 355.28 846.885 359.26C844.099 363.24 839.92 365.23 834.348 365.23C826.786 365.23 820.75 361.25 816.239 353.29V283.441H826.189V279.461H776.439V283.441H786.389V408.811H776.439V412.791H816.239V360.653C818.76 364.235 822.674 367.22 827.98 369.608C833.287 371.996 839.124 373.19 845.492 373.19C869.107 373.19 880.914 360.388 880.914 334.783V283.441ZM1001.22 283.441C999.89 282.115 997.369 280.921 993.654 279.859C989.94 278.931 985.628 278.466 980.719 278.466C969.841 278.466 963.008 281.717 960.222 288.217C953.589 281.319 943.44 277.869 929.775 277.869C922.479 277.869 916.442 279.528 911.666 282.844C907.023 286.294 904.701 291.335 904.701 297.968C904.701 306.857 908.151 313.689 915.049 318.465C921.948 323.374 934.021 326.823 951.267 328.813L959.227 329.808V339.559C959.227 351.101 958.365 358.862 956.64 362.842C954.916 366.822 951.466 368.812 946.292 368.812C941.251 368.812 938.001 368.083 936.541 366.623C935.082 365.297 934.551 363.705 934.949 361.847C935.347 360.123 936.011 357.801 936.939 354.882C937.868 351.964 938.332 349.642 938.332 347.917C938.332 343.805 936.873 340.289 933.954 337.37C931.168 334.584 927.719 333.191 923.606 333.191C919.626 333.191 916.177 334.584 913.258 337.37C910.34 340.289 908.88 343.805 908.88 347.917C908.88 354.683 912.33 360.454 919.228 365.23C926.26 370.139 936.674 372.593 950.471 372.593C964.401 372.593 974.285 369.874 980.122 364.434C986.092 358.995 989.077 349.377 989.077 335.579V299.759C989.077 292.728 989.94 288.284 991.664 286.426C993.389 284.702 996.573 284.37 1001.22 285.431V283.441ZM932.362 301.948C933.026 296.907 934.883 292.993 937.934 290.207C940.986 287.554 944.501 286.227 948.481 286.227C952.594 286.227 956.176 288.217 959.227 292.197V326.027L952.063 325.032C945.961 324.236 940.986 321.915 937.138 318.067C933.424 314.22 931.832 308.847 932.362 301.948ZM1062.89 279.461H1013.14V283.441H1023.09V367.021H1013.14V371.001H1052.94V347.32C1054.13 353.821 1056.26 359.128 1059.31 363.24C1062.49 367.353 1065.94 370.073 1069.66 371.399C1073.5 372.726 1077.15 373.389 1080.6 373.389C1084.18 373.389 1087.57 372.726 1090.75 371.399C1094.07 370.205 1096.52 367.685 1098.11 363.837C1099.71 360.123 1099.77 356.342 1098.31 352.494C1096.85 348.78 1094.27 346.126 1090.55 344.534C1086.97 342.942 1083.65 342.743 1080.6 343.937C1077.55 345.131 1075.36 346.723 1074.03 348.713C1072.71 350.836 1071.78 352.826 1071.25 354.683C1069.92 359.592 1068.13 362.046 1065.88 362.046C1063.35 362.046 1060.57 357.668 1057.52 348.912C1054.47 340.289 1052.94 331.135 1052.94 321.45V283.441H1062.89V279.461ZM1145.95 367.021V318.465C1145.95 307.056 1146.42 300.091 1147.35 297.57C1148.27 295.182 1149.27 293.126 1150.33 291.401C1152.32 287.952 1155.77 286.227 1160.68 286.227C1165.72 286.227 1169.24 286.891 1171.23 288.217V284.237C1164.86 279.727 1157.89 277.471 1150.33 277.471C1139.19 277.471 1130.7 280.125 1124.86 285.431C1119.02 290.738 1116.1 300.224 1116.1 313.888V367.021H1101.38V371.001H1116.1C1122.47 372.063 1128.11 375.114 1133.02 380.155C1137.93 385.329 1141.31 392.427 1143.17 401.448H1145.95V371.001H1169.04V367.021H1145.95Z" fill="url(#paint1_linear_0_1)" fill-opacity="0.51"/>
</g>
<g filter="url(#filter2_f_0_1)">
<path d="M657.828 434.92C657.188 434.28 655.972 433.704 654.18 433.192C652.388 432.744 650.308 432.52 647.94 432.52C642.692 432.52 639.396 434.088 638.052 437.224C634.852 433.896 629.956 432.232 623.364 432.232C619.844 432.232 616.932 433.032 614.628 434.632C612.388 436.296 611.268 438.728 611.268 441.928C611.268 446.216 612.932 449.512 616.26 451.816C619.588 454.184 625.412 455.848 633.732 456.808L637.572 457.288V461.992C637.572 467.56 637.156 471.304 636.324 473.224C635.492 475.144 633.828 476.104 631.332 476.104C628.9 476.104 627.332 475.752 626.628 475.048C625.924 474.408 625.668 473.64 625.86 472.744C626.052 471.912 626.372 470.792 626.82 469.384C627.268 467.976 627.492 466.856 627.492 466.024C627.492 464.04 626.788 462.344 625.38 460.936C624.036 459.592 622.372 458.92 620.388 458.92C618.468 458.92 616.804 459.592 615.396 460.936C613.988 462.344 613.284 464.04 613.284 466.024C613.284 469.288 614.948 472.072 618.276 474.376C621.668 476.744 626.692 477.928 633.348 477.928C640.068 477.928 644.836 476.616 647.652 473.992C650.532 471.368 651.972 466.728 651.972 460.072V442.792C651.972 439.4 652.388 437.256 653.22 436.36C654.052 435.528 655.588 435.368 657.828 435.88V434.92ZM624.612 443.848C624.932 441.416 625.828 439.528 627.3 438.184C628.772 436.904 630.468 436.264 632.388 436.264C634.372 436.264 636.1 437.224 637.572 439.144V455.464L634.116 454.984C631.172 454.6 628.772 453.48 626.916 451.624C625.124 449.768 624.356 447.176 624.612 443.848Z" fill="url(#paint2_linear_0_1)"/>
</g>
<g filter="url(#filter3_f_0_1)">
<path d="M1299.13 277.54C1298.49 276.9 1297.27 276.324 1295.48 275.812C1293.69 275.364 1291.61 275.14 1289.24 275.14C1283.99 275.14 1280.7 276.708 1279.35 279.844C1276.15 276.516 1271.26 274.852 1264.66 274.852C1261.14 274.852 1258.23 275.652 1255.93 277.252C1253.69 278.916 1252.57 281.348 1252.57 284.548C1252.57 288.836 1254.23 292.132 1257.56 294.436C1260.89 296.804 1266.71 298.468 1275.03 299.428L1278.87 299.908V304.612C1278.87 310.18 1278.46 313.924 1277.62 315.844C1276.79 317.764 1275.13 318.724 1272.63 318.724C1270.2 318.724 1268.63 318.372 1267.93 317.668C1267.22 317.028 1266.97 316.26 1267.16 315.364C1267.35 314.532 1267.67 313.412 1268.12 312.004C1268.57 310.596 1268.79 309.476 1268.79 308.644C1268.79 306.66 1268.09 304.964 1266.68 303.556C1265.34 302.212 1263.67 301.54 1261.69 301.54C1259.77 301.54 1258.1 302.212 1256.7 303.556C1255.29 304.964 1254.58 306.66 1254.58 308.644C1254.58 311.908 1256.25 314.692 1259.58 316.996C1262.97 319.364 1267.99 320.548 1274.65 320.548C1281.37 320.548 1286.14 319.236 1288.95 316.612C1291.83 313.988 1293.27 309.348 1293.27 302.692V285.412C1293.27 282.02 1293.69 279.876 1294.52 278.98C1295.35 278.148 1296.89 277.988 1299.13 278.5V277.54ZM1265.91 286.468C1266.23 284.036 1267.13 282.148 1268.6 280.804C1270.07 279.524 1271.77 278.884 1273.69 278.884C1275.67 278.884 1277.4 279.844 1278.87 281.764V298.084L1275.42 297.604C1272.47 297.22 1270.07 296.1 1268.22 294.244C1266.42 292.388 1265.66 289.796 1265.91 286.468ZM1322.54 317.86V294.436C1322.54 288.932 1322.77 285.572 1323.22 284.356C1323.66 283.204 1324.14 282.212 1324.66 281.38C1325.62 279.716 1327.28 278.884 1329.65 278.884C1332.08 278.884 1333.78 279.204 1334.74 279.844V277.924C1331.66 275.748 1328.3 274.66 1324.66 274.66C1319.28 274.66 1315.18 275.94 1312.37 278.5C1309.55 281.06 1308.14 285.636 1308.14 292.228V317.86H1301.04V319.78H1308.14C1311.22 320.292 1313.94 321.764 1316.3 324.196C1318.67 326.692 1320.3 330.116 1321.2 334.468H1322.54V319.78H1333.68V317.86H1322.54Z" fill="url(#paint3_linear_0_1)" fill-opacity="0.71"/>
</g>
</g>
<g filter="url(#filter4_d_0_1)">
<path d="M820.218 438.494C820.218 435.642 819.412 433.286 817.8 431.426C816.188 429.442 814.08 428.45 811.476 428.45C808.996 428.45 806.392 429.504 803.664 431.612C801.06 433.72 797.96 435.89 794.364 438.122C790.892 440.23 786.676 441.284 781.716 441.284C764.852 441.284 751.77 436.944 742.47 428.264C733.294 419.584 728.706 406.254 728.706 388.274C728.706 350.702 746.252 331.916 781.344 331.916C787.668 331.916 794.116 333.466 800.688 336.566C807.384 339.666 811.476 341.216 812.964 341.216C814.452 341.216 815.692 340.472 816.684 338.984C817.676 337.372 818.172 335.822 818.172 334.334H821.706V372.092H817.986C817.986 362.668 814.266 354.236 806.826 346.796C799.51 339.356 791.016 335.636 781.344 335.636C773.904 335.636 768.262 339.666 764.418 347.726C760.574 355.662 758.652 368.868 758.652 387.344C758.652 405.696 760.574 418.654 764.418 426.218C768.386 433.782 774.152 437.564 781.716 437.564C793.62 437.564 799.572 426.962 799.572 405.758V391.994H787.854V388.274H832.494V391.994H823.752V438.494H820.218ZM880.928 434.774H890.228V438.494H843.728V434.774H853.028V317.594H843.728V313.874H880.928V434.774ZM993.516 434.774C992.276 436.014 989.92 437.13 986.448 438.122C982.976 438.99 978.946 439.424 974.358 439.424C964.19 439.424 957.804 436.386 955.2 430.31C949 436.758 939.514 439.982 926.742 439.982C919.922 439.982 914.28 438.432 909.816 435.332C905.476 432.108 903.306 427.396 903.306 421.196C903.306 412.888 906.53 406.502 912.978 402.038C919.426 397.45 930.71 394.226 946.83 392.366L954.27 391.436V382.322C954.27 371.534 953.464 364.28 951.852 360.56C950.24 356.84 947.016 354.98 942.18 354.98C937.468 354.98 934.43 355.662 933.066 357.026C931.702 358.266 931.206 359.754 931.578 361.49C931.95 363.102 932.57 365.272 933.438 368C934.306 370.728 934.74 372.898 934.74 374.51C934.74 378.354 933.376 381.64 930.648 384.368C928.044 386.972 924.82 388.274 920.976 388.274C917.256 388.274 914.032 386.972 911.304 384.368C908.576 381.64 907.212 378.354 907.212 374.51C907.212 368.186 910.436 362.792 916.884 358.328C923.456 353.74 933.19 351.446 946.086 351.446C959.106 351.446 968.344 353.988 973.8 359.072C979.38 364.156 982.17 373.146 982.17 386.042V419.522C982.17 426.094 982.976 430.248 984.588 431.984C986.2 433.596 989.176 433.906 993.516 432.914V434.774ZM929.16 417.476C929.78 422.188 931.516 425.846 934.368 428.45C937.22 430.93 940.506 432.17 944.226 432.17C948.07 432.17 951.418 430.31 954.27 426.59V394.97L947.574 395.9C941.87 396.644 937.22 398.814 933.624 402.41C930.152 406.006 928.664 411.028 929.16 417.476ZM1102.31 434.774H1111.61V438.494H1065.11V434.774H1074.41V382.694C1074.41 373.89 1073.11 367.628 1070.51 363.908C1067.9 360.188 1064 358.328 1058.79 358.328C1051.72 358.328 1046.08 362.048 1041.86 369.488V434.774H1051.16V438.494H1004.66V434.774H1013.96V356.654H1004.66V352.934H1041.86V362.606C1044.22 359.382 1047.88 356.654 1052.84 354.422C1057.92 352.066 1063.38 350.888 1069.2 350.888C1091.28 350.888 1102.31 362.854 1102.31 386.786V434.774ZM1122.68 395.714C1122.68 381.082 1126.96 369.984 1135.52 362.42C1144.07 354.856 1154.92 351.074 1168.07 351.074C1181.34 351.074 1191.19 354.422 1197.64 361.118C1204.09 367.69 1206.38 374.51 1204.52 381.578C1203.53 385.422 1201.42 388.274 1198.2 390.134C1195.1 391.87 1191.69 392.304 1187.97 391.436C1180.16 389.576 1176.25 385.05 1176.25 377.858C1176.25 375.998 1176.44 373.208 1176.81 369.488C1177.31 365.644 1177.49 362.854 1177.37 361.118C1177.24 359.382 1176.87 358.018 1176.25 357.026C1175.01 354.918 1172.1 354.112 1167.51 354.608C1156.35 356.344 1150.77 370.046 1150.77 395.714C1150.77 421.258 1159.88 434.03 1178.11 434.03C1182.33 434.03 1186.61 432.914 1190.95 430.682C1195.29 428.45 1198.51 425.784 1200.62 422.684L1203.22 424.544C1200.37 429.256 1196.09 433.038 1190.39 435.89C1184.68 438.742 1178.3 440.168 1171.23 440.168C1138.87 440.168 1122.68 425.35 1122.68 395.714ZM1300.3 401.294H1244.13C1245.37 423.118 1253.86 434.03 1269.61 434.03C1273.83 434.03 1278.6 433.038 1283.93 431.054C1289.39 429.07 1293.36 426.28 1295.84 422.684L1298.44 424.544C1295.71 429.132 1291.06 432.914 1284.49 435.89C1277.92 438.866 1271.35 440.354 1264.77 440.354C1258.33 440.354 1252.5 439.734 1247.29 438.494C1242.08 437.13 1237 434.898 1232.04 431.798C1227.08 428.698 1223.17 424.048 1220.32 417.848C1217.59 411.648 1216.23 404.146 1216.23 395.342C1216.23 380.338 1220.38 369.24 1228.69 362.048C1237 354.732 1247.04 351.074 1258.82 351.074C1270.73 351.074 1280.58 355.042 1288.4 362.978C1296.33 370.914 1300.3 383.686 1300.3 401.294ZM1243.94 397.574H1274.26C1274.26 386.166 1273.02 376.184 1270.54 367.628C1268.18 359.072 1264.34 354.794 1259.01 354.794C1253.68 354.794 1249.83 358.948 1247.48 367.256C1245.12 375.44 1243.94 384.864 1243.94 395.528V397.574Z" fill="url(#paint4_linear_0_1)"/>
<path d="M674.289 216.34H670.689C670.689 206.74 667.629 197.86 661.509 189.7C655.389 181.54 646.629 177.46 635.229 177.46C628.869 177.46 623.589 181.18 619.389 188.62C615.309 196.06 613.269 208.78 613.269 226.78C613.269 244.78 615.309 257.5 619.389 264.94C623.589 272.38 630.069 276.1 638.829 276.1C647.709 276.1 655.149 273.34 661.149 267.82C667.269 262.3 671.049 254.5 672.489 244.42H676.089C674.409 256.3 670.209 265.18 663.489 271.06C656.889 276.82 648.969 279.7 639.729 279.7C621.849 279.7 608.109 275.44 598.509 266.92C589.029 258.28 584.289 244.84 584.289 226.6C584.289 208.24 588.909 194.86 598.149 186.46C607.509 178.06 619.869 173.86 635.229 173.86C643.509 173.86 651.549 176.08 659.349 180.52C661.869 182.08 663.909 182.86 665.469 182.86C667.149 182.86 668.469 182.14 669.429 180.7C670.389 179.14 670.869 177.64 670.869 176.2H674.289V216.34ZM782.212 273.4H791.212V277H746.212V273.4H755.212V223C755.212 214.48 753.952 208.42 751.432 204.82C748.912 201.22 745.132 199.42 740.092 199.42C733.252 199.42 727.792 203.02 723.712 210.22V273.4H732.712V277H687.712V273.4H696.712V160H687.712V156.4H723.712V203.56C725.992 200.32 729.532 197.62 734.332 195.46C739.132 193.3 744.412 192.22 750.172 192.22C771.532 192.22 782.212 203.8 782.212 226.96V273.4ZM891.028 273.4C889.828 274.6 887.548 275.68 884.188 276.64C880.828 277.48 876.928 277.9 872.488 277.9C862.648 277.9 856.468 274.96 853.948 269.08C847.948 275.32 838.768 278.44 826.408 278.44C819.808 278.44 814.348 276.94 810.028 273.94C805.828 270.82 803.728 266.26 803.728 260.26C803.728 252.22 806.848 246.04 813.088 241.72C819.328 237.28 830.248 234.16 845.848 232.36L853.048 231.46V222.64C853.048 212.2 852.268 205.18 850.708 201.58C849.148 197.98 846.028 196.18 841.348 196.18C836.788 196.18 833.848 196.84 832.528 198.16C831.208 199.36 830.728 200.8 831.088 202.48C831.448 204.04 832.048 206.14 832.888 208.78C833.728 211.42 834.148 213.52 834.148 215.08C834.148 218.8 832.828 221.98 830.188 224.62C827.668 227.14 824.548 228.4 820.828 228.4C817.228 228.4 814.108 227.14 811.468 224.62C808.828 221.98 807.508 218.8 807.508 215.08C807.508 208.96 810.628 203.74 816.868 199.42C823.228 194.98 832.648 192.76 845.128 192.76C857.728 192.76 866.668 195.22 871.948 200.14C877.348 205.06 880.048 213.76 880.048 226.24V258.64C880.048 265 880.828 269.02 882.388 270.7C883.948 272.26 886.828 272.56 891.028 271.6V273.4ZM828.748 256.66C829.348 261.22 831.028 264.76 833.788 267.28C836.548 269.68 839.728 270.88 843.328 270.88C847.048 270.88 850.288 269.08 853.048 265.48V234.88L846.568 235.78C841.048 236.5 836.548 238.6 833.068 242.08C829.708 245.56 828.268 250.42 828.748 256.66ZM946.814 277H901.814V273.4H910.814V197.8H901.814V194.2H937.814V215.62C938.894 209.74 940.814 204.94 943.574 201.22C946.454 197.5 949.574 195.04 952.934 193.84C956.414 192.64 959.714 192.04 962.834 192.04C966.074 192.04 969.134 192.64 972.014 193.84C975.014 194.92 977.234 197.2 978.674 200.68C980.114 204.04 980.174 207.46 978.854 210.94C977.534 214.3 975.194 216.7 971.834 218.14C968.594 219.58 965.594 219.76 962.834 218.68C960.074 217.6 958.094 216.16 956.894 214.36C955.694 212.44 954.854 210.64 954.374 208.96C953.174 204.52 951.554 202.3 949.514 202.3C947.234 202.3 944.714 206.26 941.954 214.18C939.194 221.98 937.814 230.26 937.814 239.02V273.4H946.814V277ZM1021.95 197.8V241.72C1021.95 252.04 1022.37 258.34 1023.21 260.62C1024.05 262.78 1024.95 264.64 1025.91 266.2C1027.71 269.32 1030.83 270.88 1035.27 270.88C1039.83 270.88 1043.01 270.28 1044.81 269.08V272.68C1039.05 276.76 1032.75 278.8 1025.91 278.8C1015.83 278.8 1008.15 276.4 1002.87 271.6C997.585 266.8 994.945 258.22 994.945 245.86V197.8H981.625V194.2H994.945C1000.71 193.24 1005.81 190.48 1010.25 185.92C1014.69 181.24 1017.75 174.82 1019.43 166.66H1021.95V194.2H1042.83V197.8H1021.95Z" fill="url(#paint5_linear_0_1)"/>
<path d="M1236.53 265.471C1235.89 266.111 1234.68 266.687 1232.88 267.199C1231.09 267.647 1229.01 267.871 1226.64 267.871C1221.4 267.871 1218.1 266.303 1216.76 263.167C1213.56 266.495 1208.66 268.159 1202.07 268.159C1198.55 268.159 1195.64 267.359 1193.33 265.759C1191.09 264.095 1189.97 261.663 1189.97 258.463C1189.97 254.175 1191.64 250.879 1194.96 248.575C1198.29 246.207 1204.12 244.543 1212.44 243.583L1216.28 243.103V238.399C1216.28 232.831 1215.86 229.087 1215.03 227.167C1214.2 225.247 1212.53 224.286 1210.04 224.286C1207.6 224.286 1206.04 224.639 1205.33 225.343C1204.63 225.983 1204.37 226.75 1204.56 227.646C1204.76 228.479 1205.08 229.599 1205.52 231.007C1205.97 232.415 1206.2 233.535 1206.2 234.367C1206.2 236.351 1205.49 238.047 1204.08 239.455C1202.74 240.799 1201.08 241.471 1199.09 241.471C1197.17 241.471 1195.51 240.799 1194.1 239.455C1192.69 238.047 1191.99 236.351 1191.99 234.367C1191.99 231.103 1193.65 228.319 1196.98 226.015C1200.37 223.647 1205.4 222.463 1212.05 222.463C1218.77 222.463 1223.54 223.775 1226.36 226.399C1229.24 229.023 1230.68 233.663 1230.68 240.319V257.599C1230.68 260.991 1231.09 263.135 1231.92 264.031C1232.76 264.863 1234.29 265.023 1236.53 264.511V265.471ZM1203.32 256.543C1203.64 258.975 1204.53 260.863 1206 262.207C1207.48 263.487 1209.17 264.127 1211.09 264.127C1213.08 264.127 1214.8 263.167 1216.28 261.247V244.927L1212.82 245.407C1209.88 245.791 1207.48 246.911 1205.62 248.767C1203.83 250.623 1203.06 253.215 1203.32 256.543ZM1259.95 225.151V248.575C1259.95 254.079 1260.17 257.439 1260.62 258.655C1261.07 259.807 1261.55 260.799 1262.06 261.631C1263.02 263.295 1264.69 264.127 1267.05 264.127C1269.49 264.127 1271.18 263.807 1272.14 263.167V265.087C1269.07 267.263 1265.71 268.351 1262.06 268.351C1256.69 268.351 1252.59 267.071 1249.77 264.511C1246.96 261.951 1245.55 257.375 1245.55 250.783V225.151H1238.45V223.231H1245.55C1248.62 222.719 1251.34 221.247 1253.71 218.814C1256.08 216.319 1257.71 212.895 1258.61 208.542H1259.95V223.231H1271.09V225.151H1259.95Z" fill="url(#paint6_linear_0_1)"/>
<path d="M636.936 438.004C635.976 438.964 634.152 439.828 631.464 440.596C628.776 441.268 625.656 441.604 622.104 441.604C614.232 441.604 609.288 439.252 607.272 434.548C602.472 439.54 595.128 442.036 585.24 442.036C579.96 442.036 575.592 440.836 572.136 438.436C568.776 435.94 567.096 432.292 567.096 427.492C567.096 421.06 569.592 416.116 574.584 412.66C579.576 409.108 588.312 406.612 600.792 405.172L606.552 404.452V397.396C606.552 389.044 605.928 383.428 604.68 380.548C603.432 377.668 600.936 376.228 597.192 376.228C593.544 376.228 591.192 376.756 590.136 377.812C589.08 378.772 588.696 379.924 588.984 381.268C589.272 382.516 589.752 384.196 590.424 386.308C591.096 388.42 591.432 390.1 591.432 391.348C591.432 394.324 590.376 396.868 588.264 398.98C586.248 400.996 583.752 402.004 580.776 402.004C577.896 402.004 575.4 400.996 573.288 398.98C571.176 396.868 570.12 394.324 570.12 391.348C570.12 386.452 572.616 382.276 577.608 378.82C582.696 375.268 590.232 373.492 600.216 373.492C610.296 373.492 617.448 375.46 621.672 379.396C625.992 383.332 628.152 390.292 628.152 400.276V426.196C628.152 431.284 628.776 434.5 630.024 435.844C631.272 437.092 633.576 437.332 636.936 436.564V438.004ZM587.112 424.612C587.592 428.26 588.936 431.092 591.144 433.108C593.352 435.028 595.896 435.988 598.776 435.988C601.752 435.988 604.344 434.548 606.552 431.668V407.188L601.368 407.908C596.952 408.484 593.352 410.164 590.568 412.948C587.88 415.732 586.728 419.62 587.112 424.612Z" fill="url(#paint7_linear_0_1)"/>
</g>
<path d="M260 81.6274C233.963 72.7267 206.624 70.6827 179.864 75.6362C153.104 80.5897 127.558 92.423 104.981 110.323C82.405 128.222 63.3345 151.763 49.0811 179.327C34.8277 206.891 25.7296 237.823 22.4124 269.998C19.0952 302.172 21.6376 334.825 29.8648 365.711C38.092 396.597 51.8088 424.983 70.072 448.918C88.3351 472.853 110.711 491.768 135.662 504.363C160.613 516.959 187.546 522.935 214.61 521.881L212.287 436.36C195.539 437.012 178.871 433.314 163.43 425.519C147.989 417.724 134.141 406.018 122.839 391.206C111.537 376.394 103.048 358.827 97.9564 339.713C92.865 320.599 91.2916 300.391 93.3444 280.48C95.3973 260.569 101.028 241.426 109.849 224.368C118.669 207.31 130.471 192.741 144.443 181.664C158.414 170.587 174.224 163.263 190.785 160.198C207.345 157.132 224.264 158.397 240.377 163.906L260 81.6274Z" fill="url(#paint8_linear_0_1)"/>
<path d="M78.2242 408.926C66.095 447.341 93.8732 486.755 134.129 488.25L526 502.805L2 522L185.116 73L102.602 331.717L78.2242 408.926Z" fill="url(#paint9_linear_0_1)" stroke="white" stroke-width="2"/>
<g opacity="0.32" filter="url(#filter5_f_0_1)">
<path d="M214.705 507.905V454.032C214.705 443.841 206.444 435.579 196.252 435.579C186.061 435.579 177.799 443.841 177.799 454.032V507.905C177.799 518.096 186.061 526.358 196.252 526.358C206.444 526.358 214.705 518.096 214.705 507.905Z" fill="url(#paint10_linear_0_1)" stroke="white" stroke-width="2"/>
<rect x="1" y="-1" width="45.4174" height="183.558" rx="22" transform="matrix(1 0 0 -1 423.779 524.7)" fill="url(#paint11_linear_0_1)" stroke="white" stroke-width="2"/>
<rect x="1" y="-1" width="22.3166" height="71.1526" rx="11.1583" transform="matrix(1 0 0 -1 104.349 536)" fill="url(#paint12_linear_0_1)" stroke="white" stroke-width="2"/>
<rect x="1" y="-1" width="39.3383" height="108.621" rx="19.6691" transform="matrix(1 0 0 -1 264.198 493.192)" fill="url(#paint13_linear_0_1)" stroke="white" stroke-width="2"/>
<rect x="1" y="-1" width="42.9858" height="133.6" rx="21.4929" transform="matrix(1 0 0 -1 340.098 462.898)" fill="url(#paint14_linear_0_1)" stroke="white" stroke-width="2"/>
</g>
<rect x="146.532" y="343.221" width="70.4141" height="122.31" rx="22" fill="url(#paint15_linear_0_1)" stroke="white" stroke-width="2"/>
<rect x="394.146" y="121.95" width="70.4141" height="247.895" rx="22" fill="url(#paint16_linear_0_1)" stroke="white" stroke-width="2"/>
<rect x="63.9948" y="405.376" width="70.4141" height="97.4478" rx="22" fill="url(#paint17_linear_0_1)" stroke="white" stroke-width="2"/>
<rect x="229.07" y="256.204" width="70.4141" height="147.172" rx="22" fill="url(#paint18_linear_0_1)" stroke="white" stroke-width="2"/>
<rect x="311.608" y="160.9" width="70.4141" height="180.321" rx="22" fill="url(#paint19_linear_0_1)" stroke="white" stroke-width="2"/>
<defs>
<filter id="filter0_f_0_1" x="768.31" y="418.159" width="641.546" height="166.315" filterUnits="userSpaceOnUse" color-interpolation-filters="sRGB">
<feFlood flood-opacity="0" result="BackgroundImageFix"/>
<feBlend mode="normal" in="SourceGraphic" in2="BackgroundImageFix" result="shape"/>
<feGaussianBlur stdDeviation="7.5" result="effect1_foregroundBlur_0_1"/>
</filter>
<filter id="filter1_f_0_1" x="647.1" y="261.476" width="539.126" height="166.315" filterUnits="userSpaceOnUse" color-interpolation-filters="sRGB">
<feFlood flood-opacity="0" result="BackgroundImageFix"/>
<feBlend mode="normal" in="SourceGraphic" in2="BackgroundImageFix" result="shape"/>
<feGaussianBlur stdDeviation="7.5" result="effect1_foregroundBlur_0_1"/>
</filter>
<filter id="filter2_f_0_1" x="596.268" y="417.232" width="76.56" height="75.696" filterUnits="userSpaceOnUse" color-interpolation-filters="sRGB">
<feFlood flood-opacity="0" result="BackgroundImageFix"/>
<feBlend mode="normal" in="SourceGraphic" in2="BackgroundImageFix" result="shape"/>
<feGaussianBlur stdDeviation="7.5" result="effect1_foregroundBlur_0_1"/>
</filter>
<filter id="filter3_f_0_1" x="1237.57" y="259.66" width="112.169" height="89.808" filterUnits="userSpaceOnUse" color-interpolation-filters="sRGB">
<feFlood flood-opacity="0" result="BackgroundImageFix"/>
<feBlend mode="normal" in="SourceGraphic" in2="BackgroundImageFix" result="shape"/>
<feGaussianBlur stdDeviation="7.5" result="effect1_foregroundBlur_0_1"/>
</filter>
<filter id="filter4_d_0_1" x="567.096" y="156.4" width="735.205" height="287.636" filterUnits="userSpaceOnUse" color-interpolation-filters="sRGB">
<feFlood flood-opacity="0" result="BackgroundImageFix"/>
<feColorMatrix in="SourceAlpha" type="matrix" values="0 0 0 0 0 0 0 0 0 0 0 0 0 0 0 0 0 0 127 0" result="hardAlpha"/>
<feOffset dx="2" dy="2"/>
<feComposite in2="hardAlpha" operator="out"/>
<feColorMatrix type="matrix" values="0 0 0 0 1 0 0 0 0 1 0 0 0 0 1 0 0 0 1 0"/>
<feBlend mode="normal" in2="BackgroundImageFix" result="effect1_dropShadow_0_1"/>
<feBlend mode="normal" in="SourceGraphic" in2="effect1_dropShadow_0_1" result="shape"/>
</filter>
<filter id="filter5_f_0_1" x="82.3493" y="307.298" width="410.848" height="252.702" filterUnits="userSpaceOnUse" color-interpolation-filters="sRGB">
<feFlood flood-opacity="0" result="BackgroundImageFix"/>
<feBlend mode="normal" in="SourceGraphic" in2="BackgroundImageFix" result="shape"/>
<feGaussianBlur stdDeviation="11" result="effect1_foregroundBlur_0_1"/>
</filter>
<linearGradient id="paint0_linear_0_1" x1="1090.2" y1="448.85" x2="1090.2" y2="559.559" gradientUnits="userSpaceOnUse">
<stop stop-color="#5138B6" stop-opacity="0.73"/>
<stop offset="1" stop-color="#5037B4" stop-opacity="0.33"/>
</linearGradient>
<linearGradient id="paint1_linear_0_1" x1="915.608" y1="314.369" x2="915.608" y2="514.185" gradientUnits="userSpaceOnUse">
<stop stop-color="#5138B6" stop-opacity="0.73"/>
<stop offset="1" stop-color="#5037B4" stop-opacity="0.33"/>
</linearGradient>
<linearGradient id="paint2_linear_0_1" x1="633.989" y1="511.908" x2="633.989" y2="711.723" gradientUnits="userSpaceOnUse">
<stop stop-color="#5138B6" stop-opacity="0.73"/>
<stop offset="1" stop-color="#5037B4" stop-opacity="0.33"/>
</linearGradient>
<linearGradient id="paint3_linear_0_1" x1="1292.63" y1="354.528" x2="1292.63" y2="554.343" gradientUnits="userSpaceOnUse">
<stop stop-color="#5138B6" stop-opacity="0.73"/>
<stop offset="1" stop-color="#5037B4" stop-opacity="0.33"/>
</linearGradient>
<linearGradient id="paint4_linear_0_1" x1="1018.62" y1="199.03" x2="1018.62" y2="586.28" gradientUnits="userSpaceOnUse">
<stop stop-color="white" stop-opacity="0.71"/>
<stop offset="1" stop-color="#1B00FF" stop-opacity="0.34"/>
</linearGradient>
<linearGradient id="paint5_linear_0_1" x1="817.096" y1="39.536" x2="817.095" y2="426.786" gradientUnits="userSpaceOnUse">
<stop stop-color="white" stop-opacity="0.71"/>
<stop offset="1" stop-color="#1B00FF" stop-opacity="0.34"/>
</linearGradient>
<linearGradient id="paint6_linear_0_1" x1="1233.5" y1="53.9265" x2="1233.5" y2="441.177" gradientUnits="userSpaceOnUse">
<stop stop-color="white" stop-opacity="0.71"/>
<stop offset="1" stop-color="#1B00FF" stop-opacity="0.34"/>
</linearGradient>
<linearGradient id="paint7_linear_0_1" x1="604.439" y1="213.42" x2="604.439" y2="600.67" gradientUnits="userSpaceOnUse">
<stop stop-color="white" stop-opacity="0.71"/>
<stop offset="1" stop-color="#1B00FF" stop-opacity="0.34"/>
</linearGradient>
<linearGradient id="paint8_linear_0_1" x1="254.227" y1="43.9471" x2="240.636" y2="521.909" gradientUnits="userSpaceOnUse">
<stop stop-color="#FF0000"/>
<stop offset="1" stop-color="#0000FF" stop-opacity="0"/>
</linearGradient>
<linearGradient id="paint9_linear_0_1" x1="-5.87713" y1="529.434" x2="399.844" y2="213.833" gradientUnits="userSpaceOnUse">
<stop stop-color="#00810D"/>
<stop offset="1" stop-color="#0500FF"/>
</linearGradient>
<linearGradient id="paint10_linear_0_1" x1="214.85" y1="387.127" x2="193.576" y2="386.725" gradientUnits="userSpaceOnUse">
<stop stop-color="white" stop-opacity="0.69"/>
<stop offset="1" stop-color="#000AFF" stop-opacity="0.84"/>
</linearGradient>
<linearGradient id="paint11_linear_0_1" x1="46.3753" y1="187.683" x2="20.4418" y2="187.981" gradientUnits="userSpaceOnUse">
<stop stop-color="white" stop-opacity="0.69"/>
<stop offset="1" stop-color="#000AFF" stop-opacity="0.84"/>
</linearGradient>
<linearGradient id="paint12_linear_0_1" x1="23.7822" y1="73.9902" x2="10.4842" y2="74.1895" gradientUnits="userSpaceOnUse">
<stop stop-color="white" stop-opacity="0.69"/>
<stop offset="1" stop-color="#000AFF" stop-opacity="0.84"/>
</linearGradient>
<linearGradient id="paint13_linear_0_1" x1="40.4297" y1="111.888" x2="17.8244" y2="112.269" gradientUnits="userSpaceOnUse">
<stop stop-color="white" stop-opacity="0.69"/>
<stop offset="1" stop-color="#000AFF" stop-opacity="0.84"/>
</linearGradient>
<linearGradient id="paint14_linear_0_1" x1="43.9971" y1="137.153" x2="19.3957" y2="137.521" gradientUnits="userSpaceOnUse">
<stop stop-color="white" stop-opacity="0.69"/>
<stop offset="1" stop-color="#000AFF" stop-opacity="0.84"/>
</linearGradient>
<linearGradient id="paint15_linear_0_1" x1="216.355" y1="467.954" x2="176.772" y2="468.994" gradientUnits="userSpaceOnUse">
<stop stop-color="white" stop-opacity="0.69"/>
<stop offset="1" stop-color="#000AFF" stop-opacity="0.84"/>
</linearGradient>
<linearGradient id="paint16_linear_0_1" x1="463.968" y1="373.706" x2="424.365" y2="374.223" gradientUnits="userSpaceOnUse">
<stop stop-color="white" stop-opacity="0.69"/>
<stop offset="1" stop-color="#000AFF" stop-opacity="0.84"/>
</linearGradient>
<linearGradient id="paint17_linear_0_1" x1="133.817" y1="504.963" x2="94.2501" y2="506.262" gradientUnits="userSpaceOnUse">
<stop stop-color="white" stop-opacity="0.69"/>
<stop offset="1" stop-color="#000AFF" stop-opacity="0.84"/>
</linearGradient>
<linearGradient id="paint18_linear_0_1" x1="298.893" y1="406.084" x2="259.302" y2="406.951" gradientUnits="userSpaceOnUse">
<stop stop-color="white" stop-opacity="0.69"/>
<stop offset="1" stop-color="#000AFF" stop-opacity="0.84"/>
</linearGradient>
<linearGradient id="paint19_linear_0_1" x1="381.431" y1="344.309" x2="341.833" y2="345.018" gradientUnits="userSpaceOnUse">
<stop stop-color="white" stop-opacity="0.69"/>
<stop offset="1" stop-color="#000AFF" stop-opacity="0.84"/>
</linearGradient>
</defs>
</svg>
